G75*
%MOIN*%
%OFA0B0*%
%FSLAX25Y25*%
%IPPOS*%
%LPD*%
%AMOC8*
5,1,8,0,0,1.08239X$1,22.5*
%
%ADD10C,0.00000*%
%ADD11C,0.07400*%
%ADD12R,0.07400X0.07400*%
%ADD13OC8,0.07400*%
%ADD14C,0.03200*%
%ADD15C,0.03762*%
%ADD16C,0.03369*%
%ADD17C,0.01000*%
%ADD18OC8,0.03200*%
%ADD19OC8,0.03000*%
%ADD20C,0.03000*%
%ADD21C,0.03200*%
D10*
X0001900Y0003250D02*
X0001900Y0103211D01*
X0193101Y0103211D01*
X0193101Y0003250D01*
X0001900Y0003250D01*
X0100600Y0083250D02*
X0100602Y0083408D01*
X0100608Y0083567D01*
X0100618Y0083725D01*
X0100632Y0083882D01*
X0100650Y0084040D01*
X0100671Y0084196D01*
X0100697Y0084353D01*
X0100727Y0084508D01*
X0100760Y0084663D01*
X0100798Y0084817D01*
X0100839Y0084970D01*
X0100884Y0085121D01*
X0100933Y0085272D01*
X0100986Y0085421D01*
X0101042Y0085569D01*
X0101103Y0085716D01*
X0101166Y0085861D01*
X0101234Y0086004D01*
X0101305Y0086145D01*
X0101379Y0086285D01*
X0101457Y0086423D01*
X0101539Y0086559D01*
X0101624Y0086692D01*
X0101712Y0086824D01*
X0101803Y0086953D01*
X0101898Y0087080D01*
X0101996Y0087204D01*
X0102097Y0087326D01*
X0102201Y0087446D01*
X0102307Y0087563D01*
X0102417Y0087677D01*
X0102530Y0087788D01*
X0102645Y0087896D01*
X0102764Y0088002D01*
X0102884Y0088104D01*
X0103007Y0088204D01*
X0103133Y0088300D01*
X0103261Y0088393D01*
X0103392Y0088483D01*
X0103524Y0088569D01*
X0103659Y0088652D01*
X0103796Y0088732D01*
X0103935Y0088808D01*
X0104075Y0088881D01*
X0104218Y0088950D01*
X0104362Y0089016D01*
X0104507Y0089078D01*
X0104655Y0089136D01*
X0104803Y0089191D01*
X0104953Y0089242D01*
X0105104Y0089289D01*
X0105257Y0089332D01*
X0105410Y0089371D01*
X0105564Y0089407D01*
X0105719Y0089438D01*
X0105875Y0089466D01*
X0106032Y0089490D01*
X0106189Y0089510D01*
X0106347Y0089526D01*
X0106504Y0089538D01*
X0106663Y0089546D01*
X0106821Y0089550D01*
X0106979Y0089550D01*
X0107137Y0089546D01*
X0107296Y0089538D01*
X0107453Y0089526D01*
X0107611Y0089510D01*
X0107768Y0089490D01*
X0107925Y0089466D01*
X0108081Y0089438D01*
X0108236Y0089407D01*
X0108390Y0089371D01*
X0108543Y0089332D01*
X0108696Y0089289D01*
X0108847Y0089242D01*
X0108997Y0089191D01*
X0109145Y0089136D01*
X0109293Y0089078D01*
X0109438Y0089016D01*
X0109582Y0088950D01*
X0109725Y0088881D01*
X0109865Y0088808D01*
X0110004Y0088732D01*
X0110141Y0088652D01*
X0110276Y0088569D01*
X0110408Y0088483D01*
X0110539Y0088393D01*
X0110667Y0088300D01*
X0110793Y0088204D01*
X0110916Y0088104D01*
X0111036Y0088002D01*
X0111155Y0087896D01*
X0111270Y0087788D01*
X0111383Y0087677D01*
X0111493Y0087563D01*
X0111599Y0087446D01*
X0111703Y0087326D01*
X0111804Y0087204D01*
X0111902Y0087080D01*
X0111997Y0086953D01*
X0112088Y0086824D01*
X0112176Y0086692D01*
X0112261Y0086559D01*
X0112343Y0086423D01*
X0112421Y0086285D01*
X0112495Y0086145D01*
X0112566Y0086004D01*
X0112634Y0085861D01*
X0112697Y0085716D01*
X0112758Y0085569D01*
X0112814Y0085421D01*
X0112867Y0085272D01*
X0112916Y0085121D01*
X0112961Y0084970D01*
X0113002Y0084817D01*
X0113040Y0084663D01*
X0113073Y0084508D01*
X0113103Y0084353D01*
X0113129Y0084196D01*
X0113150Y0084040D01*
X0113168Y0083882D01*
X0113182Y0083725D01*
X0113192Y0083567D01*
X0113198Y0083408D01*
X0113200Y0083250D01*
X0113198Y0083092D01*
X0113192Y0082933D01*
X0113182Y0082775D01*
X0113168Y0082618D01*
X0113150Y0082460D01*
X0113129Y0082304D01*
X0113103Y0082147D01*
X0113073Y0081992D01*
X0113040Y0081837D01*
X0113002Y0081683D01*
X0112961Y0081530D01*
X0112916Y0081379D01*
X0112867Y0081228D01*
X0112814Y0081079D01*
X0112758Y0080931D01*
X0112697Y0080784D01*
X0112634Y0080639D01*
X0112566Y0080496D01*
X0112495Y0080355D01*
X0112421Y0080215D01*
X0112343Y0080077D01*
X0112261Y0079941D01*
X0112176Y0079808D01*
X0112088Y0079676D01*
X0111997Y0079547D01*
X0111902Y0079420D01*
X0111804Y0079296D01*
X0111703Y0079174D01*
X0111599Y0079054D01*
X0111493Y0078937D01*
X0111383Y0078823D01*
X0111270Y0078712D01*
X0111155Y0078604D01*
X0111036Y0078498D01*
X0110916Y0078396D01*
X0110793Y0078296D01*
X0110667Y0078200D01*
X0110539Y0078107D01*
X0110408Y0078017D01*
X0110276Y0077931D01*
X0110141Y0077848D01*
X0110004Y0077768D01*
X0109865Y0077692D01*
X0109725Y0077619D01*
X0109582Y0077550D01*
X0109438Y0077484D01*
X0109293Y0077422D01*
X0109145Y0077364D01*
X0108997Y0077309D01*
X0108847Y0077258D01*
X0108696Y0077211D01*
X0108543Y0077168D01*
X0108390Y0077129D01*
X0108236Y0077093D01*
X0108081Y0077062D01*
X0107925Y0077034D01*
X0107768Y0077010D01*
X0107611Y0076990D01*
X0107453Y0076974D01*
X0107296Y0076962D01*
X0107137Y0076954D01*
X0106979Y0076950D01*
X0106821Y0076950D01*
X0106663Y0076954D01*
X0106504Y0076962D01*
X0106347Y0076974D01*
X0106189Y0076990D01*
X0106032Y0077010D01*
X0105875Y0077034D01*
X0105719Y0077062D01*
X0105564Y0077093D01*
X0105410Y0077129D01*
X0105257Y0077168D01*
X0105104Y0077211D01*
X0104953Y0077258D01*
X0104803Y0077309D01*
X0104655Y0077364D01*
X0104507Y0077422D01*
X0104362Y0077484D01*
X0104218Y0077550D01*
X0104075Y0077619D01*
X0103935Y0077692D01*
X0103796Y0077768D01*
X0103659Y0077848D01*
X0103524Y0077931D01*
X0103392Y0078017D01*
X0103261Y0078107D01*
X0103133Y0078200D01*
X0103007Y0078296D01*
X0102884Y0078396D01*
X0102764Y0078498D01*
X0102645Y0078604D01*
X0102530Y0078712D01*
X0102417Y0078823D01*
X0102307Y0078937D01*
X0102201Y0079054D01*
X0102097Y0079174D01*
X0101996Y0079296D01*
X0101898Y0079420D01*
X0101803Y0079547D01*
X0101712Y0079676D01*
X0101624Y0079808D01*
X0101539Y0079941D01*
X0101457Y0080077D01*
X0101379Y0080215D01*
X0101305Y0080355D01*
X0101234Y0080496D01*
X0101166Y0080639D01*
X0101103Y0080784D01*
X0101042Y0080931D01*
X0100986Y0081079D01*
X0100933Y0081228D01*
X0100884Y0081379D01*
X0100839Y0081530D01*
X0100798Y0081683D01*
X0100760Y0081837D01*
X0100727Y0081992D01*
X0100697Y0082147D01*
X0100671Y0082304D01*
X0100650Y0082460D01*
X0100632Y0082618D01*
X0100618Y0082775D01*
X0100608Y0082933D01*
X0100602Y0083092D01*
X0100600Y0083250D01*
X0170128Y0086911D02*
X0170130Y0086995D01*
X0170136Y0087078D01*
X0170146Y0087161D01*
X0170160Y0087244D01*
X0170177Y0087326D01*
X0170199Y0087407D01*
X0170224Y0087486D01*
X0170253Y0087565D01*
X0170286Y0087642D01*
X0170322Y0087717D01*
X0170362Y0087791D01*
X0170405Y0087863D01*
X0170452Y0087932D01*
X0170502Y0087999D01*
X0170555Y0088064D01*
X0170611Y0088126D01*
X0170669Y0088186D01*
X0170731Y0088243D01*
X0170795Y0088296D01*
X0170862Y0088347D01*
X0170931Y0088394D01*
X0171002Y0088439D01*
X0171075Y0088479D01*
X0171150Y0088516D01*
X0171227Y0088550D01*
X0171305Y0088580D01*
X0171384Y0088606D01*
X0171465Y0088629D01*
X0171547Y0088647D01*
X0171629Y0088662D01*
X0171712Y0088673D01*
X0171795Y0088680D01*
X0171879Y0088683D01*
X0171963Y0088682D01*
X0172046Y0088677D01*
X0172130Y0088668D01*
X0172212Y0088655D01*
X0172294Y0088639D01*
X0172375Y0088618D01*
X0172456Y0088594D01*
X0172534Y0088566D01*
X0172612Y0088534D01*
X0172688Y0088498D01*
X0172762Y0088459D01*
X0172834Y0088417D01*
X0172904Y0088371D01*
X0172972Y0088322D01*
X0173037Y0088270D01*
X0173100Y0088215D01*
X0173160Y0088157D01*
X0173218Y0088096D01*
X0173272Y0088032D01*
X0173324Y0087966D01*
X0173372Y0087898D01*
X0173417Y0087827D01*
X0173458Y0087754D01*
X0173497Y0087680D01*
X0173531Y0087604D01*
X0173562Y0087526D01*
X0173589Y0087447D01*
X0173613Y0087366D01*
X0173632Y0087285D01*
X0173648Y0087203D01*
X0173660Y0087120D01*
X0173668Y0087036D01*
X0173672Y0086953D01*
X0173672Y0086869D01*
X0173668Y0086786D01*
X0173660Y0086702D01*
X0173648Y0086619D01*
X0173632Y0086537D01*
X0173613Y0086456D01*
X0173589Y0086375D01*
X0173562Y0086296D01*
X0173531Y0086218D01*
X0173497Y0086142D01*
X0173458Y0086068D01*
X0173417Y0085995D01*
X0173372Y0085924D01*
X0173324Y0085856D01*
X0173272Y0085790D01*
X0173218Y0085726D01*
X0173160Y0085665D01*
X0173100Y0085607D01*
X0173037Y0085552D01*
X0172972Y0085500D01*
X0172904Y0085451D01*
X0172834Y0085405D01*
X0172762Y0085363D01*
X0172688Y0085324D01*
X0172612Y0085288D01*
X0172534Y0085256D01*
X0172456Y0085228D01*
X0172375Y0085204D01*
X0172294Y0085183D01*
X0172212Y0085167D01*
X0172130Y0085154D01*
X0172046Y0085145D01*
X0171963Y0085140D01*
X0171879Y0085139D01*
X0171795Y0085142D01*
X0171712Y0085149D01*
X0171629Y0085160D01*
X0171547Y0085175D01*
X0171465Y0085193D01*
X0171384Y0085216D01*
X0171305Y0085242D01*
X0171227Y0085272D01*
X0171150Y0085306D01*
X0171075Y0085343D01*
X0171002Y0085383D01*
X0170931Y0085428D01*
X0170862Y0085475D01*
X0170795Y0085526D01*
X0170731Y0085579D01*
X0170669Y0085636D01*
X0170611Y0085696D01*
X0170555Y0085758D01*
X0170502Y0085823D01*
X0170452Y0085890D01*
X0170405Y0085959D01*
X0170362Y0086031D01*
X0170322Y0086105D01*
X0170286Y0086180D01*
X0170253Y0086257D01*
X0170224Y0086336D01*
X0170199Y0086415D01*
X0170177Y0086496D01*
X0170160Y0086578D01*
X0170146Y0086661D01*
X0170136Y0086744D01*
X0170130Y0086827D01*
X0170128Y0086911D01*
X0170128Y0069589D02*
X0170130Y0069673D01*
X0170136Y0069756D01*
X0170146Y0069839D01*
X0170160Y0069922D01*
X0170177Y0070004D01*
X0170199Y0070085D01*
X0170224Y0070164D01*
X0170253Y0070243D01*
X0170286Y0070320D01*
X0170322Y0070395D01*
X0170362Y0070469D01*
X0170405Y0070541D01*
X0170452Y0070610D01*
X0170502Y0070677D01*
X0170555Y0070742D01*
X0170611Y0070804D01*
X0170669Y0070864D01*
X0170731Y0070921D01*
X0170795Y0070974D01*
X0170862Y0071025D01*
X0170931Y0071072D01*
X0171002Y0071117D01*
X0171075Y0071157D01*
X0171150Y0071194D01*
X0171227Y0071228D01*
X0171305Y0071258D01*
X0171384Y0071284D01*
X0171465Y0071307D01*
X0171547Y0071325D01*
X0171629Y0071340D01*
X0171712Y0071351D01*
X0171795Y0071358D01*
X0171879Y0071361D01*
X0171963Y0071360D01*
X0172046Y0071355D01*
X0172130Y0071346D01*
X0172212Y0071333D01*
X0172294Y0071317D01*
X0172375Y0071296D01*
X0172456Y0071272D01*
X0172534Y0071244D01*
X0172612Y0071212D01*
X0172688Y0071176D01*
X0172762Y0071137D01*
X0172834Y0071095D01*
X0172904Y0071049D01*
X0172972Y0071000D01*
X0173037Y0070948D01*
X0173100Y0070893D01*
X0173160Y0070835D01*
X0173218Y0070774D01*
X0173272Y0070710D01*
X0173324Y0070644D01*
X0173372Y0070576D01*
X0173417Y0070505D01*
X0173458Y0070432D01*
X0173497Y0070358D01*
X0173531Y0070282D01*
X0173562Y0070204D01*
X0173589Y0070125D01*
X0173613Y0070044D01*
X0173632Y0069963D01*
X0173648Y0069881D01*
X0173660Y0069798D01*
X0173668Y0069714D01*
X0173672Y0069631D01*
X0173672Y0069547D01*
X0173668Y0069464D01*
X0173660Y0069380D01*
X0173648Y0069297D01*
X0173632Y0069215D01*
X0173613Y0069134D01*
X0173589Y0069053D01*
X0173562Y0068974D01*
X0173531Y0068896D01*
X0173497Y0068820D01*
X0173458Y0068746D01*
X0173417Y0068673D01*
X0173372Y0068602D01*
X0173324Y0068534D01*
X0173272Y0068468D01*
X0173218Y0068404D01*
X0173160Y0068343D01*
X0173100Y0068285D01*
X0173037Y0068230D01*
X0172972Y0068178D01*
X0172904Y0068129D01*
X0172834Y0068083D01*
X0172762Y0068041D01*
X0172688Y0068002D01*
X0172612Y0067966D01*
X0172534Y0067934D01*
X0172456Y0067906D01*
X0172375Y0067882D01*
X0172294Y0067861D01*
X0172212Y0067845D01*
X0172130Y0067832D01*
X0172046Y0067823D01*
X0171963Y0067818D01*
X0171879Y0067817D01*
X0171795Y0067820D01*
X0171712Y0067827D01*
X0171629Y0067838D01*
X0171547Y0067853D01*
X0171465Y0067871D01*
X0171384Y0067894D01*
X0171305Y0067920D01*
X0171227Y0067950D01*
X0171150Y0067984D01*
X0171075Y0068021D01*
X0171002Y0068061D01*
X0170931Y0068106D01*
X0170862Y0068153D01*
X0170795Y0068204D01*
X0170731Y0068257D01*
X0170669Y0068314D01*
X0170611Y0068374D01*
X0170555Y0068436D01*
X0170502Y0068501D01*
X0170452Y0068568D01*
X0170405Y0068637D01*
X0170362Y0068709D01*
X0170322Y0068783D01*
X0170286Y0068858D01*
X0170253Y0068935D01*
X0170224Y0069014D01*
X0170199Y0069093D01*
X0170177Y0069174D01*
X0170160Y0069256D01*
X0170146Y0069339D01*
X0170136Y0069422D01*
X0170130Y0069505D01*
X0170128Y0069589D01*
X0146350Y0042250D02*
X0146352Y0042408D01*
X0146358Y0042567D01*
X0146368Y0042725D01*
X0146382Y0042882D01*
X0146400Y0043040D01*
X0146421Y0043196D01*
X0146447Y0043353D01*
X0146477Y0043508D01*
X0146510Y0043663D01*
X0146548Y0043817D01*
X0146589Y0043970D01*
X0146634Y0044121D01*
X0146683Y0044272D01*
X0146736Y0044421D01*
X0146792Y0044569D01*
X0146853Y0044716D01*
X0146916Y0044861D01*
X0146984Y0045004D01*
X0147055Y0045145D01*
X0147129Y0045285D01*
X0147207Y0045423D01*
X0147289Y0045559D01*
X0147374Y0045692D01*
X0147462Y0045824D01*
X0147553Y0045953D01*
X0147648Y0046080D01*
X0147746Y0046204D01*
X0147847Y0046326D01*
X0147951Y0046446D01*
X0148057Y0046563D01*
X0148167Y0046677D01*
X0148280Y0046788D01*
X0148395Y0046896D01*
X0148514Y0047002D01*
X0148634Y0047104D01*
X0148757Y0047204D01*
X0148883Y0047300D01*
X0149011Y0047393D01*
X0149142Y0047483D01*
X0149274Y0047569D01*
X0149409Y0047652D01*
X0149546Y0047732D01*
X0149685Y0047808D01*
X0149825Y0047881D01*
X0149968Y0047950D01*
X0150112Y0048016D01*
X0150257Y0048078D01*
X0150405Y0048136D01*
X0150553Y0048191D01*
X0150703Y0048242D01*
X0150854Y0048289D01*
X0151007Y0048332D01*
X0151160Y0048371D01*
X0151314Y0048407D01*
X0151469Y0048438D01*
X0151625Y0048466D01*
X0151782Y0048490D01*
X0151939Y0048510D01*
X0152097Y0048526D01*
X0152254Y0048538D01*
X0152413Y0048546D01*
X0152571Y0048550D01*
X0152729Y0048550D01*
X0152887Y0048546D01*
X0153046Y0048538D01*
X0153203Y0048526D01*
X0153361Y0048510D01*
X0153518Y0048490D01*
X0153675Y0048466D01*
X0153831Y0048438D01*
X0153986Y0048407D01*
X0154140Y0048371D01*
X0154293Y0048332D01*
X0154446Y0048289D01*
X0154597Y0048242D01*
X0154747Y0048191D01*
X0154895Y0048136D01*
X0155043Y0048078D01*
X0155188Y0048016D01*
X0155332Y0047950D01*
X0155475Y0047881D01*
X0155615Y0047808D01*
X0155754Y0047732D01*
X0155891Y0047652D01*
X0156026Y0047569D01*
X0156158Y0047483D01*
X0156289Y0047393D01*
X0156417Y0047300D01*
X0156543Y0047204D01*
X0156666Y0047104D01*
X0156786Y0047002D01*
X0156905Y0046896D01*
X0157020Y0046788D01*
X0157133Y0046677D01*
X0157243Y0046563D01*
X0157349Y0046446D01*
X0157453Y0046326D01*
X0157554Y0046204D01*
X0157652Y0046080D01*
X0157747Y0045953D01*
X0157838Y0045824D01*
X0157926Y0045692D01*
X0158011Y0045559D01*
X0158093Y0045423D01*
X0158171Y0045285D01*
X0158245Y0045145D01*
X0158316Y0045004D01*
X0158384Y0044861D01*
X0158447Y0044716D01*
X0158508Y0044569D01*
X0158564Y0044421D01*
X0158617Y0044272D01*
X0158666Y0044121D01*
X0158711Y0043970D01*
X0158752Y0043817D01*
X0158790Y0043663D01*
X0158823Y0043508D01*
X0158853Y0043353D01*
X0158879Y0043196D01*
X0158900Y0043040D01*
X0158918Y0042882D01*
X0158932Y0042725D01*
X0158942Y0042567D01*
X0158948Y0042408D01*
X0158950Y0042250D01*
X0158948Y0042092D01*
X0158942Y0041933D01*
X0158932Y0041775D01*
X0158918Y0041618D01*
X0158900Y0041460D01*
X0158879Y0041304D01*
X0158853Y0041147D01*
X0158823Y0040992D01*
X0158790Y0040837D01*
X0158752Y0040683D01*
X0158711Y0040530D01*
X0158666Y0040379D01*
X0158617Y0040228D01*
X0158564Y0040079D01*
X0158508Y0039931D01*
X0158447Y0039784D01*
X0158384Y0039639D01*
X0158316Y0039496D01*
X0158245Y0039355D01*
X0158171Y0039215D01*
X0158093Y0039077D01*
X0158011Y0038941D01*
X0157926Y0038808D01*
X0157838Y0038676D01*
X0157747Y0038547D01*
X0157652Y0038420D01*
X0157554Y0038296D01*
X0157453Y0038174D01*
X0157349Y0038054D01*
X0157243Y0037937D01*
X0157133Y0037823D01*
X0157020Y0037712D01*
X0156905Y0037604D01*
X0156786Y0037498D01*
X0156666Y0037396D01*
X0156543Y0037296D01*
X0156417Y0037200D01*
X0156289Y0037107D01*
X0156158Y0037017D01*
X0156026Y0036931D01*
X0155891Y0036848D01*
X0155754Y0036768D01*
X0155615Y0036692D01*
X0155475Y0036619D01*
X0155332Y0036550D01*
X0155188Y0036484D01*
X0155043Y0036422D01*
X0154895Y0036364D01*
X0154747Y0036309D01*
X0154597Y0036258D01*
X0154446Y0036211D01*
X0154293Y0036168D01*
X0154140Y0036129D01*
X0153986Y0036093D01*
X0153831Y0036062D01*
X0153675Y0036034D01*
X0153518Y0036010D01*
X0153361Y0035990D01*
X0153203Y0035974D01*
X0153046Y0035962D01*
X0152887Y0035954D01*
X0152729Y0035950D01*
X0152571Y0035950D01*
X0152413Y0035954D01*
X0152254Y0035962D01*
X0152097Y0035974D01*
X0151939Y0035990D01*
X0151782Y0036010D01*
X0151625Y0036034D01*
X0151469Y0036062D01*
X0151314Y0036093D01*
X0151160Y0036129D01*
X0151007Y0036168D01*
X0150854Y0036211D01*
X0150703Y0036258D01*
X0150553Y0036309D01*
X0150405Y0036364D01*
X0150257Y0036422D01*
X0150112Y0036484D01*
X0149968Y0036550D01*
X0149825Y0036619D01*
X0149685Y0036692D01*
X0149546Y0036768D01*
X0149409Y0036848D01*
X0149274Y0036931D01*
X0149142Y0037017D01*
X0149011Y0037107D01*
X0148883Y0037200D01*
X0148757Y0037296D01*
X0148634Y0037396D01*
X0148514Y0037498D01*
X0148395Y0037604D01*
X0148280Y0037712D01*
X0148167Y0037823D01*
X0148057Y0037937D01*
X0147951Y0038054D01*
X0147847Y0038174D01*
X0147746Y0038296D01*
X0147648Y0038420D01*
X0147553Y0038547D01*
X0147462Y0038676D01*
X0147374Y0038808D01*
X0147289Y0038941D01*
X0147207Y0039077D01*
X0147129Y0039215D01*
X0147055Y0039355D01*
X0146984Y0039496D01*
X0146916Y0039639D01*
X0146853Y0039784D01*
X0146792Y0039931D01*
X0146736Y0040079D01*
X0146683Y0040228D01*
X0146634Y0040379D01*
X0146589Y0040530D01*
X0146548Y0040683D01*
X0146510Y0040837D01*
X0146477Y0040992D01*
X0146447Y0041147D01*
X0146421Y0041304D01*
X0146400Y0041460D01*
X0146382Y0041618D01*
X0146368Y0041775D01*
X0146358Y0041933D01*
X0146352Y0042092D01*
X0146350Y0042250D01*
D11*
X0129400Y0028750D03*
X0119400Y0027750D03*
X0109400Y0028750D03*
X0096900Y0008750D03*
X0086900Y0007750D03*
X0076900Y0008750D03*
X0066900Y0007750D03*
X0056900Y0008750D03*
X0046900Y0007750D03*
X0007400Y0008250D03*
X0006400Y0018250D03*
X0007400Y0028250D03*
X0005900Y0048250D03*
X0006900Y0058250D03*
X0005900Y0068250D03*
X0006900Y0078250D03*
X0005900Y0088250D03*
X0006900Y0098250D03*
X0026900Y0097750D03*
X0036900Y0098750D03*
X0046900Y0097750D03*
X0056900Y0098750D03*
X0066900Y0097750D03*
X0076900Y0098750D03*
X0086900Y0097750D03*
X0096900Y0098750D03*
X0106900Y0097750D03*
X0116900Y0098750D03*
X0126900Y0097750D03*
X0136200Y0098250D03*
X0147600Y0098250D03*
X0127600Y0008250D03*
X0116200Y0008250D03*
X0106900Y0007750D03*
D12*
X0036900Y0008750D03*
D13*
X0026900Y0018250D03*
X0016900Y0018250D03*
X0016900Y0028250D03*
X0026900Y0028250D03*
X0026900Y0038250D03*
X0016900Y0038250D03*
D14*
X0127600Y0008950D02*
X0127600Y0008250D01*
X0127600Y0008950D02*
X0136900Y0018250D01*
X0136900Y0033250D01*
X0129400Y0040750D01*
D15*
X0129400Y0040750D03*
X0094400Y0060750D03*
X0086900Y0065750D03*
X0096900Y0068250D03*
X0076900Y0060750D03*
X0081900Y0053250D03*
X0041900Y0053250D03*
X0014400Y0073250D03*
X0039400Y0078250D03*
X0041900Y0083250D03*
X0071900Y0085750D03*
X0079400Y0080750D03*
D16*
X0121900Y0073250D03*
X0136900Y0068250D03*
X0121900Y0058250D03*
X0146900Y0033250D03*
X0171900Y0048250D03*
D17*
X0126900Y0093250D01*
X0126900Y0097750D01*
X0123572Y0101211D02*
X0122831Y0100469D01*
X0122100Y0098705D01*
X0122100Y0096795D01*
X0122831Y0095031D01*
X0124181Y0093681D01*
X0125300Y0093217D01*
X0125300Y0092587D01*
X0169116Y0048772D01*
X0169116Y0047696D01*
X0169540Y0046673D01*
X0170323Y0045890D01*
X0171346Y0045466D01*
X0172454Y0045466D01*
X0173477Y0045890D01*
X0174260Y0046673D01*
X0174684Y0047696D01*
X0174684Y0048804D01*
X0174260Y0049827D01*
X0173477Y0050610D01*
X0172454Y0051034D01*
X0171378Y0051034D01*
X0128992Y0093421D01*
X0129619Y0093681D01*
X0130969Y0095031D01*
X0131433Y0096151D01*
X0131753Y0095525D01*
X0132234Y0094862D01*
X0132812Y0094284D01*
X0133475Y0093803D01*
X0134204Y0093431D01*
X0134982Y0093178D01*
X0135700Y0093064D01*
X0135700Y0097750D01*
X0136700Y0097750D01*
X0136700Y0098750D01*
X0141386Y0098750D01*
X0141272Y0099468D01*
X0141019Y0100246D01*
X0140647Y0100975D01*
X0140477Y0101211D01*
X0143323Y0101211D01*
X0143153Y0100975D01*
X0142781Y0100246D01*
X0142528Y0099468D01*
X0142414Y0098750D01*
X0147100Y0098750D01*
X0147100Y0097750D01*
X0148100Y0097750D01*
X0148100Y0098750D01*
X0152786Y0098750D01*
X0152672Y0099468D01*
X0152419Y0100246D01*
X0152047Y0100975D01*
X0151877Y0101211D01*
X0191101Y0101211D01*
X0191101Y0005250D01*
X0131388Y0005250D01*
X0131669Y0005531D01*
X0132400Y0007295D01*
X0132400Y0009205D01*
X0132187Y0009719D01*
X0138429Y0015961D01*
X0139189Y0016721D01*
X0139600Y0017713D01*
X0139600Y0033787D01*
X0139189Y0034779D01*
X0132208Y0041760D01*
X0131927Y0042439D01*
X0131089Y0043277D01*
X0129993Y0043731D01*
X0128807Y0043731D01*
X0127711Y0043277D01*
X0126873Y0042439D01*
X0126419Y0041343D01*
X0126419Y0040157D01*
X0126873Y0039061D01*
X0127711Y0038223D01*
X0128390Y0037942D01*
X0134200Y0032132D01*
X0134200Y0019368D01*
X0127882Y0013050D01*
X0126645Y0013050D01*
X0124881Y0012319D01*
X0123531Y0010969D01*
X0122800Y0009205D01*
X0122800Y0007295D01*
X0123531Y0005531D01*
X0123812Y0005250D01*
X0119988Y0005250D01*
X0120269Y0005531D01*
X0121000Y0007295D01*
X0121000Y0009205D01*
X0120269Y0010969D01*
X0118919Y0012319D01*
X0117155Y0013050D01*
X0115245Y0013050D01*
X0113481Y0012319D01*
X0112131Y0010969D01*
X0111446Y0009317D01*
X0110969Y0010469D01*
X0109619Y0011819D01*
X0107855Y0012550D01*
X0105945Y0012550D01*
X0104826Y0012086D01*
X0098000Y0018913D01*
X0097063Y0019850D01*
X0092563Y0019850D01*
X0091000Y0021413D01*
X0091000Y0033532D01*
X0091689Y0034221D01*
X0092100Y0035213D01*
X0092100Y0036287D01*
X0091689Y0037279D01*
X0090929Y0038039D01*
X0089937Y0038450D01*
X0088863Y0038450D01*
X0087871Y0038039D01*
X0087111Y0037279D01*
X0086700Y0036287D01*
X0086700Y0035213D01*
X0087111Y0034221D01*
X0087800Y0033532D01*
X0087800Y0020113D01*
X0087100Y0020813D01*
X0087100Y0021287D01*
X0086689Y0022279D01*
X0085929Y0023039D01*
X0084937Y0023450D01*
X0083863Y0023450D01*
X0082871Y0023039D01*
X0082111Y0022279D01*
X0081700Y0021287D01*
X0081700Y0020213D01*
X0082111Y0019221D01*
X0082871Y0018461D01*
X0083863Y0018050D01*
X0084937Y0018050D01*
X0085220Y0018167D01*
X0092564Y0010824D01*
X0092100Y0009705D01*
X0092100Y0007795D01*
X0092831Y0006031D01*
X0093612Y0005250D01*
X0091060Y0005250D01*
X0091700Y0006795D01*
X0091700Y0008705D01*
X0090969Y0010469D01*
X0089619Y0011819D01*
X0087855Y0012550D01*
X0085945Y0012550D01*
X0084181Y0011819D01*
X0082831Y0010469D01*
X0082100Y0008705D01*
X0082100Y0006795D01*
X0082740Y0005250D01*
X0080188Y0005250D01*
X0080969Y0006031D01*
X0081700Y0007795D01*
X0081700Y0009705D01*
X0080969Y0011469D01*
X0079619Y0012819D01*
X0077855Y0013550D01*
X0075945Y0013550D01*
X0074181Y0012819D01*
X0072831Y0011469D01*
X0072100Y0009705D01*
X0072100Y0007795D01*
X0072831Y0006031D01*
X0073612Y0005250D01*
X0071060Y0005250D01*
X0071700Y0006795D01*
X0071700Y0008705D01*
X0070969Y0010469D01*
X0069619Y0011819D01*
X0067855Y0012550D01*
X0065945Y0012550D01*
X0064181Y0011819D01*
X0062831Y0010469D01*
X0062100Y0008705D01*
X0062100Y0006795D01*
X0062740Y0005250D01*
X0060188Y0005250D01*
X0060969Y0006031D01*
X0061700Y0007795D01*
X0061700Y0009705D01*
X0060969Y0011469D01*
X0059619Y0012819D01*
X0057855Y0013550D01*
X0055945Y0013550D01*
X0054181Y0012819D01*
X0052831Y0011469D01*
X0052100Y0009705D01*
X0052100Y0007795D01*
X0052831Y0006031D01*
X0053612Y0005250D01*
X0051060Y0005250D01*
X0051700Y0006795D01*
X0051700Y0008705D01*
X0050969Y0010469D01*
X0049619Y0011819D01*
X0047855Y0012550D01*
X0045945Y0012550D01*
X0044181Y0011819D01*
X0042831Y0010469D01*
X0042100Y0008705D01*
X0042100Y0006795D01*
X0042740Y0005250D01*
X0041700Y0005250D01*
X0041700Y0012906D01*
X0041056Y0013550D01*
X0032744Y0013550D01*
X0032100Y0012906D01*
X0032100Y0005250D01*
X0011648Y0005250D01*
X0011847Y0005525D01*
X0012219Y0006254D01*
X0012472Y0007032D01*
X0012586Y0007750D01*
X0007900Y0007750D01*
X0007900Y0008750D01*
X0006900Y0008750D01*
X0006900Y0013436D01*
X0006182Y0013322D01*
X0005404Y0013069D01*
X0004675Y0012697D01*
X0004012Y0012216D01*
X0003900Y0012104D01*
X0003900Y0014090D01*
X0005445Y0013450D01*
X0007355Y0013450D01*
X0009119Y0014181D01*
X0010469Y0015531D01*
X0011200Y0017295D01*
X0011200Y0019205D01*
X0010469Y0020969D01*
X0009119Y0022319D01*
X0007355Y0023050D01*
X0005445Y0023050D01*
X0003900Y0022410D01*
X0003900Y0024962D01*
X0004681Y0024181D01*
X0006445Y0023450D01*
X0008355Y0023450D01*
X0010119Y0024181D01*
X0011469Y0025531D01*
X0012100Y0027054D01*
X0012100Y0026262D01*
X0014912Y0023450D01*
X0018888Y0023450D01*
X0021700Y0026262D01*
X0021700Y0030238D01*
X0018888Y0033050D01*
X0014912Y0033050D01*
X0014637Y0032775D01*
X0011000Y0036413D01*
X0011000Y0040087D01*
X0015063Y0044150D01*
X0016000Y0045087D01*
X0016000Y0070686D01*
X0016089Y0070723D01*
X0016927Y0071561D01*
X0017381Y0072657D01*
X0017381Y0073843D01*
X0016927Y0074939D01*
X0016089Y0075777D01*
X0014993Y0076231D01*
X0013807Y0076231D01*
X0012711Y0075777D01*
X0011873Y0074939D01*
X0011419Y0073843D01*
X0011419Y0072657D01*
X0011873Y0071561D01*
X0012711Y0070723D01*
X0012800Y0070686D01*
X0012800Y0046413D01*
X0007800Y0041413D01*
X0007800Y0035087D01*
X0008737Y0034150D01*
X0012375Y0030513D01*
X0012100Y0030238D01*
X0012100Y0029446D01*
X0011469Y0030969D01*
X0010119Y0032319D01*
X0008355Y0033050D01*
X0006445Y0033050D01*
X0004681Y0032319D01*
X0003900Y0031538D01*
X0003900Y0043433D01*
X0003904Y0043431D01*
X0004682Y0043178D01*
X0005400Y0043064D01*
X0005400Y0047750D01*
X0006400Y0047750D01*
X0006400Y0048750D01*
X0005400Y0048750D01*
X0005400Y0053436D01*
X0004682Y0053322D01*
X0003904Y0053069D01*
X0003900Y0053067D01*
X0003900Y0054462D01*
X0004181Y0054181D01*
X0005945Y0053450D01*
X0007855Y0053450D01*
X0009619Y0054181D01*
X0010969Y0055531D01*
X0011700Y0057295D01*
X0011700Y0059205D01*
X0010969Y0060969D01*
X0009619Y0062319D01*
X0007855Y0063050D01*
X0005945Y0063050D01*
X0004181Y0062319D01*
X0003900Y0062038D01*
X0003900Y0063883D01*
X0004945Y0063450D01*
X0006855Y0063450D01*
X0008619Y0064181D01*
X0009969Y0065531D01*
X0010700Y0067295D01*
X0010700Y0069205D01*
X0009969Y0070969D01*
X0008619Y0072319D01*
X0006855Y0073050D01*
X0004945Y0073050D01*
X0003900Y0072617D01*
X0003900Y0074462D01*
X0004181Y0074181D01*
X0005945Y0073450D01*
X0007855Y0073450D01*
X0009619Y0074181D01*
X0010969Y0075531D01*
X0011433Y0076650D01*
X0028063Y0076650D01*
X0044826Y0093414D01*
X0045945Y0092950D01*
X0047855Y0092950D01*
X0048974Y0093414D01*
X0058237Y0084150D01*
X0069336Y0084150D01*
X0069373Y0084061D01*
X0070211Y0083223D01*
X0071307Y0082769D01*
X0072493Y0082769D01*
X0073589Y0083223D01*
X0074427Y0084061D01*
X0074881Y0085157D01*
X0074881Y0086343D01*
X0074427Y0087439D01*
X0073589Y0088277D01*
X0072493Y0088731D01*
X0071307Y0088731D01*
X0070211Y0088277D01*
X0069373Y0087439D01*
X0069336Y0087350D01*
X0059563Y0087350D01*
X0051236Y0095676D01*
X0051700Y0096795D01*
X0051700Y0098705D01*
X0050969Y0100469D01*
X0050228Y0101211D01*
X0052724Y0101211D01*
X0052100Y0099705D01*
X0052100Y0097795D01*
X0052831Y0096031D01*
X0054181Y0094681D01*
X0055945Y0093950D01*
X0057855Y0093950D01*
X0059619Y0094681D01*
X0060969Y0096031D01*
X0061700Y0097795D01*
X0061700Y0099705D01*
X0061076Y0101211D01*
X0063572Y0101211D01*
X0062831Y0100469D01*
X0062100Y0098705D01*
X0062100Y0096795D01*
X0062831Y0095031D01*
X0064181Y0093681D01*
X0065945Y0092950D01*
X0067855Y0092950D01*
X0069619Y0093681D01*
X0070969Y0095031D01*
X0071700Y0096795D01*
X0071700Y0098705D01*
X0070969Y0100469D01*
X0070228Y0101211D01*
X0072724Y0101211D01*
X0072100Y0099705D01*
X0072100Y0097795D01*
X0072831Y0096031D01*
X0074181Y0094681D01*
X0075945Y0093950D01*
X0077855Y0093950D01*
X0079619Y0094681D01*
X0080969Y0096031D01*
X0081700Y0097795D01*
X0081700Y0099705D01*
X0081076Y0101211D01*
X0083572Y0101211D01*
X0082831Y0100469D01*
X0082100Y0098705D01*
X0082100Y0096795D01*
X0082831Y0095031D01*
X0084181Y0093681D01*
X0085945Y0092950D01*
X0087855Y0092950D01*
X0088974Y0093414D01*
X0090300Y0092087D01*
X0090300Y0063913D01*
X0082582Y0056194D01*
X0082493Y0056231D01*
X0081307Y0056231D01*
X0080211Y0055777D01*
X0079373Y0054939D01*
X0078919Y0053843D01*
X0078919Y0052657D01*
X0079373Y0051561D01*
X0080211Y0050723D01*
X0081307Y0050269D01*
X0081656Y0050269D01*
X0081237Y0049850D01*
X0026237Y0049850D01*
X0019163Y0042775D01*
X0018888Y0043050D01*
X0014912Y0043050D01*
X0012100Y0040238D01*
X0012100Y0036262D01*
X0014912Y0033450D01*
X0018888Y0033450D01*
X0021700Y0036262D01*
X0021700Y0040238D01*
X0021425Y0040513D01*
X0027563Y0046650D01*
X0082563Y0046650D01*
X0083500Y0047587D01*
X0093718Y0057806D01*
X0093807Y0057769D01*
X0094993Y0057769D01*
X0096089Y0058223D01*
X0096927Y0059061D01*
X0097381Y0060157D01*
X0097381Y0060506D01*
X0097800Y0060087D01*
X0097800Y0053913D01*
X0073737Y0029850D01*
X0031700Y0029850D01*
X0031700Y0030238D01*
X0028888Y0033050D01*
X0024912Y0033050D01*
X0022100Y0030238D01*
X0022100Y0026262D01*
X0024912Y0023450D01*
X0028888Y0023450D01*
X0031700Y0026262D01*
X0031700Y0026650D01*
X0075063Y0026650D01*
X0076000Y0027587D01*
X0101000Y0052587D01*
X0101000Y0061413D01*
X0100063Y0062350D01*
X0098500Y0063913D01*
X0098500Y0065686D01*
X0098589Y0065723D01*
X0099427Y0066561D01*
X0099881Y0067657D01*
X0099881Y0068843D01*
X0099427Y0069939D01*
X0098589Y0070777D01*
X0097493Y0071231D01*
X0096307Y0071231D01*
X0095211Y0070777D01*
X0094373Y0069939D01*
X0093919Y0068843D01*
X0093919Y0067657D01*
X0094373Y0066561D01*
X0095211Y0065723D01*
X0095300Y0065686D01*
X0095300Y0063604D01*
X0094993Y0063731D01*
X0093807Y0063731D01*
X0093500Y0063604D01*
X0093500Y0093413D01*
X0091236Y0095676D01*
X0091700Y0096795D01*
X0091700Y0098705D01*
X0090969Y0100469D01*
X0090228Y0101211D01*
X0092724Y0101211D01*
X0092100Y0099705D01*
X0092100Y0097795D01*
X0092831Y0096031D01*
X0094181Y0094681D01*
X0095945Y0093950D01*
X0097855Y0093950D01*
X0099619Y0094681D01*
X0100969Y0096031D01*
X0101700Y0097795D01*
X0101700Y0099705D01*
X0101076Y0101211D01*
X0103572Y0101211D01*
X0102831Y0100469D01*
X0102100Y0098705D01*
X0102100Y0096795D01*
X0102831Y0095031D01*
X0104181Y0093681D01*
X0105945Y0092950D01*
X0107855Y0092950D01*
X0108974Y0093414D01*
X0115300Y0087087D01*
X0115300Y0060327D01*
X0114696Y0059723D01*
X0114300Y0058767D01*
X0114300Y0057733D01*
X0114696Y0056777D01*
X0115427Y0056046D01*
X0116383Y0055650D01*
X0117417Y0055650D01*
X0118373Y0056046D01*
X0119104Y0056777D01*
X0119300Y0057251D01*
X0119540Y0056673D01*
X0120323Y0055890D01*
X0121346Y0055466D01*
X0122454Y0055466D01*
X0123477Y0055890D01*
X0124260Y0056673D01*
X0124684Y0057696D01*
X0124684Y0058804D01*
X0124260Y0059827D01*
X0123500Y0060588D01*
X0123500Y0070912D01*
X0124260Y0071673D01*
X0124684Y0072696D01*
X0124684Y0073804D01*
X0124260Y0074827D01*
X0123477Y0075610D01*
X0122454Y0076034D01*
X0121346Y0076034D01*
X0120323Y0075610D01*
X0119540Y0074827D01*
X0119116Y0073804D01*
X0119116Y0072696D01*
X0119540Y0071673D01*
X0120300Y0070912D01*
X0120300Y0060588D01*
X0119540Y0059827D01*
X0119300Y0059249D01*
X0119104Y0059723D01*
X0118500Y0060327D01*
X0118500Y0088413D01*
X0111236Y0095676D01*
X0111700Y0096795D01*
X0111700Y0098705D01*
X0110969Y0100469D01*
X0110228Y0101211D01*
X0112724Y0101211D01*
X0112100Y0099705D01*
X0112100Y0097795D01*
X0112831Y0096031D01*
X0114181Y0094681D01*
X0115945Y0093950D01*
X0117855Y0093950D01*
X0118620Y0094267D01*
X0135300Y0077587D01*
X0135300Y0070588D01*
X0134540Y0069827D01*
X0134116Y0068804D01*
X0134116Y0067696D01*
X0134540Y0066673D01*
X0135323Y0065890D01*
X0136346Y0065466D01*
X0137454Y0065466D01*
X0138477Y0065890D01*
X0139260Y0066673D01*
X0139684Y0067696D01*
X0139684Y0068804D01*
X0139260Y0069827D01*
X0138500Y0070588D01*
X0138500Y0078913D01*
X0137563Y0079850D01*
X0121090Y0096323D01*
X0121700Y0097795D01*
X0121700Y0099705D01*
X0121076Y0101211D01*
X0123572Y0101211D01*
X0123466Y0101104D02*
X0121120Y0101104D01*
X0121534Y0100106D02*
X0122680Y0100106D01*
X0122267Y0099107D02*
X0121700Y0099107D01*
X0121700Y0098109D02*
X0122100Y0098109D01*
X0122100Y0097110D02*
X0121416Y0097110D01*
X0121301Y0096112D02*
X0122383Y0096112D01*
X0122300Y0095113D02*
X0122797Y0095113D01*
X0123298Y0094115D02*
X0123747Y0094115D01*
X0124297Y0093116D02*
X0125300Y0093116D01*
X0125295Y0092118D02*
X0125770Y0092118D01*
X0126294Y0091119D02*
X0126768Y0091119D01*
X0127292Y0090120D02*
X0127767Y0090120D01*
X0128291Y0089122D02*
X0128765Y0089122D01*
X0129289Y0088123D02*
X0129764Y0088123D01*
X0130288Y0087125D02*
X0130762Y0087125D01*
X0131286Y0086126D02*
X0131761Y0086126D01*
X0132285Y0085128D02*
X0132759Y0085128D01*
X0133283Y0084129D02*
X0133758Y0084129D01*
X0134282Y0083131D02*
X0134756Y0083131D01*
X0135280Y0082132D02*
X0135755Y0082132D01*
X0136279Y0081134D02*
X0136753Y0081134D01*
X0137277Y0080135D02*
X0137752Y0080135D01*
X0138276Y0079137D02*
X0138750Y0079137D01*
X0138500Y0078138D02*
X0139749Y0078138D01*
X0140747Y0077140D02*
X0138500Y0077140D01*
X0138500Y0076141D02*
X0141746Y0076141D01*
X0142744Y0075143D02*
X0138500Y0075143D01*
X0138500Y0074144D02*
X0143743Y0074144D01*
X0144741Y0073146D02*
X0138500Y0073146D01*
X0138500Y0072147D02*
X0145740Y0072147D01*
X0146738Y0071149D02*
X0138500Y0071149D01*
X0138937Y0070150D02*
X0147737Y0070150D01*
X0148736Y0069152D02*
X0139540Y0069152D01*
X0139684Y0068153D02*
X0149734Y0068153D01*
X0150733Y0067155D02*
X0139460Y0067155D01*
X0138744Y0066156D02*
X0151731Y0066156D01*
X0152730Y0065158D02*
X0123500Y0065158D01*
X0123500Y0066156D02*
X0135056Y0066156D01*
X0134340Y0067155D02*
X0123500Y0067155D01*
X0123500Y0068153D02*
X0134116Y0068153D01*
X0134260Y0069152D02*
X0123500Y0069152D01*
X0123500Y0070150D02*
X0134863Y0070150D01*
X0135300Y0071149D02*
X0123736Y0071149D01*
X0124457Y0072147D02*
X0135300Y0072147D01*
X0135300Y0073146D02*
X0124684Y0073146D01*
X0124543Y0074144D02*
X0135300Y0074144D01*
X0135300Y0075143D02*
X0123945Y0075143D01*
X0121900Y0073250D02*
X0121900Y0058250D01*
X0119334Y0057170D02*
X0119267Y0057170D01*
X0118498Y0056171D02*
X0120041Y0056171D01*
X0123759Y0056171D02*
X0161716Y0056171D01*
X0160718Y0057170D02*
X0124466Y0057170D01*
X0124684Y0058168D02*
X0159719Y0058168D01*
X0158721Y0059167D02*
X0124534Y0059167D01*
X0123922Y0060165D02*
X0157722Y0060165D01*
X0156724Y0061164D02*
X0123500Y0061164D01*
X0123500Y0062162D02*
X0155725Y0062162D01*
X0154727Y0063161D02*
X0123500Y0063161D01*
X0123500Y0064159D02*
X0153728Y0064159D01*
X0156257Y0066156D02*
X0170331Y0066156D01*
X0169764Y0066391D02*
X0171150Y0065817D01*
X0172650Y0065817D01*
X0174036Y0066391D01*
X0175097Y0067452D01*
X0175672Y0068838D01*
X0175672Y0070339D01*
X0175097Y0071725D01*
X0174036Y0072786D01*
X0172650Y0073360D01*
X0171150Y0073360D01*
X0169764Y0072786D01*
X0168703Y0071725D01*
X0168128Y0070339D01*
X0168128Y0068838D01*
X0168703Y0067452D01*
X0169764Y0066391D01*
X0169000Y0067155D02*
X0155258Y0067155D01*
X0154259Y0068153D02*
X0168412Y0068153D01*
X0168128Y0069152D02*
X0153261Y0069152D01*
X0152262Y0070150D02*
X0168128Y0070150D01*
X0168464Y0071149D02*
X0151264Y0071149D01*
X0150265Y0072147D02*
X0169125Y0072147D01*
X0170632Y0073146D02*
X0149267Y0073146D01*
X0148268Y0074144D02*
X0191101Y0074144D01*
X0191101Y0073146D02*
X0173168Y0073146D01*
X0174675Y0072147D02*
X0191101Y0072147D01*
X0191101Y0071149D02*
X0175336Y0071149D01*
X0175672Y0070150D02*
X0191101Y0070150D01*
X0191101Y0069152D02*
X0175672Y0069152D01*
X0175388Y0068153D02*
X0191101Y0068153D01*
X0191101Y0067155D02*
X0174800Y0067155D01*
X0173469Y0066156D02*
X0191101Y0066156D01*
X0191101Y0065158D02*
X0157255Y0065158D01*
X0158254Y0064159D02*
X0191101Y0064159D01*
X0191101Y0063161D02*
X0159252Y0063161D01*
X0160251Y0062162D02*
X0191101Y0062162D01*
X0191101Y0061164D02*
X0161249Y0061164D01*
X0162248Y0060165D02*
X0191101Y0060165D01*
X0191101Y0059167D02*
X0163246Y0059167D01*
X0164245Y0058168D02*
X0191101Y0058168D01*
X0191101Y0057170D02*
X0165243Y0057170D01*
X0166242Y0056171D02*
X0191101Y0056171D01*
X0191101Y0055173D02*
X0167240Y0055173D01*
X0168239Y0054174D02*
X0191101Y0054174D01*
X0191101Y0053176D02*
X0169237Y0053176D01*
X0170236Y0052177D02*
X0191101Y0052177D01*
X0191101Y0051179D02*
X0171234Y0051179D01*
X0167707Y0050180D02*
X0155194Y0050180D01*
X0154301Y0050550D02*
X0150999Y0050550D01*
X0147948Y0049286D01*
X0145614Y0046952D01*
X0144350Y0043901D01*
X0144350Y0040599D01*
X0145614Y0037548D01*
X0147128Y0036034D01*
X0146378Y0036034D01*
X0127563Y0054850D01*
X0113977Y0054850D01*
X0113373Y0055454D01*
X0112417Y0055850D01*
X0111383Y0055850D01*
X0110427Y0055454D01*
X0109696Y0054723D01*
X0109300Y0053767D01*
X0109300Y0052733D01*
X0109696Y0051777D01*
X0110427Y0051046D01*
X0111383Y0050650D01*
X0112417Y0050650D01*
X0113373Y0051046D01*
X0113977Y0051650D01*
X0126237Y0051650D01*
X0144116Y0033772D01*
X0144116Y0032696D01*
X0144540Y0031673D01*
X0145323Y0030890D01*
X0146346Y0030466D01*
X0147454Y0030466D01*
X0148477Y0030890D01*
X0149260Y0031673D01*
X0149684Y0032696D01*
X0149684Y0033804D01*
X0149339Y0034638D01*
X0150999Y0033950D01*
X0154301Y0033950D01*
X0157352Y0035214D01*
X0159686Y0037548D01*
X0160950Y0040599D01*
X0160950Y0043901D01*
X0159686Y0046952D01*
X0157352Y0049286D01*
X0154301Y0050550D01*
X0157456Y0049182D02*
X0168706Y0049182D01*
X0169116Y0048183D02*
X0158455Y0048183D01*
X0159453Y0047184D02*
X0169328Y0047184D01*
X0170026Y0046186D02*
X0160004Y0046186D01*
X0160417Y0045187D02*
X0191101Y0045187D01*
X0191101Y0044189D02*
X0160831Y0044189D01*
X0160950Y0043190D02*
X0191101Y0043190D01*
X0191101Y0042192D02*
X0160950Y0042192D01*
X0160950Y0041193D02*
X0191101Y0041193D01*
X0191101Y0040195D02*
X0160783Y0040195D01*
X0160369Y0039196D02*
X0191101Y0039196D01*
X0191101Y0038198D02*
X0159955Y0038198D01*
X0159337Y0037199D02*
X0191101Y0037199D01*
X0191101Y0036201D02*
X0158339Y0036201D01*
X0157324Y0035202D02*
X0191101Y0035202D01*
X0191101Y0034204D02*
X0154914Y0034204D01*
X0150386Y0034204D02*
X0149519Y0034204D01*
X0149684Y0033205D02*
X0191101Y0033205D01*
X0191101Y0032207D02*
X0149482Y0032207D01*
X0148796Y0031208D02*
X0191101Y0031208D01*
X0191101Y0030210D02*
X0139600Y0030210D01*
X0139600Y0031208D02*
X0145004Y0031208D01*
X0144318Y0032207D02*
X0139600Y0032207D01*
X0139600Y0033205D02*
X0144116Y0033205D01*
X0143683Y0034204D02*
X0139427Y0034204D01*
X0138766Y0035202D02*
X0142685Y0035202D01*
X0141686Y0036201D02*
X0137767Y0036201D01*
X0136769Y0037199D02*
X0140688Y0037199D01*
X0139689Y0038198D02*
X0135770Y0038198D01*
X0134772Y0039196D02*
X0138691Y0039196D01*
X0137692Y0040195D02*
X0133773Y0040195D01*
X0132775Y0041193D02*
X0136694Y0041193D01*
X0135695Y0042192D02*
X0132029Y0042192D01*
X0131175Y0043190D02*
X0134697Y0043190D01*
X0133698Y0044189D02*
X0092602Y0044189D01*
X0093600Y0045187D02*
X0132700Y0045187D01*
X0131701Y0046186D02*
X0094599Y0046186D01*
X0095597Y0047184D02*
X0130703Y0047184D01*
X0129704Y0048183D02*
X0096596Y0048183D01*
X0097594Y0049182D02*
X0128706Y0049182D01*
X0127707Y0050180D02*
X0098593Y0050180D01*
X0099591Y0051179D02*
X0110295Y0051179D01*
X0109530Y0052177D02*
X0100590Y0052177D01*
X0101000Y0053176D02*
X0109300Y0053176D01*
X0109469Y0054174D02*
X0101000Y0054174D01*
X0101000Y0055173D02*
X0110146Y0055173D01*
X0111900Y0053250D02*
X0126900Y0053250D01*
X0146900Y0033250D01*
X0146961Y0036201D02*
X0146212Y0036201D01*
X0145963Y0037199D02*
X0145213Y0037199D01*
X0145345Y0038198D02*
X0144215Y0038198D01*
X0144931Y0039196D02*
X0143216Y0039196D01*
X0142218Y0040195D02*
X0144517Y0040195D01*
X0144350Y0041193D02*
X0141219Y0041193D01*
X0140221Y0042192D02*
X0144350Y0042192D01*
X0144350Y0043190D02*
X0139222Y0043190D01*
X0138224Y0044189D02*
X0144469Y0044189D01*
X0144883Y0045187D02*
X0137225Y0045187D01*
X0136227Y0046186D02*
X0145296Y0046186D01*
X0145847Y0047184D02*
X0135228Y0047184D01*
X0134230Y0048183D02*
X0146845Y0048183D01*
X0147844Y0049182D02*
X0133231Y0049182D01*
X0132233Y0050180D02*
X0150106Y0050180D01*
X0162715Y0055173D02*
X0113654Y0055173D01*
X0115302Y0056171D02*
X0101000Y0056171D01*
X0101000Y0057170D02*
X0114533Y0057170D01*
X0114300Y0058168D02*
X0101000Y0058168D01*
X0101000Y0059167D02*
X0114465Y0059167D01*
X0115138Y0060165D02*
X0101000Y0060165D01*
X0101000Y0061164D02*
X0115300Y0061164D01*
X0115300Y0062162D02*
X0100251Y0062162D01*
X0099252Y0063161D02*
X0115300Y0063161D01*
X0115300Y0064159D02*
X0098500Y0064159D01*
X0098500Y0065158D02*
X0115300Y0065158D01*
X0115300Y0066156D02*
X0099022Y0066156D01*
X0099673Y0067155D02*
X0115300Y0067155D01*
X0115300Y0068153D02*
X0099881Y0068153D01*
X0099753Y0069152D02*
X0115300Y0069152D01*
X0115300Y0070150D02*
X0099216Y0070150D01*
X0097692Y0071149D02*
X0115300Y0071149D01*
X0115300Y0072147D02*
X0093500Y0072147D01*
X0093500Y0071149D02*
X0096108Y0071149D01*
X0094584Y0070150D02*
X0093500Y0070150D01*
X0093500Y0069152D02*
X0094047Y0069152D01*
X0093919Y0068153D02*
X0093500Y0068153D01*
X0093500Y0067155D02*
X0094127Y0067155D01*
X0093500Y0066156D02*
X0094778Y0066156D01*
X0095300Y0065158D02*
X0093500Y0065158D01*
X0093500Y0064159D02*
X0095300Y0064159D01*
X0096900Y0063250D02*
X0099400Y0060750D01*
X0099400Y0053250D01*
X0074400Y0028250D01*
X0026900Y0028250D01*
X0022100Y0028213D02*
X0021700Y0028213D01*
X0021700Y0029211D02*
X0022100Y0029211D01*
X0022100Y0030210D02*
X0021700Y0030210D01*
X0020730Y0031208D02*
X0023070Y0031208D01*
X0024069Y0032207D02*
X0019731Y0032207D01*
X0019642Y0034204D02*
X0023592Y0034204D01*
X0022594Y0035202D02*
X0020641Y0035202D01*
X0021700Y0036096D02*
X0024746Y0033050D01*
X0026400Y0033050D01*
X0026400Y0037750D01*
X0021700Y0037750D01*
X0021700Y0036096D01*
X0021700Y0036201D02*
X0021639Y0036201D01*
X0021700Y0037199D02*
X0021700Y0037199D01*
X0021700Y0038198D02*
X0026400Y0038198D01*
X0026400Y0037750D02*
X0026400Y0038750D01*
X0026400Y0043450D01*
X0024746Y0043450D01*
X0021700Y0040404D01*
X0021700Y0038750D01*
X0026400Y0038750D01*
X0027400Y0038750D01*
X0027400Y0043450D01*
X0029054Y0043450D01*
X0032100Y0040404D01*
X0032100Y0038750D01*
X0027400Y0038750D01*
X0027400Y0037750D01*
X0032100Y0037750D01*
X0032100Y0036096D01*
X0029054Y0033050D01*
X0027400Y0033050D01*
X0027400Y0037750D01*
X0026400Y0037750D01*
X0026400Y0037199D02*
X0027400Y0037199D01*
X0027400Y0036201D02*
X0026400Y0036201D01*
X0026400Y0035202D02*
X0027400Y0035202D01*
X0027400Y0034204D02*
X0026400Y0034204D01*
X0026400Y0033205D02*
X0027400Y0033205D01*
X0029209Y0033205D02*
X0077093Y0033205D01*
X0078091Y0034204D02*
X0030208Y0034204D01*
X0031206Y0035202D02*
X0079090Y0035202D01*
X0080088Y0036201D02*
X0032100Y0036201D01*
X0032100Y0037199D02*
X0081087Y0037199D01*
X0082085Y0038198D02*
X0027400Y0038198D01*
X0027400Y0039196D02*
X0026400Y0039196D01*
X0026400Y0040195D02*
X0027400Y0040195D01*
X0027400Y0041193D02*
X0026400Y0041193D01*
X0026400Y0042192D02*
X0027400Y0042192D01*
X0027400Y0043190D02*
X0026400Y0043190D01*
X0025102Y0044189D02*
X0088076Y0044189D01*
X0087078Y0043190D02*
X0029313Y0043190D01*
X0030312Y0042192D02*
X0086079Y0042192D01*
X0085081Y0041193D02*
X0031310Y0041193D01*
X0032100Y0040195D02*
X0084082Y0040195D01*
X0083084Y0039196D02*
X0032100Y0039196D01*
X0024487Y0043190D02*
X0024103Y0043190D01*
X0023488Y0042192D02*
X0023105Y0042192D01*
X0022490Y0041193D02*
X0022106Y0041193D01*
X0021700Y0040195D02*
X0021700Y0040195D01*
X0021700Y0039196D02*
X0021700Y0039196D01*
X0016900Y0038250D02*
X0026900Y0048250D01*
X0081900Y0048250D01*
X0094400Y0060750D01*
X0095957Y0058168D02*
X0097800Y0058168D01*
X0097800Y0057170D02*
X0093082Y0057170D01*
X0092084Y0056171D02*
X0097800Y0056171D01*
X0097800Y0055173D02*
X0091085Y0055173D01*
X0090087Y0054174D02*
X0097800Y0054174D01*
X0097063Y0053176D02*
X0089088Y0053176D01*
X0088090Y0052177D02*
X0096064Y0052177D01*
X0095066Y0051179D02*
X0087091Y0051179D01*
X0086093Y0050180D02*
X0094067Y0050180D01*
X0093069Y0049182D02*
X0085094Y0049182D01*
X0084096Y0048183D02*
X0092070Y0048183D01*
X0091072Y0047184D02*
X0083097Y0047184D01*
X0081567Y0050180D02*
X0016000Y0050180D01*
X0016000Y0049182D02*
X0025569Y0049182D01*
X0024570Y0048183D02*
X0016000Y0048183D01*
X0016000Y0047184D02*
X0023572Y0047184D01*
X0022573Y0046186D02*
X0016000Y0046186D01*
X0016000Y0045187D02*
X0021575Y0045187D01*
X0020576Y0044189D02*
X0015102Y0044189D01*
X0014103Y0043190D02*
X0019578Y0043190D01*
X0014054Y0042192D02*
X0013105Y0042192D01*
X0013055Y0041193D02*
X0012106Y0041193D01*
X0012100Y0040195D02*
X0011108Y0040195D01*
X0011000Y0039196D02*
X0012100Y0039196D01*
X0012100Y0038198D02*
X0011000Y0038198D01*
X0011000Y0037199D02*
X0012100Y0037199D01*
X0012161Y0036201D02*
X0011212Y0036201D01*
X0012210Y0035202D02*
X0013159Y0035202D01*
X0013209Y0034204D02*
X0014158Y0034204D01*
X0014207Y0033205D02*
X0024591Y0033205D01*
X0029731Y0032207D02*
X0076094Y0032207D01*
X0075096Y0031208D02*
X0030730Y0031208D01*
X0031700Y0030210D02*
X0074097Y0030210D01*
X0076626Y0028213D02*
X0087800Y0028213D01*
X0087800Y0029211D02*
X0077624Y0029211D01*
X0078623Y0030210D02*
X0087800Y0030210D01*
X0087800Y0031208D02*
X0079621Y0031208D01*
X0080620Y0032207D02*
X0087800Y0032207D01*
X0087800Y0033205D02*
X0081618Y0033205D01*
X0082617Y0034204D02*
X0087128Y0034204D01*
X0086704Y0035202D02*
X0083615Y0035202D01*
X0084614Y0036201D02*
X0086700Y0036201D01*
X0087078Y0037199D02*
X0085612Y0037199D01*
X0086611Y0038198D02*
X0088254Y0038198D01*
X0087609Y0039196D02*
X0126817Y0039196D01*
X0126419Y0040195D02*
X0088608Y0040195D01*
X0089606Y0041193D02*
X0126419Y0041193D01*
X0126771Y0042192D02*
X0090605Y0042192D01*
X0091603Y0043190D02*
X0127625Y0043190D01*
X0127771Y0038198D02*
X0090546Y0038198D01*
X0091722Y0037199D02*
X0129132Y0037199D01*
X0130131Y0036201D02*
X0092100Y0036201D01*
X0092096Y0035202D02*
X0131129Y0035202D01*
X0132128Y0034204D02*
X0091672Y0034204D01*
X0091000Y0033205D02*
X0107613Y0033205D01*
X0108445Y0033550D02*
X0106681Y0032819D01*
X0105331Y0031469D01*
X0104600Y0029705D01*
X0104600Y0027795D01*
X0105331Y0026031D01*
X0106681Y0024681D01*
X0108445Y0023950D01*
X0110355Y0023950D01*
X0112119Y0024681D01*
X0113469Y0026031D01*
X0114200Y0027795D01*
X0114200Y0029705D01*
X0113469Y0031469D01*
X0112119Y0032819D01*
X0110355Y0033550D01*
X0108445Y0033550D01*
X0106069Y0032207D02*
X0091000Y0032207D01*
X0091000Y0031208D02*
X0105223Y0031208D01*
X0104809Y0030210D02*
X0091000Y0030210D01*
X0091000Y0029211D02*
X0104600Y0029211D01*
X0104600Y0028213D02*
X0091000Y0028213D01*
X0091000Y0027214D02*
X0104841Y0027214D01*
X0105254Y0026216D02*
X0091000Y0026216D01*
X0091000Y0025217D02*
X0092549Y0025217D01*
X0092871Y0025539D02*
X0092111Y0024779D01*
X0091700Y0023787D01*
X0091700Y0022713D01*
X0092111Y0021721D01*
X0092871Y0020961D01*
X0093863Y0020550D01*
X0094937Y0020550D01*
X0095929Y0020961D01*
X0096618Y0021650D01*
X0101237Y0021650D01*
X0103737Y0019150D01*
X0125063Y0019150D01*
X0126000Y0020087D01*
X0129863Y0023950D01*
X0130355Y0023950D01*
X0132119Y0024681D01*
X0133469Y0026031D01*
X0134200Y0027795D01*
X0134200Y0029705D01*
X0133469Y0031469D01*
X0132119Y0032819D01*
X0130355Y0033550D01*
X0128445Y0033550D01*
X0126681Y0032819D01*
X0125331Y0031469D01*
X0124600Y0029705D01*
X0124600Y0027795D01*
X0125331Y0026031D01*
X0126375Y0024987D01*
X0123737Y0022350D01*
X0105063Y0022350D01*
X0103500Y0023913D01*
X0102563Y0024850D01*
X0096618Y0024850D01*
X0095929Y0025539D01*
X0094937Y0025950D01*
X0093863Y0025950D01*
X0092871Y0025539D01*
X0091879Y0024219D02*
X0091000Y0024219D01*
X0091000Y0023220D02*
X0091700Y0023220D01*
X0091903Y0022222D02*
X0091000Y0022222D01*
X0091190Y0021223D02*
X0092608Y0021223D01*
X0092188Y0020225D02*
X0102663Y0020225D01*
X0103661Y0019226D02*
X0097687Y0019226D01*
X0098000Y0018913D02*
X0098000Y0018913D01*
X0098685Y0018228D02*
X0133059Y0018228D01*
X0134058Y0019226D02*
X0125139Y0019226D01*
X0126137Y0020225D02*
X0134200Y0020225D01*
X0134200Y0021223D02*
X0127136Y0021223D01*
X0128134Y0022222D02*
X0134200Y0022222D01*
X0134200Y0023220D02*
X0129133Y0023220D01*
X0131004Y0024219D02*
X0134200Y0024219D01*
X0134200Y0025217D02*
X0132655Y0025217D01*
X0133546Y0026216D02*
X0134200Y0026216D01*
X0134200Y0027214D02*
X0133959Y0027214D01*
X0134200Y0028213D02*
X0134200Y0028213D01*
X0134200Y0029211D02*
X0134200Y0029211D01*
X0134200Y0030210D02*
X0133991Y0030210D01*
X0134200Y0031208D02*
X0133577Y0031208D01*
X0134125Y0032207D02*
X0132731Y0032207D01*
X0133126Y0033205D02*
X0131187Y0033205D01*
X0127613Y0033205D02*
X0111187Y0033205D01*
X0112731Y0032207D02*
X0117617Y0032207D01*
X0118445Y0032550D02*
X0116681Y0031819D01*
X0115331Y0030469D01*
X0114600Y0028705D01*
X0114600Y0026795D01*
X0115331Y0025031D01*
X0116681Y0023681D01*
X0118445Y0022950D01*
X0120355Y0022950D01*
X0122119Y0023681D01*
X0123469Y0025031D01*
X0124200Y0026795D01*
X0124200Y0028705D01*
X0123469Y0030469D01*
X0122119Y0031819D01*
X0120355Y0032550D01*
X0118445Y0032550D01*
X0121183Y0032207D02*
X0126069Y0032207D01*
X0125223Y0031208D02*
X0122730Y0031208D01*
X0123577Y0030210D02*
X0124809Y0030210D01*
X0124600Y0029211D02*
X0123990Y0029211D01*
X0124200Y0028213D02*
X0124600Y0028213D01*
X0124841Y0027214D02*
X0124200Y0027214D01*
X0123960Y0026216D02*
X0125254Y0026216D01*
X0126145Y0025217D02*
X0123546Y0025217D01*
X0122657Y0024219D02*
X0125606Y0024219D01*
X0124608Y0023220D02*
X0121007Y0023220D01*
X0117793Y0023220D02*
X0104192Y0023220D01*
X0103194Y0024219D02*
X0107796Y0024219D01*
X0106145Y0025217D02*
X0096251Y0025217D01*
X0094400Y0023250D02*
X0101900Y0023250D01*
X0104400Y0020750D01*
X0124400Y0020750D01*
X0129400Y0025750D01*
X0129400Y0028750D01*
X0139600Y0029211D02*
X0191101Y0029211D01*
X0191101Y0028213D02*
X0139600Y0028213D01*
X0139600Y0027214D02*
X0191101Y0027214D01*
X0191101Y0026216D02*
X0139600Y0026216D01*
X0139600Y0025217D02*
X0191101Y0025217D01*
X0191101Y0024219D02*
X0139600Y0024219D01*
X0139600Y0023220D02*
X0191101Y0023220D01*
X0191101Y0022222D02*
X0139600Y0022222D01*
X0139600Y0021223D02*
X0191101Y0021223D01*
X0191101Y0020225D02*
X0139600Y0020225D01*
X0139600Y0019226D02*
X0191101Y0019226D01*
X0191101Y0018228D02*
X0139600Y0018228D01*
X0139400Y0017229D02*
X0191101Y0017229D01*
X0191101Y0016231D02*
X0138699Y0016231D01*
X0137701Y0015232D02*
X0191101Y0015232D01*
X0191101Y0014234D02*
X0136702Y0014234D01*
X0135703Y0013235D02*
X0191101Y0013235D01*
X0191101Y0012237D02*
X0134705Y0012237D01*
X0133706Y0011238D02*
X0191101Y0011238D01*
X0191101Y0010240D02*
X0132708Y0010240D01*
X0132385Y0009241D02*
X0191101Y0009241D01*
X0191101Y0008243D02*
X0132400Y0008243D01*
X0132379Y0007244D02*
X0191101Y0007244D01*
X0191101Y0006246D02*
X0131965Y0006246D01*
X0123235Y0006246D02*
X0120565Y0006246D01*
X0120979Y0007244D02*
X0122821Y0007244D01*
X0122800Y0008243D02*
X0121000Y0008243D01*
X0120985Y0009241D02*
X0122815Y0009241D01*
X0123229Y0010240D02*
X0120571Y0010240D01*
X0120000Y0011238D02*
X0123800Y0011238D01*
X0124798Y0012237D02*
X0119002Y0012237D01*
X0113398Y0012237D02*
X0108611Y0012237D01*
X0110200Y0011238D02*
X0112400Y0011238D01*
X0111829Y0010240D02*
X0111064Y0010240D01*
X0106900Y0007750D02*
X0096400Y0018250D01*
X0091900Y0018250D01*
X0089400Y0020750D01*
X0089400Y0035750D01*
X0087800Y0027214D02*
X0075627Y0027214D01*
X0082087Y0022222D02*
X0029716Y0022222D01*
X0028888Y0023050D02*
X0024912Y0023050D01*
X0022100Y0020238D01*
X0022100Y0016262D01*
X0024912Y0013450D01*
X0028888Y0013450D01*
X0031700Y0016262D01*
X0031700Y0020238D01*
X0028888Y0023050D01*
X0029657Y0024219D02*
X0087800Y0024219D01*
X0087800Y0025217D02*
X0030655Y0025217D01*
X0031654Y0026216D02*
X0087800Y0026216D01*
X0087800Y0023220D02*
X0085492Y0023220D01*
X0086713Y0022222D02*
X0087800Y0022222D01*
X0087800Y0021223D02*
X0087100Y0021223D01*
X0087688Y0020225D02*
X0087800Y0020225D01*
X0084900Y0020750D02*
X0096900Y0008750D01*
X0092328Y0007244D02*
X0091700Y0007244D01*
X0091700Y0008243D02*
X0092100Y0008243D01*
X0092100Y0009241D02*
X0091478Y0009241D01*
X0091064Y0010240D02*
X0092322Y0010240D01*
X0092149Y0011238D02*
X0090200Y0011238D01*
X0091151Y0012237D02*
X0088611Y0012237D01*
X0090152Y0013235D02*
X0078615Y0013235D01*
X0080202Y0012237D02*
X0085189Y0012237D01*
X0083600Y0011238D02*
X0081065Y0011238D01*
X0081478Y0010240D02*
X0082736Y0010240D01*
X0082322Y0009241D02*
X0081700Y0009241D01*
X0081700Y0008243D02*
X0082100Y0008243D01*
X0082100Y0007244D02*
X0081472Y0007244D01*
X0081058Y0006246D02*
X0082328Y0006246D01*
X0091472Y0006246D02*
X0092742Y0006246D01*
X0104676Y0012237D02*
X0105189Y0012237D01*
X0103678Y0013235D02*
X0128067Y0013235D01*
X0129065Y0014234D02*
X0102679Y0014234D01*
X0101681Y0015232D02*
X0130064Y0015232D01*
X0131062Y0016231D02*
X0100682Y0016231D01*
X0099684Y0017229D02*
X0132061Y0017229D01*
X0116143Y0024219D02*
X0111004Y0024219D01*
X0112655Y0025217D02*
X0115254Y0025217D01*
X0114840Y0026216D02*
X0113546Y0026216D01*
X0113959Y0027214D02*
X0114600Y0027214D01*
X0114600Y0028213D02*
X0114200Y0028213D01*
X0114200Y0029211D02*
X0114810Y0029211D01*
X0115223Y0030210D02*
X0113991Y0030210D01*
X0113577Y0031208D02*
X0116070Y0031208D01*
X0101664Y0021223D02*
X0096192Y0021223D01*
X0087157Y0016231D02*
X0031669Y0016231D01*
X0031700Y0017229D02*
X0086158Y0017229D01*
X0083434Y0018228D02*
X0031700Y0018228D01*
X0031700Y0019226D02*
X0082109Y0019226D01*
X0081700Y0020225D02*
X0031700Y0020225D01*
X0030715Y0021223D02*
X0081700Y0021223D01*
X0084400Y0020750D02*
X0084900Y0020750D01*
X0083308Y0023220D02*
X0003900Y0023220D01*
X0003900Y0024219D02*
X0004643Y0024219D01*
X0009216Y0022222D02*
X0014084Y0022222D01*
X0014912Y0023050D02*
X0012100Y0020238D01*
X0012100Y0016262D01*
X0014912Y0013450D01*
X0018888Y0013450D01*
X0021700Y0016262D01*
X0021700Y0020238D01*
X0018888Y0023050D01*
X0014912Y0023050D01*
X0014143Y0024219D02*
X0010157Y0024219D01*
X0011155Y0025217D02*
X0013145Y0025217D01*
X0012146Y0026216D02*
X0011753Y0026216D01*
X0011784Y0030210D02*
X0012100Y0030210D01*
X0011679Y0031208D02*
X0011230Y0031208D01*
X0010680Y0032207D02*
X0010231Y0032207D01*
X0009682Y0033205D02*
X0003900Y0033205D01*
X0003900Y0032207D02*
X0004569Y0032207D01*
X0003900Y0034204D02*
X0008683Y0034204D01*
X0007800Y0035202D02*
X0003900Y0035202D01*
X0003900Y0036201D02*
X0007800Y0036201D01*
X0007800Y0037199D02*
X0003900Y0037199D01*
X0003900Y0038198D02*
X0007800Y0038198D01*
X0007800Y0039196D02*
X0003900Y0039196D01*
X0003900Y0040195D02*
X0007800Y0040195D01*
X0007800Y0041193D02*
X0003900Y0041193D01*
X0003900Y0042192D02*
X0008579Y0042192D01*
X0009578Y0043190D02*
X0007156Y0043190D01*
X0007118Y0043178D02*
X0007896Y0043431D01*
X0008625Y0043803D01*
X0009288Y0044284D01*
X0009866Y0044862D01*
X0010347Y0045525D01*
X0010719Y0046254D01*
X0010972Y0047032D01*
X0011086Y0047750D01*
X0006400Y0047750D01*
X0006400Y0043064D01*
X0007118Y0043178D01*
X0006400Y0043190D02*
X0005400Y0043190D01*
X0004644Y0043190D02*
X0003900Y0043190D01*
X0005400Y0044189D02*
X0006400Y0044189D01*
X0006400Y0045187D02*
X0005400Y0045187D01*
X0005400Y0046186D02*
X0006400Y0046186D01*
X0006400Y0047184D02*
X0005400Y0047184D01*
X0006400Y0048183D02*
X0012800Y0048183D01*
X0012800Y0047184D02*
X0010996Y0047184D01*
X0010684Y0046186D02*
X0012573Y0046186D01*
X0011575Y0045187D02*
X0010102Y0045187D01*
X0010576Y0044189D02*
X0009157Y0044189D01*
X0009400Y0040750D02*
X0014400Y0045750D01*
X0014400Y0073250D01*
X0017170Y0072147D02*
X0070740Y0072147D01*
X0071738Y0071149D02*
X0016515Y0071149D01*
X0016000Y0070150D02*
X0072737Y0070150D01*
X0073736Y0069152D02*
X0016000Y0069152D01*
X0016000Y0068153D02*
X0074734Y0068153D01*
X0075300Y0067587D02*
X0075300Y0063314D01*
X0075211Y0063277D01*
X0074373Y0062439D01*
X0073919Y0061343D01*
X0073919Y0060157D01*
X0074373Y0059061D01*
X0075211Y0058223D01*
X0076307Y0057769D01*
X0076656Y0057769D01*
X0073737Y0054850D01*
X0044464Y0054850D01*
X0044427Y0054939D01*
X0043589Y0055777D01*
X0042493Y0056231D01*
X0041307Y0056231D01*
X0040211Y0055777D01*
X0039373Y0054939D01*
X0038919Y0053843D01*
X0038919Y0052657D01*
X0039373Y0051561D01*
X0040211Y0050723D01*
X0041307Y0050269D01*
X0042493Y0050269D01*
X0043589Y0050723D01*
X0044427Y0051561D01*
X0044464Y0051650D01*
X0075063Y0051650D01*
X0086218Y0062806D01*
X0086307Y0062769D01*
X0087493Y0062769D01*
X0088589Y0063223D01*
X0089427Y0064061D01*
X0089881Y0065157D01*
X0089881Y0066343D01*
X0089427Y0067439D01*
X0088589Y0068277D01*
X0087493Y0068731D01*
X0086307Y0068731D01*
X0085211Y0068277D01*
X0084373Y0067439D01*
X0083919Y0066343D01*
X0083919Y0065157D01*
X0083956Y0065068D01*
X0079881Y0060994D01*
X0079881Y0061343D01*
X0079427Y0062439D01*
X0078589Y0063277D01*
X0078500Y0063314D01*
X0078500Y0068913D01*
X0071000Y0076413D01*
X0070063Y0077350D01*
X0042563Y0077350D01*
X0042344Y0077568D01*
X0042381Y0077657D01*
X0042381Y0078843D01*
X0041927Y0079939D01*
X0041597Y0080269D01*
X0042493Y0080269D01*
X0042582Y0080306D01*
X0043737Y0079150D01*
X0076836Y0079150D01*
X0076873Y0079061D01*
X0077711Y0078223D01*
X0078807Y0077769D01*
X0079993Y0077769D01*
X0081089Y0078223D01*
X0081927Y0079061D01*
X0082381Y0080157D01*
X0082381Y0081343D01*
X0081927Y0082439D01*
X0081089Y0083277D01*
X0079993Y0083731D01*
X0078807Y0083731D01*
X0077711Y0083277D01*
X0076873Y0082439D01*
X0076836Y0082350D01*
X0045063Y0082350D01*
X0044844Y0082568D01*
X0044881Y0082657D01*
X0044881Y0083843D01*
X0044427Y0084939D01*
X0043589Y0085777D01*
X0042493Y0086231D01*
X0041307Y0086231D01*
X0040211Y0085777D01*
X0039373Y0084939D01*
X0038919Y0083843D01*
X0038919Y0082657D01*
X0039373Y0081561D01*
X0039703Y0081231D01*
X0038807Y0081231D01*
X0037711Y0080777D01*
X0036873Y0079939D01*
X0036419Y0078843D01*
X0036419Y0077657D01*
X0036873Y0076561D01*
X0037711Y0075723D01*
X0038807Y0075269D01*
X0039993Y0075269D01*
X0040082Y0075306D01*
X0041237Y0074150D01*
X0068737Y0074150D01*
X0075300Y0067587D01*
X0075300Y0067155D02*
X0016000Y0067155D01*
X0016000Y0066156D02*
X0075300Y0066156D01*
X0075300Y0065158D02*
X0016000Y0065158D01*
X0016000Y0064159D02*
X0075300Y0064159D01*
X0075095Y0063161D02*
X0016000Y0063161D01*
X0016000Y0062162D02*
X0074258Y0062162D01*
X0073919Y0061164D02*
X0016000Y0061164D01*
X0016000Y0060165D02*
X0073919Y0060165D01*
X0074329Y0059167D02*
X0016000Y0059167D01*
X0016000Y0058168D02*
X0075343Y0058168D01*
X0076057Y0057170D02*
X0016000Y0057170D01*
X0016000Y0056171D02*
X0041162Y0056171D01*
X0042638Y0056171D02*
X0075058Y0056171D01*
X0074060Y0055173D02*
X0044193Y0055173D01*
X0041900Y0053250D02*
X0074400Y0053250D01*
X0086900Y0065750D01*
X0089881Y0066156D02*
X0090300Y0066156D01*
X0090300Y0065158D02*
X0089881Y0065158D01*
X0089468Y0064159D02*
X0090300Y0064159D01*
X0089548Y0063161D02*
X0088439Y0063161D01*
X0088549Y0062162D02*
X0085575Y0062162D01*
X0084576Y0061164D02*
X0087551Y0061164D01*
X0086552Y0060165D02*
X0083578Y0060165D01*
X0082579Y0059167D02*
X0085554Y0059167D01*
X0084555Y0058168D02*
X0081581Y0058168D01*
X0080582Y0057170D02*
X0083557Y0057170D01*
X0081162Y0056171D02*
X0079584Y0056171D01*
X0079607Y0055173D02*
X0078585Y0055173D01*
X0079056Y0054174D02*
X0077587Y0054174D01*
X0076588Y0053176D02*
X0078919Y0053176D01*
X0079118Y0052177D02*
X0075590Y0052177D01*
X0079756Y0051179D02*
X0044044Y0051179D01*
X0039756Y0051179D02*
X0016000Y0051179D01*
X0016000Y0052177D02*
X0039118Y0052177D01*
X0038919Y0053176D02*
X0016000Y0053176D01*
X0016000Y0054174D02*
X0039056Y0054174D01*
X0039607Y0055173D02*
X0016000Y0055173D01*
X0012800Y0055173D02*
X0010611Y0055173D01*
X0011234Y0056171D02*
X0012800Y0056171D01*
X0012800Y0057170D02*
X0011648Y0057170D01*
X0011700Y0058168D02*
X0012800Y0058168D01*
X0012800Y0059167D02*
X0011700Y0059167D01*
X0011302Y0060165D02*
X0012800Y0060165D01*
X0012800Y0061164D02*
X0010775Y0061164D01*
X0009776Y0062162D02*
X0012800Y0062162D01*
X0012800Y0063161D02*
X0003900Y0063161D01*
X0003900Y0062162D02*
X0004024Y0062162D01*
X0008567Y0064159D02*
X0012800Y0064159D01*
X0012800Y0065158D02*
X0009596Y0065158D01*
X0010228Y0066156D02*
X0012800Y0066156D01*
X0012800Y0067155D02*
X0010642Y0067155D01*
X0010700Y0068153D02*
X0012800Y0068153D01*
X0012800Y0069152D02*
X0010700Y0069152D01*
X0010308Y0070150D02*
X0012800Y0070150D01*
X0012285Y0071149D02*
X0009789Y0071149D01*
X0008791Y0072147D02*
X0011630Y0072147D01*
X0011419Y0073146D02*
X0003900Y0073146D01*
X0003900Y0074144D02*
X0004269Y0074144D01*
X0009531Y0074144D02*
X0011544Y0074144D01*
X0012077Y0075143D02*
X0010581Y0075143D01*
X0011222Y0076141D02*
X0013590Y0076141D01*
X0015210Y0076141D02*
X0037293Y0076141D01*
X0036633Y0077140D02*
X0028553Y0077140D01*
X0029551Y0078138D02*
X0036419Y0078138D01*
X0036541Y0079137D02*
X0030550Y0079137D01*
X0031548Y0080135D02*
X0037069Y0080135D01*
X0038572Y0081134D02*
X0032547Y0081134D01*
X0033545Y0082132D02*
X0039136Y0082132D01*
X0038919Y0083131D02*
X0034544Y0083131D01*
X0035542Y0084129D02*
X0039038Y0084129D01*
X0039562Y0085128D02*
X0036541Y0085128D01*
X0037539Y0086126D02*
X0041054Y0086126D01*
X0042746Y0086126D02*
X0056261Y0086126D01*
X0057259Y0085128D02*
X0044238Y0085128D01*
X0044762Y0084129D02*
X0069345Y0084129D01*
X0070433Y0083131D02*
X0044881Y0083131D01*
X0044400Y0080750D02*
X0041900Y0083250D01*
X0044400Y0080750D02*
X0079400Y0080750D01*
X0082054Y0082132D02*
X0090300Y0082132D01*
X0090300Y0081134D02*
X0082381Y0081134D01*
X0082372Y0080135D02*
X0090300Y0080135D01*
X0090300Y0079137D02*
X0081959Y0079137D01*
X0080885Y0078138D02*
X0090300Y0078138D01*
X0090300Y0077140D02*
X0070273Y0077140D01*
X0071271Y0076141D02*
X0090300Y0076141D01*
X0090300Y0075143D02*
X0072270Y0075143D01*
X0073268Y0074144D02*
X0090300Y0074144D01*
X0090300Y0073146D02*
X0074267Y0073146D01*
X0075265Y0072147D02*
X0090300Y0072147D01*
X0090300Y0071149D02*
X0076264Y0071149D01*
X0077262Y0070150D02*
X0090300Y0070150D01*
X0090300Y0069152D02*
X0078261Y0069152D01*
X0078500Y0068153D02*
X0085087Y0068153D01*
X0084255Y0067155D02*
X0078500Y0067155D01*
X0078500Y0066156D02*
X0083919Y0066156D01*
X0083919Y0065158D02*
X0078500Y0065158D01*
X0078500Y0064159D02*
X0083046Y0064159D01*
X0082048Y0063161D02*
X0078705Y0063161D01*
X0079542Y0062162D02*
X0081049Y0062162D01*
X0080051Y0061164D02*
X0079881Y0061164D01*
X0076900Y0060750D02*
X0076900Y0068250D01*
X0069400Y0075750D01*
X0041900Y0075750D01*
X0039400Y0078250D01*
X0042381Y0078138D02*
X0077915Y0078138D01*
X0076841Y0079137D02*
X0042259Y0079137D01*
X0042752Y0080135D02*
X0041731Y0080135D01*
X0040244Y0075143D02*
X0016723Y0075143D01*
X0017256Y0074144D02*
X0068743Y0074144D01*
X0069741Y0073146D02*
X0017381Y0073146D01*
X0027400Y0078250D02*
X0006900Y0078250D01*
X0011315Y0080135D02*
X0027023Y0080135D01*
X0026737Y0079850D02*
X0011433Y0079850D01*
X0010969Y0080969D01*
X0009619Y0082319D01*
X0007855Y0083050D01*
X0005945Y0083050D01*
X0004181Y0082319D01*
X0003900Y0082038D01*
X0003900Y0083883D01*
X0004945Y0083450D01*
X0006855Y0083450D01*
X0008619Y0084181D01*
X0009969Y0085531D01*
X0010433Y0086650D01*
X0027063Y0086650D01*
X0034826Y0094414D01*
X0035945Y0093950D01*
X0037855Y0093950D01*
X0039619Y0094681D01*
X0040969Y0096031D01*
X0041700Y0097795D01*
X0041700Y0099705D01*
X0041076Y0101211D01*
X0043572Y0101211D01*
X0042831Y0100469D01*
X0042100Y0098705D01*
X0042100Y0096795D01*
X0042564Y0095676D01*
X0026737Y0079850D01*
X0028021Y0081134D02*
X0010804Y0081134D01*
X0009806Y0082132D02*
X0029020Y0082132D01*
X0030018Y0083131D02*
X0003900Y0083131D01*
X0003900Y0082132D02*
X0003994Y0082132D01*
X0008495Y0084129D02*
X0031017Y0084129D01*
X0032015Y0085128D02*
X0009566Y0085128D01*
X0010216Y0086126D02*
X0033014Y0086126D01*
X0034012Y0087125D02*
X0027538Y0087125D01*
X0028536Y0088123D02*
X0035011Y0088123D01*
X0036009Y0089122D02*
X0029535Y0089122D01*
X0030533Y0090120D02*
X0037008Y0090120D01*
X0038006Y0091119D02*
X0031532Y0091119D01*
X0032530Y0092118D02*
X0039005Y0092118D01*
X0040003Y0093116D02*
X0033529Y0093116D01*
X0034527Y0094115D02*
X0035548Y0094115D01*
X0038252Y0094115D02*
X0041002Y0094115D01*
X0040051Y0095113D02*
X0042000Y0095113D01*
X0042383Y0096112D02*
X0041003Y0096112D01*
X0041416Y0097110D02*
X0042100Y0097110D01*
X0042100Y0098109D02*
X0041700Y0098109D01*
X0041700Y0099107D02*
X0042267Y0099107D01*
X0042680Y0100106D02*
X0041534Y0100106D01*
X0041120Y0101104D02*
X0043466Y0101104D01*
X0046900Y0097750D02*
X0058900Y0085750D01*
X0071900Y0085750D01*
X0074881Y0086126D02*
X0090300Y0086126D01*
X0090300Y0085128D02*
X0074869Y0085128D01*
X0074455Y0084129D02*
X0090300Y0084129D01*
X0090300Y0083131D02*
X0081235Y0083131D01*
X0077565Y0083131D02*
X0073367Y0083131D01*
X0074557Y0087125D02*
X0090300Y0087125D01*
X0090300Y0088123D02*
X0073742Y0088123D01*
X0070058Y0088123D02*
X0058789Y0088123D01*
X0057791Y0089122D02*
X0090300Y0089122D01*
X0090300Y0090120D02*
X0056792Y0090120D01*
X0055794Y0091119D02*
X0090300Y0091119D01*
X0090270Y0092118D02*
X0054795Y0092118D01*
X0053797Y0093116D02*
X0065544Y0093116D01*
X0063747Y0094115D02*
X0058252Y0094115D01*
X0060051Y0095113D02*
X0062797Y0095113D01*
X0062383Y0096112D02*
X0061003Y0096112D01*
X0061416Y0097110D02*
X0062100Y0097110D01*
X0062100Y0098109D02*
X0061700Y0098109D01*
X0061700Y0099107D02*
X0062267Y0099107D01*
X0062680Y0100106D02*
X0061534Y0100106D01*
X0061120Y0101104D02*
X0063466Y0101104D01*
X0070334Y0101104D02*
X0072680Y0101104D01*
X0072266Y0100106D02*
X0071120Y0100106D01*
X0071533Y0099107D02*
X0072100Y0099107D01*
X0072100Y0098109D02*
X0071700Y0098109D01*
X0071700Y0097110D02*
X0072384Y0097110D01*
X0072797Y0096112D02*
X0071417Y0096112D01*
X0071003Y0095113D02*
X0073749Y0095113D01*
X0075548Y0094115D02*
X0070053Y0094115D01*
X0068256Y0093116D02*
X0085544Y0093116D01*
X0083747Y0094115D02*
X0078252Y0094115D01*
X0080051Y0095113D02*
X0082797Y0095113D01*
X0082383Y0096112D02*
X0081003Y0096112D01*
X0081416Y0097110D02*
X0082100Y0097110D01*
X0082100Y0098109D02*
X0081700Y0098109D01*
X0081700Y0099107D02*
X0082267Y0099107D01*
X0082680Y0100106D02*
X0081534Y0100106D01*
X0081120Y0101104D02*
X0083466Y0101104D01*
X0086900Y0097750D02*
X0091900Y0092750D01*
X0091900Y0063250D01*
X0081900Y0053250D01*
X0090073Y0046186D02*
X0027099Y0046186D01*
X0026100Y0045187D02*
X0089075Y0045187D01*
X0113505Y0051179D02*
X0126709Y0051179D01*
X0129237Y0053176D02*
X0164712Y0053176D01*
X0163713Y0054174D02*
X0128239Y0054174D01*
X0130236Y0052177D02*
X0165710Y0052177D01*
X0166709Y0051179D02*
X0131234Y0051179D01*
X0116900Y0058250D02*
X0116900Y0087750D01*
X0106900Y0097750D01*
X0111417Y0096112D02*
X0112797Y0096112D01*
X0112384Y0097110D02*
X0111700Y0097110D01*
X0111700Y0098109D02*
X0112100Y0098109D01*
X0112100Y0099107D02*
X0111533Y0099107D01*
X0111120Y0100106D02*
X0112266Y0100106D01*
X0112680Y0101104D02*
X0110334Y0101104D01*
X0103466Y0101104D02*
X0101120Y0101104D01*
X0101534Y0100106D02*
X0102680Y0100106D01*
X0102267Y0099107D02*
X0101700Y0099107D01*
X0101700Y0098109D02*
X0102100Y0098109D01*
X0102100Y0097110D02*
X0101416Y0097110D01*
X0101003Y0096112D02*
X0102383Y0096112D01*
X0102797Y0095113D02*
X0100051Y0095113D01*
X0098252Y0094115D02*
X0103747Y0094115D01*
X0105544Y0093116D02*
X0093500Y0093116D01*
X0093500Y0092118D02*
X0110270Y0092118D01*
X0109591Y0091119D02*
X0111268Y0091119D01*
X0111602Y0090286D02*
X0108551Y0091550D01*
X0105249Y0091550D01*
X0102198Y0090286D01*
X0099864Y0087952D01*
X0098600Y0084901D01*
X0098600Y0081599D01*
X0099864Y0078548D01*
X0102198Y0076214D01*
X0105249Y0074950D01*
X0108551Y0074950D01*
X0111602Y0076214D01*
X0113936Y0078548D01*
X0115200Y0081599D01*
X0115200Y0084901D01*
X0113936Y0087952D01*
X0111602Y0090286D01*
X0111767Y0090120D02*
X0112267Y0090120D01*
X0112766Y0089122D02*
X0113265Y0089122D01*
X0113764Y0088123D02*
X0114264Y0088123D01*
X0114279Y0087125D02*
X0115262Y0087125D01*
X0115300Y0086126D02*
X0114692Y0086126D01*
X0115106Y0085128D02*
X0115300Y0085128D01*
X0115300Y0084129D02*
X0115200Y0084129D01*
X0115200Y0083131D02*
X0115300Y0083131D01*
X0115300Y0082132D02*
X0115200Y0082132D01*
X0115300Y0081134D02*
X0115007Y0081134D01*
X0115300Y0080135D02*
X0114594Y0080135D01*
X0114180Y0079137D02*
X0115300Y0079137D01*
X0115300Y0078138D02*
X0113526Y0078138D01*
X0112528Y0077140D02*
X0115300Y0077140D01*
X0115300Y0076141D02*
X0111427Y0076141D01*
X0109016Y0075143D02*
X0115300Y0075143D01*
X0115300Y0074144D02*
X0093500Y0074144D01*
X0093500Y0073146D02*
X0115300Y0073146D01*
X0118500Y0073146D02*
X0119116Y0073146D01*
X0119257Y0074144D02*
X0118500Y0074144D01*
X0118500Y0075143D02*
X0119855Y0075143D01*
X0118500Y0076141D02*
X0135300Y0076141D01*
X0135300Y0077140D02*
X0118500Y0077140D01*
X0118500Y0078138D02*
X0134749Y0078138D01*
X0133750Y0079137D02*
X0118500Y0079137D01*
X0118500Y0080135D02*
X0132752Y0080135D01*
X0131753Y0081134D02*
X0118500Y0081134D01*
X0118500Y0082132D02*
X0130755Y0082132D01*
X0129756Y0083131D02*
X0118500Y0083131D01*
X0118500Y0084129D02*
X0128758Y0084129D01*
X0127759Y0085128D02*
X0118500Y0085128D01*
X0118500Y0086126D02*
X0126761Y0086126D01*
X0125762Y0087125D02*
X0118500Y0087125D01*
X0118500Y0088123D02*
X0124764Y0088123D01*
X0123765Y0089122D02*
X0117791Y0089122D01*
X0116792Y0090120D02*
X0122767Y0090120D01*
X0121768Y0091119D02*
X0115794Y0091119D01*
X0114795Y0092118D02*
X0120770Y0092118D01*
X0119771Y0093116D02*
X0113797Y0093116D01*
X0112798Y0094115D02*
X0115548Y0094115D01*
X0113749Y0095113D02*
X0111800Y0095113D01*
X0109271Y0093116D02*
X0108256Y0093116D01*
X0104209Y0091119D02*
X0093500Y0091119D01*
X0093500Y0090120D02*
X0102033Y0090120D01*
X0101034Y0089122D02*
X0093500Y0089122D01*
X0093500Y0088123D02*
X0100035Y0088123D01*
X0099521Y0087125D02*
X0093500Y0087125D01*
X0093500Y0086126D02*
X0099108Y0086126D01*
X0098694Y0085128D02*
X0093500Y0085128D01*
X0093500Y0084129D02*
X0098600Y0084129D01*
X0098600Y0083131D02*
X0093500Y0083131D01*
X0093500Y0082132D02*
X0098600Y0082132D01*
X0098793Y0081134D02*
X0093500Y0081134D01*
X0093500Y0080135D02*
X0099206Y0080135D01*
X0099620Y0079137D02*
X0093500Y0079137D01*
X0093500Y0078138D02*
X0100274Y0078138D01*
X0101272Y0077140D02*
X0093500Y0077140D01*
X0093500Y0076141D02*
X0102373Y0076141D01*
X0104784Y0075143D02*
X0093500Y0075143D01*
X0096900Y0068250D02*
X0096900Y0063250D01*
X0097381Y0060165D02*
X0097722Y0060165D01*
X0097800Y0059167D02*
X0096971Y0059167D01*
X0090300Y0067155D02*
X0089545Y0067155D01*
X0090300Y0068153D02*
X0088713Y0068153D01*
X0118500Y0068153D02*
X0120300Y0068153D01*
X0120300Y0067155D02*
X0118500Y0067155D01*
X0118500Y0066156D02*
X0120300Y0066156D01*
X0120300Y0065158D02*
X0118500Y0065158D01*
X0118500Y0064159D02*
X0120300Y0064159D01*
X0120300Y0063161D02*
X0118500Y0063161D01*
X0118500Y0062162D02*
X0120300Y0062162D01*
X0120300Y0061164D02*
X0118500Y0061164D01*
X0118662Y0060165D02*
X0119878Y0060165D01*
X0120300Y0069152D02*
X0118500Y0069152D01*
X0118500Y0070150D02*
X0120300Y0070150D01*
X0120064Y0071149D02*
X0118500Y0071149D01*
X0118500Y0072147D02*
X0119343Y0072147D01*
X0136900Y0068250D02*
X0136900Y0078250D01*
X0116900Y0098250D01*
X0116900Y0098750D01*
X0118252Y0094115D02*
X0118773Y0094115D01*
X0129297Y0093116D02*
X0135374Y0093116D01*
X0135700Y0093116D02*
X0136700Y0093116D01*
X0136700Y0093064D02*
X0137418Y0093178D01*
X0138196Y0093431D01*
X0138925Y0093803D01*
X0139588Y0094284D01*
X0140166Y0094862D01*
X0140647Y0095525D01*
X0141019Y0096254D01*
X0141272Y0097032D01*
X0141386Y0097750D01*
X0136700Y0097750D01*
X0136700Y0093064D01*
X0137026Y0093116D02*
X0146774Y0093116D01*
X0147100Y0093116D02*
X0148100Y0093116D01*
X0148100Y0093064D02*
X0148818Y0093178D01*
X0149596Y0093431D01*
X0150325Y0093803D01*
X0150988Y0094284D01*
X0151566Y0094862D01*
X0152047Y0095525D01*
X0152419Y0096254D01*
X0152672Y0097032D01*
X0152786Y0097750D01*
X0148100Y0097750D01*
X0148100Y0093064D01*
X0148426Y0093116D02*
X0191101Y0093116D01*
X0191101Y0092118D02*
X0130295Y0092118D01*
X0131294Y0091119D02*
X0191101Y0091119D01*
X0191101Y0090120D02*
X0174008Y0090120D01*
X0174036Y0090109D02*
X0172650Y0090683D01*
X0171150Y0090683D01*
X0169764Y0090109D01*
X0168703Y0089048D01*
X0168128Y0087662D01*
X0168128Y0086161D01*
X0168703Y0084775D01*
X0169764Y0083714D01*
X0171150Y0083140D01*
X0172650Y0083140D01*
X0174036Y0083714D01*
X0175097Y0084775D01*
X0175672Y0086161D01*
X0175672Y0087662D01*
X0175097Y0089048D01*
X0174036Y0090109D01*
X0175023Y0089122D02*
X0191101Y0089122D01*
X0191101Y0088123D02*
X0175480Y0088123D01*
X0175672Y0087125D02*
X0191101Y0087125D01*
X0191101Y0086126D02*
X0175657Y0086126D01*
X0175244Y0085128D02*
X0191101Y0085128D01*
X0191101Y0084129D02*
X0174452Y0084129D01*
X0169348Y0084129D02*
X0138283Y0084129D01*
X0139282Y0083131D02*
X0191101Y0083131D01*
X0191101Y0082132D02*
X0140280Y0082132D01*
X0141279Y0081134D02*
X0191101Y0081134D01*
X0191101Y0080135D02*
X0142277Y0080135D01*
X0143276Y0079137D02*
X0191101Y0079137D01*
X0191101Y0078138D02*
X0144274Y0078138D01*
X0145273Y0077140D02*
X0191101Y0077140D01*
X0191101Y0076141D02*
X0146271Y0076141D01*
X0147270Y0075143D02*
X0191101Y0075143D01*
X0168556Y0085128D02*
X0137285Y0085128D01*
X0136286Y0086126D02*
X0168143Y0086126D01*
X0168128Y0087125D02*
X0135288Y0087125D01*
X0134289Y0088123D02*
X0168320Y0088123D01*
X0168777Y0089122D02*
X0133291Y0089122D01*
X0132292Y0090120D02*
X0169792Y0090120D01*
X0152346Y0096112D02*
X0191101Y0096112D01*
X0191101Y0097110D02*
X0152684Y0097110D01*
X0152729Y0099107D02*
X0191101Y0099107D01*
X0191101Y0098109D02*
X0148100Y0098109D01*
X0148100Y0097110D02*
X0147100Y0097110D01*
X0147100Y0097750D02*
X0147100Y0093064D01*
X0146382Y0093178D01*
X0145604Y0093431D01*
X0144875Y0093803D01*
X0144212Y0094284D01*
X0143634Y0094862D01*
X0143153Y0095525D01*
X0142781Y0096254D01*
X0142528Y0097032D01*
X0142414Y0097750D01*
X0147100Y0097750D01*
X0147100Y0098109D02*
X0136700Y0098109D01*
X0136700Y0097110D02*
X0135700Y0097110D01*
X0135700Y0096112D02*
X0136700Y0096112D01*
X0136700Y0095113D02*
X0135700Y0095113D01*
X0135700Y0094115D02*
X0136700Y0094115D01*
X0139355Y0094115D02*
X0144445Y0094115D01*
X0143452Y0095113D02*
X0140348Y0095113D01*
X0140946Y0096112D02*
X0142853Y0096112D01*
X0142516Y0097110D02*
X0141284Y0097110D01*
X0141329Y0099107D02*
X0142471Y0099107D01*
X0142735Y0100106D02*
X0141065Y0100106D01*
X0140554Y0101104D02*
X0143246Y0101104D01*
X0147100Y0096112D02*
X0148100Y0096112D01*
X0148100Y0095113D02*
X0147100Y0095113D01*
X0147100Y0094115D02*
X0148100Y0094115D01*
X0150755Y0094115D02*
X0191101Y0094115D01*
X0191101Y0095113D02*
X0151748Y0095113D01*
X0152465Y0100106D02*
X0191101Y0100106D01*
X0191101Y0101104D02*
X0151954Y0101104D01*
X0133045Y0094115D02*
X0130053Y0094115D01*
X0131003Y0095113D02*
X0132052Y0095113D01*
X0131453Y0096112D02*
X0131417Y0096112D01*
X0095548Y0094115D02*
X0092798Y0094115D01*
X0093749Y0095113D02*
X0091800Y0095113D01*
X0091417Y0096112D02*
X0092797Y0096112D01*
X0092384Y0097110D02*
X0091700Y0097110D01*
X0091700Y0098109D02*
X0092100Y0098109D01*
X0092100Y0099107D02*
X0091533Y0099107D01*
X0091120Y0100106D02*
X0092266Y0100106D01*
X0092680Y0101104D02*
X0090334Y0101104D01*
X0089271Y0093116D02*
X0088256Y0093116D01*
X0055548Y0094115D02*
X0052798Y0094115D01*
X0053749Y0095113D02*
X0051800Y0095113D01*
X0051417Y0096112D02*
X0052797Y0096112D01*
X0052384Y0097110D02*
X0051700Y0097110D01*
X0051700Y0098109D02*
X0052100Y0098109D01*
X0052100Y0099107D02*
X0051533Y0099107D01*
X0051120Y0100106D02*
X0052266Y0100106D01*
X0052680Y0101104D02*
X0050334Y0101104D01*
X0046900Y0097750D02*
X0027400Y0078250D01*
X0038538Y0087125D02*
X0055262Y0087125D01*
X0054264Y0088123D02*
X0039536Y0088123D01*
X0040535Y0089122D02*
X0053265Y0089122D01*
X0052267Y0090120D02*
X0041533Y0090120D01*
X0042532Y0091119D02*
X0051268Y0091119D01*
X0050270Y0092118D02*
X0043530Y0092118D01*
X0044529Y0093116D02*
X0045544Y0093116D01*
X0048256Y0093116D02*
X0049271Y0093116D01*
X0036900Y0098750D02*
X0026400Y0088250D01*
X0005900Y0088250D01*
X0004197Y0054174D02*
X0003900Y0054174D01*
X0003900Y0053176D02*
X0004232Y0053176D01*
X0005400Y0053176D02*
X0006400Y0053176D01*
X0006400Y0053436D02*
X0007118Y0053322D01*
X0007896Y0053069D01*
X0008625Y0052697D01*
X0009288Y0052216D01*
X0009866Y0051638D01*
X0010347Y0050975D01*
X0010719Y0050246D01*
X0010972Y0049468D01*
X0011086Y0048750D01*
X0006400Y0048750D01*
X0006400Y0053436D01*
X0007568Y0053176D02*
X0012800Y0053176D01*
X0012800Y0054174D02*
X0009603Y0054174D01*
X0009327Y0052177D02*
X0012800Y0052177D01*
X0012800Y0051179D02*
X0010200Y0051179D01*
X0010740Y0050180D02*
X0012800Y0050180D01*
X0012800Y0049182D02*
X0011017Y0049182D01*
X0006400Y0049182D02*
X0005400Y0049182D01*
X0005400Y0050180D02*
X0006400Y0050180D01*
X0006400Y0051179D02*
X0005400Y0051179D01*
X0005400Y0052177D02*
X0006400Y0052177D01*
X0009400Y0040750D02*
X0009400Y0035750D01*
X0016900Y0028250D01*
X0020655Y0025217D02*
X0023145Y0025217D01*
X0024143Y0024219D02*
X0019657Y0024219D01*
X0019716Y0022222D02*
X0024084Y0022222D01*
X0023085Y0021223D02*
X0020715Y0021223D01*
X0021700Y0020225D02*
X0022100Y0020225D01*
X0022100Y0019226D02*
X0021700Y0019226D01*
X0021700Y0018228D02*
X0022100Y0018228D01*
X0022100Y0017229D02*
X0021700Y0017229D01*
X0021669Y0016231D02*
X0022131Y0016231D01*
X0023130Y0015232D02*
X0020670Y0015232D01*
X0019672Y0014234D02*
X0024128Y0014234D01*
X0029672Y0014234D02*
X0089154Y0014234D01*
X0088155Y0015232D02*
X0030670Y0015232D01*
X0032429Y0013235D02*
X0008885Y0013235D01*
X0008618Y0013322D02*
X0007900Y0013436D01*
X0007900Y0008750D01*
X0012586Y0008750D01*
X0012472Y0009468D01*
X0012219Y0010246D01*
X0011847Y0010975D01*
X0011366Y0011638D01*
X0010788Y0012216D01*
X0010125Y0012697D01*
X0009396Y0013069D01*
X0008618Y0013322D01*
X0007900Y0013235D02*
X0006900Y0013235D01*
X0005915Y0013235D02*
X0003900Y0013235D01*
X0003900Y0012237D02*
X0004040Y0012237D01*
X0006900Y0012237D02*
X0007900Y0012237D01*
X0007900Y0011238D02*
X0006900Y0011238D01*
X0006900Y0010240D02*
X0007900Y0010240D01*
X0007900Y0009241D02*
X0006900Y0009241D01*
X0007900Y0008243D02*
X0032100Y0008243D01*
X0032100Y0009241D02*
X0012508Y0009241D01*
X0012221Y0010240D02*
X0032100Y0010240D01*
X0032100Y0011238D02*
X0011657Y0011238D01*
X0010760Y0012237D02*
X0032100Y0012237D01*
X0041371Y0013235D02*
X0055185Y0013235D01*
X0053598Y0012237D02*
X0048611Y0012237D01*
X0050200Y0011238D02*
X0052735Y0011238D01*
X0052322Y0010240D02*
X0051064Y0010240D01*
X0051478Y0009241D02*
X0052100Y0009241D01*
X0052100Y0008243D02*
X0051700Y0008243D01*
X0051700Y0007244D02*
X0052328Y0007244D01*
X0052742Y0006246D02*
X0051472Y0006246D01*
X0061058Y0006246D02*
X0062328Y0006246D01*
X0062100Y0007244D02*
X0061472Y0007244D01*
X0061700Y0008243D02*
X0062100Y0008243D01*
X0062322Y0009241D02*
X0061700Y0009241D01*
X0061478Y0010240D02*
X0062736Y0010240D01*
X0063600Y0011238D02*
X0061065Y0011238D01*
X0060202Y0012237D02*
X0065189Y0012237D01*
X0068611Y0012237D02*
X0073598Y0012237D01*
X0072735Y0011238D02*
X0070200Y0011238D01*
X0071064Y0010240D02*
X0072322Y0010240D01*
X0072100Y0009241D02*
X0071478Y0009241D01*
X0071700Y0008243D02*
X0072100Y0008243D01*
X0072328Y0007244D02*
X0071700Y0007244D01*
X0071472Y0006246D02*
X0072742Y0006246D01*
X0075185Y0013235D02*
X0058615Y0013235D01*
X0045189Y0012237D02*
X0041700Y0012237D01*
X0041700Y0011238D02*
X0043600Y0011238D01*
X0042736Y0010240D02*
X0041700Y0010240D01*
X0041700Y0009241D02*
X0042322Y0009241D01*
X0042100Y0008243D02*
X0041700Y0008243D01*
X0041700Y0007244D02*
X0042100Y0007244D01*
X0042328Y0006246D02*
X0041700Y0006246D01*
X0032100Y0006246D02*
X0012215Y0006246D01*
X0012505Y0007244D02*
X0032100Y0007244D01*
X0014128Y0014234D02*
X0009172Y0014234D01*
X0010170Y0015232D02*
X0013130Y0015232D01*
X0012131Y0016231D02*
X0010759Y0016231D01*
X0011173Y0017229D02*
X0012100Y0017229D01*
X0012100Y0018228D02*
X0011200Y0018228D01*
X0011191Y0019226D02*
X0012100Y0019226D01*
X0012100Y0020225D02*
X0010778Y0020225D01*
X0010215Y0021223D02*
X0013085Y0021223D01*
X0021654Y0026216D02*
X0022146Y0026216D01*
X0022100Y0027214D02*
X0021700Y0027214D01*
X0173773Y0046186D02*
X0191101Y0046186D01*
X0191101Y0047184D02*
X0174472Y0047184D01*
X0174684Y0048183D02*
X0191101Y0048183D01*
X0191101Y0049182D02*
X0174528Y0049182D01*
X0173907Y0050180D02*
X0191101Y0050180D01*
D18*
X0173150Y0059750D03*
X0155400Y0053500D03*
X0144400Y0063000D03*
X0111900Y0064250D03*
X0095900Y0056000D03*
X0077400Y0051250D03*
X0101900Y0036750D03*
X0127400Y0036000D03*
X0141900Y0033250D03*
X0156900Y0021000D03*
X0174400Y0035750D03*
X0184400Y0020750D03*
X0184400Y0006750D03*
X0121650Y0017500D03*
X0086900Y0014250D03*
X0067150Y0014000D03*
X0061150Y0017750D03*
X0059150Y0025000D03*
X0043650Y0023000D03*
X0021650Y0013500D03*
X0030400Y0007000D03*
X0032150Y0043750D03*
X0027150Y0054250D03*
X0022900Y0073750D03*
X0014650Y0083500D03*
X0032900Y0089250D03*
X0047150Y0087250D03*
X0072150Y0077750D03*
X0089150Y0070000D03*
X0111400Y0074250D03*
X0121900Y0086750D03*
X0094900Y0087500D03*
X0183150Y0085750D03*
D19*
X0170900Y0006250D03*
D20*
X0111900Y0053250D03*
X0116900Y0058250D03*
D21*
X0089400Y0035750D03*
X0094400Y0023250D03*
X0084400Y0020750D03*
M02*
