G75*
%MOIN*%
%OFA0B0*%
%FSLAX25Y25*%
%IPPOS*%
%LPD*%
%AMOC8*
5,1,8,0,0,1.08239X$1,22.5*
%
%ADD10C,0.00000*%
%ADD11R,0.04331X0.03937*%
%ADD12R,0.03937X0.04331*%
%ADD13R,0.06500X0.03937*%
%ADD14R,0.03346X0.02126*%
%ADD15R,0.02126X0.03346*%
%ADD16R,0.05512X0.03937*%
%ADD17R,0.03000X0.06000*%
%ADD18R,0.09843X0.01969*%
%ADD19R,0.09843X0.07874*%
%ADD20R,0.07480X0.04331*%
%ADD21R,0.03150X0.03543*%
%ADD22R,0.03150X0.04724*%
%ADD23R,0.04724X0.02362*%
D10*
X0001900Y0003250D02*
X0001900Y0103211D01*
X0193101Y0103211D01*
X0193101Y0003250D01*
X0001900Y0003250D01*
X0100600Y0083250D02*
X0100602Y0083408D01*
X0100608Y0083567D01*
X0100618Y0083725D01*
X0100632Y0083882D01*
X0100650Y0084040D01*
X0100671Y0084196D01*
X0100697Y0084353D01*
X0100727Y0084508D01*
X0100760Y0084663D01*
X0100798Y0084817D01*
X0100839Y0084970D01*
X0100884Y0085121D01*
X0100933Y0085272D01*
X0100986Y0085421D01*
X0101042Y0085569D01*
X0101103Y0085716D01*
X0101166Y0085861D01*
X0101234Y0086004D01*
X0101305Y0086145D01*
X0101379Y0086285D01*
X0101457Y0086423D01*
X0101539Y0086559D01*
X0101624Y0086692D01*
X0101712Y0086824D01*
X0101803Y0086953D01*
X0101898Y0087080D01*
X0101996Y0087204D01*
X0102097Y0087326D01*
X0102201Y0087446D01*
X0102307Y0087563D01*
X0102417Y0087677D01*
X0102530Y0087788D01*
X0102645Y0087896D01*
X0102764Y0088002D01*
X0102884Y0088104D01*
X0103007Y0088204D01*
X0103133Y0088300D01*
X0103261Y0088393D01*
X0103392Y0088483D01*
X0103524Y0088569D01*
X0103659Y0088652D01*
X0103796Y0088732D01*
X0103935Y0088808D01*
X0104075Y0088881D01*
X0104218Y0088950D01*
X0104362Y0089016D01*
X0104507Y0089078D01*
X0104655Y0089136D01*
X0104803Y0089191D01*
X0104953Y0089242D01*
X0105104Y0089289D01*
X0105257Y0089332D01*
X0105410Y0089371D01*
X0105564Y0089407D01*
X0105719Y0089438D01*
X0105875Y0089466D01*
X0106032Y0089490D01*
X0106189Y0089510D01*
X0106347Y0089526D01*
X0106504Y0089538D01*
X0106663Y0089546D01*
X0106821Y0089550D01*
X0106979Y0089550D01*
X0107137Y0089546D01*
X0107296Y0089538D01*
X0107453Y0089526D01*
X0107611Y0089510D01*
X0107768Y0089490D01*
X0107925Y0089466D01*
X0108081Y0089438D01*
X0108236Y0089407D01*
X0108390Y0089371D01*
X0108543Y0089332D01*
X0108696Y0089289D01*
X0108847Y0089242D01*
X0108997Y0089191D01*
X0109145Y0089136D01*
X0109293Y0089078D01*
X0109438Y0089016D01*
X0109582Y0088950D01*
X0109725Y0088881D01*
X0109865Y0088808D01*
X0110004Y0088732D01*
X0110141Y0088652D01*
X0110276Y0088569D01*
X0110408Y0088483D01*
X0110539Y0088393D01*
X0110667Y0088300D01*
X0110793Y0088204D01*
X0110916Y0088104D01*
X0111036Y0088002D01*
X0111155Y0087896D01*
X0111270Y0087788D01*
X0111383Y0087677D01*
X0111493Y0087563D01*
X0111599Y0087446D01*
X0111703Y0087326D01*
X0111804Y0087204D01*
X0111902Y0087080D01*
X0111997Y0086953D01*
X0112088Y0086824D01*
X0112176Y0086692D01*
X0112261Y0086559D01*
X0112343Y0086423D01*
X0112421Y0086285D01*
X0112495Y0086145D01*
X0112566Y0086004D01*
X0112634Y0085861D01*
X0112697Y0085716D01*
X0112758Y0085569D01*
X0112814Y0085421D01*
X0112867Y0085272D01*
X0112916Y0085121D01*
X0112961Y0084970D01*
X0113002Y0084817D01*
X0113040Y0084663D01*
X0113073Y0084508D01*
X0113103Y0084353D01*
X0113129Y0084196D01*
X0113150Y0084040D01*
X0113168Y0083882D01*
X0113182Y0083725D01*
X0113192Y0083567D01*
X0113198Y0083408D01*
X0113200Y0083250D01*
X0113198Y0083092D01*
X0113192Y0082933D01*
X0113182Y0082775D01*
X0113168Y0082618D01*
X0113150Y0082460D01*
X0113129Y0082304D01*
X0113103Y0082147D01*
X0113073Y0081992D01*
X0113040Y0081837D01*
X0113002Y0081683D01*
X0112961Y0081530D01*
X0112916Y0081379D01*
X0112867Y0081228D01*
X0112814Y0081079D01*
X0112758Y0080931D01*
X0112697Y0080784D01*
X0112634Y0080639D01*
X0112566Y0080496D01*
X0112495Y0080355D01*
X0112421Y0080215D01*
X0112343Y0080077D01*
X0112261Y0079941D01*
X0112176Y0079808D01*
X0112088Y0079676D01*
X0111997Y0079547D01*
X0111902Y0079420D01*
X0111804Y0079296D01*
X0111703Y0079174D01*
X0111599Y0079054D01*
X0111493Y0078937D01*
X0111383Y0078823D01*
X0111270Y0078712D01*
X0111155Y0078604D01*
X0111036Y0078498D01*
X0110916Y0078396D01*
X0110793Y0078296D01*
X0110667Y0078200D01*
X0110539Y0078107D01*
X0110408Y0078017D01*
X0110276Y0077931D01*
X0110141Y0077848D01*
X0110004Y0077768D01*
X0109865Y0077692D01*
X0109725Y0077619D01*
X0109582Y0077550D01*
X0109438Y0077484D01*
X0109293Y0077422D01*
X0109145Y0077364D01*
X0108997Y0077309D01*
X0108847Y0077258D01*
X0108696Y0077211D01*
X0108543Y0077168D01*
X0108390Y0077129D01*
X0108236Y0077093D01*
X0108081Y0077062D01*
X0107925Y0077034D01*
X0107768Y0077010D01*
X0107611Y0076990D01*
X0107453Y0076974D01*
X0107296Y0076962D01*
X0107137Y0076954D01*
X0106979Y0076950D01*
X0106821Y0076950D01*
X0106663Y0076954D01*
X0106504Y0076962D01*
X0106347Y0076974D01*
X0106189Y0076990D01*
X0106032Y0077010D01*
X0105875Y0077034D01*
X0105719Y0077062D01*
X0105564Y0077093D01*
X0105410Y0077129D01*
X0105257Y0077168D01*
X0105104Y0077211D01*
X0104953Y0077258D01*
X0104803Y0077309D01*
X0104655Y0077364D01*
X0104507Y0077422D01*
X0104362Y0077484D01*
X0104218Y0077550D01*
X0104075Y0077619D01*
X0103935Y0077692D01*
X0103796Y0077768D01*
X0103659Y0077848D01*
X0103524Y0077931D01*
X0103392Y0078017D01*
X0103261Y0078107D01*
X0103133Y0078200D01*
X0103007Y0078296D01*
X0102884Y0078396D01*
X0102764Y0078498D01*
X0102645Y0078604D01*
X0102530Y0078712D01*
X0102417Y0078823D01*
X0102307Y0078937D01*
X0102201Y0079054D01*
X0102097Y0079174D01*
X0101996Y0079296D01*
X0101898Y0079420D01*
X0101803Y0079547D01*
X0101712Y0079676D01*
X0101624Y0079808D01*
X0101539Y0079941D01*
X0101457Y0080077D01*
X0101379Y0080215D01*
X0101305Y0080355D01*
X0101234Y0080496D01*
X0101166Y0080639D01*
X0101103Y0080784D01*
X0101042Y0080931D01*
X0100986Y0081079D01*
X0100933Y0081228D01*
X0100884Y0081379D01*
X0100839Y0081530D01*
X0100798Y0081683D01*
X0100760Y0081837D01*
X0100727Y0081992D01*
X0100697Y0082147D01*
X0100671Y0082304D01*
X0100650Y0082460D01*
X0100632Y0082618D01*
X0100618Y0082775D01*
X0100608Y0082933D01*
X0100602Y0083092D01*
X0100600Y0083250D01*
X0170128Y0086911D02*
X0170130Y0086995D01*
X0170136Y0087078D01*
X0170146Y0087161D01*
X0170160Y0087244D01*
X0170177Y0087326D01*
X0170199Y0087407D01*
X0170224Y0087486D01*
X0170253Y0087565D01*
X0170286Y0087642D01*
X0170322Y0087717D01*
X0170362Y0087791D01*
X0170405Y0087863D01*
X0170452Y0087932D01*
X0170502Y0087999D01*
X0170555Y0088064D01*
X0170611Y0088126D01*
X0170669Y0088186D01*
X0170731Y0088243D01*
X0170795Y0088296D01*
X0170862Y0088347D01*
X0170931Y0088394D01*
X0171002Y0088439D01*
X0171075Y0088479D01*
X0171150Y0088516D01*
X0171227Y0088550D01*
X0171305Y0088580D01*
X0171384Y0088606D01*
X0171465Y0088629D01*
X0171547Y0088647D01*
X0171629Y0088662D01*
X0171712Y0088673D01*
X0171795Y0088680D01*
X0171879Y0088683D01*
X0171963Y0088682D01*
X0172046Y0088677D01*
X0172130Y0088668D01*
X0172212Y0088655D01*
X0172294Y0088639D01*
X0172375Y0088618D01*
X0172456Y0088594D01*
X0172534Y0088566D01*
X0172612Y0088534D01*
X0172688Y0088498D01*
X0172762Y0088459D01*
X0172834Y0088417D01*
X0172904Y0088371D01*
X0172972Y0088322D01*
X0173037Y0088270D01*
X0173100Y0088215D01*
X0173160Y0088157D01*
X0173218Y0088096D01*
X0173272Y0088032D01*
X0173324Y0087966D01*
X0173372Y0087898D01*
X0173417Y0087827D01*
X0173458Y0087754D01*
X0173497Y0087680D01*
X0173531Y0087604D01*
X0173562Y0087526D01*
X0173589Y0087447D01*
X0173613Y0087366D01*
X0173632Y0087285D01*
X0173648Y0087203D01*
X0173660Y0087120D01*
X0173668Y0087036D01*
X0173672Y0086953D01*
X0173672Y0086869D01*
X0173668Y0086786D01*
X0173660Y0086702D01*
X0173648Y0086619D01*
X0173632Y0086537D01*
X0173613Y0086456D01*
X0173589Y0086375D01*
X0173562Y0086296D01*
X0173531Y0086218D01*
X0173497Y0086142D01*
X0173458Y0086068D01*
X0173417Y0085995D01*
X0173372Y0085924D01*
X0173324Y0085856D01*
X0173272Y0085790D01*
X0173218Y0085726D01*
X0173160Y0085665D01*
X0173100Y0085607D01*
X0173037Y0085552D01*
X0172972Y0085500D01*
X0172904Y0085451D01*
X0172834Y0085405D01*
X0172762Y0085363D01*
X0172688Y0085324D01*
X0172612Y0085288D01*
X0172534Y0085256D01*
X0172456Y0085228D01*
X0172375Y0085204D01*
X0172294Y0085183D01*
X0172212Y0085167D01*
X0172130Y0085154D01*
X0172046Y0085145D01*
X0171963Y0085140D01*
X0171879Y0085139D01*
X0171795Y0085142D01*
X0171712Y0085149D01*
X0171629Y0085160D01*
X0171547Y0085175D01*
X0171465Y0085193D01*
X0171384Y0085216D01*
X0171305Y0085242D01*
X0171227Y0085272D01*
X0171150Y0085306D01*
X0171075Y0085343D01*
X0171002Y0085383D01*
X0170931Y0085428D01*
X0170862Y0085475D01*
X0170795Y0085526D01*
X0170731Y0085579D01*
X0170669Y0085636D01*
X0170611Y0085696D01*
X0170555Y0085758D01*
X0170502Y0085823D01*
X0170452Y0085890D01*
X0170405Y0085959D01*
X0170362Y0086031D01*
X0170322Y0086105D01*
X0170286Y0086180D01*
X0170253Y0086257D01*
X0170224Y0086336D01*
X0170199Y0086415D01*
X0170177Y0086496D01*
X0170160Y0086578D01*
X0170146Y0086661D01*
X0170136Y0086744D01*
X0170130Y0086827D01*
X0170128Y0086911D01*
X0170128Y0069589D02*
X0170130Y0069673D01*
X0170136Y0069756D01*
X0170146Y0069839D01*
X0170160Y0069922D01*
X0170177Y0070004D01*
X0170199Y0070085D01*
X0170224Y0070164D01*
X0170253Y0070243D01*
X0170286Y0070320D01*
X0170322Y0070395D01*
X0170362Y0070469D01*
X0170405Y0070541D01*
X0170452Y0070610D01*
X0170502Y0070677D01*
X0170555Y0070742D01*
X0170611Y0070804D01*
X0170669Y0070864D01*
X0170731Y0070921D01*
X0170795Y0070974D01*
X0170862Y0071025D01*
X0170931Y0071072D01*
X0171002Y0071117D01*
X0171075Y0071157D01*
X0171150Y0071194D01*
X0171227Y0071228D01*
X0171305Y0071258D01*
X0171384Y0071284D01*
X0171465Y0071307D01*
X0171547Y0071325D01*
X0171629Y0071340D01*
X0171712Y0071351D01*
X0171795Y0071358D01*
X0171879Y0071361D01*
X0171963Y0071360D01*
X0172046Y0071355D01*
X0172130Y0071346D01*
X0172212Y0071333D01*
X0172294Y0071317D01*
X0172375Y0071296D01*
X0172456Y0071272D01*
X0172534Y0071244D01*
X0172612Y0071212D01*
X0172688Y0071176D01*
X0172762Y0071137D01*
X0172834Y0071095D01*
X0172904Y0071049D01*
X0172972Y0071000D01*
X0173037Y0070948D01*
X0173100Y0070893D01*
X0173160Y0070835D01*
X0173218Y0070774D01*
X0173272Y0070710D01*
X0173324Y0070644D01*
X0173372Y0070576D01*
X0173417Y0070505D01*
X0173458Y0070432D01*
X0173497Y0070358D01*
X0173531Y0070282D01*
X0173562Y0070204D01*
X0173589Y0070125D01*
X0173613Y0070044D01*
X0173632Y0069963D01*
X0173648Y0069881D01*
X0173660Y0069798D01*
X0173668Y0069714D01*
X0173672Y0069631D01*
X0173672Y0069547D01*
X0173668Y0069464D01*
X0173660Y0069380D01*
X0173648Y0069297D01*
X0173632Y0069215D01*
X0173613Y0069134D01*
X0173589Y0069053D01*
X0173562Y0068974D01*
X0173531Y0068896D01*
X0173497Y0068820D01*
X0173458Y0068746D01*
X0173417Y0068673D01*
X0173372Y0068602D01*
X0173324Y0068534D01*
X0173272Y0068468D01*
X0173218Y0068404D01*
X0173160Y0068343D01*
X0173100Y0068285D01*
X0173037Y0068230D01*
X0172972Y0068178D01*
X0172904Y0068129D01*
X0172834Y0068083D01*
X0172762Y0068041D01*
X0172688Y0068002D01*
X0172612Y0067966D01*
X0172534Y0067934D01*
X0172456Y0067906D01*
X0172375Y0067882D01*
X0172294Y0067861D01*
X0172212Y0067845D01*
X0172130Y0067832D01*
X0172046Y0067823D01*
X0171963Y0067818D01*
X0171879Y0067817D01*
X0171795Y0067820D01*
X0171712Y0067827D01*
X0171629Y0067838D01*
X0171547Y0067853D01*
X0171465Y0067871D01*
X0171384Y0067894D01*
X0171305Y0067920D01*
X0171227Y0067950D01*
X0171150Y0067984D01*
X0171075Y0068021D01*
X0171002Y0068061D01*
X0170931Y0068106D01*
X0170862Y0068153D01*
X0170795Y0068204D01*
X0170731Y0068257D01*
X0170669Y0068314D01*
X0170611Y0068374D01*
X0170555Y0068436D01*
X0170502Y0068501D01*
X0170452Y0068568D01*
X0170405Y0068637D01*
X0170362Y0068709D01*
X0170322Y0068783D01*
X0170286Y0068858D01*
X0170253Y0068935D01*
X0170224Y0069014D01*
X0170199Y0069093D01*
X0170177Y0069174D01*
X0170160Y0069256D01*
X0170146Y0069339D01*
X0170136Y0069422D01*
X0170130Y0069505D01*
X0170128Y0069589D01*
X0146350Y0042250D02*
X0146352Y0042408D01*
X0146358Y0042567D01*
X0146368Y0042725D01*
X0146382Y0042882D01*
X0146400Y0043040D01*
X0146421Y0043196D01*
X0146447Y0043353D01*
X0146477Y0043508D01*
X0146510Y0043663D01*
X0146548Y0043817D01*
X0146589Y0043970D01*
X0146634Y0044121D01*
X0146683Y0044272D01*
X0146736Y0044421D01*
X0146792Y0044569D01*
X0146853Y0044716D01*
X0146916Y0044861D01*
X0146984Y0045004D01*
X0147055Y0045145D01*
X0147129Y0045285D01*
X0147207Y0045423D01*
X0147289Y0045559D01*
X0147374Y0045692D01*
X0147462Y0045824D01*
X0147553Y0045953D01*
X0147648Y0046080D01*
X0147746Y0046204D01*
X0147847Y0046326D01*
X0147951Y0046446D01*
X0148057Y0046563D01*
X0148167Y0046677D01*
X0148280Y0046788D01*
X0148395Y0046896D01*
X0148514Y0047002D01*
X0148634Y0047104D01*
X0148757Y0047204D01*
X0148883Y0047300D01*
X0149011Y0047393D01*
X0149142Y0047483D01*
X0149274Y0047569D01*
X0149409Y0047652D01*
X0149546Y0047732D01*
X0149685Y0047808D01*
X0149825Y0047881D01*
X0149968Y0047950D01*
X0150112Y0048016D01*
X0150257Y0048078D01*
X0150405Y0048136D01*
X0150553Y0048191D01*
X0150703Y0048242D01*
X0150854Y0048289D01*
X0151007Y0048332D01*
X0151160Y0048371D01*
X0151314Y0048407D01*
X0151469Y0048438D01*
X0151625Y0048466D01*
X0151782Y0048490D01*
X0151939Y0048510D01*
X0152097Y0048526D01*
X0152254Y0048538D01*
X0152413Y0048546D01*
X0152571Y0048550D01*
X0152729Y0048550D01*
X0152887Y0048546D01*
X0153046Y0048538D01*
X0153203Y0048526D01*
X0153361Y0048510D01*
X0153518Y0048490D01*
X0153675Y0048466D01*
X0153831Y0048438D01*
X0153986Y0048407D01*
X0154140Y0048371D01*
X0154293Y0048332D01*
X0154446Y0048289D01*
X0154597Y0048242D01*
X0154747Y0048191D01*
X0154895Y0048136D01*
X0155043Y0048078D01*
X0155188Y0048016D01*
X0155332Y0047950D01*
X0155475Y0047881D01*
X0155615Y0047808D01*
X0155754Y0047732D01*
X0155891Y0047652D01*
X0156026Y0047569D01*
X0156158Y0047483D01*
X0156289Y0047393D01*
X0156417Y0047300D01*
X0156543Y0047204D01*
X0156666Y0047104D01*
X0156786Y0047002D01*
X0156905Y0046896D01*
X0157020Y0046788D01*
X0157133Y0046677D01*
X0157243Y0046563D01*
X0157349Y0046446D01*
X0157453Y0046326D01*
X0157554Y0046204D01*
X0157652Y0046080D01*
X0157747Y0045953D01*
X0157838Y0045824D01*
X0157926Y0045692D01*
X0158011Y0045559D01*
X0158093Y0045423D01*
X0158171Y0045285D01*
X0158245Y0045145D01*
X0158316Y0045004D01*
X0158384Y0044861D01*
X0158447Y0044716D01*
X0158508Y0044569D01*
X0158564Y0044421D01*
X0158617Y0044272D01*
X0158666Y0044121D01*
X0158711Y0043970D01*
X0158752Y0043817D01*
X0158790Y0043663D01*
X0158823Y0043508D01*
X0158853Y0043353D01*
X0158879Y0043196D01*
X0158900Y0043040D01*
X0158918Y0042882D01*
X0158932Y0042725D01*
X0158942Y0042567D01*
X0158948Y0042408D01*
X0158950Y0042250D01*
X0158948Y0042092D01*
X0158942Y0041933D01*
X0158932Y0041775D01*
X0158918Y0041618D01*
X0158900Y0041460D01*
X0158879Y0041304D01*
X0158853Y0041147D01*
X0158823Y0040992D01*
X0158790Y0040837D01*
X0158752Y0040683D01*
X0158711Y0040530D01*
X0158666Y0040379D01*
X0158617Y0040228D01*
X0158564Y0040079D01*
X0158508Y0039931D01*
X0158447Y0039784D01*
X0158384Y0039639D01*
X0158316Y0039496D01*
X0158245Y0039355D01*
X0158171Y0039215D01*
X0158093Y0039077D01*
X0158011Y0038941D01*
X0157926Y0038808D01*
X0157838Y0038676D01*
X0157747Y0038547D01*
X0157652Y0038420D01*
X0157554Y0038296D01*
X0157453Y0038174D01*
X0157349Y0038054D01*
X0157243Y0037937D01*
X0157133Y0037823D01*
X0157020Y0037712D01*
X0156905Y0037604D01*
X0156786Y0037498D01*
X0156666Y0037396D01*
X0156543Y0037296D01*
X0156417Y0037200D01*
X0156289Y0037107D01*
X0156158Y0037017D01*
X0156026Y0036931D01*
X0155891Y0036848D01*
X0155754Y0036768D01*
X0155615Y0036692D01*
X0155475Y0036619D01*
X0155332Y0036550D01*
X0155188Y0036484D01*
X0155043Y0036422D01*
X0154895Y0036364D01*
X0154747Y0036309D01*
X0154597Y0036258D01*
X0154446Y0036211D01*
X0154293Y0036168D01*
X0154140Y0036129D01*
X0153986Y0036093D01*
X0153831Y0036062D01*
X0153675Y0036034D01*
X0153518Y0036010D01*
X0153361Y0035990D01*
X0153203Y0035974D01*
X0153046Y0035962D01*
X0152887Y0035954D01*
X0152729Y0035950D01*
X0152571Y0035950D01*
X0152413Y0035954D01*
X0152254Y0035962D01*
X0152097Y0035974D01*
X0151939Y0035990D01*
X0151782Y0036010D01*
X0151625Y0036034D01*
X0151469Y0036062D01*
X0151314Y0036093D01*
X0151160Y0036129D01*
X0151007Y0036168D01*
X0150854Y0036211D01*
X0150703Y0036258D01*
X0150553Y0036309D01*
X0150405Y0036364D01*
X0150257Y0036422D01*
X0150112Y0036484D01*
X0149968Y0036550D01*
X0149825Y0036619D01*
X0149685Y0036692D01*
X0149546Y0036768D01*
X0149409Y0036848D01*
X0149274Y0036931D01*
X0149142Y0037017D01*
X0149011Y0037107D01*
X0148883Y0037200D01*
X0148757Y0037296D01*
X0148634Y0037396D01*
X0148514Y0037498D01*
X0148395Y0037604D01*
X0148280Y0037712D01*
X0148167Y0037823D01*
X0148057Y0037937D01*
X0147951Y0038054D01*
X0147847Y0038174D01*
X0147746Y0038296D01*
X0147648Y0038420D01*
X0147553Y0038547D01*
X0147462Y0038676D01*
X0147374Y0038808D01*
X0147289Y0038941D01*
X0147207Y0039077D01*
X0147129Y0039215D01*
X0147055Y0039355D01*
X0146984Y0039496D01*
X0146916Y0039639D01*
X0146853Y0039784D01*
X0146792Y0039931D01*
X0146736Y0040079D01*
X0146683Y0040228D01*
X0146634Y0040379D01*
X0146589Y0040530D01*
X0146548Y0040683D01*
X0146510Y0040837D01*
X0146477Y0040992D01*
X0146447Y0041147D01*
X0146421Y0041304D01*
X0146400Y0041460D01*
X0146382Y0041618D01*
X0146368Y0041775D01*
X0146358Y0041933D01*
X0146352Y0042092D01*
X0146350Y0042250D01*
D11*
X0143554Y0025750D03*
X0150246Y0025750D03*
X0097746Y0030750D03*
X0091054Y0030750D03*
X0091054Y0018250D03*
X0097746Y0018250D03*
X0052746Y0033250D03*
X0046054Y0033250D03*
X0046054Y0043250D03*
X0052746Y0043250D03*
X0052746Y0060750D03*
X0046054Y0060750D03*
X0046054Y0070750D03*
X0052746Y0070750D03*
X0056054Y0083250D03*
X0062746Y0083250D03*
X0025246Y0008250D03*
X0018554Y0008250D03*
D12*
X0111900Y0039904D03*
X0111900Y0046596D03*
X0164400Y0016596D03*
X0164400Y0009904D03*
X0176900Y0009904D03*
X0176900Y0016596D03*
X0189400Y0016596D03*
X0189400Y0009904D03*
D13*
X0184546Y0029451D03*
X0164254Y0029451D03*
X0164254Y0042049D03*
X0184546Y0042049D03*
D14*
X0103731Y0047226D03*
X0103731Y0050376D03*
X0103731Y0053526D03*
X0103731Y0056675D03*
X0103731Y0059825D03*
X0103731Y0062974D03*
X0103731Y0066124D03*
X0103731Y0069274D03*
X0070069Y0069274D03*
X0070069Y0066124D03*
X0070069Y0062974D03*
X0070069Y0059825D03*
X0070069Y0056675D03*
X0070069Y0053565D03*
X0070069Y0050415D03*
X0070069Y0047266D03*
D15*
X0075876Y0041419D03*
X0079026Y0041419D03*
X0082176Y0041419D03*
X0085325Y0041419D03*
X0088475Y0041419D03*
X0091624Y0041419D03*
X0094774Y0041419D03*
X0097924Y0041419D03*
X0097924Y0075081D03*
X0094774Y0075081D03*
X0091624Y0075081D03*
X0088475Y0075081D03*
X0085325Y0075081D03*
X0082176Y0075081D03*
X0079026Y0075081D03*
X0075876Y0075081D03*
D16*
X0142569Y0014490D03*
X0151231Y0010750D03*
X0142569Y0007010D03*
D17*
X0034400Y0057250D03*
X0019400Y0057250D03*
X0019400Y0079250D03*
X0034400Y0079250D03*
D18*
X0162057Y0078250D03*
X0162057Y0075100D03*
X0162057Y0071951D03*
X0162057Y0081400D03*
X0162057Y0084549D03*
D19*
X0162057Y0095967D03*
X0183711Y0095967D03*
X0183711Y0060533D03*
X0162057Y0060533D03*
D20*
X0061900Y0060829D03*
X0061900Y0070671D03*
D21*
X0128160Y0059313D03*
X0135640Y0059313D03*
X0131900Y0067581D03*
D22*
X0133357Y0050750D03*
X0127943Y0050750D03*
X0120857Y0050750D03*
X0140443Y0050750D03*
D23*
X0136900Y0074510D03*
X0136900Y0078250D03*
X0136900Y0081990D03*
X0145955Y0081990D03*
X0145955Y0078250D03*
X0145955Y0074510D03*
M02*
