%
M48
M72
T01C0.0160
T02C0.0180
T03C0.0197
T04C0.0236
T05C0.0354
T06C0.0400
T07C0.1260
%
T01
X11690Y5825
X11190Y5325
X17090Y625
T02
X2165Y1350
X3040Y700
X4365Y2300
X5915Y2500
X6115Y1775
X6715Y1400
X8440Y2075
X9440Y2325
X8690Y1425
X12165Y1750
X14190Y3325
X12740Y3600
X10190Y3675
X8940Y3575
X7740Y5125
X9590Y5600
X11190Y6425
X11140Y7425
X9490Y8750
X7215Y7775
X8915Y7000
X12190Y8675
X14440Y6300
X15540Y5350
X17315Y5975
X18315Y8575
X17440Y3575
X15690Y2100
X18440Y2075
X18440Y675
X3215Y4375
X2715Y5425
X2290Y7375
X1465Y8350
X3290Y8925
X4715Y8725
T03
X12190Y7325
X13690Y6825
X12190Y5825
X14690Y3325
X17190Y4825
T04
X4190Y8325
X3940Y7825
X1440Y7325
X4190Y5325
X7690Y6075
X8690Y6575
X9440Y6075
X8190Y5325
X9690Y6825
X7940Y8075
X7190Y8575
X12940Y4075
T05
X17190Y8691
X17190Y6959
T06
X740Y825
X640Y1825
X1690Y1825
X2690Y1825
X2690Y2825
X1690Y2825
X740Y2825
X1690Y3825
X2690Y3825
X590Y4825
X690Y5825
X590Y6825
X690Y7825
X590Y8825
X690Y9825
X2690Y9775
X3690Y9875
X4690Y9775
X5690Y9875
X6690Y9775
X7690Y9875
X8690Y9775
X9690Y9875
X10690Y9775
X11690Y9875
X12690Y9775
X13620Y9825
X14760Y9825
X12940Y2875
X11940Y2775
X10940Y2875
X9690Y875
X8690Y775
X7690Y875
X6690Y775
X5690Y875
X4690Y775
X3690Y875
X10690Y775
X11620Y825
X12760Y825
T07
X10690Y8325
X15265Y4225
M30
