G75*
%MOIN*%
%OFA0B0*%
%FSLAX25Y25*%
%IPPOS*%
%LPD*%
%AMOC8*
5,1,8,0,0,1.08239X$1,22.5*
%
%ADD10C,0.00000*%
%ADD11R,0.04331X0.03937*%
%ADD12R,0.03937X0.04331*%
%ADD13R,0.06500X0.03937*%
%ADD14R,0.03346X0.02126*%
%ADD15R,0.02126X0.03346*%
%ADD16R,0.05512X0.03937*%
%ADD17C,0.07400*%
%ADD18R,0.07400X0.07400*%
%ADD19R,0.03000X0.06000*%
%ADD20R,0.09843X0.01969*%
%ADD21R,0.09843X0.07874*%
%ADD22R,0.07480X0.04331*%
%ADD23R,0.03150X0.03543*%
%ADD24R,0.03150X0.04724*%
%ADD25R,0.04724X0.02362*%
%ADD26OC8,0.07400*%
%ADD27C,0.02400*%
%ADD28C,0.01600*%
%ADD29C,0.03762*%
%ADD30C,0.01000*%
%ADD31C,0.03369*%
%ADD32C,0.02000*%
%ADD33OC8,0.03200*%
%ADD34OC8,0.03000*%
%ADD35C,0.03000*%
%ADD36C,0.03200*%
D10*
X0001900Y0003250D02*
X0001900Y0103211D01*
X0193101Y0103211D01*
X0193101Y0003250D01*
X0001900Y0003250D01*
X0100600Y0083250D02*
X0100602Y0083408D01*
X0100608Y0083567D01*
X0100618Y0083725D01*
X0100632Y0083882D01*
X0100650Y0084040D01*
X0100671Y0084196D01*
X0100697Y0084353D01*
X0100727Y0084508D01*
X0100760Y0084663D01*
X0100798Y0084817D01*
X0100839Y0084970D01*
X0100884Y0085121D01*
X0100933Y0085272D01*
X0100986Y0085421D01*
X0101042Y0085569D01*
X0101103Y0085716D01*
X0101166Y0085861D01*
X0101234Y0086004D01*
X0101305Y0086145D01*
X0101379Y0086285D01*
X0101457Y0086423D01*
X0101539Y0086559D01*
X0101624Y0086692D01*
X0101712Y0086824D01*
X0101803Y0086953D01*
X0101898Y0087080D01*
X0101996Y0087204D01*
X0102097Y0087326D01*
X0102201Y0087446D01*
X0102307Y0087563D01*
X0102417Y0087677D01*
X0102530Y0087788D01*
X0102645Y0087896D01*
X0102764Y0088002D01*
X0102884Y0088104D01*
X0103007Y0088204D01*
X0103133Y0088300D01*
X0103261Y0088393D01*
X0103392Y0088483D01*
X0103524Y0088569D01*
X0103659Y0088652D01*
X0103796Y0088732D01*
X0103935Y0088808D01*
X0104075Y0088881D01*
X0104218Y0088950D01*
X0104362Y0089016D01*
X0104507Y0089078D01*
X0104655Y0089136D01*
X0104803Y0089191D01*
X0104953Y0089242D01*
X0105104Y0089289D01*
X0105257Y0089332D01*
X0105410Y0089371D01*
X0105564Y0089407D01*
X0105719Y0089438D01*
X0105875Y0089466D01*
X0106032Y0089490D01*
X0106189Y0089510D01*
X0106347Y0089526D01*
X0106504Y0089538D01*
X0106663Y0089546D01*
X0106821Y0089550D01*
X0106979Y0089550D01*
X0107137Y0089546D01*
X0107296Y0089538D01*
X0107453Y0089526D01*
X0107611Y0089510D01*
X0107768Y0089490D01*
X0107925Y0089466D01*
X0108081Y0089438D01*
X0108236Y0089407D01*
X0108390Y0089371D01*
X0108543Y0089332D01*
X0108696Y0089289D01*
X0108847Y0089242D01*
X0108997Y0089191D01*
X0109145Y0089136D01*
X0109293Y0089078D01*
X0109438Y0089016D01*
X0109582Y0088950D01*
X0109725Y0088881D01*
X0109865Y0088808D01*
X0110004Y0088732D01*
X0110141Y0088652D01*
X0110276Y0088569D01*
X0110408Y0088483D01*
X0110539Y0088393D01*
X0110667Y0088300D01*
X0110793Y0088204D01*
X0110916Y0088104D01*
X0111036Y0088002D01*
X0111155Y0087896D01*
X0111270Y0087788D01*
X0111383Y0087677D01*
X0111493Y0087563D01*
X0111599Y0087446D01*
X0111703Y0087326D01*
X0111804Y0087204D01*
X0111902Y0087080D01*
X0111997Y0086953D01*
X0112088Y0086824D01*
X0112176Y0086692D01*
X0112261Y0086559D01*
X0112343Y0086423D01*
X0112421Y0086285D01*
X0112495Y0086145D01*
X0112566Y0086004D01*
X0112634Y0085861D01*
X0112697Y0085716D01*
X0112758Y0085569D01*
X0112814Y0085421D01*
X0112867Y0085272D01*
X0112916Y0085121D01*
X0112961Y0084970D01*
X0113002Y0084817D01*
X0113040Y0084663D01*
X0113073Y0084508D01*
X0113103Y0084353D01*
X0113129Y0084196D01*
X0113150Y0084040D01*
X0113168Y0083882D01*
X0113182Y0083725D01*
X0113192Y0083567D01*
X0113198Y0083408D01*
X0113200Y0083250D01*
X0113198Y0083092D01*
X0113192Y0082933D01*
X0113182Y0082775D01*
X0113168Y0082618D01*
X0113150Y0082460D01*
X0113129Y0082304D01*
X0113103Y0082147D01*
X0113073Y0081992D01*
X0113040Y0081837D01*
X0113002Y0081683D01*
X0112961Y0081530D01*
X0112916Y0081379D01*
X0112867Y0081228D01*
X0112814Y0081079D01*
X0112758Y0080931D01*
X0112697Y0080784D01*
X0112634Y0080639D01*
X0112566Y0080496D01*
X0112495Y0080355D01*
X0112421Y0080215D01*
X0112343Y0080077D01*
X0112261Y0079941D01*
X0112176Y0079808D01*
X0112088Y0079676D01*
X0111997Y0079547D01*
X0111902Y0079420D01*
X0111804Y0079296D01*
X0111703Y0079174D01*
X0111599Y0079054D01*
X0111493Y0078937D01*
X0111383Y0078823D01*
X0111270Y0078712D01*
X0111155Y0078604D01*
X0111036Y0078498D01*
X0110916Y0078396D01*
X0110793Y0078296D01*
X0110667Y0078200D01*
X0110539Y0078107D01*
X0110408Y0078017D01*
X0110276Y0077931D01*
X0110141Y0077848D01*
X0110004Y0077768D01*
X0109865Y0077692D01*
X0109725Y0077619D01*
X0109582Y0077550D01*
X0109438Y0077484D01*
X0109293Y0077422D01*
X0109145Y0077364D01*
X0108997Y0077309D01*
X0108847Y0077258D01*
X0108696Y0077211D01*
X0108543Y0077168D01*
X0108390Y0077129D01*
X0108236Y0077093D01*
X0108081Y0077062D01*
X0107925Y0077034D01*
X0107768Y0077010D01*
X0107611Y0076990D01*
X0107453Y0076974D01*
X0107296Y0076962D01*
X0107137Y0076954D01*
X0106979Y0076950D01*
X0106821Y0076950D01*
X0106663Y0076954D01*
X0106504Y0076962D01*
X0106347Y0076974D01*
X0106189Y0076990D01*
X0106032Y0077010D01*
X0105875Y0077034D01*
X0105719Y0077062D01*
X0105564Y0077093D01*
X0105410Y0077129D01*
X0105257Y0077168D01*
X0105104Y0077211D01*
X0104953Y0077258D01*
X0104803Y0077309D01*
X0104655Y0077364D01*
X0104507Y0077422D01*
X0104362Y0077484D01*
X0104218Y0077550D01*
X0104075Y0077619D01*
X0103935Y0077692D01*
X0103796Y0077768D01*
X0103659Y0077848D01*
X0103524Y0077931D01*
X0103392Y0078017D01*
X0103261Y0078107D01*
X0103133Y0078200D01*
X0103007Y0078296D01*
X0102884Y0078396D01*
X0102764Y0078498D01*
X0102645Y0078604D01*
X0102530Y0078712D01*
X0102417Y0078823D01*
X0102307Y0078937D01*
X0102201Y0079054D01*
X0102097Y0079174D01*
X0101996Y0079296D01*
X0101898Y0079420D01*
X0101803Y0079547D01*
X0101712Y0079676D01*
X0101624Y0079808D01*
X0101539Y0079941D01*
X0101457Y0080077D01*
X0101379Y0080215D01*
X0101305Y0080355D01*
X0101234Y0080496D01*
X0101166Y0080639D01*
X0101103Y0080784D01*
X0101042Y0080931D01*
X0100986Y0081079D01*
X0100933Y0081228D01*
X0100884Y0081379D01*
X0100839Y0081530D01*
X0100798Y0081683D01*
X0100760Y0081837D01*
X0100727Y0081992D01*
X0100697Y0082147D01*
X0100671Y0082304D01*
X0100650Y0082460D01*
X0100632Y0082618D01*
X0100618Y0082775D01*
X0100608Y0082933D01*
X0100602Y0083092D01*
X0100600Y0083250D01*
X0170128Y0086911D02*
X0170130Y0086995D01*
X0170136Y0087078D01*
X0170146Y0087161D01*
X0170160Y0087244D01*
X0170177Y0087326D01*
X0170199Y0087407D01*
X0170224Y0087486D01*
X0170253Y0087565D01*
X0170286Y0087642D01*
X0170322Y0087717D01*
X0170362Y0087791D01*
X0170405Y0087863D01*
X0170452Y0087932D01*
X0170502Y0087999D01*
X0170555Y0088064D01*
X0170611Y0088126D01*
X0170669Y0088186D01*
X0170731Y0088243D01*
X0170795Y0088296D01*
X0170862Y0088347D01*
X0170931Y0088394D01*
X0171002Y0088439D01*
X0171075Y0088479D01*
X0171150Y0088516D01*
X0171227Y0088550D01*
X0171305Y0088580D01*
X0171384Y0088606D01*
X0171465Y0088629D01*
X0171547Y0088647D01*
X0171629Y0088662D01*
X0171712Y0088673D01*
X0171795Y0088680D01*
X0171879Y0088683D01*
X0171963Y0088682D01*
X0172046Y0088677D01*
X0172130Y0088668D01*
X0172212Y0088655D01*
X0172294Y0088639D01*
X0172375Y0088618D01*
X0172456Y0088594D01*
X0172534Y0088566D01*
X0172612Y0088534D01*
X0172688Y0088498D01*
X0172762Y0088459D01*
X0172834Y0088417D01*
X0172904Y0088371D01*
X0172972Y0088322D01*
X0173037Y0088270D01*
X0173100Y0088215D01*
X0173160Y0088157D01*
X0173218Y0088096D01*
X0173272Y0088032D01*
X0173324Y0087966D01*
X0173372Y0087898D01*
X0173417Y0087827D01*
X0173458Y0087754D01*
X0173497Y0087680D01*
X0173531Y0087604D01*
X0173562Y0087526D01*
X0173589Y0087447D01*
X0173613Y0087366D01*
X0173632Y0087285D01*
X0173648Y0087203D01*
X0173660Y0087120D01*
X0173668Y0087036D01*
X0173672Y0086953D01*
X0173672Y0086869D01*
X0173668Y0086786D01*
X0173660Y0086702D01*
X0173648Y0086619D01*
X0173632Y0086537D01*
X0173613Y0086456D01*
X0173589Y0086375D01*
X0173562Y0086296D01*
X0173531Y0086218D01*
X0173497Y0086142D01*
X0173458Y0086068D01*
X0173417Y0085995D01*
X0173372Y0085924D01*
X0173324Y0085856D01*
X0173272Y0085790D01*
X0173218Y0085726D01*
X0173160Y0085665D01*
X0173100Y0085607D01*
X0173037Y0085552D01*
X0172972Y0085500D01*
X0172904Y0085451D01*
X0172834Y0085405D01*
X0172762Y0085363D01*
X0172688Y0085324D01*
X0172612Y0085288D01*
X0172534Y0085256D01*
X0172456Y0085228D01*
X0172375Y0085204D01*
X0172294Y0085183D01*
X0172212Y0085167D01*
X0172130Y0085154D01*
X0172046Y0085145D01*
X0171963Y0085140D01*
X0171879Y0085139D01*
X0171795Y0085142D01*
X0171712Y0085149D01*
X0171629Y0085160D01*
X0171547Y0085175D01*
X0171465Y0085193D01*
X0171384Y0085216D01*
X0171305Y0085242D01*
X0171227Y0085272D01*
X0171150Y0085306D01*
X0171075Y0085343D01*
X0171002Y0085383D01*
X0170931Y0085428D01*
X0170862Y0085475D01*
X0170795Y0085526D01*
X0170731Y0085579D01*
X0170669Y0085636D01*
X0170611Y0085696D01*
X0170555Y0085758D01*
X0170502Y0085823D01*
X0170452Y0085890D01*
X0170405Y0085959D01*
X0170362Y0086031D01*
X0170322Y0086105D01*
X0170286Y0086180D01*
X0170253Y0086257D01*
X0170224Y0086336D01*
X0170199Y0086415D01*
X0170177Y0086496D01*
X0170160Y0086578D01*
X0170146Y0086661D01*
X0170136Y0086744D01*
X0170130Y0086827D01*
X0170128Y0086911D01*
X0170128Y0069589D02*
X0170130Y0069673D01*
X0170136Y0069756D01*
X0170146Y0069839D01*
X0170160Y0069922D01*
X0170177Y0070004D01*
X0170199Y0070085D01*
X0170224Y0070164D01*
X0170253Y0070243D01*
X0170286Y0070320D01*
X0170322Y0070395D01*
X0170362Y0070469D01*
X0170405Y0070541D01*
X0170452Y0070610D01*
X0170502Y0070677D01*
X0170555Y0070742D01*
X0170611Y0070804D01*
X0170669Y0070864D01*
X0170731Y0070921D01*
X0170795Y0070974D01*
X0170862Y0071025D01*
X0170931Y0071072D01*
X0171002Y0071117D01*
X0171075Y0071157D01*
X0171150Y0071194D01*
X0171227Y0071228D01*
X0171305Y0071258D01*
X0171384Y0071284D01*
X0171465Y0071307D01*
X0171547Y0071325D01*
X0171629Y0071340D01*
X0171712Y0071351D01*
X0171795Y0071358D01*
X0171879Y0071361D01*
X0171963Y0071360D01*
X0172046Y0071355D01*
X0172130Y0071346D01*
X0172212Y0071333D01*
X0172294Y0071317D01*
X0172375Y0071296D01*
X0172456Y0071272D01*
X0172534Y0071244D01*
X0172612Y0071212D01*
X0172688Y0071176D01*
X0172762Y0071137D01*
X0172834Y0071095D01*
X0172904Y0071049D01*
X0172972Y0071000D01*
X0173037Y0070948D01*
X0173100Y0070893D01*
X0173160Y0070835D01*
X0173218Y0070774D01*
X0173272Y0070710D01*
X0173324Y0070644D01*
X0173372Y0070576D01*
X0173417Y0070505D01*
X0173458Y0070432D01*
X0173497Y0070358D01*
X0173531Y0070282D01*
X0173562Y0070204D01*
X0173589Y0070125D01*
X0173613Y0070044D01*
X0173632Y0069963D01*
X0173648Y0069881D01*
X0173660Y0069798D01*
X0173668Y0069714D01*
X0173672Y0069631D01*
X0173672Y0069547D01*
X0173668Y0069464D01*
X0173660Y0069380D01*
X0173648Y0069297D01*
X0173632Y0069215D01*
X0173613Y0069134D01*
X0173589Y0069053D01*
X0173562Y0068974D01*
X0173531Y0068896D01*
X0173497Y0068820D01*
X0173458Y0068746D01*
X0173417Y0068673D01*
X0173372Y0068602D01*
X0173324Y0068534D01*
X0173272Y0068468D01*
X0173218Y0068404D01*
X0173160Y0068343D01*
X0173100Y0068285D01*
X0173037Y0068230D01*
X0172972Y0068178D01*
X0172904Y0068129D01*
X0172834Y0068083D01*
X0172762Y0068041D01*
X0172688Y0068002D01*
X0172612Y0067966D01*
X0172534Y0067934D01*
X0172456Y0067906D01*
X0172375Y0067882D01*
X0172294Y0067861D01*
X0172212Y0067845D01*
X0172130Y0067832D01*
X0172046Y0067823D01*
X0171963Y0067818D01*
X0171879Y0067817D01*
X0171795Y0067820D01*
X0171712Y0067827D01*
X0171629Y0067838D01*
X0171547Y0067853D01*
X0171465Y0067871D01*
X0171384Y0067894D01*
X0171305Y0067920D01*
X0171227Y0067950D01*
X0171150Y0067984D01*
X0171075Y0068021D01*
X0171002Y0068061D01*
X0170931Y0068106D01*
X0170862Y0068153D01*
X0170795Y0068204D01*
X0170731Y0068257D01*
X0170669Y0068314D01*
X0170611Y0068374D01*
X0170555Y0068436D01*
X0170502Y0068501D01*
X0170452Y0068568D01*
X0170405Y0068637D01*
X0170362Y0068709D01*
X0170322Y0068783D01*
X0170286Y0068858D01*
X0170253Y0068935D01*
X0170224Y0069014D01*
X0170199Y0069093D01*
X0170177Y0069174D01*
X0170160Y0069256D01*
X0170146Y0069339D01*
X0170136Y0069422D01*
X0170130Y0069505D01*
X0170128Y0069589D01*
X0146350Y0042250D02*
X0146352Y0042408D01*
X0146358Y0042567D01*
X0146368Y0042725D01*
X0146382Y0042882D01*
X0146400Y0043040D01*
X0146421Y0043196D01*
X0146447Y0043353D01*
X0146477Y0043508D01*
X0146510Y0043663D01*
X0146548Y0043817D01*
X0146589Y0043970D01*
X0146634Y0044121D01*
X0146683Y0044272D01*
X0146736Y0044421D01*
X0146792Y0044569D01*
X0146853Y0044716D01*
X0146916Y0044861D01*
X0146984Y0045004D01*
X0147055Y0045145D01*
X0147129Y0045285D01*
X0147207Y0045423D01*
X0147289Y0045559D01*
X0147374Y0045692D01*
X0147462Y0045824D01*
X0147553Y0045953D01*
X0147648Y0046080D01*
X0147746Y0046204D01*
X0147847Y0046326D01*
X0147951Y0046446D01*
X0148057Y0046563D01*
X0148167Y0046677D01*
X0148280Y0046788D01*
X0148395Y0046896D01*
X0148514Y0047002D01*
X0148634Y0047104D01*
X0148757Y0047204D01*
X0148883Y0047300D01*
X0149011Y0047393D01*
X0149142Y0047483D01*
X0149274Y0047569D01*
X0149409Y0047652D01*
X0149546Y0047732D01*
X0149685Y0047808D01*
X0149825Y0047881D01*
X0149968Y0047950D01*
X0150112Y0048016D01*
X0150257Y0048078D01*
X0150405Y0048136D01*
X0150553Y0048191D01*
X0150703Y0048242D01*
X0150854Y0048289D01*
X0151007Y0048332D01*
X0151160Y0048371D01*
X0151314Y0048407D01*
X0151469Y0048438D01*
X0151625Y0048466D01*
X0151782Y0048490D01*
X0151939Y0048510D01*
X0152097Y0048526D01*
X0152254Y0048538D01*
X0152413Y0048546D01*
X0152571Y0048550D01*
X0152729Y0048550D01*
X0152887Y0048546D01*
X0153046Y0048538D01*
X0153203Y0048526D01*
X0153361Y0048510D01*
X0153518Y0048490D01*
X0153675Y0048466D01*
X0153831Y0048438D01*
X0153986Y0048407D01*
X0154140Y0048371D01*
X0154293Y0048332D01*
X0154446Y0048289D01*
X0154597Y0048242D01*
X0154747Y0048191D01*
X0154895Y0048136D01*
X0155043Y0048078D01*
X0155188Y0048016D01*
X0155332Y0047950D01*
X0155475Y0047881D01*
X0155615Y0047808D01*
X0155754Y0047732D01*
X0155891Y0047652D01*
X0156026Y0047569D01*
X0156158Y0047483D01*
X0156289Y0047393D01*
X0156417Y0047300D01*
X0156543Y0047204D01*
X0156666Y0047104D01*
X0156786Y0047002D01*
X0156905Y0046896D01*
X0157020Y0046788D01*
X0157133Y0046677D01*
X0157243Y0046563D01*
X0157349Y0046446D01*
X0157453Y0046326D01*
X0157554Y0046204D01*
X0157652Y0046080D01*
X0157747Y0045953D01*
X0157838Y0045824D01*
X0157926Y0045692D01*
X0158011Y0045559D01*
X0158093Y0045423D01*
X0158171Y0045285D01*
X0158245Y0045145D01*
X0158316Y0045004D01*
X0158384Y0044861D01*
X0158447Y0044716D01*
X0158508Y0044569D01*
X0158564Y0044421D01*
X0158617Y0044272D01*
X0158666Y0044121D01*
X0158711Y0043970D01*
X0158752Y0043817D01*
X0158790Y0043663D01*
X0158823Y0043508D01*
X0158853Y0043353D01*
X0158879Y0043196D01*
X0158900Y0043040D01*
X0158918Y0042882D01*
X0158932Y0042725D01*
X0158942Y0042567D01*
X0158948Y0042408D01*
X0158950Y0042250D01*
X0158948Y0042092D01*
X0158942Y0041933D01*
X0158932Y0041775D01*
X0158918Y0041618D01*
X0158900Y0041460D01*
X0158879Y0041304D01*
X0158853Y0041147D01*
X0158823Y0040992D01*
X0158790Y0040837D01*
X0158752Y0040683D01*
X0158711Y0040530D01*
X0158666Y0040379D01*
X0158617Y0040228D01*
X0158564Y0040079D01*
X0158508Y0039931D01*
X0158447Y0039784D01*
X0158384Y0039639D01*
X0158316Y0039496D01*
X0158245Y0039355D01*
X0158171Y0039215D01*
X0158093Y0039077D01*
X0158011Y0038941D01*
X0157926Y0038808D01*
X0157838Y0038676D01*
X0157747Y0038547D01*
X0157652Y0038420D01*
X0157554Y0038296D01*
X0157453Y0038174D01*
X0157349Y0038054D01*
X0157243Y0037937D01*
X0157133Y0037823D01*
X0157020Y0037712D01*
X0156905Y0037604D01*
X0156786Y0037498D01*
X0156666Y0037396D01*
X0156543Y0037296D01*
X0156417Y0037200D01*
X0156289Y0037107D01*
X0156158Y0037017D01*
X0156026Y0036931D01*
X0155891Y0036848D01*
X0155754Y0036768D01*
X0155615Y0036692D01*
X0155475Y0036619D01*
X0155332Y0036550D01*
X0155188Y0036484D01*
X0155043Y0036422D01*
X0154895Y0036364D01*
X0154747Y0036309D01*
X0154597Y0036258D01*
X0154446Y0036211D01*
X0154293Y0036168D01*
X0154140Y0036129D01*
X0153986Y0036093D01*
X0153831Y0036062D01*
X0153675Y0036034D01*
X0153518Y0036010D01*
X0153361Y0035990D01*
X0153203Y0035974D01*
X0153046Y0035962D01*
X0152887Y0035954D01*
X0152729Y0035950D01*
X0152571Y0035950D01*
X0152413Y0035954D01*
X0152254Y0035962D01*
X0152097Y0035974D01*
X0151939Y0035990D01*
X0151782Y0036010D01*
X0151625Y0036034D01*
X0151469Y0036062D01*
X0151314Y0036093D01*
X0151160Y0036129D01*
X0151007Y0036168D01*
X0150854Y0036211D01*
X0150703Y0036258D01*
X0150553Y0036309D01*
X0150405Y0036364D01*
X0150257Y0036422D01*
X0150112Y0036484D01*
X0149968Y0036550D01*
X0149825Y0036619D01*
X0149685Y0036692D01*
X0149546Y0036768D01*
X0149409Y0036848D01*
X0149274Y0036931D01*
X0149142Y0037017D01*
X0149011Y0037107D01*
X0148883Y0037200D01*
X0148757Y0037296D01*
X0148634Y0037396D01*
X0148514Y0037498D01*
X0148395Y0037604D01*
X0148280Y0037712D01*
X0148167Y0037823D01*
X0148057Y0037937D01*
X0147951Y0038054D01*
X0147847Y0038174D01*
X0147746Y0038296D01*
X0147648Y0038420D01*
X0147553Y0038547D01*
X0147462Y0038676D01*
X0147374Y0038808D01*
X0147289Y0038941D01*
X0147207Y0039077D01*
X0147129Y0039215D01*
X0147055Y0039355D01*
X0146984Y0039496D01*
X0146916Y0039639D01*
X0146853Y0039784D01*
X0146792Y0039931D01*
X0146736Y0040079D01*
X0146683Y0040228D01*
X0146634Y0040379D01*
X0146589Y0040530D01*
X0146548Y0040683D01*
X0146510Y0040837D01*
X0146477Y0040992D01*
X0146447Y0041147D01*
X0146421Y0041304D01*
X0146400Y0041460D01*
X0146382Y0041618D01*
X0146368Y0041775D01*
X0146358Y0041933D01*
X0146352Y0042092D01*
X0146350Y0042250D01*
D11*
X0143554Y0025750D03*
X0150246Y0025750D03*
X0097746Y0030750D03*
X0091054Y0030750D03*
X0091054Y0018250D03*
X0097746Y0018250D03*
X0052746Y0033250D03*
X0046054Y0033250D03*
X0046054Y0043250D03*
X0052746Y0043250D03*
X0052746Y0060750D03*
X0046054Y0060750D03*
X0046054Y0070750D03*
X0052746Y0070750D03*
X0056054Y0083250D03*
X0062746Y0083250D03*
X0025246Y0008250D03*
X0018554Y0008250D03*
D12*
X0111900Y0039904D03*
X0111900Y0046596D03*
X0164400Y0016596D03*
X0164400Y0009904D03*
X0176900Y0009904D03*
X0176900Y0016596D03*
X0189400Y0016596D03*
X0189400Y0009904D03*
D13*
X0184546Y0029451D03*
X0164254Y0029451D03*
X0164254Y0042049D03*
X0184546Y0042049D03*
D14*
X0103731Y0047226D03*
X0103731Y0050376D03*
X0103731Y0053526D03*
X0103731Y0056675D03*
X0103731Y0059825D03*
X0103731Y0062974D03*
X0103731Y0066124D03*
X0103731Y0069274D03*
X0070069Y0069274D03*
X0070069Y0066124D03*
X0070069Y0062974D03*
X0070069Y0059825D03*
X0070069Y0056675D03*
X0070069Y0053565D03*
X0070069Y0050415D03*
X0070069Y0047266D03*
D15*
X0075876Y0041419D03*
X0079026Y0041419D03*
X0082176Y0041419D03*
X0085325Y0041419D03*
X0088475Y0041419D03*
X0091624Y0041419D03*
X0094774Y0041419D03*
X0097924Y0041419D03*
X0097924Y0075081D03*
X0094774Y0075081D03*
X0091624Y0075081D03*
X0088475Y0075081D03*
X0085325Y0075081D03*
X0082176Y0075081D03*
X0079026Y0075081D03*
X0075876Y0075081D03*
D16*
X0142569Y0014490D03*
X0151231Y0010750D03*
X0142569Y0007010D03*
D17*
X0127600Y0008250D03*
X0116200Y0008250D03*
X0106900Y0007750D03*
X0096900Y0008750D03*
X0086900Y0007750D03*
X0076900Y0008750D03*
X0066900Y0007750D03*
X0056900Y0008750D03*
X0046900Y0007750D03*
X0007400Y0008250D03*
X0006400Y0018250D03*
X0007400Y0028250D03*
X0005900Y0048250D03*
X0006900Y0058250D03*
X0005900Y0068250D03*
X0006900Y0078250D03*
X0005900Y0088250D03*
X0006900Y0098250D03*
X0026900Y0097750D03*
X0036900Y0098750D03*
X0046900Y0097750D03*
X0056900Y0098750D03*
X0066900Y0097750D03*
X0076900Y0098750D03*
X0086900Y0097750D03*
X0096900Y0098750D03*
X0106900Y0097750D03*
X0116900Y0098750D03*
X0126900Y0097750D03*
X0136200Y0098250D03*
X0147600Y0098250D03*
X0129400Y0028750D03*
X0119400Y0027750D03*
X0109400Y0028750D03*
D18*
X0036900Y0008750D03*
D19*
X0034400Y0057250D03*
X0019400Y0057250D03*
X0019400Y0079250D03*
X0034400Y0079250D03*
D20*
X0162057Y0078250D03*
X0162057Y0075100D03*
X0162057Y0071951D03*
X0162057Y0081400D03*
X0162057Y0084549D03*
D21*
X0162057Y0095967D03*
X0183711Y0095967D03*
X0183711Y0060533D03*
X0162057Y0060533D03*
D22*
X0061900Y0060829D03*
X0061900Y0070671D03*
D23*
X0128160Y0059313D03*
X0135640Y0059313D03*
X0131900Y0067581D03*
D24*
X0133357Y0050750D03*
X0127943Y0050750D03*
X0120857Y0050750D03*
X0140443Y0050750D03*
D25*
X0136900Y0074510D03*
X0136900Y0078250D03*
X0136900Y0081990D03*
X0145955Y0081990D03*
X0145955Y0078250D03*
X0145955Y0074510D03*
D26*
X0026900Y0038250D03*
X0016900Y0038250D03*
X0016900Y0028250D03*
X0026900Y0028250D03*
X0026900Y0018250D03*
X0016900Y0018250D03*
D27*
X0076900Y0068250D02*
X0097924Y0047226D01*
X0103731Y0047226D01*
X0104361Y0046596D01*
X0111900Y0046596D01*
X0112746Y0045750D01*
X0116900Y0045750D01*
X0121900Y0040750D01*
X0126900Y0040750D01*
X0129400Y0040750D01*
X0127600Y0008250D02*
X0141329Y0008250D01*
D28*
X0142569Y0007010D01*
X0161506Y0007010D01*
X0164400Y0009904D01*
X0151231Y0010750D02*
X0151231Y0013919D01*
X0141477Y0023673D01*
X0143554Y0025750D01*
X0141477Y0023673D02*
X0141054Y0023250D01*
X0121900Y0023250D01*
X0119400Y0025750D01*
X0119400Y0027750D01*
X0109400Y0028750D02*
X0109400Y0020750D01*
X0116200Y0013950D01*
X0116200Y0008250D01*
X0076900Y0068250D02*
X0075876Y0069274D01*
X0070069Y0069274D01*
D29*
X0076900Y0060750D03*
X0086900Y0065750D03*
X0094400Y0060750D03*
X0081900Y0053250D03*
X0096900Y0068250D03*
X0079400Y0080750D03*
X0071900Y0085750D03*
X0041900Y0083250D03*
X0039400Y0078250D03*
X0014400Y0073250D03*
X0041900Y0053250D03*
X0129400Y0040750D03*
D30*
X0126900Y0040750D02*
X0124400Y0043250D01*
X0124400Y0053250D01*
X0121900Y0055750D01*
X0121900Y0058250D01*
X0119300Y0059249D02*
X0119104Y0059723D01*
X0118373Y0060454D01*
X0117417Y0060850D01*
X0116763Y0060850D01*
X0127563Y0071650D01*
X0136303Y0071650D01*
X0136882Y0072229D01*
X0139718Y0072229D01*
X0140362Y0072873D01*
X0140362Y0076147D01*
X0140129Y0076380D01*
X0140362Y0076613D01*
X0140362Y0079887D01*
X0140129Y0080120D01*
X0140362Y0080353D01*
X0140362Y0083627D01*
X0139718Y0084271D01*
X0134082Y0084271D01*
X0133438Y0083627D01*
X0133438Y0082350D01*
X0123737Y0082350D01*
X0122800Y0081413D01*
X0106504Y0065117D01*
X0106504Y0067643D01*
X0106448Y0067699D01*
X0106504Y0067755D01*
X0106504Y0070792D01*
X0105860Y0071437D01*
X0101602Y0071437D01*
X0101039Y0070874D01*
X0098356Y0070874D01*
X0097493Y0071231D01*
X0096307Y0071231D01*
X0095211Y0070777D01*
X0094373Y0069939D01*
X0093919Y0068843D01*
X0093919Y0067657D01*
X0094373Y0066561D01*
X0095211Y0065723D01*
X0096307Y0065269D01*
X0096656Y0065269D01*
X0095082Y0063694D01*
X0094993Y0063731D01*
X0093807Y0063731D01*
X0092711Y0063277D01*
X0091873Y0062439D01*
X0091419Y0061343D01*
X0091419Y0060157D01*
X0091873Y0059061D01*
X0092711Y0058223D01*
X0093807Y0057769D01*
X0094993Y0057769D01*
X0096089Y0058223D01*
X0096927Y0059061D01*
X0097381Y0060157D01*
X0097381Y0061343D01*
X0097344Y0061432D01*
X0100437Y0064524D01*
X0100988Y0064524D01*
X0100957Y0064493D01*
X0100957Y0061456D01*
X0101014Y0061400D01*
X0100957Y0061343D01*
X0100957Y0058306D01*
X0101014Y0058250D01*
X0100957Y0058194D01*
X0100957Y0055157D01*
X0101014Y0055100D01*
X0100957Y0055044D01*
X0100957Y0052007D01*
X0101014Y0051951D01*
X0100957Y0051895D01*
X0100957Y0049526D01*
X0098876Y0049526D01*
X0084253Y0064150D01*
X0084336Y0064150D01*
X0084373Y0064061D01*
X0085211Y0063223D01*
X0086307Y0062769D01*
X0087493Y0062769D01*
X0088589Y0063223D01*
X0089427Y0064061D01*
X0089881Y0065157D01*
X0089881Y0066343D01*
X0089427Y0067439D01*
X0088589Y0068277D01*
X0087493Y0068731D01*
X0086307Y0068731D01*
X0085211Y0068277D01*
X0084673Y0067739D01*
X0081000Y0071413D01*
X0081000Y0072307D01*
X0083694Y0072307D01*
X0083750Y0072364D01*
X0083807Y0072307D01*
X0086844Y0072307D01*
X0086900Y0072364D01*
X0086956Y0072307D01*
X0089993Y0072307D01*
X0090050Y0072364D01*
X0090106Y0072307D01*
X0093143Y0072307D01*
X0093199Y0072364D01*
X0093255Y0072307D01*
X0096293Y0072307D01*
X0096349Y0072364D01*
X0096405Y0072307D01*
X0099442Y0072307D01*
X0100087Y0072952D01*
X0100087Y0077210D01*
X0099524Y0077773D01*
X0099524Y0079369D01*
X0099864Y0078548D01*
X0102198Y0076214D01*
X0105249Y0074950D01*
X0108551Y0074950D01*
X0111602Y0076214D01*
X0113936Y0078548D01*
X0115200Y0081599D01*
X0115200Y0084901D01*
X0113936Y0087952D01*
X0111602Y0090286D01*
X0108551Y0091550D01*
X0105249Y0091550D01*
X0102198Y0090286D01*
X0099864Y0087952D01*
X0099524Y0087131D01*
X0099524Y0094641D01*
X0099619Y0094681D01*
X0100969Y0096031D01*
X0101700Y0097795D01*
X0101700Y0099705D01*
X0101076Y0101211D01*
X0103572Y0101211D01*
X0102831Y0100469D01*
X0102100Y0098705D01*
X0102100Y0096795D01*
X0102831Y0095031D01*
X0104181Y0093681D01*
X0105945Y0092950D01*
X0107855Y0092950D01*
X0109619Y0093681D01*
X0110969Y0095031D01*
X0111700Y0096795D01*
X0111700Y0098705D01*
X0110969Y0100469D01*
X0110228Y0101211D01*
X0112724Y0101211D01*
X0112100Y0099705D01*
X0112100Y0097795D01*
X0112831Y0096031D01*
X0114181Y0094681D01*
X0115945Y0093950D01*
X0117855Y0093950D01*
X0119619Y0094681D01*
X0120969Y0096031D01*
X0121700Y0097795D01*
X0121700Y0099705D01*
X0121076Y0101211D01*
X0123572Y0101211D01*
X0122831Y0100469D01*
X0122100Y0098705D01*
X0122100Y0096795D01*
X0122831Y0095031D01*
X0124181Y0093681D01*
X0125945Y0092950D01*
X0127855Y0092950D01*
X0129619Y0093681D01*
X0130969Y0095031D01*
X0131433Y0096151D01*
X0131753Y0095525D01*
X0132234Y0094862D01*
X0132812Y0094284D01*
X0133475Y0093803D01*
X0134204Y0093431D01*
X0134982Y0093178D01*
X0135700Y0093064D01*
X0135700Y0097750D01*
X0136700Y0097750D01*
X0136700Y0098750D01*
X0141386Y0098750D01*
X0141272Y0099468D01*
X0141019Y0100246D01*
X0140647Y0100975D01*
X0140477Y0101211D01*
X0143323Y0101211D01*
X0143153Y0100975D01*
X0142781Y0100246D01*
X0142528Y0099468D01*
X0142414Y0098750D01*
X0147100Y0098750D01*
X0147100Y0097750D01*
X0148100Y0097750D01*
X0148100Y0098750D01*
X0152786Y0098750D01*
X0152672Y0099468D01*
X0152419Y0100246D01*
X0152047Y0100975D01*
X0151877Y0101211D01*
X0191101Y0101211D01*
X0191101Y0025865D01*
X0188896Y0028071D01*
X0188896Y0031875D01*
X0188251Y0032519D01*
X0180840Y0032519D01*
X0180196Y0031875D01*
X0180196Y0027027D01*
X0180840Y0026382D01*
X0184644Y0026382D01*
X0187300Y0023727D01*
X0187300Y0019862D01*
X0186976Y0019862D01*
X0186331Y0019217D01*
X0186331Y0016498D01*
X0181837Y0012004D01*
X0179968Y0012004D01*
X0179968Y0012525D01*
X0179455Y0013038D01*
X0179790Y0013231D01*
X0180069Y0013510D01*
X0180266Y0013852D01*
X0180368Y0014234D01*
X0184067Y0014234D01*
X0185066Y0015232D02*
X0180368Y0015232D01*
X0180368Y0016112D02*
X0180368Y0014234D01*
X0179794Y0013235D02*
X0183069Y0013235D01*
X0182070Y0012237D02*
X0179968Y0012237D01*
X0174345Y0013038D02*
X0173831Y0012525D01*
X0173831Y0012004D01*
X0167468Y0012004D01*
X0167468Y0012525D01*
X0166955Y0013038D01*
X0167290Y0013231D01*
X0167569Y0013510D01*
X0167766Y0013852D01*
X0167868Y0014234D01*
X0173431Y0014234D01*
X0173534Y0013852D01*
X0173731Y0013510D01*
X0174010Y0013231D01*
X0174345Y0013038D01*
X0174006Y0013235D02*
X0167294Y0013235D01*
X0167468Y0012237D02*
X0173831Y0012237D01*
X0173431Y0014234D02*
X0173431Y0016112D01*
X0176416Y0016112D01*
X0176416Y0017081D01*
X0176416Y0020262D01*
X0174734Y0020262D01*
X0174353Y0020160D01*
X0174010Y0019962D01*
X0173731Y0019683D01*
X0173534Y0019341D01*
X0173431Y0018959D01*
X0173431Y0017081D01*
X0176416Y0017081D01*
X0177384Y0017081D01*
X0177384Y0020262D01*
X0179066Y0020262D01*
X0179447Y0020160D01*
X0179790Y0019962D01*
X0180069Y0019683D01*
X0180266Y0019341D01*
X0180368Y0018959D01*
X0180368Y0017081D01*
X0177384Y0017081D01*
X0177384Y0016112D01*
X0180368Y0016112D01*
X0180368Y0017229D02*
X0186331Y0017229D01*
X0186331Y0018228D02*
X0180368Y0018228D01*
X0180297Y0019226D02*
X0186340Y0019226D01*
X0187300Y0020225D02*
X0179204Y0020225D01*
X0177384Y0020225D02*
X0176416Y0020225D01*
X0176416Y0019226D02*
X0177384Y0019226D01*
X0177384Y0018228D02*
X0176416Y0018228D01*
X0176416Y0017229D02*
X0177384Y0017229D01*
X0177384Y0016231D02*
X0186064Y0016231D01*
X0187300Y0021223D02*
X0146614Y0021223D01*
X0147612Y0020225D02*
X0162096Y0020225D01*
X0162234Y0020262D02*
X0161853Y0020160D01*
X0161510Y0019962D01*
X0161231Y0019683D01*
X0161034Y0019341D01*
X0160931Y0018959D01*
X0160931Y0017081D01*
X0163916Y0017081D01*
X0163916Y0020262D01*
X0162234Y0020262D01*
X0161003Y0019226D02*
X0148611Y0019226D01*
X0149609Y0018228D02*
X0160931Y0018228D01*
X0160931Y0017229D02*
X0150608Y0017229D01*
X0151606Y0016231D02*
X0163916Y0016231D01*
X0163916Y0016112D02*
X0160931Y0016112D01*
X0160931Y0014234D01*
X0153131Y0014234D01*
X0153131Y0013818D02*
X0153131Y0014706D01*
X0145155Y0022681D01*
X0146175Y0022681D01*
X0146688Y0023195D01*
X0146881Y0022860D01*
X0147160Y0022581D01*
X0147502Y0022384D01*
X0147884Y0022281D01*
X0149762Y0022281D01*
X0149762Y0025266D01*
X0150731Y0025266D01*
X0150731Y0026234D01*
X0153912Y0026234D01*
X0153912Y0027916D01*
X0153810Y0028297D01*
X0153612Y0028640D01*
X0153333Y0028919D01*
X0152991Y0029116D01*
X0152609Y0029218D01*
X0150731Y0029218D01*
X0150731Y0026234D01*
X0149762Y0026234D01*
X0149762Y0029218D01*
X0147884Y0029218D01*
X0147502Y0029116D01*
X0147160Y0028919D01*
X0146881Y0028640D01*
X0146688Y0028305D01*
X0146175Y0028818D01*
X0140933Y0028818D01*
X0140288Y0028174D01*
X0140288Y0025172D01*
X0140267Y0025150D01*
X0132588Y0025150D01*
X0133469Y0026031D01*
X0134200Y0027795D01*
X0134200Y0029705D01*
X0133469Y0031469D01*
X0132925Y0032013D01*
X0144350Y0043437D01*
X0144350Y0040599D01*
X0145614Y0037548D01*
X0147128Y0036034D01*
X0146346Y0036034D01*
X0145323Y0035610D01*
X0144540Y0034827D01*
X0144116Y0033804D01*
X0144116Y0032696D01*
X0144540Y0031673D01*
X0145323Y0030890D01*
X0146346Y0030466D01*
X0147454Y0030466D01*
X0148477Y0030890D01*
X0149238Y0031650D01*
X0159792Y0031650D01*
X0159904Y0031538D01*
X0159904Y0027027D01*
X0160549Y0026382D01*
X0167960Y0026382D01*
X0168604Y0027027D01*
X0168604Y0031875D01*
X0167960Y0032519D01*
X0163449Y0032519D01*
X0161118Y0034850D01*
X0156474Y0034850D01*
X0157352Y0035214D01*
X0159686Y0037548D01*
X0160208Y0038808D01*
X0160425Y0038683D01*
X0160807Y0038581D01*
X0163770Y0038581D01*
X0163770Y0041565D01*
X0164739Y0041565D01*
X0164739Y0042533D01*
X0169004Y0042533D01*
X0169004Y0044215D01*
X0168902Y0044597D01*
X0168705Y0044939D01*
X0168425Y0045218D01*
X0168083Y0045415D01*
X0167702Y0045518D01*
X0164739Y0045518D01*
X0164739Y0042534D01*
X0163770Y0042534D01*
X0163770Y0045518D01*
X0160807Y0045518D01*
X0160425Y0045415D01*
X0160342Y0045368D01*
X0159686Y0046952D01*
X0157352Y0049286D01*
X0154301Y0050550D01*
X0151463Y0050550D01*
X0152563Y0051650D01*
X0153500Y0052587D01*
X0153500Y0061131D01*
X0156036Y0063667D01*
X0156036Y0056141D01*
X0156681Y0055496D01*
X0167434Y0055496D01*
X0168079Y0056141D01*
X0168079Y0064926D01*
X0167434Y0065570D01*
X0157940Y0065570D01*
X0162236Y0069867D01*
X0167434Y0069867D01*
X0168079Y0070511D01*
X0168079Y0073391D01*
X0167944Y0073526D01*
X0168079Y0073660D01*
X0168079Y0074491D01*
X0168141Y0074954D01*
X0168079Y0075036D01*
X0168079Y0076540D01*
X0167944Y0076675D01*
X0168079Y0076810D01*
X0168079Y0079690D01*
X0167944Y0079825D01*
X0168079Y0079960D01*
X0168079Y0082544D01*
X0168179Y0082644D01*
X0168377Y0082986D01*
X0168479Y0083367D01*
X0168479Y0084549D01*
X0162058Y0084549D01*
X0162058Y0084549D01*
X0168479Y0084549D01*
X0168479Y0085315D01*
X0168703Y0084775D01*
X0169764Y0083714D01*
X0171150Y0083140D01*
X0172650Y0083140D01*
X0174036Y0083714D01*
X0175097Y0084775D01*
X0175672Y0086161D01*
X0175672Y0087662D01*
X0175097Y0089048D01*
X0174036Y0090109D01*
X0172650Y0090683D01*
X0171150Y0090683D01*
X0169764Y0090109D01*
X0168703Y0089048D01*
X0168128Y0087662D01*
X0168128Y0086505D01*
X0167900Y0086734D01*
X0167558Y0086931D01*
X0167176Y0087033D01*
X0162058Y0087033D01*
X0162058Y0084549D01*
X0162057Y0084549D01*
X0155636Y0084549D01*
X0155636Y0083367D01*
X0155738Y0082986D01*
X0155936Y0082644D01*
X0156036Y0082544D01*
X0156036Y0081376D01*
X0153823Y0083590D01*
X0149417Y0083590D01*
X0149417Y0083627D01*
X0148773Y0084271D01*
X0143137Y0084271D01*
X0142493Y0083627D01*
X0142493Y0080452D01*
X0142393Y0080352D01*
X0142195Y0080010D01*
X0142093Y0079629D01*
X0142093Y0078341D01*
X0145864Y0078341D01*
X0145864Y0078159D01*
X0142093Y0078159D01*
X0142093Y0076871D01*
X0142195Y0076490D01*
X0142393Y0076148D01*
X0142493Y0076048D01*
X0142493Y0072873D01*
X0143137Y0072229D01*
X0148773Y0072229D01*
X0149417Y0072873D01*
X0149417Y0072910D01*
X0156036Y0072910D01*
X0156036Y0070511D01*
X0156681Y0069867D01*
X0157711Y0069867D01*
X0150300Y0062456D01*
X0150300Y0053913D01*
X0129937Y0033550D01*
X0128445Y0033550D01*
X0126681Y0032819D01*
X0125331Y0031469D01*
X0124600Y0029705D01*
X0124600Y0027795D01*
X0125331Y0026031D01*
X0126212Y0025150D01*
X0123519Y0025150D01*
X0124200Y0026795D01*
X0124200Y0028705D01*
X0123469Y0030469D01*
X0122119Y0031819D01*
X0120355Y0032550D01*
X0118445Y0032550D01*
X0116681Y0031819D01*
X0115331Y0030469D01*
X0114600Y0028705D01*
X0114600Y0026795D01*
X0115331Y0025031D01*
X0116681Y0023681D01*
X0118445Y0022950D01*
X0119513Y0022950D01*
X0120000Y0022463D01*
X0121113Y0021350D01*
X0141113Y0021350D01*
X0144504Y0017959D01*
X0143054Y0017959D01*
X0143054Y0014974D01*
X0146825Y0014974D01*
X0146825Y0015638D01*
X0148645Y0013818D01*
X0148019Y0013818D01*
X0147375Y0013174D01*
X0147375Y0008910D01*
X0146425Y0008910D01*
X0146425Y0009434D01*
X0145781Y0010078D01*
X0142753Y0010078D01*
X0142282Y0010550D01*
X0131843Y0010550D01*
X0131669Y0010969D01*
X0130319Y0012319D01*
X0128555Y0013050D01*
X0126645Y0013050D01*
X0124881Y0012319D01*
X0123531Y0010969D01*
X0122800Y0009205D01*
X0122800Y0007295D01*
X0123531Y0005531D01*
X0123812Y0005250D01*
X0119988Y0005250D01*
X0120269Y0005531D01*
X0121000Y0007295D01*
X0121000Y0009205D01*
X0120269Y0010969D01*
X0118919Y0012319D01*
X0118100Y0012658D01*
X0118100Y0014737D01*
X0111300Y0021537D01*
X0111300Y0024342D01*
X0112119Y0024681D01*
X0113469Y0026031D01*
X0114200Y0027795D01*
X0114200Y0029705D01*
X0113469Y0031469D01*
X0112119Y0032819D01*
X0110355Y0033550D01*
X0108445Y0033550D01*
X0106681Y0032819D01*
X0105331Y0031469D01*
X0104600Y0029705D01*
X0104600Y0027795D01*
X0105331Y0026031D01*
X0106681Y0024681D01*
X0107500Y0024342D01*
X0107500Y0019963D01*
X0108613Y0018850D01*
X0114300Y0013163D01*
X0114300Y0012658D01*
X0113481Y0012319D01*
X0112131Y0010969D01*
X0111446Y0009317D01*
X0110969Y0010469D01*
X0109619Y0011819D01*
X0107855Y0012550D01*
X0105945Y0012550D01*
X0104181Y0011819D01*
X0102831Y0010469D01*
X0102100Y0008705D01*
X0102100Y0006795D01*
X0102740Y0005250D01*
X0100188Y0005250D01*
X0100969Y0006031D01*
X0101700Y0007795D01*
X0101700Y0009705D01*
X0100969Y0011469D01*
X0099619Y0012819D01*
X0097855Y0013550D01*
X0095945Y0013550D01*
X0094181Y0012819D01*
X0092831Y0011469D01*
X0092100Y0009705D01*
X0092100Y0007795D01*
X0092831Y0006031D01*
X0093612Y0005250D01*
X0091060Y0005250D01*
X0091700Y0006795D01*
X0091700Y0008705D01*
X0090969Y0010469D01*
X0089619Y0011819D01*
X0087855Y0012550D01*
X0085945Y0012550D01*
X0084826Y0012086D01*
X0081000Y0015913D01*
X0081000Y0020087D01*
X0081700Y0020787D01*
X0081700Y0020213D01*
X0082111Y0019221D01*
X0082871Y0018461D01*
X0083863Y0018050D01*
X0084937Y0018050D01*
X0085929Y0018461D01*
X0086689Y0019221D01*
X0087100Y0020213D01*
X0087100Y0021287D01*
X0086925Y0021709D01*
X0086925Y0034669D01*
X0087111Y0034221D01*
X0087690Y0033642D01*
X0087688Y0033640D01*
X0087490Y0033297D01*
X0087388Y0032916D01*
X0087388Y0031234D01*
X0090569Y0031234D01*
X0090569Y0030266D01*
X0087388Y0030266D01*
X0087388Y0028584D01*
X0087490Y0028203D01*
X0087688Y0027860D01*
X0087967Y0027581D01*
X0088309Y0027384D01*
X0088691Y0027281D01*
X0090569Y0027281D01*
X0090569Y0030266D01*
X0091538Y0030266D01*
X0091538Y0027281D01*
X0093416Y0027281D01*
X0093798Y0027384D01*
X0094140Y0027581D01*
X0094419Y0027860D01*
X0094612Y0028195D01*
X0095125Y0027681D01*
X0096146Y0027681D01*
X0096146Y0025322D01*
X0095929Y0025539D01*
X0094937Y0025950D01*
X0093863Y0025950D01*
X0092871Y0025539D01*
X0092182Y0024850D01*
X0091237Y0024850D01*
X0088737Y0022350D01*
X0087800Y0021413D01*
X0087800Y0020686D01*
X0087788Y0020674D01*
X0087788Y0015826D01*
X0088433Y0015181D01*
X0093675Y0015181D01*
X0094319Y0015826D01*
X0094319Y0020550D01*
X0094481Y0020550D01*
X0094481Y0015826D01*
X0095125Y0015181D01*
X0100367Y0015181D01*
X0101012Y0015826D01*
X0101012Y0020674D01*
X0100367Y0021318D01*
X0099346Y0021318D01*
X0099346Y0027681D01*
X0100367Y0027681D01*
X0101012Y0028326D01*
X0101012Y0033174D01*
X0100367Y0033818D01*
X0096941Y0033818D01*
X0096374Y0034385D01*
X0096374Y0038324D01*
X0096663Y0038246D01*
X0097892Y0038246D01*
X0097892Y0041388D01*
X0097955Y0041388D01*
X0097955Y0041451D01*
X0097892Y0041451D01*
X0097892Y0044593D01*
X0096663Y0044593D01*
X0096282Y0044490D01*
X0095940Y0044293D01*
X0095839Y0044193D01*
X0093255Y0044193D01*
X0093224Y0044162D01*
X0093224Y0044188D01*
X0084844Y0052568D01*
X0084881Y0052657D01*
X0084881Y0053843D01*
X0084427Y0054939D01*
X0083589Y0055777D01*
X0082493Y0056231D01*
X0081307Y0056231D01*
X0080211Y0055777D01*
X0079373Y0054939D01*
X0078919Y0053843D01*
X0078919Y0052657D01*
X0079373Y0051561D01*
X0080211Y0050723D01*
X0081307Y0050269D01*
X0082493Y0050269D01*
X0082582Y0050306D01*
X0088695Y0044193D01*
X0086956Y0044193D01*
X0086900Y0044136D01*
X0086844Y0044193D01*
X0083807Y0044193D01*
X0083750Y0044136D01*
X0083694Y0044193D01*
X0080657Y0044193D01*
X0080601Y0044136D01*
X0080545Y0044193D01*
X0077507Y0044193D01*
X0077451Y0044136D01*
X0077395Y0044193D01*
X0074358Y0044193D01*
X0073713Y0043548D01*
X0073713Y0039290D01*
X0074276Y0038727D01*
X0074276Y0037889D01*
X0071237Y0034850D01*
X0070300Y0033913D01*
X0070300Y0013413D01*
X0068974Y0012086D01*
X0067855Y0012550D01*
X0065945Y0012550D01*
X0064181Y0011819D01*
X0062831Y0010469D01*
X0062100Y0008705D01*
X0062100Y0006795D01*
X0062740Y0005250D01*
X0060188Y0005250D01*
X0060969Y0006031D01*
X0061700Y0007795D01*
X0061700Y0009705D01*
X0061383Y0010470D01*
X0067563Y0016650D01*
X0068500Y0017587D01*
X0068500Y0032587D01*
X0071669Y0035757D01*
X0071669Y0045103D01*
X0072198Y0045103D01*
X0072843Y0045747D01*
X0072843Y0048784D01*
X0072786Y0048841D01*
X0072843Y0048897D01*
X0072843Y0051934D01*
X0072786Y0051990D01*
X0072843Y0052046D01*
X0072843Y0055084D01*
X0072806Y0055120D01*
X0072843Y0055157D01*
X0072843Y0058194D01*
X0072812Y0058225D01*
X0075209Y0058225D01*
X0075211Y0058223D01*
X0076307Y0057769D01*
X0077493Y0057769D01*
X0078589Y0058223D01*
X0079427Y0059061D01*
X0079881Y0060157D01*
X0079881Y0061343D01*
X0079427Y0062439D01*
X0078589Y0063277D01*
X0077493Y0063731D01*
X0076307Y0063731D01*
X0075211Y0063277D01*
X0074373Y0062439D01*
X0073953Y0061425D01*
X0072812Y0061425D01*
X0072843Y0061456D01*
X0072843Y0064493D01*
X0072786Y0064549D01*
X0072843Y0064605D01*
X0072843Y0067374D01*
X0074600Y0067374D01*
X0074600Y0067297D01*
X0095624Y0046274D01*
X0095624Y0046274D01*
X0096971Y0044926D01*
X0102778Y0044926D01*
X0103408Y0044296D01*
X0108831Y0044296D01*
X0108831Y0043975D01*
X0109345Y0043462D01*
X0109010Y0043269D01*
X0108731Y0042990D01*
X0108534Y0042648D01*
X0108431Y0042266D01*
X0108431Y0040388D01*
X0111416Y0040388D01*
X0111416Y0039419D01*
X0112384Y0039419D01*
X0112384Y0036238D01*
X0114066Y0036238D01*
X0114447Y0036340D01*
X0114790Y0036538D01*
X0115069Y0036817D01*
X0115266Y0037159D01*
X0115368Y0037541D01*
X0115368Y0039419D01*
X0112384Y0039419D01*
X0112384Y0040388D01*
X0115368Y0040388D01*
X0115368Y0042266D01*
X0115266Y0042648D01*
X0115069Y0042990D01*
X0114790Y0043269D01*
X0114476Y0043450D01*
X0115947Y0043450D01*
X0120947Y0038450D01*
X0127484Y0038450D01*
X0127711Y0038223D01*
X0128807Y0037769D01*
X0129993Y0037769D01*
X0131089Y0038223D01*
X0131927Y0039061D01*
X0132381Y0040157D01*
X0132381Y0041343D01*
X0131927Y0042439D01*
X0131089Y0043277D01*
X0129993Y0043731D01*
X0128807Y0043731D01*
X0127711Y0043277D01*
X0127484Y0043050D01*
X0126863Y0043050D01*
X0126000Y0043913D01*
X0126000Y0047288D01*
X0129974Y0047288D01*
X0130618Y0047932D01*
X0130618Y0049150D01*
X0130682Y0049150D01*
X0130682Y0047932D01*
X0131326Y0047288D01*
X0135387Y0047288D01*
X0136031Y0047932D01*
X0136031Y0053568D01*
X0135387Y0054212D01*
X0131326Y0054212D01*
X0130682Y0053568D01*
X0130682Y0052350D01*
X0130618Y0052350D01*
X0130618Y0053568D01*
X0129974Y0054212D01*
X0129760Y0054212D01*
X0129760Y0056441D01*
X0130190Y0056441D01*
X0130835Y0057086D01*
X0130835Y0061540D01*
X0130190Y0062185D01*
X0126129Y0062185D01*
X0125485Y0061540D01*
X0125485Y0057086D01*
X0126129Y0056441D01*
X0126560Y0056441D01*
X0126560Y0054212D01*
X0125913Y0054212D01*
X0125807Y0054106D01*
X0125063Y0054850D01*
X0123750Y0056163D01*
X0124260Y0056673D01*
X0124684Y0057696D01*
X0124684Y0058804D01*
X0124260Y0059827D01*
X0123477Y0060610D01*
X0122454Y0061034D01*
X0121346Y0061034D01*
X0120323Y0060610D01*
X0119540Y0059827D01*
X0119300Y0059249D01*
X0119878Y0060165D02*
X0118662Y0060165D01*
X0117076Y0061164D02*
X0125485Y0061164D01*
X0125485Y0060165D02*
X0123922Y0060165D01*
X0124534Y0059167D02*
X0125485Y0059167D01*
X0125485Y0058168D02*
X0124684Y0058168D01*
X0124466Y0057170D02*
X0125485Y0057170D01*
X0126560Y0056171D02*
X0123759Y0056171D01*
X0124740Y0055173D02*
X0126560Y0055173D01*
X0125875Y0054174D02*
X0125739Y0054174D01*
X0129760Y0055173D02*
X0150300Y0055173D01*
X0150300Y0056171D02*
X0137842Y0056171D01*
X0137794Y0056144D02*
X0138136Y0056341D01*
X0138415Y0056620D01*
X0138613Y0056962D01*
X0138715Y0057344D01*
X0138715Y0059026D01*
X0135928Y0059026D01*
X0135928Y0059600D01*
X0138715Y0059600D01*
X0138715Y0061282D01*
X0138613Y0061664D01*
X0138415Y0062006D01*
X0138136Y0062285D01*
X0137794Y0062482D01*
X0137412Y0062585D01*
X0135928Y0062585D01*
X0135928Y0059600D01*
X0135353Y0059600D01*
X0135353Y0059026D01*
X0132565Y0059026D01*
X0132565Y0057344D01*
X0132668Y0056962D01*
X0132865Y0056620D01*
X0133144Y0056341D01*
X0133486Y0056144D01*
X0133868Y0056041D01*
X0135353Y0056041D01*
X0135353Y0059026D01*
X0135928Y0059026D01*
X0135928Y0056041D01*
X0137412Y0056041D01*
X0137794Y0056144D01*
X0138668Y0057170D02*
X0150300Y0057170D01*
X0150300Y0058168D02*
X0138715Y0058168D01*
X0138715Y0060165D02*
X0150300Y0060165D01*
X0150300Y0059167D02*
X0135928Y0059167D01*
X0135353Y0059167D02*
X0130835Y0059167D01*
X0130835Y0060165D02*
X0132565Y0060165D01*
X0132565Y0059600D02*
X0135353Y0059600D01*
X0135353Y0062585D01*
X0133868Y0062585D01*
X0133486Y0062482D01*
X0133144Y0062285D01*
X0132865Y0062006D01*
X0132668Y0061664D01*
X0132565Y0061282D01*
X0132565Y0059600D01*
X0132565Y0058168D02*
X0130835Y0058168D01*
X0130835Y0057170D02*
X0132612Y0057170D01*
X0133439Y0056171D02*
X0129760Y0056171D01*
X0130012Y0054174D02*
X0131288Y0054174D01*
X0130682Y0053176D02*
X0130618Y0053176D01*
X0128160Y0050967D02*
X0127943Y0050750D01*
X0133357Y0050750D01*
X0136031Y0051179D02*
X0137369Y0051179D01*
X0137368Y0051037D02*
X0140156Y0051037D01*
X0140156Y0050463D01*
X0137369Y0050463D01*
X0137369Y0048190D01*
X0137471Y0047809D01*
X0137668Y0047467D01*
X0137947Y0047187D01*
X0138290Y0046990D01*
X0138671Y0046888D01*
X0140156Y0046888D01*
X0140156Y0050463D01*
X0140731Y0050463D01*
X0140731Y0051037D01*
X0143518Y0051037D01*
X0143518Y0053310D01*
X0143416Y0053691D01*
X0143218Y0054033D01*
X0142939Y0054312D01*
X0142597Y0054510D01*
X0142216Y0054612D01*
X0140731Y0054612D01*
X0140731Y0051037D01*
X0140156Y0051037D01*
X0140156Y0054612D01*
X0138671Y0054612D01*
X0138290Y0054510D01*
X0137947Y0054312D01*
X0137668Y0054033D01*
X0137471Y0053691D01*
X0137369Y0053310D01*
X0137368Y0051037D01*
X0137369Y0050180D02*
X0136031Y0050180D01*
X0136031Y0049182D02*
X0137369Y0049182D01*
X0137370Y0048183D02*
X0136031Y0048183D01*
X0137953Y0047184D02*
X0126000Y0047184D01*
X0126000Y0046186D02*
X0142573Y0046186D01*
X0142216Y0046888D02*
X0142597Y0046990D01*
X0142939Y0047187D01*
X0143218Y0047467D01*
X0143416Y0047809D01*
X0143518Y0048190D01*
X0143518Y0050463D01*
X0140731Y0050463D01*
X0140731Y0046888D01*
X0142216Y0046888D01*
X0142934Y0047184D02*
X0143572Y0047184D01*
X0143516Y0048183D02*
X0144570Y0048183D01*
X0145569Y0049182D02*
X0143518Y0049182D01*
X0143518Y0050180D02*
X0146567Y0050180D01*
X0147566Y0051179D02*
X0143518Y0051179D01*
X0143518Y0052177D02*
X0148564Y0052177D01*
X0149563Y0053176D02*
X0143518Y0053176D01*
X0143078Y0054174D02*
X0150300Y0054174D01*
X0151900Y0053250D02*
X0151900Y0061793D01*
X0162057Y0071951D01*
X0161521Y0069152D02*
X0168128Y0069152D01*
X0168128Y0068838D02*
X0168703Y0067452D01*
X0169764Y0066391D01*
X0171150Y0065817D01*
X0172650Y0065817D01*
X0174036Y0066391D01*
X0175097Y0067452D01*
X0175672Y0068838D01*
X0175672Y0070339D01*
X0175097Y0071725D01*
X0174036Y0072786D01*
X0172650Y0073360D01*
X0171150Y0073360D01*
X0169764Y0072786D01*
X0168703Y0071725D01*
X0168128Y0070339D01*
X0168128Y0068838D01*
X0168412Y0068153D02*
X0160523Y0068153D01*
X0159524Y0067155D02*
X0169000Y0067155D01*
X0170331Y0066156D02*
X0158526Y0066156D01*
X0155997Y0068153D02*
X0139684Y0068153D01*
X0139684Y0067696D02*
X0139684Y0068804D01*
X0139260Y0069827D01*
X0138477Y0070610D01*
X0137454Y0071034D01*
X0136346Y0071034D01*
X0135323Y0070610D01*
X0134562Y0069850D01*
X0134533Y0069850D01*
X0133930Y0070452D01*
X0129870Y0070452D01*
X0129225Y0069808D01*
X0129225Y0065353D01*
X0129870Y0064709D01*
X0133930Y0064709D01*
X0134575Y0065353D01*
X0134575Y0066638D01*
X0135323Y0065890D01*
X0136346Y0065466D01*
X0137454Y0065466D01*
X0138477Y0065890D01*
X0139260Y0066673D01*
X0139684Y0067696D01*
X0139460Y0067155D02*
X0154999Y0067155D01*
X0154000Y0066156D02*
X0138744Y0066156D01*
X0136900Y0068250D02*
X0132569Y0068250D01*
X0131900Y0067581D01*
X0129225Y0067155D02*
X0123067Y0067155D01*
X0122069Y0066156D02*
X0129225Y0066156D01*
X0129421Y0065158D02*
X0121070Y0065158D01*
X0120072Y0064159D02*
X0152003Y0064159D01*
X0151005Y0063161D02*
X0119073Y0063161D01*
X0118075Y0062162D02*
X0126107Y0062162D01*
X0128160Y0059313D02*
X0128160Y0050967D01*
X0130618Y0048183D02*
X0130682Y0048183D01*
X0126000Y0045187D02*
X0141575Y0045187D01*
X0140576Y0044189D02*
X0126000Y0044189D01*
X0126722Y0043190D02*
X0127625Y0043190D01*
X0131175Y0043190D02*
X0139578Y0043190D01*
X0138579Y0042192D02*
X0132029Y0042192D01*
X0132381Y0041193D02*
X0137581Y0041193D01*
X0136582Y0040195D02*
X0132381Y0040195D01*
X0131983Y0039196D02*
X0135584Y0039196D01*
X0134585Y0038198D02*
X0131029Y0038198D01*
X0133587Y0037199D02*
X0115277Y0037199D01*
X0115368Y0038198D02*
X0127771Y0038198D01*
X0131590Y0035202D02*
X0096374Y0035202D01*
X0096374Y0036201D02*
X0132588Y0036201D01*
X0136115Y0035202D02*
X0144915Y0035202D01*
X0144281Y0034204D02*
X0135117Y0034204D01*
X0134118Y0033205D02*
X0144116Y0033205D01*
X0144318Y0032207D02*
X0133120Y0032207D01*
X0133577Y0031208D02*
X0145004Y0031208D01*
X0146900Y0033250D02*
X0160455Y0033250D01*
X0164254Y0029451D01*
X0159904Y0029211D02*
X0152636Y0029211D01*
X0153832Y0028213D02*
X0159904Y0028213D01*
X0159904Y0027214D02*
X0153912Y0027214D01*
X0153912Y0025266D02*
X0150731Y0025266D01*
X0150731Y0022281D01*
X0152609Y0022281D01*
X0152991Y0022384D01*
X0153333Y0022581D01*
X0153612Y0022860D01*
X0153810Y0023203D01*
X0153912Y0023584D01*
X0153912Y0025266D01*
X0153912Y0025217D02*
X0185809Y0025217D01*
X0184811Y0026216D02*
X0150731Y0026216D01*
X0150731Y0027214D02*
X0149762Y0027214D01*
X0149762Y0028213D02*
X0150731Y0028213D01*
X0150731Y0029211D02*
X0149762Y0029211D01*
X0147857Y0029211D02*
X0134200Y0029211D01*
X0134200Y0028213D02*
X0140327Y0028213D01*
X0140288Y0027214D02*
X0133959Y0027214D01*
X0133546Y0026216D02*
X0140288Y0026216D01*
X0140288Y0025217D02*
X0132655Y0025217D01*
X0129400Y0028750D02*
X0129400Y0030750D01*
X0151900Y0053250D01*
X0153500Y0053176D02*
X0191101Y0053176D01*
X0191101Y0054174D02*
X0153500Y0054174D01*
X0153500Y0055173D02*
X0191101Y0055173D01*
X0191101Y0056171D02*
X0189732Y0056171D01*
X0189732Y0056141D02*
X0189732Y0064926D01*
X0189088Y0065570D01*
X0178334Y0065570D01*
X0177690Y0064926D01*
X0177690Y0056141D01*
X0178334Y0055496D01*
X0189088Y0055496D01*
X0189732Y0056141D01*
X0189732Y0057170D02*
X0191101Y0057170D01*
X0191101Y0058168D02*
X0189732Y0058168D01*
X0189732Y0059167D02*
X0191101Y0059167D01*
X0191101Y0060165D02*
X0189732Y0060165D01*
X0189732Y0061164D02*
X0191101Y0061164D01*
X0191101Y0062162D02*
X0189732Y0062162D01*
X0189732Y0063161D02*
X0191101Y0063161D01*
X0191101Y0064159D02*
X0189732Y0064159D01*
X0189501Y0065158D02*
X0191101Y0065158D01*
X0191101Y0066156D02*
X0173469Y0066156D01*
X0174800Y0067155D02*
X0191101Y0067155D01*
X0191101Y0068153D02*
X0175388Y0068153D01*
X0175672Y0069152D02*
X0191101Y0069152D01*
X0191101Y0070150D02*
X0175672Y0070150D01*
X0175336Y0071149D02*
X0191101Y0071149D01*
X0191101Y0072147D02*
X0174675Y0072147D01*
X0173168Y0073146D02*
X0191101Y0073146D01*
X0191101Y0074144D02*
X0168079Y0074144D01*
X0168079Y0073146D02*
X0170632Y0073146D01*
X0169125Y0072147D02*
X0168079Y0072147D01*
X0168079Y0071149D02*
X0168464Y0071149D01*
X0168128Y0070150D02*
X0167718Y0070150D01*
X0167847Y0065158D02*
X0177921Y0065158D01*
X0177690Y0064159D02*
X0168079Y0064159D01*
X0168079Y0063161D02*
X0177690Y0063161D01*
X0177690Y0062162D02*
X0168079Y0062162D01*
X0168079Y0061164D02*
X0177690Y0061164D01*
X0177690Y0060165D02*
X0168079Y0060165D01*
X0168079Y0059167D02*
X0177690Y0059167D01*
X0177690Y0058168D02*
X0168079Y0058168D01*
X0168079Y0057170D02*
X0177690Y0057170D01*
X0177690Y0056171D02*
X0168079Y0056171D01*
X0170323Y0050610D02*
X0169540Y0049827D01*
X0169116Y0048804D01*
X0169116Y0047696D01*
X0169540Y0046673D01*
X0170323Y0045890D01*
X0171346Y0045466D01*
X0172422Y0045466D01*
X0177800Y0040087D01*
X0178737Y0039150D01*
X0180671Y0039150D01*
X0180840Y0038981D01*
X0188251Y0038981D01*
X0188896Y0039625D01*
X0188896Y0044473D01*
X0188251Y0045118D01*
X0180840Y0045118D01*
X0180196Y0044473D01*
X0180196Y0042350D01*
X0180063Y0042350D01*
X0174684Y0047728D01*
X0174684Y0048804D01*
X0174260Y0049827D01*
X0173477Y0050610D01*
X0172454Y0051034D01*
X0171346Y0051034D01*
X0170323Y0050610D01*
X0169893Y0050180D02*
X0155194Y0050180D01*
X0157456Y0049182D02*
X0169272Y0049182D01*
X0169116Y0048183D02*
X0158455Y0048183D01*
X0159453Y0047184D02*
X0169328Y0047184D01*
X0170026Y0046186D02*
X0160004Y0046186D01*
X0163770Y0045187D02*
X0164739Y0045187D01*
X0164739Y0044189D02*
X0163770Y0044189D01*
X0163770Y0043190D02*
X0164739Y0043190D01*
X0164739Y0042192D02*
X0175695Y0042192D01*
X0174697Y0043190D02*
X0169004Y0043190D01*
X0169004Y0044189D02*
X0173698Y0044189D01*
X0172700Y0045187D02*
X0168456Y0045187D01*
X0171900Y0048250D02*
X0179400Y0040750D01*
X0183246Y0040750D01*
X0184546Y0042049D01*
X0188896Y0042192D02*
X0191101Y0042192D01*
X0191101Y0043190D02*
X0188896Y0043190D01*
X0188896Y0044189D02*
X0191101Y0044189D01*
X0191101Y0045187D02*
X0177225Y0045187D01*
X0178224Y0044189D02*
X0180196Y0044189D01*
X0180196Y0043190D02*
X0179222Y0043190D01*
X0176694Y0041193D02*
X0169004Y0041193D01*
X0169004Y0041565D02*
X0164739Y0041565D01*
X0164739Y0038581D01*
X0167702Y0038581D01*
X0168083Y0038683D01*
X0168425Y0038880D01*
X0168705Y0039160D01*
X0168902Y0039502D01*
X0169004Y0039883D01*
X0169004Y0041565D01*
X0169004Y0040195D02*
X0177692Y0040195D01*
X0178691Y0039196D02*
X0168726Y0039196D01*
X0164739Y0039196D02*
X0163770Y0039196D01*
X0163770Y0040195D02*
X0164739Y0040195D01*
X0164739Y0041193D02*
X0163770Y0041193D01*
X0159955Y0038198D02*
X0191101Y0038198D01*
X0191101Y0039196D02*
X0188467Y0039196D01*
X0188896Y0040195D02*
X0191101Y0040195D01*
X0191101Y0041193D02*
X0188896Y0041193D01*
X0191101Y0037199D02*
X0159337Y0037199D01*
X0158339Y0036201D02*
X0191101Y0036201D01*
X0191101Y0035202D02*
X0157324Y0035202D01*
X0161764Y0034204D02*
X0191101Y0034204D01*
X0191101Y0033205D02*
X0162763Y0033205D01*
X0159904Y0031208D02*
X0148796Y0031208D01*
X0146961Y0036201D02*
X0137114Y0036201D01*
X0138112Y0037199D02*
X0145963Y0037199D01*
X0145345Y0038198D02*
X0139111Y0038198D01*
X0140109Y0039196D02*
X0144931Y0039196D01*
X0144517Y0040195D02*
X0141108Y0040195D01*
X0142106Y0041193D02*
X0144350Y0041193D01*
X0144350Y0042192D02*
X0143105Y0042192D01*
X0144103Y0043190D02*
X0144350Y0043190D01*
X0140731Y0047184D02*
X0140156Y0047184D01*
X0140156Y0048183D02*
X0140731Y0048183D01*
X0140731Y0049182D02*
X0140156Y0049182D01*
X0140156Y0050180D02*
X0140731Y0050180D01*
X0140731Y0051179D02*
X0140156Y0051179D01*
X0140156Y0052177D02*
X0140731Y0052177D01*
X0140731Y0053176D02*
X0140156Y0053176D01*
X0140156Y0054174D02*
X0140731Y0054174D01*
X0137809Y0054174D02*
X0135425Y0054174D01*
X0136031Y0053176D02*
X0137369Y0053176D01*
X0137369Y0052177D02*
X0136031Y0052177D01*
X0135928Y0056171D02*
X0135353Y0056171D01*
X0135353Y0057170D02*
X0135928Y0057170D01*
X0135928Y0058168D02*
X0135353Y0058168D01*
X0135353Y0060165D02*
X0135928Y0060165D01*
X0135928Y0061164D02*
X0135353Y0061164D01*
X0135353Y0062162D02*
X0135928Y0062162D01*
X0133022Y0062162D02*
X0130213Y0062162D01*
X0130835Y0061164D02*
X0132565Y0061164D01*
X0138259Y0062162D02*
X0150300Y0062162D01*
X0150300Y0061164D02*
X0138715Y0061164D01*
X0134379Y0065158D02*
X0153002Y0065158D01*
X0155530Y0063161D02*
X0156036Y0063161D01*
X0156036Y0062162D02*
X0154532Y0062162D01*
X0153533Y0061164D02*
X0156036Y0061164D01*
X0156036Y0060165D02*
X0153500Y0060165D01*
X0153500Y0059167D02*
X0156036Y0059167D01*
X0156036Y0058168D02*
X0153500Y0058168D01*
X0153500Y0057170D02*
X0156036Y0057170D01*
X0156036Y0056171D02*
X0153500Y0056171D01*
X0153090Y0052177D02*
X0191101Y0052177D01*
X0191101Y0051179D02*
X0152091Y0051179D01*
X0173907Y0050180D02*
X0191101Y0050180D01*
X0191101Y0049182D02*
X0174528Y0049182D01*
X0174684Y0048183D02*
X0191101Y0048183D01*
X0191101Y0047184D02*
X0175228Y0047184D01*
X0176227Y0046186D02*
X0191101Y0046186D01*
X0191101Y0032207D02*
X0188564Y0032207D01*
X0188896Y0031208D02*
X0191101Y0031208D01*
X0191101Y0030210D02*
X0188896Y0030210D01*
X0188896Y0029211D02*
X0191101Y0029211D01*
X0191101Y0028213D02*
X0188896Y0028213D01*
X0189752Y0027214D02*
X0191101Y0027214D01*
X0191101Y0026216D02*
X0190751Y0026216D01*
X0186808Y0024219D02*
X0153912Y0024219D01*
X0153814Y0023220D02*
X0187300Y0023220D01*
X0187300Y0022222D02*
X0145615Y0022222D01*
X0142238Y0020225D02*
X0112612Y0020225D01*
X0111614Y0021223D02*
X0141240Y0021223D01*
X0143237Y0019226D02*
X0113611Y0019226D01*
X0114609Y0018228D02*
X0144235Y0018228D01*
X0143054Y0017229D02*
X0142085Y0017229D01*
X0142085Y0017959D02*
X0139616Y0017959D01*
X0139234Y0017856D01*
X0138892Y0017659D01*
X0138613Y0017380D01*
X0138416Y0017038D01*
X0138313Y0016656D01*
X0138313Y0014974D01*
X0142085Y0014974D01*
X0142085Y0014006D01*
X0138313Y0014006D01*
X0138313Y0012324D01*
X0138416Y0011943D01*
X0138613Y0011601D01*
X0138892Y0011321D01*
X0139234Y0011124D01*
X0139616Y0011022D01*
X0142085Y0011022D01*
X0142085Y0014006D01*
X0143054Y0014006D01*
X0143054Y0014974D01*
X0142085Y0014974D01*
X0142085Y0017959D01*
X0142085Y0016231D02*
X0143054Y0016231D01*
X0143054Y0015232D02*
X0142085Y0015232D01*
X0142085Y0014234D02*
X0118100Y0014234D01*
X0118100Y0013235D02*
X0138313Y0013235D01*
X0138337Y0012237D02*
X0130402Y0012237D01*
X0131400Y0011238D02*
X0139037Y0011238D01*
X0142085Y0011238D02*
X0143054Y0011238D01*
X0143054Y0011022D02*
X0145523Y0011022D01*
X0145904Y0011124D01*
X0146246Y0011321D01*
X0146525Y0011601D01*
X0146723Y0011943D01*
X0146825Y0012324D01*
X0146825Y0014006D01*
X0143054Y0014006D01*
X0143054Y0011022D01*
X0142592Y0010240D02*
X0147375Y0010240D01*
X0147375Y0011238D02*
X0146102Y0011238D01*
X0146802Y0012237D02*
X0147375Y0012237D01*
X0147436Y0013235D02*
X0146825Y0013235D01*
X0148229Y0014234D02*
X0143054Y0014234D01*
X0143054Y0013235D02*
X0142085Y0013235D01*
X0142085Y0012237D02*
X0143054Y0012237D01*
X0146425Y0009241D02*
X0147375Y0009241D01*
X0155087Y0009241D02*
X0161051Y0009241D01*
X0161331Y0009522D02*
X0160719Y0008910D01*
X0155087Y0008910D01*
X0155087Y0013174D01*
X0154442Y0013818D01*
X0153131Y0013818D01*
X0152605Y0015232D02*
X0160931Y0015232D01*
X0160931Y0014234D02*
X0161034Y0013852D01*
X0161231Y0013510D01*
X0161510Y0013231D01*
X0161845Y0013038D01*
X0161331Y0012525D01*
X0161331Y0009522D01*
X0161331Y0010240D02*
X0155087Y0010240D01*
X0155087Y0011238D02*
X0161331Y0011238D01*
X0161331Y0012237D02*
X0155087Y0012237D01*
X0155026Y0013235D02*
X0161506Y0013235D01*
X0163916Y0016112D02*
X0163916Y0017081D01*
X0164884Y0017081D01*
X0164884Y0020262D01*
X0166566Y0020262D01*
X0166947Y0020160D01*
X0167290Y0019962D01*
X0167569Y0019683D01*
X0167766Y0019341D01*
X0167868Y0018959D01*
X0167868Y0017081D01*
X0164884Y0017081D01*
X0164884Y0016112D01*
X0167868Y0016112D01*
X0167868Y0014234D01*
X0167868Y0015232D02*
X0173431Y0015232D01*
X0173431Y0017229D02*
X0167868Y0017229D01*
X0167868Y0018228D02*
X0173431Y0018228D01*
X0173503Y0019226D02*
X0167797Y0019226D01*
X0166704Y0020225D02*
X0174596Y0020225D01*
X0176416Y0016231D02*
X0164884Y0016231D01*
X0164884Y0017229D02*
X0163916Y0017229D01*
X0163916Y0018228D02*
X0164884Y0018228D01*
X0164884Y0019226D02*
X0163916Y0019226D01*
X0163916Y0020225D02*
X0164884Y0020225D01*
X0168604Y0027214D02*
X0180196Y0027214D01*
X0180196Y0028213D02*
X0168604Y0028213D01*
X0168604Y0029211D02*
X0180196Y0029211D01*
X0180196Y0030210D02*
X0168604Y0030210D01*
X0168604Y0031208D02*
X0180196Y0031208D01*
X0180528Y0032207D02*
X0168272Y0032207D01*
X0159904Y0030210D02*
X0133991Y0030210D01*
X0127613Y0033205D02*
X0111187Y0033205D01*
X0112731Y0032207D02*
X0117617Y0032207D01*
X0116070Y0031208D02*
X0113577Y0031208D01*
X0113991Y0030210D02*
X0115223Y0030210D01*
X0114810Y0029211D02*
X0114200Y0029211D01*
X0114200Y0028213D02*
X0114600Y0028213D01*
X0114600Y0027214D02*
X0113959Y0027214D01*
X0113546Y0026216D02*
X0114840Y0026216D01*
X0115254Y0025217D02*
X0112655Y0025217D01*
X0111300Y0024219D02*
X0116143Y0024219D01*
X0117793Y0023220D02*
X0111300Y0023220D01*
X0111300Y0022222D02*
X0120241Y0022222D01*
X0123546Y0025217D02*
X0126145Y0025217D01*
X0125254Y0026216D02*
X0123960Y0026216D01*
X0124200Y0027214D02*
X0124841Y0027214D01*
X0124600Y0028213D02*
X0124200Y0028213D01*
X0123990Y0029211D02*
X0124600Y0029211D01*
X0124809Y0030210D02*
X0123577Y0030210D01*
X0122730Y0031208D02*
X0125223Y0031208D01*
X0126069Y0032207D02*
X0121183Y0032207D01*
X0130591Y0034204D02*
X0096555Y0034204D01*
X0094774Y0033722D02*
X0097746Y0030750D01*
X0097746Y0018250D01*
X0094481Y0018228D02*
X0094319Y0018228D01*
X0094319Y0019226D02*
X0094481Y0019226D01*
X0094481Y0020225D02*
X0094319Y0020225D01*
X0091054Y0018250D02*
X0089400Y0019904D01*
X0089400Y0020750D01*
X0091900Y0023250D01*
X0094400Y0023250D01*
X0092549Y0025217D02*
X0086925Y0025217D01*
X0086925Y0024219D02*
X0090606Y0024219D01*
X0089607Y0023220D02*
X0086925Y0023220D01*
X0086925Y0022222D02*
X0088609Y0022222D01*
X0087800Y0021223D02*
X0087100Y0021223D01*
X0087100Y0020225D02*
X0087788Y0020225D01*
X0087788Y0019226D02*
X0086691Y0019226D01*
X0087788Y0018228D02*
X0085366Y0018228D01*
X0083434Y0018228D02*
X0081000Y0018228D01*
X0081000Y0019226D02*
X0082109Y0019226D01*
X0081700Y0020225D02*
X0081137Y0020225D01*
X0079400Y0020750D02*
X0079400Y0015250D01*
X0086900Y0007750D01*
X0091472Y0006246D02*
X0092742Y0006246D01*
X0092328Y0007244D02*
X0091700Y0007244D01*
X0091700Y0008243D02*
X0092100Y0008243D01*
X0092100Y0009241D02*
X0091478Y0009241D01*
X0091064Y0010240D02*
X0092322Y0010240D01*
X0092735Y0011238D02*
X0090200Y0011238D01*
X0088611Y0012237D02*
X0093598Y0012237D01*
X0095185Y0013235D02*
X0083678Y0013235D01*
X0084676Y0012237D02*
X0085189Y0012237D01*
X0082679Y0014234D02*
X0113229Y0014234D01*
X0112231Y0015232D02*
X0100418Y0015232D01*
X0101012Y0016231D02*
X0111232Y0016231D01*
X0110234Y0017229D02*
X0101012Y0017229D01*
X0101012Y0018228D02*
X0109235Y0018228D01*
X0108237Y0019226D02*
X0101012Y0019226D01*
X0101012Y0020225D02*
X0107500Y0020225D01*
X0107500Y0021223D02*
X0100463Y0021223D01*
X0099346Y0022222D02*
X0107500Y0022222D01*
X0107500Y0023220D02*
X0099346Y0023220D01*
X0099346Y0024219D02*
X0107500Y0024219D01*
X0106145Y0025217D02*
X0099346Y0025217D01*
X0099346Y0026216D02*
X0105254Y0026216D01*
X0104841Y0027214D02*
X0099346Y0027214D01*
X0100899Y0028213D02*
X0104600Y0028213D01*
X0104600Y0029211D02*
X0101012Y0029211D01*
X0101012Y0030210D02*
X0104809Y0030210D01*
X0105223Y0031208D02*
X0101012Y0031208D01*
X0101012Y0032207D02*
X0106069Y0032207D01*
X0107613Y0033205D02*
X0100981Y0033205D01*
X0094774Y0033722D02*
X0094774Y0041419D01*
X0097892Y0041193D02*
X0097955Y0041193D01*
X0097955Y0041388D02*
X0097955Y0038246D01*
X0099184Y0038246D01*
X0099566Y0038348D01*
X0099908Y0038546D01*
X0100187Y0038825D01*
X0100384Y0039167D01*
X0100487Y0039549D01*
X0100487Y0041388D01*
X0097955Y0041388D01*
X0097955Y0041451D02*
X0100487Y0041451D01*
X0100487Y0043290D01*
X0100384Y0043671D01*
X0100187Y0044014D01*
X0099908Y0044293D01*
X0099566Y0044490D01*
X0099184Y0044593D01*
X0097955Y0044593D01*
X0097955Y0041451D01*
X0097955Y0042192D02*
X0097892Y0042192D01*
X0097892Y0043190D02*
X0097955Y0043190D01*
X0097955Y0044189D02*
X0097892Y0044189D01*
X0096710Y0045187D02*
X0092225Y0045187D01*
X0093224Y0044189D02*
X0093252Y0044189D01*
X0091624Y0043526D02*
X0081900Y0053250D01*
X0079118Y0052177D02*
X0072843Y0052177D01*
X0072843Y0051179D02*
X0079756Y0051179D01*
X0082707Y0050180D02*
X0072843Y0050180D01*
X0072843Y0049182D02*
X0083706Y0049182D01*
X0084704Y0048183D02*
X0072843Y0048183D01*
X0072843Y0047184D02*
X0085703Y0047184D01*
X0086701Y0046186D02*
X0072843Y0046186D01*
X0072283Y0045187D02*
X0087700Y0045187D01*
X0086953Y0044189D02*
X0086847Y0044189D01*
X0083803Y0044189D02*
X0083698Y0044189D01*
X0080653Y0044189D02*
X0080548Y0044189D01*
X0077504Y0044189D02*
X0077399Y0044189D01*
X0074354Y0044189D02*
X0071669Y0044189D01*
X0071669Y0043190D02*
X0073713Y0043190D01*
X0073713Y0042192D02*
X0071669Y0042192D01*
X0071669Y0041193D02*
X0073713Y0041193D01*
X0073713Y0040195D02*
X0071669Y0040195D01*
X0071669Y0039196D02*
X0073807Y0039196D01*
X0074276Y0038198D02*
X0071669Y0038198D01*
X0071669Y0037199D02*
X0073587Y0037199D01*
X0072588Y0036201D02*
X0071669Y0036201D01*
X0071590Y0035202D02*
X0071115Y0035202D01*
X0070591Y0034204D02*
X0070117Y0034204D01*
X0070300Y0033205D02*
X0069118Y0033205D01*
X0068500Y0032207D02*
X0070300Y0032207D01*
X0070300Y0031208D02*
X0068500Y0031208D01*
X0068500Y0030210D02*
X0070300Y0030210D01*
X0070300Y0029211D02*
X0068500Y0029211D01*
X0068500Y0028213D02*
X0070300Y0028213D01*
X0070300Y0027214D02*
X0068500Y0027214D01*
X0068500Y0026216D02*
X0070300Y0026216D01*
X0070300Y0025217D02*
X0068500Y0025217D01*
X0068500Y0024219D02*
X0070300Y0024219D01*
X0070300Y0023220D02*
X0068500Y0023220D01*
X0068500Y0022222D02*
X0070300Y0022222D01*
X0070300Y0021223D02*
X0068500Y0021223D01*
X0068500Y0020225D02*
X0070300Y0020225D01*
X0070300Y0019226D02*
X0068500Y0019226D01*
X0068500Y0018228D02*
X0070300Y0018228D01*
X0070300Y0017229D02*
X0068142Y0017229D01*
X0067143Y0016231D02*
X0070300Y0016231D01*
X0070300Y0015232D02*
X0066145Y0015232D01*
X0065146Y0014234D02*
X0070300Y0014234D01*
X0070122Y0013235D02*
X0064148Y0013235D01*
X0063149Y0012237D02*
X0065189Y0012237D01*
X0063600Y0011238D02*
X0062151Y0011238D01*
X0062736Y0010240D02*
X0061478Y0010240D01*
X0061700Y0009241D02*
X0062322Y0009241D01*
X0062100Y0008243D02*
X0061700Y0008243D01*
X0061472Y0007244D02*
X0062100Y0007244D01*
X0062328Y0006246D02*
X0061058Y0006246D01*
X0057400Y0008750D02*
X0056900Y0008750D01*
X0057400Y0008750D02*
X0066900Y0018250D01*
X0066900Y0033250D01*
X0070069Y0036419D01*
X0070069Y0047266D01*
X0070069Y0050415D02*
X0066565Y0050415D01*
X0064400Y0048250D01*
X0064400Y0025250D01*
X0046900Y0007750D01*
X0042328Y0006246D02*
X0041700Y0006246D01*
X0042100Y0006795D02*
X0042740Y0005250D01*
X0041700Y0005250D01*
X0041700Y0011287D01*
X0061000Y0030587D01*
X0061000Y0047587D01*
X0065063Y0051650D01*
X0065537Y0051650D01*
X0063737Y0049850D01*
X0062800Y0048913D01*
X0062800Y0025913D01*
X0048974Y0012086D01*
X0047855Y0012550D01*
X0045945Y0012550D01*
X0044181Y0011819D01*
X0042831Y0010469D01*
X0042100Y0008705D01*
X0042100Y0006795D01*
X0042100Y0007244D02*
X0041700Y0007244D01*
X0041700Y0008243D02*
X0042100Y0008243D01*
X0042322Y0009241D02*
X0041700Y0009241D01*
X0041700Y0010240D02*
X0042736Y0010240D01*
X0043600Y0011238D02*
X0041700Y0011238D01*
X0042649Y0012237D02*
X0045189Y0012237D01*
X0043648Y0013235D02*
X0050122Y0013235D01*
X0049124Y0012237D02*
X0048611Y0012237D01*
X0051121Y0014234D02*
X0044646Y0014234D01*
X0045645Y0015232D02*
X0052119Y0015232D01*
X0053118Y0016231D02*
X0046643Y0016231D01*
X0047642Y0017229D02*
X0054116Y0017229D01*
X0055115Y0018228D02*
X0048640Y0018228D01*
X0049639Y0019226D02*
X0056113Y0019226D01*
X0057112Y0020225D02*
X0050637Y0020225D01*
X0051636Y0021223D02*
X0058110Y0021223D01*
X0059109Y0022222D02*
X0052634Y0022222D01*
X0053633Y0023220D02*
X0060108Y0023220D01*
X0061106Y0024219D02*
X0054631Y0024219D01*
X0055630Y0025217D02*
X0062105Y0025217D01*
X0062800Y0026216D02*
X0056628Y0026216D01*
X0057627Y0027214D02*
X0062800Y0027214D01*
X0062800Y0028213D02*
X0058626Y0028213D01*
X0059624Y0029211D02*
X0062800Y0029211D01*
X0062800Y0030210D02*
X0060623Y0030210D01*
X0061000Y0031208D02*
X0062800Y0031208D01*
X0062800Y0032207D02*
X0061000Y0032207D01*
X0061000Y0033205D02*
X0062800Y0033205D01*
X0062800Y0034204D02*
X0061000Y0034204D01*
X0061000Y0035202D02*
X0062800Y0035202D01*
X0062800Y0036201D02*
X0061000Y0036201D01*
X0061000Y0037199D02*
X0062800Y0037199D01*
X0062800Y0038198D02*
X0061000Y0038198D01*
X0061000Y0039196D02*
X0062800Y0039196D01*
X0062800Y0040195D02*
X0061000Y0040195D01*
X0061000Y0041193D02*
X0062800Y0041193D01*
X0062800Y0042192D02*
X0061000Y0042192D01*
X0061000Y0043190D02*
X0062800Y0043190D01*
X0062800Y0044189D02*
X0061000Y0044189D01*
X0061000Y0045187D02*
X0062800Y0045187D01*
X0062800Y0046186D02*
X0061000Y0046186D01*
X0061000Y0047184D02*
X0062800Y0047184D01*
X0062800Y0048183D02*
X0061596Y0048183D01*
X0062594Y0049182D02*
X0063069Y0049182D01*
X0063593Y0050180D02*
X0064067Y0050180D01*
X0064591Y0051179D02*
X0065066Y0051179D01*
X0064400Y0053250D02*
X0059400Y0048250D01*
X0059400Y0031250D01*
X0036900Y0008750D01*
X0032100Y0009241D02*
X0030154Y0009241D01*
X0031152Y0010240D02*
X0032100Y0010240D01*
X0032100Y0011187D02*
X0032100Y0005250D01*
X0027936Y0005250D01*
X0028512Y0005826D01*
X0028512Y0007599D01*
X0032100Y0011187D01*
X0029622Y0013235D02*
X0015831Y0013235D01*
X0015616Y0013450D02*
X0018888Y0013450D01*
X0021700Y0016262D01*
X0021700Y0020238D01*
X0020288Y0021650D01*
X0021237Y0021650D01*
X0022375Y0020513D01*
X0022100Y0020238D01*
X0022100Y0016262D01*
X0024912Y0013450D01*
X0028888Y0013450D01*
X0031700Y0016262D01*
X0031700Y0020238D01*
X0028888Y0023050D01*
X0024912Y0023050D01*
X0024637Y0022775D01*
X0022563Y0024850D01*
X0020288Y0024850D01*
X0021700Y0026262D01*
X0021700Y0030238D01*
X0018888Y0033050D01*
X0014912Y0033050D01*
X0012100Y0030238D01*
X0012100Y0029446D01*
X0011469Y0030969D01*
X0010119Y0032319D01*
X0008500Y0032990D01*
X0008500Y0037587D01*
X0016000Y0045087D01*
X0016000Y0061413D01*
X0015063Y0062350D01*
X0010763Y0066650D01*
X0035063Y0066650D01*
X0042563Y0074150D01*
X0043435Y0074150D01*
X0043309Y0074116D01*
X0042967Y0073919D01*
X0042688Y0073640D01*
X0042490Y0073297D01*
X0042388Y0072916D01*
X0042388Y0071234D01*
X0045569Y0071234D01*
X0045569Y0070266D01*
X0042388Y0070266D01*
X0042388Y0068584D01*
X0042490Y0068203D01*
X0042688Y0067860D01*
X0042967Y0067581D01*
X0043309Y0067384D01*
X0043691Y0067281D01*
X0045569Y0067281D01*
X0045569Y0070266D01*
X0046538Y0070266D01*
X0046538Y0067281D01*
X0048416Y0067281D01*
X0048798Y0067384D01*
X0049140Y0067581D01*
X0049419Y0067860D01*
X0049612Y0068195D01*
X0050125Y0067681D01*
X0055367Y0067681D01*
X0056012Y0068326D01*
X0056012Y0069150D01*
X0057060Y0069150D01*
X0057060Y0068050D01*
X0057704Y0067406D01*
X0062903Y0067406D01*
X0065734Y0064574D01*
X0063383Y0064574D01*
X0062903Y0064094D01*
X0057704Y0064094D01*
X0057060Y0063450D01*
X0057060Y0062429D01*
X0056012Y0062429D01*
X0056012Y0063174D01*
X0055367Y0063818D01*
X0050125Y0063818D01*
X0049612Y0063305D01*
X0049419Y0063640D01*
X0049140Y0063919D01*
X0048798Y0064116D01*
X0048416Y0064218D01*
X0046538Y0064218D01*
X0046538Y0061234D01*
X0045569Y0061234D01*
X0045569Y0060266D01*
X0042388Y0060266D01*
X0042388Y0058584D01*
X0042490Y0058203D01*
X0042688Y0057860D01*
X0042967Y0057581D01*
X0043309Y0057384D01*
X0043691Y0057281D01*
X0045569Y0057281D01*
X0045569Y0060266D01*
X0046538Y0060266D01*
X0046538Y0057281D01*
X0048416Y0057281D01*
X0048798Y0057384D01*
X0049140Y0057581D01*
X0049419Y0057860D01*
X0049612Y0058195D01*
X0050125Y0057681D01*
X0055367Y0057681D01*
X0056012Y0058326D01*
X0056012Y0059229D01*
X0057060Y0059229D01*
X0057060Y0058208D01*
X0057704Y0057563D01*
X0061451Y0057563D01*
X0053737Y0049850D01*
X0052800Y0048913D01*
X0052800Y0046318D01*
X0050125Y0046318D01*
X0049612Y0045805D01*
X0049419Y0046140D01*
X0049140Y0046419D01*
X0048798Y0046616D01*
X0048416Y0046718D01*
X0046538Y0046718D01*
X0046538Y0043734D01*
X0045569Y0043734D01*
X0045569Y0042766D01*
X0042388Y0042766D01*
X0042388Y0041084D01*
X0042490Y0040703D01*
X0042688Y0040360D01*
X0042967Y0040081D01*
X0043309Y0039884D01*
X0043691Y0039781D01*
X0045569Y0039781D01*
X0045569Y0042766D01*
X0046538Y0042766D01*
X0046538Y0039781D01*
X0048416Y0039781D01*
X0048798Y0039884D01*
X0049140Y0040081D01*
X0049419Y0040360D01*
X0049612Y0040695D01*
X0050125Y0040181D01*
X0051146Y0040181D01*
X0051146Y0036318D01*
X0050125Y0036318D01*
X0049612Y0035805D01*
X0049419Y0036140D01*
X0049140Y0036419D01*
X0048798Y0036616D01*
X0048416Y0036718D01*
X0046538Y0036718D01*
X0046538Y0033734D01*
X0045569Y0033734D01*
X0045569Y0032766D01*
X0042388Y0032766D01*
X0042388Y0031084D01*
X0042490Y0030703D01*
X0042688Y0030360D01*
X0042967Y0030081D01*
X0043309Y0029884D01*
X0043691Y0029781D01*
X0045569Y0029781D01*
X0045569Y0032766D01*
X0046538Y0032766D01*
X0046538Y0029781D01*
X0048416Y0029781D01*
X0048798Y0029884D01*
X0049140Y0030081D01*
X0049419Y0030360D01*
X0049612Y0030695D01*
X0050125Y0030181D01*
X0055367Y0030181D01*
X0056012Y0030826D01*
X0056012Y0035674D01*
X0055367Y0036318D01*
X0054346Y0036318D01*
X0054346Y0040181D01*
X0055367Y0040181D01*
X0056012Y0040826D01*
X0056012Y0045674D01*
X0056000Y0045686D01*
X0056000Y0047587D01*
X0063488Y0055075D01*
X0067296Y0055075D01*
X0067296Y0054850D01*
X0063737Y0054850D01*
X0062800Y0053913D01*
X0057800Y0048913D01*
X0057800Y0047587D01*
X0057800Y0031913D01*
X0039437Y0013550D01*
X0034463Y0013550D01*
X0038500Y0017587D01*
X0038500Y0047587D01*
X0041218Y0050306D01*
X0041307Y0050269D01*
X0042493Y0050269D01*
X0043589Y0050723D01*
X0044427Y0051561D01*
X0044881Y0052657D01*
X0044881Y0053843D01*
X0044427Y0054939D01*
X0043589Y0055777D01*
X0042493Y0056231D01*
X0041307Y0056231D01*
X0040211Y0055777D01*
X0039373Y0054939D01*
X0038919Y0053843D01*
X0038919Y0052657D01*
X0038956Y0052568D01*
X0035300Y0048913D01*
X0035300Y0018913D01*
X0027706Y0011318D01*
X0022625Y0011318D01*
X0021981Y0010674D01*
X0021981Y0005826D01*
X0022557Y0005250D01*
X0021243Y0005250D01*
X0021819Y0005826D01*
X0021819Y0010674D01*
X0021175Y0011318D01*
X0017748Y0011318D01*
X0015616Y0013450D01*
X0016830Y0012237D02*
X0028624Y0012237D01*
X0029672Y0014234D02*
X0030621Y0014234D01*
X0030670Y0015232D02*
X0031619Y0015232D01*
X0031669Y0016231D02*
X0032618Y0016231D01*
X0031700Y0017229D02*
X0033616Y0017229D01*
X0034615Y0018228D02*
X0031700Y0018228D01*
X0031700Y0019226D02*
X0035300Y0019226D01*
X0035300Y0020225D02*
X0031700Y0020225D01*
X0030715Y0021223D02*
X0035300Y0021223D01*
X0035300Y0022222D02*
X0029716Y0022222D01*
X0028888Y0023450D02*
X0031700Y0026262D01*
X0031700Y0030238D01*
X0028888Y0033050D01*
X0024912Y0033050D01*
X0022100Y0030238D01*
X0022100Y0026262D01*
X0024912Y0023450D01*
X0028888Y0023450D01*
X0029657Y0024219D02*
X0035300Y0024219D01*
X0035300Y0025217D02*
X0030655Y0025217D01*
X0031654Y0026216D02*
X0035300Y0026216D01*
X0035300Y0027214D02*
X0031700Y0027214D01*
X0031700Y0028213D02*
X0035300Y0028213D01*
X0035300Y0029211D02*
X0031700Y0029211D01*
X0031700Y0030210D02*
X0035300Y0030210D01*
X0035300Y0031208D02*
X0030730Y0031208D01*
X0029731Y0032207D02*
X0035300Y0032207D01*
X0035300Y0033205D02*
X0029209Y0033205D01*
X0029054Y0033050D02*
X0032100Y0036096D01*
X0032100Y0037750D01*
X0027400Y0037750D01*
X0027400Y0038750D01*
X0026400Y0038750D01*
X0026400Y0043450D01*
X0024746Y0043450D01*
X0021700Y0040404D01*
X0021700Y0038750D01*
X0026400Y0038750D01*
X0026400Y0037750D01*
X0021700Y0037750D01*
X0021700Y0036096D01*
X0024746Y0033050D01*
X0026400Y0033050D01*
X0026400Y0037750D01*
X0027400Y0037750D01*
X0027400Y0033050D01*
X0029054Y0033050D01*
X0030208Y0034204D02*
X0035300Y0034204D01*
X0035300Y0035202D02*
X0031206Y0035202D01*
X0032100Y0036201D02*
X0035300Y0036201D01*
X0035300Y0037199D02*
X0032100Y0037199D01*
X0032100Y0038750D02*
X0032100Y0040404D01*
X0029054Y0043450D01*
X0027400Y0043450D01*
X0027400Y0038750D01*
X0032100Y0038750D01*
X0032100Y0039196D02*
X0035300Y0039196D01*
X0035300Y0038198D02*
X0027400Y0038198D01*
X0027400Y0039196D02*
X0026400Y0039196D01*
X0026400Y0038198D02*
X0021700Y0038198D01*
X0021700Y0039196D02*
X0021700Y0039196D01*
X0021700Y0040195D02*
X0021700Y0040195D01*
X0021700Y0040238D02*
X0018888Y0043050D01*
X0014912Y0043050D01*
X0012100Y0040238D01*
X0012100Y0036262D01*
X0014912Y0033450D01*
X0018888Y0033450D01*
X0021700Y0036262D01*
X0021700Y0040238D01*
X0022490Y0041193D02*
X0020745Y0041193D01*
X0019746Y0042192D02*
X0023488Y0042192D01*
X0024487Y0043190D02*
X0014103Y0043190D01*
X0014054Y0042192D02*
X0013105Y0042192D01*
X0013055Y0041193D02*
X0012106Y0041193D01*
X0012100Y0040195D02*
X0011108Y0040195D01*
X0012100Y0039196D02*
X0010109Y0039196D01*
X0009111Y0038198D02*
X0012100Y0038198D01*
X0012100Y0037199D02*
X0008500Y0037199D01*
X0008500Y0036201D02*
X0012161Y0036201D01*
X0013159Y0035202D02*
X0008500Y0035202D01*
X0008500Y0034204D02*
X0014158Y0034204D01*
X0014069Y0032207D02*
X0010231Y0032207D01*
X0011230Y0031208D02*
X0013070Y0031208D01*
X0012100Y0030210D02*
X0011784Y0030210D01*
X0007400Y0028250D02*
X0007400Y0027750D01*
X0011900Y0023250D01*
X0021900Y0023250D01*
X0026900Y0018250D01*
X0022100Y0018228D02*
X0021700Y0018228D01*
X0021700Y0019226D02*
X0022100Y0019226D01*
X0022100Y0020225D02*
X0021700Y0020225D01*
X0021664Y0021223D02*
X0020715Y0021223D01*
X0024192Y0023220D02*
X0035300Y0023220D01*
X0038500Y0023220D02*
X0049108Y0023220D01*
X0050106Y0024219D02*
X0038500Y0024219D01*
X0038500Y0025217D02*
X0051105Y0025217D01*
X0052103Y0026216D02*
X0038500Y0026216D01*
X0038500Y0027214D02*
X0053102Y0027214D01*
X0054100Y0028213D02*
X0038500Y0028213D01*
X0038500Y0029211D02*
X0055099Y0029211D01*
X0055396Y0030210D02*
X0056097Y0030210D01*
X0056012Y0031208D02*
X0057096Y0031208D01*
X0057800Y0032207D02*
X0056012Y0032207D01*
X0056012Y0033205D02*
X0057800Y0033205D01*
X0057800Y0034204D02*
X0056012Y0034204D01*
X0056012Y0035202D02*
X0057800Y0035202D01*
X0057800Y0036201D02*
X0055485Y0036201D01*
X0054346Y0037199D02*
X0057800Y0037199D01*
X0057800Y0038198D02*
X0054346Y0038198D01*
X0054346Y0039196D02*
X0057800Y0039196D01*
X0057800Y0040195D02*
X0055381Y0040195D01*
X0056012Y0041193D02*
X0057800Y0041193D01*
X0057800Y0042192D02*
X0056012Y0042192D01*
X0056012Y0043190D02*
X0057800Y0043190D01*
X0057800Y0044189D02*
X0056012Y0044189D01*
X0056012Y0045187D02*
X0057800Y0045187D01*
X0057800Y0046186D02*
X0056000Y0046186D01*
X0056000Y0047184D02*
X0057800Y0047184D01*
X0057800Y0048183D02*
X0056596Y0048183D01*
X0057594Y0049182D02*
X0058069Y0049182D01*
X0058593Y0050180D02*
X0059067Y0050180D01*
X0059591Y0051179D02*
X0060066Y0051179D01*
X0060590Y0052177D02*
X0061064Y0052177D01*
X0061588Y0053176D02*
X0062063Y0053176D01*
X0062587Y0054174D02*
X0063061Y0054174D01*
X0064400Y0053250D02*
X0069754Y0053250D01*
X0070069Y0053565D01*
X0069715Y0053565D01*
X0072843Y0053176D02*
X0078919Y0053176D01*
X0079056Y0054174D02*
X0072843Y0054174D01*
X0072843Y0055173D02*
X0079607Y0055173D01*
X0081162Y0056171D02*
X0072843Y0056171D01*
X0072843Y0057170D02*
X0084728Y0057170D01*
X0083729Y0058168D02*
X0078457Y0058168D01*
X0079471Y0059167D02*
X0082731Y0059167D01*
X0081732Y0060165D02*
X0079881Y0060165D01*
X0079881Y0061164D02*
X0080734Y0061164D01*
X0079735Y0062162D02*
X0079542Y0062162D01*
X0078737Y0063161D02*
X0078705Y0063161D01*
X0077738Y0064159D02*
X0072843Y0064159D01*
X0072843Y0063161D02*
X0075095Y0063161D01*
X0074258Y0062162D02*
X0072843Y0062162D01*
X0070069Y0062974D02*
X0064046Y0062974D01*
X0061900Y0060829D01*
X0052825Y0060829D01*
X0052746Y0060750D01*
X0056012Y0059167D02*
X0057060Y0059167D01*
X0057099Y0058168D02*
X0055854Y0058168D01*
X0060058Y0056171D02*
X0042638Y0056171D01*
X0041162Y0056171D02*
X0037000Y0056171D01*
X0037000Y0055173D02*
X0039607Y0055173D01*
X0039056Y0054174D02*
X0037000Y0054174D01*
X0037000Y0053794D02*
X0036356Y0053150D01*
X0032444Y0053150D01*
X0031800Y0053794D01*
X0031800Y0060706D01*
X0032444Y0061350D01*
X0036356Y0061350D01*
X0037000Y0060706D01*
X0037000Y0053794D01*
X0036381Y0053176D02*
X0038919Y0053176D01*
X0038564Y0052177D02*
X0016000Y0052177D01*
X0016000Y0051179D02*
X0037566Y0051179D01*
X0036567Y0050180D02*
X0016000Y0050180D01*
X0016000Y0049182D02*
X0035569Y0049182D01*
X0035300Y0048183D02*
X0016000Y0048183D01*
X0016000Y0047184D02*
X0035300Y0047184D01*
X0035300Y0046186D02*
X0016000Y0046186D01*
X0016000Y0045187D02*
X0035300Y0045187D01*
X0035300Y0044189D02*
X0015102Y0044189D01*
X0014400Y0045750D02*
X0006900Y0038250D01*
X0006900Y0028750D01*
X0007400Y0028250D01*
X0003900Y0031538D02*
X0003900Y0043433D01*
X0003904Y0043431D01*
X0004682Y0043178D01*
X0005400Y0043064D01*
X0005400Y0047750D01*
X0006400Y0047750D01*
X0006400Y0048750D01*
X0005400Y0048750D01*
X0005400Y0053436D01*
X0004682Y0053322D01*
X0003904Y0053069D01*
X0003900Y0053067D01*
X0003900Y0054462D01*
X0004181Y0054181D01*
X0005945Y0053450D01*
X0007855Y0053450D01*
X0009619Y0054181D01*
X0010969Y0055531D01*
X0011700Y0057295D01*
X0011700Y0059205D01*
X0010969Y0060969D01*
X0009619Y0062319D01*
X0007855Y0063050D01*
X0005945Y0063050D01*
X0004181Y0062319D01*
X0003900Y0062038D01*
X0003900Y0063883D01*
X0004945Y0063450D01*
X0006855Y0063450D01*
X0008619Y0064181D01*
X0008663Y0064225D01*
X0012800Y0060087D01*
X0012800Y0046413D01*
X0006237Y0039850D01*
X0005300Y0038913D01*
X0005300Y0032576D01*
X0004681Y0032319D01*
X0003900Y0031538D01*
X0003900Y0032207D02*
X0004569Y0032207D01*
X0003900Y0033205D02*
X0005300Y0033205D01*
X0005300Y0034204D02*
X0003900Y0034204D01*
X0003900Y0035202D02*
X0005300Y0035202D01*
X0005300Y0036201D02*
X0003900Y0036201D01*
X0003900Y0037199D02*
X0005300Y0037199D01*
X0005300Y0038198D02*
X0003900Y0038198D01*
X0003900Y0039196D02*
X0005584Y0039196D01*
X0006582Y0040195D02*
X0003900Y0040195D01*
X0003900Y0041193D02*
X0007581Y0041193D01*
X0008579Y0042192D02*
X0003900Y0042192D01*
X0003900Y0043190D02*
X0004644Y0043190D01*
X0005400Y0043190D02*
X0006400Y0043190D01*
X0006400Y0043064D02*
X0007118Y0043178D01*
X0007896Y0043431D01*
X0008625Y0043803D01*
X0009288Y0044284D01*
X0009866Y0044862D01*
X0010347Y0045525D01*
X0010719Y0046254D01*
X0010972Y0047032D01*
X0011086Y0047750D01*
X0006400Y0047750D01*
X0006400Y0043064D01*
X0007156Y0043190D02*
X0009578Y0043190D01*
X0009157Y0044189D02*
X0010576Y0044189D01*
X0010102Y0045187D02*
X0011575Y0045187D01*
X0010684Y0046186D02*
X0012573Y0046186D01*
X0012800Y0047184D02*
X0010996Y0047184D01*
X0011086Y0048750D02*
X0010972Y0049468D01*
X0010719Y0050246D01*
X0010347Y0050975D01*
X0009866Y0051638D01*
X0009288Y0052216D01*
X0008625Y0052697D01*
X0007896Y0053069D01*
X0007118Y0053322D01*
X0006400Y0053436D01*
X0006400Y0048750D01*
X0011086Y0048750D01*
X0011017Y0049182D02*
X0012800Y0049182D01*
X0012800Y0050180D02*
X0010740Y0050180D01*
X0010200Y0051179D02*
X0012800Y0051179D01*
X0012800Y0052177D02*
X0009327Y0052177D01*
X0007568Y0053176D02*
X0012800Y0053176D01*
X0012800Y0054174D02*
X0009603Y0054174D01*
X0010611Y0055173D02*
X0012800Y0055173D01*
X0012800Y0056171D02*
X0011234Y0056171D01*
X0011648Y0057170D02*
X0012800Y0057170D01*
X0012800Y0058168D02*
X0011700Y0058168D01*
X0011700Y0059167D02*
X0012800Y0059167D01*
X0012722Y0060165D02*
X0011302Y0060165D01*
X0011724Y0061164D02*
X0010775Y0061164D01*
X0010725Y0062162D02*
X0009776Y0062162D01*
X0009727Y0063161D02*
X0003900Y0063161D01*
X0003900Y0062162D02*
X0004024Y0062162D01*
X0008567Y0064159D02*
X0008728Y0064159D01*
X0011257Y0066156D02*
X0064152Y0066156D01*
X0063154Y0067155D02*
X0035567Y0067155D01*
X0036566Y0068153D02*
X0042519Y0068153D01*
X0042388Y0069152D02*
X0037564Y0069152D01*
X0038563Y0070150D02*
X0042388Y0070150D01*
X0039562Y0071149D02*
X0045569Y0071149D01*
X0045569Y0070150D02*
X0046538Y0070150D01*
X0046538Y0069152D02*
X0045569Y0069152D01*
X0045569Y0068153D02*
X0046538Y0068153D01*
X0049588Y0068153D02*
X0049654Y0068153D01*
X0052746Y0070750D02*
X0061821Y0070750D01*
X0061900Y0070671D01*
X0066447Y0066124D01*
X0070069Y0066124D01*
X0072843Y0066156D02*
X0075741Y0066156D01*
X0076740Y0065158D02*
X0072843Y0065158D01*
X0072843Y0067155D02*
X0074743Y0067155D01*
X0070069Y0069274D02*
X0070069Y0075927D01*
X0069823Y0076173D01*
X0069400Y0075750D01*
X0041900Y0075750D01*
X0034400Y0068250D01*
X0005900Y0068250D01*
X0006900Y0068250D01*
X0014400Y0060750D01*
X0014400Y0045750D01*
X0012800Y0048183D02*
X0006400Y0048183D01*
X0006400Y0047184D02*
X0005400Y0047184D01*
X0005400Y0046186D02*
X0006400Y0046186D01*
X0006400Y0045187D02*
X0005400Y0045187D01*
X0005400Y0044189D02*
X0006400Y0044189D01*
X0006400Y0049182D02*
X0005400Y0049182D01*
X0005400Y0050180D02*
X0006400Y0050180D01*
X0006400Y0051179D02*
X0005400Y0051179D01*
X0005400Y0052177D02*
X0006400Y0052177D01*
X0006400Y0053176D02*
X0005400Y0053176D01*
X0004232Y0053176D02*
X0003900Y0053176D01*
X0003900Y0054174D02*
X0004197Y0054174D01*
X0016000Y0054174D02*
X0016800Y0054174D01*
X0016800Y0053794D02*
X0017444Y0053150D01*
X0021356Y0053150D01*
X0022000Y0053794D01*
X0022000Y0060706D01*
X0021356Y0061350D01*
X0017444Y0061350D01*
X0016800Y0060706D01*
X0016800Y0053794D01*
X0017419Y0053176D02*
X0016000Y0053176D01*
X0016000Y0055173D02*
X0016800Y0055173D01*
X0016800Y0056171D02*
X0016000Y0056171D01*
X0016000Y0057170D02*
X0016800Y0057170D01*
X0016800Y0058168D02*
X0016000Y0058168D01*
X0016000Y0059167D02*
X0016800Y0059167D01*
X0016800Y0060165D02*
X0016000Y0060165D01*
X0016000Y0061164D02*
X0017258Y0061164D01*
X0015251Y0062162D02*
X0042388Y0062162D01*
X0042388Y0062916D02*
X0042388Y0061234D01*
X0045569Y0061234D01*
X0045569Y0064218D01*
X0043691Y0064218D01*
X0043309Y0064116D01*
X0042967Y0063919D01*
X0042688Y0063640D01*
X0042490Y0063297D01*
X0042388Y0062916D01*
X0042454Y0063161D02*
X0014252Y0063161D01*
X0013254Y0064159D02*
X0043469Y0064159D01*
X0045569Y0064159D02*
X0046538Y0064159D01*
X0046538Y0063161D02*
X0045569Y0063161D01*
X0045569Y0062162D02*
X0046538Y0062162D01*
X0045569Y0061164D02*
X0036542Y0061164D01*
X0037000Y0060165D02*
X0042388Y0060165D01*
X0042388Y0059167D02*
X0037000Y0059167D01*
X0037000Y0058168D02*
X0042510Y0058168D01*
X0045569Y0058168D02*
X0046538Y0058168D01*
X0046538Y0059167D02*
X0045569Y0059167D01*
X0045569Y0060165D02*
X0046538Y0060165D01*
X0049597Y0058168D02*
X0049639Y0058168D01*
X0044193Y0055173D02*
X0059060Y0055173D01*
X0058061Y0054174D02*
X0044744Y0054174D01*
X0044881Y0053176D02*
X0057063Y0053176D01*
X0056064Y0052177D02*
X0044682Y0052177D01*
X0044044Y0051179D02*
X0055066Y0051179D01*
X0054067Y0050180D02*
X0041093Y0050180D01*
X0040094Y0049182D02*
X0053069Y0049182D01*
X0052800Y0048183D02*
X0039096Y0048183D01*
X0038500Y0047184D02*
X0052800Y0047184D01*
X0054400Y0048250D02*
X0054400Y0044904D01*
X0052746Y0043250D01*
X0052746Y0033250D01*
X0050008Y0036201D02*
X0049358Y0036201D01*
X0051146Y0037199D02*
X0038500Y0037199D01*
X0038500Y0036201D02*
X0042749Y0036201D01*
X0042688Y0036140D02*
X0042490Y0035797D01*
X0042388Y0035416D01*
X0042388Y0033734D01*
X0045569Y0033734D01*
X0045569Y0036718D01*
X0043691Y0036718D01*
X0043309Y0036616D01*
X0042967Y0036419D01*
X0042688Y0036140D01*
X0042388Y0035202D02*
X0038500Y0035202D01*
X0038500Y0034204D02*
X0042388Y0034204D01*
X0042388Y0032207D02*
X0038500Y0032207D01*
X0038500Y0033205D02*
X0045569Y0033205D01*
X0045569Y0032207D02*
X0046538Y0032207D01*
X0046538Y0031208D02*
X0045569Y0031208D01*
X0045569Y0030210D02*
X0046538Y0030210D01*
X0049269Y0030210D02*
X0050097Y0030210D01*
X0046538Y0034204D02*
X0045569Y0034204D01*
X0045569Y0035202D02*
X0046538Y0035202D01*
X0046538Y0036201D02*
X0045569Y0036201D01*
X0051146Y0038198D02*
X0038500Y0038198D01*
X0038500Y0039196D02*
X0051146Y0039196D01*
X0050112Y0040195D02*
X0049254Y0040195D01*
X0046538Y0040195D02*
X0045569Y0040195D01*
X0045569Y0041193D02*
X0046538Y0041193D01*
X0046538Y0042192D02*
X0045569Y0042192D01*
X0045569Y0043190D02*
X0038500Y0043190D01*
X0038500Y0042192D02*
X0042388Y0042192D01*
X0042388Y0041193D02*
X0038500Y0041193D01*
X0038500Y0040195D02*
X0042853Y0040195D01*
X0042388Y0043734D02*
X0045569Y0043734D01*
X0045569Y0046718D01*
X0043691Y0046718D01*
X0043309Y0046616D01*
X0042967Y0046419D01*
X0042688Y0046140D01*
X0042490Y0045797D01*
X0042388Y0045416D01*
X0042388Y0043734D01*
X0042388Y0044189D02*
X0038500Y0044189D01*
X0038500Y0045187D02*
X0042388Y0045187D01*
X0042734Y0046186D02*
X0038500Y0046186D01*
X0036900Y0048250D02*
X0041900Y0053250D01*
X0037000Y0057170D02*
X0061057Y0057170D01*
X0062825Y0056675D02*
X0054400Y0048250D01*
X0049993Y0046186D02*
X0049373Y0046186D01*
X0046538Y0046186D02*
X0045569Y0046186D01*
X0045569Y0045187D02*
X0046538Y0045187D01*
X0046538Y0044189D02*
X0045569Y0044189D01*
X0052746Y0043250D02*
X0054400Y0043250D01*
X0036900Y0048250D02*
X0036900Y0018250D01*
X0026900Y0008250D01*
X0025246Y0008250D01*
X0021981Y0008243D02*
X0021819Y0008243D01*
X0021819Y0009241D02*
X0021981Y0009241D01*
X0021981Y0010240D02*
X0021819Y0010240D01*
X0021255Y0011238D02*
X0022545Y0011238D01*
X0024128Y0014234D02*
X0019672Y0014234D01*
X0020670Y0015232D02*
X0023130Y0015232D01*
X0022131Y0016231D02*
X0021669Y0016231D01*
X0021700Y0017229D02*
X0022100Y0017229D01*
X0012304Y0012237D02*
X0010760Y0012237D01*
X0010788Y0012216D02*
X0010125Y0012697D01*
X0009396Y0013069D01*
X0008618Y0013322D01*
X0007900Y0013436D01*
X0007900Y0008750D01*
X0006900Y0008750D01*
X0006900Y0013436D01*
X0006182Y0013322D01*
X0005404Y0013069D01*
X0004675Y0012697D01*
X0004012Y0012216D01*
X0003900Y0012104D01*
X0003900Y0014090D01*
X0005445Y0013450D01*
X0007355Y0013450D01*
X0009119Y0014181D01*
X0009740Y0014801D01*
X0015288Y0009253D01*
X0015288Y0005826D01*
X0015864Y0005250D01*
X0011648Y0005250D01*
X0011847Y0005525D01*
X0012219Y0006254D01*
X0012472Y0007032D01*
X0012586Y0007750D01*
X0007900Y0007750D01*
X0007900Y0008750D01*
X0012586Y0008750D01*
X0012472Y0009468D01*
X0012219Y0010246D01*
X0011847Y0010975D01*
X0011366Y0011638D01*
X0010788Y0012216D01*
X0011306Y0013235D02*
X0008885Y0013235D01*
X0007900Y0013235D02*
X0006900Y0013235D01*
X0005915Y0013235D02*
X0003900Y0013235D01*
X0003900Y0012237D02*
X0004040Y0012237D01*
X0006900Y0012237D02*
X0007900Y0012237D01*
X0007900Y0011238D02*
X0006900Y0011238D01*
X0006900Y0010240D02*
X0007900Y0010240D01*
X0007900Y0009241D02*
X0006900Y0009241D01*
X0007900Y0008243D02*
X0015288Y0008243D01*
X0015288Y0009241D02*
X0012508Y0009241D01*
X0012221Y0010240D02*
X0014301Y0010240D01*
X0013303Y0011238D02*
X0011657Y0011238D01*
X0010307Y0014234D02*
X0009172Y0014234D01*
X0008554Y0018250D02*
X0006400Y0018250D01*
X0008554Y0018250D02*
X0018554Y0008250D01*
X0021819Y0007244D02*
X0021981Y0007244D01*
X0021981Y0006246D02*
X0021819Y0006246D01*
X0028512Y0006246D02*
X0032100Y0006246D01*
X0032100Y0007244D02*
X0028512Y0007244D01*
X0029155Y0008243D02*
X0032100Y0008243D01*
X0035146Y0014234D02*
X0040121Y0014234D01*
X0041119Y0015232D02*
X0036145Y0015232D01*
X0037143Y0016231D02*
X0042118Y0016231D01*
X0043116Y0017229D02*
X0038142Y0017229D01*
X0038500Y0018228D02*
X0044115Y0018228D01*
X0045113Y0019226D02*
X0038500Y0019226D01*
X0038500Y0020225D02*
X0046112Y0020225D01*
X0047110Y0021223D02*
X0038500Y0021223D01*
X0038500Y0022222D02*
X0048109Y0022222D01*
X0058642Y0017229D02*
X0063616Y0017229D01*
X0062618Y0016231D02*
X0057643Y0016231D01*
X0056645Y0015232D02*
X0061619Y0015232D01*
X0060621Y0014234D02*
X0055646Y0014234D01*
X0055945Y0013550D02*
X0054268Y0012855D01*
X0065300Y0023887D01*
X0065300Y0018913D01*
X0059327Y0012940D01*
X0057855Y0013550D01*
X0055945Y0013550D01*
X0055185Y0013235D02*
X0054648Y0013235D01*
X0058615Y0013235D02*
X0059622Y0013235D01*
X0068611Y0012237D02*
X0069124Y0012237D01*
X0071900Y0012750D02*
X0066900Y0007750D01*
X0071900Y0012750D02*
X0071900Y0033250D01*
X0075876Y0037226D01*
X0075876Y0041419D01*
X0079026Y0041419D02*
X0079400Y0041045D01*
X0079400Y0035750D01*
X0076900Y0033250D01*
X0076900Y0008750D01*
X0081681Y0015232D02*
X0088382Y0015232D01*
X0087788Y0016231D02*
X0081000Y0016231D01*
X0081000Y0017229D02*
X0087788Y0017229D01*
X0084400Y0020750D02*
X0085325Y0021675D01*
X0085325Y0041419D01*
X0088475Y0041419D02*
X0088475Y0036675D01*
X0089400Y0035750D01*
X0087128Y0034204D02*
X0086925Y0034204D01*
X0086925Y0033205D02*
X0087466Y0033205D01*
X0087388Y0032207D02*
X0086925Y0032207D01*
X0086925Y0031208D02*
X0090569Y0031208D01*
X0090569Y0030210D02*
X0091538Y0030210D01*
X0091538Y0029211D02*
X0090569Y0029211D01*
X0090569Y0028213D02*
X0091538Y0028213D01*
X0087488Y0028213D02*
X0086925Y0028213D01*
X0086925Y0029211D02*
X0087388Y0029211D01*
X0087388Y0030210D02*
X0086925Y0030210D01*
X0086925Y0027214D02*
X0096146Y0027214D01*
X0096146Y0026216D02*
X0086925Y0026216D01*
X0082176Y0023526D02*
X0079400Y0020750D01*
X0082176Y0023526D02*
X0082176Y0041419D01*
X0091624Y0041419D02*
X0091624Y0043526D01*
X0091227Y0046186D02*
X0095711Y0046186D01*
X0094713Y0047184D02*
X0090228Y0047184D01*
X0089230Y0048183D02*
X0093714Y0048183D01*
X0092716Y0049182D02*
X0088231Y0049182D01*
X0087233Y0050180D02*
X0091717Y0050180D01*
X0090719Y0051179D02*
X0086234Y0051179D01*
X0085236Y0052177D02*
X0089720Y0052177D01*
X0088722Y0053176D02*
X0084881Y0053176D01*
X0084744Y0054174D02*
X0087723Y0054174D01*
X0086725Y0055173D02*
X0084193Y0055173D01*
X0085726Y0056171D02*
X0082638Y0056171D01*
X0075343Y0058168D02*
X0072843Y0058168D01*
X0070069Y0056675D02*
X0062825Y0056675D01*
X0070069Y0059825D02*
X0075975Y0059825D01*
X0076900Y0060750D01*
X0085242Y0063161D02*
X0085361Y0063161D01*
X0086240Y0062162D02*
X0091758Y0062162D01*
X0091419Y0061164D02*
X0087239Y0061164D01*
X0088238Y0060165D02*
X0091419Y0060165D01*
X0091829Y0059167D02*
X0089236Y0059167D01*
X0090235Y0058168D02*
X0092843Y0058168D01*
X0091233Y0057170D02*
X0100957Y0057170D01*
X0100957Y0058168D02*
X0095957Y0058168D01*
X0096971Y0059167D02*
X0100957Y0059167D01*
X0100957Y0060165D02*
X0097381Y0060165D01*
X0097381Y0061164D02*
X0100957Y0061164D01*
X0100957Y0062162D02*
X0098075Y0062162D01*
X0099073Y0063161D02*
X0100957Y0063161D01*
X0100957Y0064159D02*
X0100072Y0064159D01*
X0099774Y0066124D02*
X0094400Y0060750D01*
X0092595Y0063161D02*
X0088439Y0063161D01*
X0089468Y0064159D02*
X0095546Y0064159D01*
X0096545Y0065158D02*
X0089881Y0065158D01*
X0089881Y0066156D02*
X0094778Y0066156D01*
X0094127Y0067155D02*
X0089545Y0067155D01*
X0088713Y0068153D02*
X0093919Y0068153D01*
X0094047Y0069152D02*
X0083261Y0069152D01*
X0082262Y0070150D02*
X0094584Y0070150D01*
X0096108Y0071149D02*
X0081264Y0071149D01*
X0081000Y0072147D02*
X0113535Y0072147D01*
X0114533Y0073146D02*
X0100087Y0073146D01*
X0100087Y0074144D02*
X0115532Y0074144D01*
X0116530Y0075143D02*
X0109016Y0075143D01*
X0111427Y0076141D02*
X0117529Y0076141D01*
X0118527Y0077140D02*
X0112528Y0077140D01*
X0113526Y0078138D02*
X0119526Y0078138D01*
X0120524Y0079137D02*
X0114180Y0079137D01*
X0114594Y0080135D02*
X0121523Y0080135D01*
X0122521Y0081134D02*
X0115007Y0081134D01*
X0115200Y0082132D02*
X0123520Y0082132D01*
X0124400Y0080750D02*
X0135660Y0080750D01*
X0136900Y0081990D01*
X0140362Y0082132D02*
X0142493Y0082132D01*
X0142493Y0081134D02*
X0140362Y0081134D01*
X0140144Y0080135D02*
X0142267Y0080135D01*
X0142093Y0079137D02*
X0140362Y0079137D01*
X0140362Y0078138D02*
X0142093Y0078138D01*
X0142093Y0077140D02*
X0140362Y0077140D01*
X0140362Y0076141D02*
X0142399Y0076141D01*
X0142493Y0075143D02*
X0140362Y0075143D01*
X0140362Y0074144D02*
X0142493Y0074144D01*
X0142493Y0073146D02*
X0140362Y0073146D01*
X0136800Y0072147D02*
X0156036Y0072147D01*
X0156036Y0071149D02*
X0127061Y0071149D01*
X0126063Y0070150D02*
X0129567Y0070150D01*
X0129225Y0069152D02*
X0125064Y0069152D01*
X0124066Y0068153D02*
X0129225Y0068153D01*
X0134233Y0070150D02*
X0134863Y0070150D01*
X0138937Y0070150D02*
X0156397Y0070150D01*
X0156996Y0069152D02*
X0139540Y0069152D01*
X0135056Y0066156D02*
X0134575Y0066156D01*
X0135640Y0073250D02*
X0126900Y0073250D01*
X0113475Y0059825D01*
X0103731Y0059825D01*
X0107338Y0061425D02*
X0119116Y0073203D01*
X0119116Y0072696D01*
X0119540Y0071673D01*
X0120323Y0070890D01*
X0121346Y0070466D01*
X0121853Y0070466D01*
X0112812Y0061425D01*
X0107338Y0061425D01*
X0108075Y0062162D02*
X0113549Y0062162D01*
X0114548Y0063161D02*
X0109073Y0063161D01*
X0110072Y0064159D02*
X0115546Y0064159D01*
X0116545Y0065158D02*
X0111070Y0065158D01*
X0112069Y0066156D02*
X0117543Y0066156D01*
X0118542Y0067155D02*
X0113067Y0067155D01*
X0114066Y0068153D02*
X0119541Y0068153D01*
X0120539Y0069152D02*
X0115064Y0069152D01*
X0116063Y0070150D02*
X0121538Y0070150D01*
X0120064Y0071149D02*
X0117061Y0071149D01*
X0118060Y0072147D02*
X0119343Y0072147D01*
X0119116Y0073146D02*
X0119059Y0073146D01*
X0121900Y0073250D02*
X0126900Y0078250D01*
X0136900Y0078250D01*
X0136900Y0074510D02*
X0135640Y0073250D01*
X0145955Y0074510D02*
X0166467Y0074510D01*
X0162057Y0075100D01*
X0162057Y0078250D02*
X0156900Y0078250D01*
X0153160Y0081990D01*
X0145955Y0081990D01*
X0142493Y0083131D02*
X0140362Y0083131D01*
X0139860Y0084129D02*
X0142995Y0084129D01*
X0148915Y0084129D02*
X0155636Y0084129D01*
X0155636Y0084549D02*
X0162057Y0084549D01*
X0162057Y0084549D01*
X0162057Y0087033D01*
X0156939Y0087033D01*
X0156557Y0086931D01*
X0156215Y0086734D01*
X0155936Y0086454D01*
X0155738Y0086112D01*
X0155636Y0085731D01*
X0155636Y0084549D01*
X0155636Y0085128D02*
X0115106Y0085128D01*
X0115200Y0084129D02*
X0133940Y0084129D01*
X0133438Y0083131D02*
X0115200Y0083131D01*
X0114692Y0086126D02*
X0155747Y0086126D01*
X0155700Y0083131D02*
X0154282Y0083131D01*
X0155280Y0082132D02*
X0156036Y0082132D01*
X0152752Y0080135D02*
X0149643Y0080135D01*
X0149715Y0080010D02*
X0149518Y0080352D01*
X0149480Y0080390D01*
X0152497Y0080390D01*
X0155300Y0077587D01*
X0156036Y0076851D01*
X0156036Y0076810D01*
X0156171Y0076675D01*
X0156036Y0076540D01*
X0156036Y0076110D01*
X0149480Y0076110D01*
X0149518Y0076148D01*
X0149715Y0076490D01*
X0149817Y0076871D01*
X0149817Y0078159D01*
X0146046Y0078159D01*
X0146046Y0078341D01*
X0149817Y0078341D01*
X0149817Y0079629D01*
X0149715Y0080010D01*
X0149817Y0079137D02*
X0153750Y0079137D01*
X0154749Y0078138D02*
X0149817Y0078138D01*
X0149817Y0077140D02*
X0155747Y0077140D01*
X0156036Y0076141D02*
X0149511Y0076141D01*
X0162057Y0085128D02*
X0162058Y0085128D01*
X0162057Y0086126D02*
X0162058Y0086126D01*
X0168128Y0087125D02*
X0114279Y0087125D01*
X0113764Y0088123D02*
X0168320Y0088123D01*
X0168777Y0089122D02*
X0112766Y0089122D01*
X0111767Y0090120D02*
X0169792Y0090120D01*
X0168079Y0091574D02*
X0168079Y0100359D01*
X0167434Y0101004D01*
X0156681Y0101004D01*
X0156036Y0100359D01*
X0156036Y0091574D01*
X0156681Y0090930D01*
X0167434Y0090930D01*
X0168079Y0091574D01*
X0168079Y0092118D02*
X0177690Y0092118D01*
X0177690Y0091574D02*
X0178334Y0090930D01*
X0189088Y0090930D01*
X0189732Y0091574D01*
X0189732Y0100359D01*
X0189088Y0101004D01*
X0178334Y0101004D01*
X0177690Y0100359D01*
X0177690Y0091574D01*
X0178145Y0091119D02*
X0167624Y0091119D01*
X0168079Y0093116D02*
X0177690Y0093116D01*
X0177690Y0094115D02*
X0168079Y0094115D01*
X0168079Y0095113D02*
X0177690Y0095113D01*
X0177690Y0096112D02*
X0168079Y0096112D01*
X0168079Y0097110D02*
X0177690Y0097110D01*
X0177690Y0098109D02*
X0168079Y0098109D01*
X0168079Y0099107D02*
X0177690Y0099107D01*
X0177690Y0100106D02*
X0168079Y0100106D01*
X0156036Y0100106D02*
X0152465Y0100106D01*
X0152729Y0099107D02*
X0156036Y0099107D01*
X0156036Y0098109D02*
X0148100Y0098109D01*
X0148100Y0097750D02*
X0152786Y0097750D01*
X0152672Y0097032D01*
X0152419Y0096254D01*
X0152047Y0095525D01*
X0151566Y0094862D01*
X0150988Y0094284D01*
X0150325Y0093803D01*
X0149596Y0093431D01*
X0148818Y0093178D01*
X0148100Y0093064D01*
X0148100Y0097750D01*
X0148100Y0097110D02*
X0147100Y0097110D01*
X0147100Y0097750D02*
X0147100Y0093064D01*
X0146382Y0093178D01*
X0145604Y0093431D01*
X0144875Y0093803D01*
X0144212Y0094284D01*
X0143634Y0094862D01*
X0143153Y0095525D01*
X0142781Y0096254D01*
X0142528Y0097032D01*
X0142414Y0097750D01*
X0147100Y0097750D01*
X0147100Y0098109D02*
X0136700Y0098109D01*
X0136700Y0097750D02*
X0141386Y0097750D01*
X0141272Y0097032D01*
X0141019Y0096254D01*
X0140647Y0095525D01*
X0140166Y0094862D01*
X0139588Y0094284D01*
X0138925Y0093803D01*
X0138196Y0093431D01*
X0137418Y0093178D01*
X0136700Y0093064D01*
X0136700Y0097750D01*
X0136700Y0097110D02*
X0135700Y0097110D01*
X0135700Y0096112D02*
X0136700Y0096112D01*
X0136700Y0095113D02*
X0135700Y0095113D01*
X0135700Y0094115D02*
X0136700Y0094115D01*
X0136700Y0093116D02*
X0135700Y0093116D01*
X0135374Y0093116D02*
X0128256Y0093116D01*
X0130053Y0094115D02*
X0133045Y0094115D01*
X0132052Y0095113D02*
X0131003Y0095113D01*
X0131417Y0096112D02*
X0131453Y0096112D01*
X0137026Y0093116D02*
X0146774Y0093116D01*
X0147100Y0093116D02*
X0148100Y0093116D01*
X0148426Y0093116D02*
X0156036Y0093116D01*
X0156036Y0092118D02*
X0099524Y0092118D01*
X0099524Y0093116D02*
X0105544Y0093116D01*
X0103747Y0094115D02*
X0099524Y0094115D01*
X0100051Y0095113D02*
X0102797Y0095113D01*
X0102383Y0096112D02*
X0101003Y0096112D01*
X0101416Y0097110D02*
X0102100Y0097110D01*
X0102100Y0098109D02*
X0101700Y0098109D01*
X0101700Y0099107D02*
X0102267Y0099107D01*
X0102680Y0100106D02*
X0101534Y0100106D01*
X0101120Y0101104D02*
X0103466Y0101104D01*
X0097924Y0097726D02*
X0096900Y0098750D01*
X0097924Y0097726D02*
X0097924Y0075081D01*
X0100087Y0075143D02*
X0104784Y0075143D01*
X0102373Y0076141D02*
X0100087Y0076141D01*
X0100087Y0077140D02*
X0101272Y0077140D01*
X0100274Y0078138D02*
X0099524Y0078138D01*
X0099524Y0079137D02*
X0099620Y0079137D01*
X0096324Y0081589D02*
X0084268Y0093645D01*
X0085945Y0092950D01*
X0087855Y0092950D01*
X0089619Y0093681D01*
X0090969Y0095031D01*
X0091700Y0096795D01*
X0091700Y0098705D01*
X0090969Y0100469D01*
X0090228Y0101211D01*
X0092724Y0101211D01*
X0092100Y0099705D01*
X0092100Y0097795D01*
X0092831Y0096031D01*
X0094181Y0094681D01*
X0095945Y0093950D01*
X0096324Y0093950D01*
X0096324Y0081589D01*
X0096324Y0082132D02*
X0095780Y0082132D01*
X0096324Y0083131D02*
X0094782Y0083131D01*
X0093783Y0084129D02*
X0096324Y0084129D01*
X0096324Y0085128D02*
X0092785Y0085128D01*
X0091786Y0086126D02*
X0096324Y0086126D01*
X0096324Y0087125D02*
X0090788Y0087125D01*
X0089789Y0088123D02*
X0096324Y0088123D01*
X0096324Y0089122D02*
X0088791Y0089122D01*
X0087792Y0090120D02*
X0096324Y0090120D01*
X0096324Y0091119D02*
X0086794Y0091119D01*
X0085795Y0092118D02*
X0096324Y0092118D01*
X0096324Y0093116D02*
X0088256Y0093116D01*
X0090053Y0094115D02*
X0095548Y0094115D01*
X0093749Y0095113D02*
X0091003Y0095113D01*
X0091417Y0096112D02*
X0092797Y0096112D01*
X0092384Y0097110D02*
X0091700Y0097110D01*
X0091700Y0098109D02*
X0092100Y0098109D01*
X0092100Y0099107D02*
X0091533Y0099107D01*
X0091120Y0100106D02*
X0092266Y0100106D01*
X0092680Y0101104D02*
X0090334Y0101104D01*
X0076900Y0098750D02*
X0094774Y0080876D01*
X0094774Y0075081D01*
X0091624Y0075081D02*
X0091624Y0078526D01*
X0079400Y0090750D01*
X0076900Y0090750D01*
X0069400Y0098250D01*
X0067400Y0098250D01*
X0066900Y0097750D01*
X0059273Y0094115D02*
X0058252Y0094115D01*
X0057855Y0093950D02*
X0058974Y0094414D01*
X0064237Y0089150D01*
X0071237Y0089150D01*
X0071656Y0088731D01*
X0071307Y0088731D01*
X0070211Y0088277D01*
X0069373Y0087439D01*
X0068919Y0086343D01*
X0068919Y0085157D01*
X0069373Y0084061D01*
X0070211Y0083223D01*
X0071307Y0082769D01*
X0072493Y0082769D01*
X0073589Y0083223D01*
X0074427Y0084061D01*
X0074464Y0084150D01*
X0078737Y0084150D01*
X0079156Y0083731D01*
X0078807Y0083731D01*
X0077711Y0083277D01*
X0076873Y0082439D01*
X0076419Y0081343D01*
X0076419Y0080157D01*
X0076873Y0079061D01*
X0077711Y0078223D01*
X0078602Y0077854D01*
X0077961Y0077854D01*
X0077860Y0077954D01*
X0077518Y0078152D01*
X0077137Y0078254D01*
X0075908Y0078254D01*
X0075908Y0075112D01*
X0075845Y0075112D01*
X0075845Y0075049D01*
X0075908Y0075049D01*
X0075908Y0071907D01*
X0077137Y0071907D01*
X0077518Y0072010D01*
X0077800Y0072172D01*
X0077800Y0070550D01*
X0077287Y0070550D01*
X0076663Y0071174D01*
X0072461Y0071174D01*
X0072198Y0071437D01*
X0071669Y0071437D01*
X0071669Y0076590D01*
X0071423Y0076836D01*
X0070486Y0077773D01*
X0066012Y0082247D01*
X0066012Y0085674D01*
X0065367Y0086318D01*
X0060125Y0086318D01*
X0059612Y0085805D01*
X0059419Y0086140D01*
X0059140Y0086419D01*
X0058798Y0086616D01*
X0058416Y0086718D01*
X0056538Y0086718D01*
X0056538Y0083734D01*
X0055569Y0083734D01*
X0055569Y0082766D01*
X0052388Y0082766D01*
X0052388Y0081084D01*
X0052490Y0080703D01*
X0052688Y0080360D01*
X0052967Y0080081D01*
X0053309Y0079884D01*
X0053691Y0079781D01*
X0055569Y0079781D01*
X0055569Y0082766D01*
X0056538Y0082766D01*
X0056538Y0079781D01*
X0058416Y0079781D01*
X0058798Y0079884D01*
X0059140Y0080081D01*
X0059419Y0080360D01*
X0059612Y0080695D01*
X0060125Y0080181D01*
X0063552Y0080181D01*
X0066384Y0077350D01*
X0042254Y0077350D01*
X0042381Y0077657D01*
X0042381Y0078843D01*
X0041927Y0079939D01*
X0041597Y0080269D01*
X0042493Y0080269D01*
X0043589Y0080723D01*
X0044427Y0081561D01*
X0044881Y0082657D01*
X0044881Y0083843D01*
X0044427Y0084939D01*
X0043589Y0085777D01*
X0042493Y0086231D01*
X0041307Y0086231D01*
X0041218Y0086194D01*
X0038500Y0088913D01*
X0038500Y0094217D01*
X0039619Y0094681D01*
X0040969Y0096031D01*
X0041700Y0097795D01*
X0041700Y0099705D01*
X0041076Y0101211D01*
X0043572Y0101211D01*
X0042831Y0100469D01*
X0042100Y0098705D01*
X0042100Y0096795D01*
X0042831Y0095031D01*
X0044181Y0093681D01*
X0045945Y0092950D01*
X0047855Y0092950D01*
X0049619Y0093681D01*
X0050969Y0095031D01*
X0051700Y0096795D01*
X0051700Y0098705D01*
X0050969Y0100469D01*
X0050228Y0101211D01*
X0052724Y0101211D01*
X0052100Y0099705D01*
X0052100Y0097795D01*
X0052831Y0096031D01*
X0054181Y0094681D01*
X0055945Y0093950D01*
X0057855Y0093950D01*
X0055548Y0094115D02*
X0050053Y0094115D01*
X0051003Y0095113D02*
X0053749Y0095113D01*
X0052797Y0096112D02*
X0051417Y0096112D01*
X0051700Y0097110D02*
X0052384Y0097110D01*
X0052100Y0098109D02*
X0051700Y0098109D01*
X0051533Y0099107D02*
X0052100Y0099107D01*
X0052266Y0100106D02*
X0051120Y0100106D01*
X0050334Y0101104D02*
X0052680Y0101104D01*
X0056900Y0098750D02*
X0064900Y0090750D01*
X0071900Y0090750D01*
X0074400Y0088250D01*
X0079400Y0088250D01*
X0088475Y0079175D01*
X0088475Y0075081D01*
X0085325Y0075081D02*
X0085325Y0079825D01*
X0079400Y0085750D01*
X0071900Y0085750D01*
X0074455Y0084129D02*
X0078758Y0084129D01*
X0077565Y0083131D02*
X0073367Y0083131D01*
X0076746Y0082132D02*
X0066127Y0082132D01*
X0066012Y0083131D02*
X0070433Y0083131D01*
X0069345Y0084129D02*
X0066012Y0084129D01*
X0066012Y0085128D02*
X0068931Y0085128D01*
X0068919Y0086126D02*
X0065559Y0086126D01*
X0069243Y0087125D02*
X0040288Y0087125D01*
X0039289Y0088123D02*
X0070058Y0088123D01*
X0071265Y0089122D02*
X0038500Y0089122D01*
X0038500Y0090120D02*
X0063267Y0090120D01*
X0062268Y0091119D02*
X0038500Y0091119D01*
X0038500Y0092118D02*
X0061270Y0092118D01*
X0060271Y0093116D02*
X0048256Y0093116D01*
X0045544Y0093116D02*
X0038500Y0093116D01*
X0038500Y0094115D02*
X0043747Y0094115D01*
X0042797Y0095113D02*
X0040051Y0095113D01*
X0041003Y0096112D02*
X0042383Y0096112D01*
X0042100Y0097110D02*
X0041416Y0097110D01*
X0041700Y0098109D02*
X0042100Y0098109D01*
X0042267Y0099107D02*
X0041700Y0099107D01*
X0041534Y0100106D02*
X0042680Y0100106D01*
X0043466Y0101104D02*
X0041120Y0101104D01*
X0036900Y0098750D02*
X0036900Y0088250D01*
X0041900Y0083250D01*
X0044664Y0082132D02*
X0052388Y0082132D01*
X0052388Y0081134D02*
X0044000Y0081134D01*
X0041731Y0080135D02*
X0052913Y0080135D01*
X0055569Y0080135D02*
X0056538Y0080135D01*
X0056538Y0081134D02*
X0055569Y0081134D01*
X0055569Y0082132D02*
X0056538Y0082132D01*
X0055569Y0083131D02*
X0044881Y0083131D01*
X0044762Y0084129D02*
X0052388Y0084129D01*
X0052388Y0083734D02*
X0055569Y0083734D01*
X0055569Y0086718D01*
X0053691Y0086718D01*
X0053309Y0086616D01*
X0052967Y0086419D01*
X0052688Y0086140D01*
X0052490Y0085797D01*
X0052388Y0085416D01*
X0052388Y0083734D01*
X0052388Y0085128D02*
X0044238Y0085128D01*
X0042746Y0086126D02*
X0052680Y0086126D01*
X0055569Y0086126D02*
X0056538Y0086126D01*
X0056538Y0085128D02*
X0055569Y0085128D01*
X0055569Y0084129D02*
X0056538Y0084129D01*
X0059427Y0086126D02*
X0059933Y0086126D01*
X0062746Y0083250D02*
X0069823Y0076173D01*
X0071119Y0077140D02*
X0073364Y0077140D01*
X0073313Y0076951D02*
X0073313Y0075112D01*
X0075845Y0075112D01*
X0075845Y0078254D01*
X0074616Y0078254D01*
X0074234Y0078152D01*
X0073892Y0077954D01*
X0073613Y0077675D01*
X0073416Y0077333D01*
X0073313Y0076951D01*
X0073313Y0076141D02*
X0071669Y0076141D01*
X0071669Y0075143D02*
X0073313Y0075143D01*
X0073313Y0075049D02*
X0073313Y0073210D01*
X0073416Y0072828D01*
X0073613Y0072486D01*
X0073892Y0072207D01*
X0074234Y0072010D01*
X0074616Y0071907D01*
X0075845Y0071907D01*
X0075845Y0075049D01*
X0073313Y0075049D01*
X0073313Y0074144D02*
X0071669Y0074144D01*
X0071669Y0073146D02*
X0073331Y0073146D01*
X0073996Y0072147D02*
X0071669Y0072147D01*
X0075845Y0072147D02*
X0075908Y0072147D01*
X0075908Y0073146D02*
X0075845Y0073146D01*
X0075845Y0074144D02*
X0075908Y0074144D01*
X0075908Y0075143D02*
X0075845Y0075143D01*
X0075845Y0076141D02*
X0075908Y0076141D01*
X0075908Y0077140D02*
X0075845Y0077140D01*
X0075845Y0078138D02*
X0075908Y0078138D01*
X0076841Y0079137D02*
X0069122Y0079137D01*
X0068124Y0080135D02*
X0076428Y0080135D01*
X0076419Y0081134D02*
X0067125Y0081134D01*
X0064597Y0079137D02*
X0042259Y0079137D01*
X0042381Y0078138D02*
X0065595Y0078138D01*
X0063598Y0080135D02*
X0059194Y0080135D01*
X0070121Y0078138D02*
X0074211Y0078138D01*
X0077541Y0078138D02*
X0077915Y0078138D01*
X0079400Y0080750D02*
X0082176Y0077974D01*
X0082176Y0075081D01*
X0079400Y0074707D02*
X0079026Y0075081D01*
X0079400Y0074707D02*
X0079400Y0070750D01*
X0084400Y0065750D01*
X0086900Y0065750D01*
X0085087Y0068153D02*
X0084259Y0068153D01*
X0077800Y0071149D02*
X0076688Y0071149D01*
X0077757Y0072147D02*
X0077800Y0072147D01*
X0065151Y0065158D02*
X0012255Y0065158D01*
X0010433Y0069850D02*
X0009969Y0070969D01*
X0008619Y0072319D01*
X0006855Y0073050D01*
X0004945Y0073050D01*
X0003900Y0072617D01*
X0003900Y0074462D01*
X0004181Y0074181D01*
X0005945Y0073450D01*
X0007855Y0073450D01*
X0009619Y0074181D01*
X0010969Y0075531D01*
X0011700Y0077295D01*
X0011700Y0079205D01*
X0010969Y0080969D01*
X0009619Y0082319D01*
X0007855Y0083050D01*
X0005945Y0083050D01*
X0004181Y0082319D01*
X0003900Y0082038D01*
X0003900Y0083883D01*
X0004945Y0083450D01*
X0006855Y0083450D01*
X0008619Y0084181D01*
X0009969Y0085531D01*
X0010700Y0087295D01*
X0010700Y0089205D01*
X0009969Y0090969D01*
X0008619Y0092319D01*
X0006855Y0093050D01*
X0004945Y0093050D01*
X0003900Y0092617D01*
X0003900Y0094462D01*
X0004181Y0094181D01*
X0005945Y0093450D01*
X0007855Y0093450D01*
X0009619Y0094181D01*
X0010969Y0095531D01*
X0011433Y0096650D01*
X0022160Y0096650D01*
X0022831Y0095031D01*
X0024181Y0093681D01*
X0025300Y0093217D01*
X0025300Y0087413D01*
X0024800Y0086913D01*
X0024800Y0086913D01*
X0021237Y0083350D01*
X0017444Y0083350D01*
X0016800Y0082706D01*
X0016800Y0078913D01*
X0014118Y0076231D01*
X0013807Y0076231D01*
X0012711Y0075777D01*
X0011873Y0074939D01*
X0011419Y0073843D01*
X0011419Y0072657D01*
X0011873Y0071561D01*
X0012711Y0070723D01*
X0013807Y0070269D01*
X0014993Y0070269D01*
X0016089Y0070723D01*
X0016927Y0071561D01*
X0017381Y0072657D01*
X0017381Y0073843D01*
X0017051Y0074639D01*
X0017563Y0075150D01*
X0021356Y0075150D01*
X0022000Y0075794D01*
X0022000Y0079587D01*
X0026563Y0084150D01*
X0033737Y0084150D01*
X0034137Y0083750D01*
X0032703Y0083750D01*
X0032321Y0083648D01*
X0031979Y0083450D01*
X0031700Y0083171D01*
X0031502Y0082829D01*
X0031400Y0082447D01*
X0031400Y0079500D01*
X0034150Y0079500D01*
X0034150Y0079000D01*
X0034650Y0079000D01*
X0034650Y0074750D01*
X0036097Y0074750D01*
X0036479Y0074852D01*
X0036821Y0075050D01*
X0037100Y0075329D01*
X0037298Y0075671D01*
X0037396Y0076038D01*
X0037711Y0075723D01*
X0038807Y0075269D01*
X0039156Y0075269D01*
X0033737Y0069850D01*
X0010433Y0069850D01*
X0010308Y0070150D02*
X0034038Y0070150D01*
X0035036Y0071149D02*
X0016515Y0071149D01*
X0017170Y0072147D02*
X0036035Y0072147D01*
X0037033Y0073146D02*
X0017381Y0073146D01*
X0017256Y0074144D02*
X0038032Y0074144D01*
X0039030Y0075143D02*
X0036914Y0075143D01*
X0034650Y0075143D02*
X0034150Y0075143D01*
X0034150Y0074750D02*
X0034150Y0079000D01*
X0031400Y0079000D01*
X0031400Y0076053D01*
X0031502Y0075671D01*
X0031700Y0075329D01*
X0031979Y0075050D01*
X0032321Y0074852D01*
X0032703Y0074750D01*
X0034150Y0074750D01*
X0034150Y0076141D02*
X0034650Y0076141D01*
X0034650Y0077140D02*
X0034150Y0077140D01*
X0034150Y0078138D02*
X0034650Y0078138D01*
X0034150Y0079137D02*
X0022000Y0079137D01*
X0022000Y0078138D02*
X0031400Y0078138D01*
X0031400Y0077140D02*
X0022000Y0077140D01*
X0022000Y0076141D02*
X0031400Y0076141D01*
X0031886Y0075143D02*
X0017556Y0075143D01*
X0014400Y0074250D02*
X0019400Y0079250D01*
X0026400Y0086250D01*
X0026900Y0085750D01*
X0034400Y0085750D01*
X0039400Y0080750D01*
X0039400Y0078250D01*
X0042557Y0074144D02*
X0043414Y0074144D01*
X0042450Y0073146D02*
X0041559Y0073146D01*
X0042388Y0072147D02*
X0040560Y0072147D01*
X0048638Y0064159D02*
X0062968Y0064159D01*
X0057060Y0063161D02*
X0056012Y0063161D01*
X0055839Y0068153D02*
X0057060Y0068153D01*
X0032258Y0061164D02*
X0021542Y0061164D01*
X0022000Y0060165D02*
X0031800Y0060165D01*
X0031800Y0059167D02*
X0022000Y0059167D01*
X0022000Y0058168D02*
X0031800Y0058168D01*
X0031800Y0057170D02*
X0022000Y0057170D01*
X0022000Y0056171D02*
X0031800Y0056171D01*
X0031800Y0055173D02*
X0022000Y0055173D01*
X0022000Y0054174D02*
X0031800Y0054174D01*
X0032419Y0053176D02*
X0021381Y0053176D01*
X0026400Y0043190D02*
X0027400Y0043190D01*
X0027400Y0042192D02*
X0026400Y0042192D01*
X0026400Y0041193D02*
X0027400Y0041193D01*
X0027400Y0040195D02*
X0026400Y0040195D01*
X0030312Y0042192D02*
X0035300Y0042192D01*
X0035300Y0043190D02*
X0029313Y0043190D01*
X0031310Y0041193D02*
X0035300Y0041193D01*
X0035300Y0040195D02*
X0032100Y0040195D01*
X0027400Y0037199D02*
X0026400Y0037199D01*
X0026400Y0036201D02*
X0027400Y0036201D01*
X0027400Y0035202D02*
X0026400Y0035202D01*
X0026400Y0034204D02*
X0027400Y0034204D01*
X0027400Y0033205D02*
X0026400Y0033205D01*
X0024591Y0033205D02*
X0008500Y0033205D01*
X0019642Y0034204D02*
X0023592Y0034204D01*
X0022594Y0035202D02*
X0020641Y0035202D01*
X0021639Y0036201D02*
X0021700Y0036201D01*
X0021700Y0037199D02*
X0021700Y0037199D01*
X0019731Y0032207D02*
X0024069Y0032207D01*
X0023070Y0031208D02*
X0020730Y0031208D01*
X0021700Y0030210D02*
X0022100Y0030210D01*
X0022100Y0029211D02*
X0021700Y0029211D01*
X0021700Y0028213D02*
X0022100Y0028213D01*
X0022100Y0027214D02*
X0021700Y0027214D01*
X0021654Y0026216D02*
X0022146Y0026216D01*
X0023145Y0025217D02*
X0020655Y0025217D01*
X0023194Y0024219D02*
X0024143Y0024219D01*
X0038500Y0030210D02*
X0042839Y0030210D01*
X0042388Y0031208D02*
X0038500Y0031208D01*
X0060639Y0019226D02*
X0065300Y0019226D01*
X0065300Y0020225D02*
X0061637Y0020225D01*
X0062636Y0021223D02*
X0065300Y0021223D01*
X0065300Y0022222D02*
X0063634Y0022222D01*
X0064633Y0023220D02*
X0065300Y0023220D01*
X0064615Y0018228D02*
X0059640Y0018228D01*
X0093725Y0015232D02*
X0095075Y0015232D01*
X0094481Y0016231D02*
X0094319Y0016231D01*
X0094319Y0017229D02*
X0094481Y0017229D01*
X0098615Y0013235D02*
X0114228Y0013235D01*
X0113398Y0012237D02*
X0108611Y0012237D01*
X0110200Y0011238D02*
X0112400Y0011238D01*
X0111829Y0010240D02*
X0111064Y0010240D01*
X0105189Y0012237D02*
X0100202Y0012237D01*
X0101065Y0011238D02*
X0103600Y0011238D01*
X0102736Y0010240D02*
X0101478Y0010240D01*
X0101700Y0009241D02*
X0102322Y0009241D01*
X0102100Y0008243D02*
X0101700Y0008243D01*
X0101472Y0007244D02*
X0102100Y0007244D01*
X0102328Y0006246D02*
X0101058Y0006246D01*
X0117605Y0015232D02*
X0138313Y0015232D01*
X0138313Y0016231D02*
X0116606Y0016231D01*
X0115608Y0017229D02*
X0138526Y0017229D01*
X0146825Y0015232D02*
X0147231Y0015232D01*
X0149762Y0023220D02*
X0150731Y0023220D01*
X0150731Y0024219D02*
X0149762Y0024219D01*
X0149762Y0025217D02*
X0150731Y0025217D01*
X0124798Y0012237D02*
X0119002Y0012237D01*
X0120000Y0011238D02*
X0123800Y0011238D01*
X0123229Y0010240D02*
X0120571Y0010240D01*
X0120985Y0009241D02*
X0122815Y0009241D01*
X0122800Y0008243D02*
X0121000Y0008243D01*
X0120979Y0007244D02*
X0122821Y0007244D01*
X0123235Y0006246D02*
X0120565Y0006246D01*
X0162433Y0005250D02*
X0163822Y0006638D01*
X0166824Y0006638D01*
X0167468Y0007283D01*
X0167468Y0007804D01*
X0173831Y0007804D01*
X0173831Y0007283D01*
X0174476Y0006638D01*
X0179324Y0006638D01*
X0179968Y0007283D01*
X0179968Y0007804D01*
X0183577Y0007804D01*
X0186161Y0010388D01*
X0188916Y0010388D01*
X0188916Y0009419D01*
X0189884Y0009419D01*
X0189884Y0006238D01*
X0191101Y0006238D01*
X0191101Y0005250D01*
X0162433Y0005250D01*
X0163429Y0006246D02*
X0187207Y0006246D01*
X0187234Y0006238D02*
X0188916Y0006238D01*
X0188916Y0009419D01*
X0185931Y0009419D01*
X0185931Y0007541D01*
X0186034Y0007159D01*
X0186231Y0006817D01*
X0186510Y0006538D01*
X0186853Y0006340D01*
X0187234Y0006238D01*
X0186011Y0007244D02*
X0179930Y0007244D01*
X0184016Y0008243D02*
X0185931Y0008243D01*
X0185931Y0009241D02*
X0185014Y0009241D01*
X0186013Y0010240D02*
X0188916Y0010240D01*
X0188916Y0009241D02*
X0189884Y0009241D01*
X0189884Y0008243D02*
X0188916Y0008243D01*
X0188916Y0007244D02*
X0189884Y0007244D01*
X0189884Y0006246D02*
X0188916Y0006246D01*
X0173870Y0007244D02*
X0167430Y0007244D01*
X0111416Y0036238D02*
X0111416Y0039419D01*
X0108431Y0039419D01*
X0108431Y0037541D01*
X0108534Y0037159D01*
X0108731Y0036817D01*
X0109010Y0036538D01*
X0109353Y0036340D01*
X0109734Y0036238D01*
X0111416Y0036238D01*
X0111416Y0037199D02*
X0112384Y0037199D01*
X0112384Y0038198D02*
X0111416Y0038198D01*
X0111416Y0039196D02*
X0112384Y0039196D01*
X0112384Y0040195D02*
X0119202Y0040195D01*
X0118204Y0041193D02*
X0115368Y0041193D01*
X0115368Y0042192D02*
X0117205Y0042192D01*
X0116207Y0043190D02*
X0114868Y0043190D01*
X0111416Y0040195D02*
X0100487Y0040195D01*
X0100487Y0041193D02*
X0108431Y0041193D01*
X0108431Y0042192D02*
X0100487Y0042192D01*
X0100487Y0043190D02*
X0108932Y0043190D01*
X0108831Y0044189D02*
X0100011Y0044189D01*
X0097955Y0040195D02*
X0097892Y0040195D01*
X0097892Y0039196D02*
X0097955Y0039196D01*
X0096374Y0038198D02*
X0108431Y0038198D01*
X0108431Y0039196D02*
X0100392Y0039196D01*
X0096374Y0037199D02*
X0108523Y0037199D01*
X0115368Y0039196D02*
X0120201Y0039196D01*
X0100957Y0050180D02*
X0098223Y0050180D01*
X0097224Y0051179D02*
X0100957Y0051179D01*
X0100957Y0052177D02*
X0096226Y0052177D01*
X0095227Y0053176D02*
X0100957Y0053176D01*
X0100957Y0054174D02*
X0094229Y0054174D01*
X0093230Y0055173D02*
X0100957Y0055173D01*
X0100957Y0056171D02*
X0092232Y0056171D01*
X0103731Y0056675D02*
X0115325Y0056675D01*
X0116900Y0058250D01*
X0111900Y0053250D02*
X0111624Y0053526D01*
X0103731Y0053526D01*
X0103731Y0050376D02*
X0120483Y0050376D01*
X0120857Y0050750D01*
X0106624Y0062974D02*
X0103731Y0062974D01*
X0106624Y0062974D02*
X0124400Y0080750D01*
X0109591Y0091119D02*
X0156491Y0091119D01*
X0156036Y0094115D02*
X0150755Y0094115D01*
X0151748Y0095113D02*
X0156036Y0095113D01*
X0156036Y0096112D02*
X0152346Y0096112D01*
X0152684Y0097110D02*
X0156036Y0097110D01*
X0151954Y0101104D02*
X0191101Y0101104D01*
X0191101Y0100106D02*
X0189732Y0100106D01*
X0189732Y0099107D02*
X0191101Y0099107D01*
X0191101Y0098109D02*
X0189732Y0098109D01*
X0189732Y0097110D02*
X0191101Y0097110D01*
X0191101Y0096112D02*
X0189732Y0096112D01*
X0189732Y0095113D02*
X0191101Y0095113D01*
X0191101Y0094115D02*
X0189732Y0094115D01*
X0189732Y0093116D02*
X0191101Y0093116D01*
X0191101Y0092118D02*
X0189732Y0092118D01*
X0189277Y0091119D02*
X0191101Y0091119D01*
X0191101Y0090120D02*
X0174008Y0090120D01*
X0175023Y0089122D02*
X0191101Y0089122D01*
X0191101Y0088123D02*
X0175480Y0088123D01*
X0175672Y0087125D02*
X0191101Y0087125D01*
X0191101Y0086126D02*
X0175657Y0086126D01*
X0175244Y0085128D02*
X0191101Y0085128D01*
X0191101Y0084129D02*
X0174452Y0084129D01*
X0169348Y0084129D02*
X0168479Y0084129D01*
X0168479Y0085128D02*
X0168556Y0085128D01*
X0168415Y0083131D02*
X0191101Y0083131D01*
X0191101Y0082132D02*
X0168079Y0082132D01*
X0168079Y0081134D02*
X0191101Y0081134D01*
X0191101Y0080135D02*
X0168079Y0080135D01*
X0168079Y0079137D02*
X0191101Y0079137D01*
X0191101Y0078138D02*
X0168079Y0078138D01*
X0168079Y0077140D02*
X0191101Y0077140D01*
X0191101Y0076141D02*
X0168079Y0076141D01*
X0168079Y0075143D02*
X0191101Y0075143D01*
X0148100Y0094115D02*
X0147100Y0094115D01*
X0147100Y0095113D02*
X0148100Y0095113D01*
X0148100Y0096112D02*
X0147100Y0096112D01*
X0144445Y0094115D02*
X0139355Y0094115D01*
X0140348Y0095113D02*
X0143452Y0095113D01*
X0142853Y0096112D02*
X0140946Y0096112D01*
X0141284Y0097110D02*
X0142516Y0097110D01*
X0142471Y0099107D02*
X0141329Y0099107D01*
X0141065Y0100106D02*
X0142735Y0100106D01*
X0143246Y0101104D02*
X0140554Y0101104D01*
X0125544Y0093116D02*
X0108256Y0093116D01*
X0110053Y0094115D02*
X0115548Y0094115D01*
X0113749Y0095113D02*
X0111003Y0095113D01*
X0111417Y0096112D02*
X0112797Y0096112D01*
X0112384Y0097110D02*
X0111700Y0097110D01*
X0111700Y0098109D02*
X0112100Y0098109D01*
X0112100Y0099107D02*
X0111533Y0099107D01*
X0111120Y0100106D02*
X0112266Y0100106D01*
X0112680Y0101104D02*
X0110334Y0101104D01*
X0121120Y0101104D02*
X0123466Y0101104D01*
X0122680Y0100106D02*
X0121534Y0100106D01*
X0121700Y0099107D02*
X0122267Y0099107D01*
X0122100Y0098109D02*
X0121700Y0098109D01*
X0121416Y0097110D02*
X0122100Y0097110D01*
X0122383Y0096112D02*
X0121003Y0096112D01*
X0120051Y0095113D02*
X0122797Y0095113D01*
X0123747Y0094115D02*
X0118252Y0094115D01*
X0104209Y0091119D02*
X0099524Y0091119D01*
X0099524Y0090120D02*
X0102033Y0090120D01*
X0101034Y0089122D02*
X0099524Y0089122D01*
X0099524Y0088123D02*
X0100035Y0088123D01*
X0085544Y0093116D02*
X0084797Y0093116D01*
X0097692Y0071149D02*
X0101314Y0071149D01*
X0103731Y0069274D02*
X0097924Y0069274D01*
X0096900Y0068250D01*
X0099774Y0066124D02*
X0103731Y0066124D01*
X0106504Y0066156D02*
X0107543Y0066156D01*
X0106545Y0065158D02*
X0106504Y0065158D01*
X0106504Y0067155D02*
X0108542Y0067155D01*
X0109541Y0068153D02*
X0106504Y0068153D01*
X0106504Y0069152D02*
X0110539Y0069152D01*
X0111538Y0070150D02*
X0106504Y0070150D01*
X0106147Y0071149D02*
X0112536Y0071149D01*
X0038919Y0083494D02*
X0036000Y0086413D01*
X0035063Y0087350D01*
X0028500Y0087350D01*
X0028500Y0093217D01*
X0029619Y0093681D01*
X0030969Y0095031D01*
X0031700Y0096795D01*
X0031700Y0098705D01*
X0030969Y0100469D01*
X0030228Y0101211D01*
X0032724Y0101211D01*
X0032100Y0099705D01*
X0032100Y0097795D01*
X0032831Y0096031D01*
X0034181Y0094681D01*
X0035300Y0094217D01*
X0035300Y0087587D01*
X0036237Y0086650D01*
X0038956Y0083932D01*
X0038919Y0083843D01*
X0038919Y0083494D01*
X0038758Y0084129D02*
X0038283Y0084129D01*
X0037759Y0085128D02*
X0037285Y0085128D01*
X0036761Y0086126D02*
X0036286Y0086126D01*
X0035762Y0087125D02*
X0035288Y0087125D01*
X0035300Y0088123D02*
X0028500Y0088123D01*
X0028500Y0089122D02*
X0035300Y0089122D01*
X0035300Y0090120D02*
X0028500Y0090120D01*
X0028500Y0091119D02*
X0035300Y0091119D01*
X0035300Y0092118D02*
X0028500Y0092118D01*
X0028500Y0093116D02*
X0035300Y0093116D01*
X0035300Y0094115D02*
X0030053Y0094115D01*
X0031003Y0095113D02*
X0033749Y0095113D01*
X0032797Y0096112D02*
X0031417Y0096112D01*
X0031700Y0097110D02*
X0032384Y0097110D01*
X0032100Y0098109D02*
X0031700Y0098109D01*
X0031533Y0099107D02*
X0032100Y0099107D01*
X0032266Y0100106D02*
X0031120Y0100106D01*
X0030334Y0101104D02*
X0032680Y0101104D01*
X0026900Y0097750D02*
X0026900Y0086750D01*
X0026400Y0086250D01*
X0025012Y0087125D02*
X0010629Y0087125D01*
X0010700Y0088123D02*
X0025300Y0088123D01*
X0025300Y0089122D02*
X0010700Y0089122D01*
X0010321Y0090120D02*
X0025300Y0090120D01*
X0025300Y0091119D02*
X0009819Y0091119D01*
X0008821Y0092118D02*
X0025300Y0092118D01*
X0025300Y0093116D02*
X0003900Y0093116D01*
X0003900Y0094115D02*
X0004341Y0094115D01*
X0009459Y0094115D02*
X0023747Y0094115D01*
X0022797Y0095113D02*
X0010551Y0095113D01*
X0011210Y0096112D02*
X0022383Y0096112D01*
X0026400Y0098250D02*
X0026900Y0097750D01*
X0026400Y0098250D02*
X0006900Y0098250D01*
X0010216Y0086126D02*
X0024014Y0086126D01*
X0023015Y0085128D02*
X0009566Y0085128D01*
X0008495Y0084129D02*
X0022017Y0084129D01*
X0025544Y0083131D02*
X0031677Y0083131D01*
X0031400Y0082132D02*
X0024545Y0082132D01*
X0023547Y0081134D02*
X0031400Y0081134D01*
X0031400Y0080135D02*
X0022548Y0080135D01*
X0016800Y0080135D02*
X0011315Y0080135D01*
X0011700Y0079137D02*
X0016800Y0079137D01*
X0016026Y0078138D02*
X0011700Y0078138D01*
X0011636Y0077140D02*
X0015027Y0077140D01*
X0013590Y0076141D02*
X0011222Y0076141D01*
X0010581Y0075143D02*
X0012077Y0075143D01*
X0011544Y0074144D02*
X0009531Y0074144D01*
X0011419Y0073146D02*
X0003900Y0073146D01*
X0003900Y0074144D02*
X0004269Y0074144D01*
X0008791Y0072147D02*
X0011630Y0072147D01*
X0012285Y0071149D02*
X0009789Y0071149D01*
X0014400Y0073250D02*
X0014400Y0074250D01*
X0016800Y0081134D02*
X0010804Y0081134D01*
X0009806Y0082132D02*
X0016800Y0082132D01*
X0017225Y0083131D02*
X0003900Y0083131D01*
X0003900Y0082132D02*
X0003994Y0082132D01*
X0026542Y0084129D02*
X0033758Y0084129D01*
X0015288Y0007244D02*
X0012505Y0007244D01*
X0012215Y0006246D02*
X0015288Y0006246D01*
D31*
X0121900Y0058250D03*
X0136900Y0068250D03*
X0121900Y0073250D03*
X0171900Y0048250D03*
X0146900Y0033250D03*
D32*
X0184546Y0029451D02*
X0189400Y0024596D01*
X0189400Y0016596D01*
X0182707Y0009904D01*
X0176900Y0009904D01*
X0164400Y0009904D01*
D33*
X0184400Y0006750D03*
X0184400Y0020750D03*
X0156900Y0021000D03*
X0141900Y0033250D03*
X0127400Y0036000D03*
X0101900Y0036750D03*
X0077400Y0051250D03*
X0095900Y0056000D03*
X0111900Y0064250D03*
X0111400Y0074250D03*
X0089150Y0070000D03*
X0072150Y0077750D03*
X0094900Y0087500D03*
X0121900Y0086750D03*
X0144400Y0063000D03*
X0155400Y0053500D03*
X0173150Y0059750D03*
X0174400Y0035750D03*
X0121650Y0017500D03*
X0086900Y0014250D03*
X0067150Y0014000D03*
X0061150Y0017750D03*
X0059150Y0025000D03*
X0043650Y0023000D03*
X0021650Y0013500D03*
X0030400Y0007000D03*
X0032150Y0043750D03*
X0027150Y0054250D03*
X0022900Y0073750D03*
X0014650Y0083500D03*
X0032900Y0089250D03*
X0047150Y0087250D03*
X0183150Y0085750D03*
D34*
X0170900Y0006250D03*
D35*
X0111900Y0053250D03*
X0116900Y0058250D03*
D36*
X0089400Y0035750D03*
X0094400Y0023250D03*
X0084400Y0020750D03*
M02*
