G75*
%MOIN*%
%OFA0B0*%
%FSLAX25Y25*%
%IPPOS*%
%LPD*%
%AMOC8*
5,1,8,0,0,1.08239X$1,22.5*
%
%ADD10C,0.00000*%
%ADD11C,0.00500*%
%ADD12C,0.00600*%
%ADD13C,0.01000*%
%ADD14C,0.01500*%
%ADD15C,0.00800*%
%ADD16C,0.00300*%
%ADD17R,0.01500X0.03000*%
%ADD18C,0.00200*%
%ADD19C,0.00100*%
%ADD20C,0.00394*%
D10*
X0001900Y0003250D02*
X0001900Y0103211D01*
X0193101Y0103211D01*
X0193101Y0003250D01*
X0001900Y0003250D01*
X0100600Y0083250D02*
X0100602Y0083408D01*
X0100608Y0083567D01*
X0100618Y0083725D01*
X0100632Y0083882D01*
X0100650Y0084040D01*
X0100671Y0084196D01*
X0100697Y0084353D01*
X0100727Y0084508D01*
X0100760Y0084663D01*
X0100798Y0084817D01*
X0100839Y0084970D01*
X0100884Y0085121D01*
X0100933Y0085272D01*
X0100986Y0085421D01*
X0101042Y0085569D01*
X0101103Y0085716D01*
X0101166Y0085861D01*
X0101234Y0086004D01*
X0101305Y0086145D01*
X0101379Y0086285D01*
X0101457Y0086423D01*
X0101539Y0086559D01*
X0101624Y0086692D01*
X0101712Y0086824D01*
X0101803Y0086953D01*
X0101898Y0087080D01*
X0101996Y0087204D01*
X0102097Y0087326D01*
X0102201Y0087446D01*
X0102307Y0087563D01*
X0102417Y0087677D01*
X0102530Y0087788D01*
X0102645Y0087896D01*
X0102764Y0088002D01*
X0102884Y0088104D01*
X0103007Y0088204D01*
X0103133Y0088300D01*
X0103261Y0088393D01*
X0103392Y0088483D01*
X0103524Y0088569D01*
X0103659Y0088652D01*
X0103796Y0088732D01*
X0103935Y0088808D01*
X0104075Y0088881D01*
X0104218Y0088950D01*
X0104362Y0089016D01*
X0104507Y0089078D01*
X0104655Y0089136D01*
X0104803Y0089191D01*
X0104953Y0089242D01*
X0105104Y0089289D01*
X0105257Y0089332D01*
X0105410Y0089371D01*
X0105564Y0089407D01*
X0105719Y0089438D01*
X0105875Y0089466D01*
X0106032Y0089490D01*
X0106189Y0089510D01*
X0106347Y0089526D01*
X0106504Y0089538D01*
X0106663Y0089546D01*
X0106821Y0089550D01*
X0106979Y0089550D01*
X0107137Y0089546D01*
X0107296Y0089538D01*
X0107453Y0089526D01*
X0107611Y0089510D01*
X0107768Y0089490D01*
X0107925Y0089466D01*
X0108081Y0089438D01*
X0108236Y0089407D01*
X0108390Y0089371D01*
X0108543Y0089332D01*
X0108696Y0089289D01*
X0108847Y0089242D01*
X0108997Y0089191D01*
X0109145Y0089136D01*
X0109293Y0089078D01*
X0109438Y0089016D01*
X0109582Y0088950D01*
X0109725Y0088881D01*
X0109865Y0088808D01*
X0110004Y0088732D01*
X0110141Y0088652D01*
X0110276Y0088569D01*
X0110408Y0088483D01*
X0110539Y0088393D01*
X0110667Y0088300D01*
X0110793Y0088204D01*
X0110916Y0088104D01*
X0111036Y0088002D01*
X0111155Y0087896D01*
X0111270Y0087788D01*
X0111383Y0087677D01*
X0111493Y0087563D01*
X0111599Y0087446D01*
X0111703Y0087326D01*
X0111804Y0087204D01*
X0111902Y0087080D01*
X0111997Y0086953D01*
X0112088Y0086824D01*
X0112176Y0086692D01*
X0112261Y0086559D01*
X0112343Y0086423D01*
X0112421Y0086285D01*
X0112495Y0086145D01*
X0112566Y0086004D01*
X0112634Y0085861D01*
X0112697Y0085716D01*
X0112758Y0085569D01*
X0112814Y0085421D01*
X0112867Y0085272D01*
X0112916Y0085121D01*
X0112961Y0084970D01*
X0113002Y0084817D01*
X0113040Y0084663D01*
X0113073Y0084508D01*
X0113103Y0084353D01*
X0113129Y0084196D01*
X0113150Y0084040D01*
X0113168Y0083882D01*
X0113182Y0083725D01*
X0113192Y0083567D01*
X0113198Y0083408D01*
X0113200Y0083250D01*
X0113198Y0083092D01*
X0113192Y0082933D01*
X0113182Y0082775D01*
X0113168Y0082618D01*
X0113150Y0082460D01*
X0113129Y0082304D01*
X0113103Y0082147D01*
X0113073Y0081992D01*
X0113040Y0081837D01*
X0113002Y0081683D01*
X0112961Y0081530D01*
X0112916Y0081379D01*
X0112867Y0081228D01*
X0112814Y0081079D01*
X0112758Y0080931D01*
X0112697Y0080784D01*
X0112634Y0080639D01*
X0112566Y0080496D01*
X0112495Y0080355D01*
X0112421Y0080215D01*
X0112343Y0080077D01*
X0112261Y0079941D01*
X0112176Y0079808D01*
X0112088Y0079676D01*
X0111997Y0079547D01*
X0111902Y0079420D01*
X0111804Y0079296D01*
X0111703Y0079174D01*
X0111599Y0079054D01*
X0111493Y0078937D01*
X0111383Y0078823D01*
X0111270Y0078712D01*
X0111155Y0078604D01*
X0111036Y0078498D01*
X0110916Y0078396D01*
X0110793Y0078296D01*
X0110667Y0078200D01*
X0110539Y0078107D01*
X0110408Y0078017D01*
X0110276Y0077931D01*
X0110141Y0077848D01*
X0110004Y0077768D01*
X0109865Y0077692D01*
X0109725Y0077619D01*
X0109582Y0077550D01*
X0109438Y0077484D01*
X0109293Y0077422D01*
X0109145Y0077364D01*
X0108997Y0077309D01*
X0108847Y0077258D01*
X0108696Y0077211D01*
X0108543Y0077168D01*
X0108390Y0077129D01*
X0108236Y0077093D01*
X0108081Y0077062D01*
X0107925Y0077034D01*
X0107768Y0077010D01*
X0107611Y0076990D01*
X0107453Y0076974D01*
X0107296Y0076962D01*
X0107137Y0076954D01*
X0106979Y0076950D01*
X0106821Y0076950D01*
X0106663Y0076954D01*
X0106504Y0076962D01*
X0106347Y0076974D01*
X0106189Y0076990D01*
X0106032Y0077010D01*
X0105875Y0077034D01*
X0105719Y0077062D01*
X0105564Y0077093D01*
X0105410Y0077129D01*
X0105257Y0077168D01*
X0105104Y0077211D01*
X0104953Y0077258D01*
X0104803Y0077309D01*
X0104655Y0077364D01*
X0104507Y0077422D01*
X0104362Y0077484D01*
X0104218Y0077550D01*
X0104075Y0077619D01*
X0103935Y0077692D01*
X0103796Y0077768D01*
X0103659Y0077848D01*
X0103524Y0077931D01*
X0103392Y0078017D01*
X0103261Y0078107D01*
X0103133Y0078200D01*
X0103007Y0078296D01*
X0102884Y0078396D01*
X0102764Y0078498D01*
X0102645Y0078604D01*
X0102530Y0078712D01*
X0102417Y0078823D01*
X0102307Y0078937D01*
X0102201Y0079054D01*
X0102097Y0079174D01*
X0101996Y0079296D01*
X0101898Y0079420D01*
X0101803Y0079547D01*
X0101712Y0079676D01*
X0101624Y0079808D01*
X0101539Y0079941D01*
X0101457Y0080077D01*
X0101379Y0080215D01*
X0101305Y0080355D01*
X0101234Y0080496D01*
X0101166Y0080639D01*
X0101103Y0080784D01*
X0101042Y0080931D01*
X0100986Y0081079D01*
X0100933Y0081228D01*
X0100884Y0081379D01*
X0100839Y0081530D01*
X0100798Y0081683D01*
X0100760Y0081837D01*
X0100727Y0081992D01*
X0100697Y0082147D01*
X0100671Y0082304D01*
X0100650Y0082460D01*
X0100632Y0082618D01*
X0100618Y0082775D01*
X0100608Y0082933D01*
X0100602Y0083092D01*
X0100600Y0083250D01*
X0170128Y0086911D02*
X0170130Y0086995D01*
X0170136Y0087078D01*
X0170146Y0087161D01*
X0170160Y0087244D01*
X0170177Y0087326D01*
X0170199Y0087407D01*
X0170224Y0087486D01*
X0170253Y0087565D01*
X0170286Y0087642D01*
X0170322Y0087717D01*
X0170362Y0087791D01*
X0170405Y0087863D01*
X0170452Y0087932D01*
X0170502Y0087999D01*
X0170555Y0088064D01*
X0170611Y0088126D01*
X0170669Y0088186D01*
X0170731Y0088243D01*
X0170795Y0088296D01*
X0170862Y0088347D01*
X0170931Y0088394D01*
X0171002Y0088439D01*
X0171075Y0088479D01*
X0171150Y0088516D01*
X0171227Y0088550D01*
X0171305Y0088580D01*
X0171384Y0088606D01*
X0171465Y0088629D01*
X0171547Y0088647D01*
X0171629Y0088662D01*
X0171712Y0088673D01*
X0171795Y0088680D01*
X0171879Y0088683D01*
X0171963Y0088682D01*
X0172046Y0088677D01*
X0172130Y0088668D01*
X0172212Y0088655D01*
X0172294Y0088639D01*
X0172375Y0088618D01*
X0172456Y0088594D01*
X0172534Y0088566D01*
X0172612Y0088534D01*
X0172688Y0088498D01*
X0172762Y0088459D01*
X0172834Y0088417D01*
X0172904Y0088371D01*
X0172972Y0088322D01*
X0173037Y0088270D01*
X0173100Y0088215D01*
X0173160Y0088157D01*
X0173218Y0088096D01*
X0173272Y0088032D01*
X0173324Y0087966D01*
X0173372Y0087898D01*
X0173417Y0087827D01*
X0173458Y0087754D01*
X0173497Y0087680D01*
X0173531Y0087604D01*
X0173562Y0087526D01*
X0173589Y0087447D01*
X0173613Y0087366D01*
X0173632Y0087285D01*
X0173648Y0087203D01*
X0173660Y0087120D01*
X0173668Y0087036D01*
X0173672Y0086953D01*
X0173672Y0086869D01*
X0173668Y0086786D01*
X0173660Y0086702D01*
X0173648Y0086619D01*
X0173632Y0086537D01*
X0173613Y0086456D01*
X0173589Y0086375D01*
X0173562Y0086296D01*
X0173531Y0086218D01*
X0173497Y0086142D01*
X0173458Y0086068D01*
X0173417Y0085995D01*
X0173372Y0085924D01*
X0173324Y0085856D01*
X0173272Y0085790D01*
X0173218Y0085726D01*
X0173160Y0085665D01*
X0173100Y0085607D01*
X0173037Y0085552D01*
X0172972Y0085500D01*
X0172904Y0085451D01*
X0172834Y0085405D01*
X0172762Y0085363D01*
X0172688Y0085324D01*
X0172612Y0085288D01*
X0172534Y0085256D01*
X0172456Y0085228D01*
X0172375Y0085204D01*
X0172294Y0085183D01*
X0172212Y0085167D01*
X0172130Y0085154D01*
X0172046Y0085145D01*
X0171963Y0085140D01*
X0171879Y0085139D01*
X0171795Y0085142D01*
X0171712Y0085149D01*
X0171629Y0085160D01*
X0171547Y0085175D01*
X0171465Y0085193D01*
X0171384Y0085216D01*
X0171305Y0085242D01*
X0171227Y0085272D01*
X0171150Y0085306D01*
X0171075Y0085343D01*
X0171002Y0085383D01*
X0170931Y0085428D01*
X0170862Y0085475D01*
X0170795Y0085526D01*
X0170731Y0085579D01*
X0170669Y0085636D01*
X0170611Y0085696D01*
X0170555Y0085758D01*
X0170502Y0085823D01*
X0170452Y0085890D01*
X0170405Y0085959D01*
X0170362Y0086031D01*
X0170322Y0086105D01*
X0170286Y0086180D01*
X0170253Y0086257D01*
X0170224Y0086336D01*
X0170199Y0086415D01*
X0170177Y0086496D01*
X0170160Y0086578D01*
X0170146Y0086661D01*
X0170136Y0086744D01*
X0170130Y0086827D01*
X0170128Y0086911D01*
X0170128Y0069589D02*
X0170130Y0069673D01*
X0170136Y0069756D01*
X0170146Y0069839D01*
X0170160Y0069922D01*
X0170177Y0070004D01*
X0170199Y0070085D01*
X0170224Y0070164D01*
X0170253Y0070243D01*
X0170286Y0070320D01*
X0170322Y0070395D01*
X0170362Y0070469D01*
X0170405Y0070541D01*
X0170452Y0070610D01*
X0170502Y0070677D01*
X0170555Y0070742D01*
X0170611Y0070804D01*
X0170669Y0070864D01*
X0170731Y0070921D01*
X0170795Y0070974D01*
X0170862Y0071025D01*
X0170931Y0071072D01*
X0171002Y0071117D01*
X0171075Y0071157D01*
X0171150Y0071194D01*
X0171227Y0071228D01*
X0171305Y0071258D01*
X0171384Y0071284D01*
X0171465Y0071307D01*
X0171547Y0071325D01*
X0171629Y0071340D01*
X0171712Y0071351D01*
X0171795Y0071358D01*
X0171879Y0071361D01*
X0171963Y0071360D01*
X0172046Y0071355D01*
X0172130Y0071346D01*
X0172212Y0071333D01*
X0172294Y0071317D01*
X0172375Y0071296D01*
X0172456Y0071272D01*
X0172534Y0071244D01*
X0172612Y0071212D01*
X0172688Y0071176D01*
X0172762Y0071137D01*
X0172834Y0071095D01*
X0172904Y0071049D01*
X0172972Y0071000D01*
X0173037Y0070948D01*
X0173100Y0070893D01*
X0173160Y0070835D01*
X0173218Y0070774D01*
X0173272Y0070710D01*
X0173324Y0070644D01*
X0173372Y0070576D01*
X0173417Y0070505D01*
X0173458Y0070432D01*
X0173497Y0070358D01*
X0173531Y0070282D01*
X0173562Y0070204D01*
X0173589Y0070125D01*
X0173613Y0070044D01*
X0173632Y0069963D01*
X0173648Y0069881D01*
X0173660Y0069798D01*
X0173668Y0069714D01*
X0173672Y0069631D01*
X0173672Y0069547D01*
X0173668Y0069464D01*
X0173660Y0069380D01*
X0173648Y0069297D01*
X0173632Y0069215D01*
X0173613Y0069134D01*
X0173589Y0069053D01*
X0173562Y0068974D01*
X0173531Y0068896D01*
X0173497Y0068820D01*
X0173458Y0068746D01*
X0173417Y0068673D01*
X0173372Y0068602D01*
X0173324Y0068534D01*
X0173272Y0068468D01*
X0173218Y0068404D01*
X0173160Y0068343D01*
X0173100Y0068285D01*
X0173037Y0068230D01*
X0172972Y0068178D01*
X0172904Y0068129D01*
X0172834Y0068083D01*
X0172762Y0068041D01*
X0172688Y0068002D01*
X0172612Y0067966D01*
X0172534Y0067934D01*
X0172456Y0067906D01*
X0172375Y0067882D01*
X0172294Y0067861D01*
X0172212Y0067845D01*
X0172130Y0067832D01*
X0172046Y0067823D01*
X0171963Y0067818D01*
X0171879Y0067817D01*
X0171795Y0067820D01*
X0171712Y0067827D01*
X0171629Y0067838D01*
X0171547Y0067853D01*
X0171465Y0067871D01*
X0171384Y0067894D01*
X0171305Y0067920D01*
X0171227Y0067950D01*
X0171150Y0067984D01*
X0171075Y0068021D01*
X0171002Y0068061D01*
X0170931Y0068106D01*
X0170862Y0068153D01*
X0170795Y0068204D01*
X0170731Y0068257D01*
X0170669Y0068314D01*
X0170611Y0068374D01*
X0170555Y0068436D01*
X0170502Y0068501D01*
X0170452Y0068568D01*
X0170405Y0068637D01*
X0170362Y0068709D01*
X0170322Y0068783D01*
X0170286Y0068858D01*
X0170253Y0068935D01*
X0170224Y0069014D01*
X0170199Y0069093D01*
X0170177Y0069174D01*
X0170160Y0069256D01*
X0170146Y0069339D01*
X0170136Y0069422D01*
X0170130Y0069505D01*
X0170128Y0069589D01*
X0146350Y0042250D02*
X0146352Y0042408D01*
X0146358Y0042567D01*
X0146368Y0042725D01*
X0146382Y0042882D01*
X0146400Y0043040D01*
X0146421Y0043196D01*
X0146447Y0043353D01*
X0146477Y0043508D01*
X0146510Y0043663D01*
X0146548Y0043817D01*
X0146589Y0043970D01*
X0146634Y0044121D01*
X0146683Y0044272D01*
X0146736Y0044421D01*
X0146792Y0044569D01*
X0146853Y0044716D01*
X0146916Y0044861D01*
X0146984Y0045004D01*
X0147055Y0045145D01*
X0147129Y0045285D01*
X0147207Y0045423D01*
X0147289Y0045559D01*
X0147374Y0045692D01*
X0147462Y0045824D01*
X0147553Y0045953D01*
X0147648Y0046080D01*
X0147746Y0046204D01*
X0147847Y0046326D01*
X0147951Y0046446D01*
X0148057Y0046563D01*
X0148167Y0046677D01*
X0148280Y0046788D01*
X0148395Y0046896D01*
X0148514Y0047002D01*
X0148634Y0047104D01*
X0148757Y0047204D01*
X0148883Y0047300D01*
X0149011Y0047393D01*
X0149142Y0047483D01*
X0149274Y0047569D01*
X0149409Y0047652D01*
X0149546Y0047732D01*
X0149685Y0047808D01*
X0149825Y0047881D01*
X0149968Y0047950D01*
X0150112Y0048016D01*
X0150257Y0048078D01*
X0150405Y0048136D01*
X0150553Y0048191D01*
X0150703Y0048242D01*
X0150854Y0048289D01*
X0151007Y0048332D01*
X0151160Y0048371D01*
X0151314Y0048407D01*
X0151469Y0048438D01*
X0151625Y0048466D01*
X0151782Y0048490D01*
X0151939Y0048510D01*
X0152097Y0048526D01*
X0152254Y0048538D01*
X0152413Y0048546D01*
X0152571Y0048550D01*
X0152729Y0048550D01*
X0152887Y0048546D01*
X0153046Y0048538D01*
X0153203Y0048526D01*
X0153361Y0048510D01*
X0153518Y0048490D01*
X0153675Y0048466D01*
X0153831Y0048438D01*
X0153986Y0048407D01*
X0154140Y0048371D01*
X0154293Y0048332D01*
X0154446Y0048289D01*
X0154597Y0048242D01*
X0154747Y0048191D01*
X0154895Y0048136D01*
X0155043Y0048078D01*
X0155188Y0048016D01*
X0155332Y0047950D01*
X0155475Y0047881D01*
X0155615Y0047808D01*
X0155754Y0047732D01*
X0155891Y0047652D01*
X0156026Y0047569D01*
X0156158Y0047483D01*
X0156289Y0047393D01*
X0156417Y0047300D01*
X0156543Y0047204D01*
X0156666Y0047104D01*
X0156786Y0047002D01*
X0156905Y0046896D01*
X0157020Y0046788D01*
X0157133Y0046677D01*
X0157243Y0046563D01*
X0157349Y0046446D01*
X0157453Y0046326D01*
X0157554Y0046204D01*
X0157652Y0046080D01*
X0157747Y0045953D01*
X0157838Y0045824D01*
X0157926Y0045692D01*
X0158011Y0045559D01*
X0158093Y0045423D01*
X0158171Y0045285D01*
X0158245Y0045145D01*
X0158316Y0045004D01*
X0158384Y0044861D01*
X0158447Y0044716D01*
X0158508Y0044569D01*
X0158564Y0044421D01*
X0158617Y0044272D01*
X0158666Y0044121D01*
X0158711Y0043970D01*
X0158752Y0043817D01*
X0158790Y0043663D01*
X0158823Y0043508D01*
X0158853Y0043353D01*
X0158879Y0043196D01*
X0158900Y0043040D01*
X0158918Y0042882D01*
X0158932Y0042725D01*
X0158942Y0042567D01*
X0158948Y0042408D01*
X0158950Y0042250D01*
X0158948Y0042092D01*
X0158942Y0041933D01*
X0158932Y0041775D01*
X0158918Y0041618D01*
X0158900Y0041460D01*
X0158879Y0041304D01*
X0158853Y0041147D01*
X0158823Y0040992D01*
X0158790Y0040837D01*
X0158752Y0040683D01*
X0158711Y0040530D01*
X0158666Y0040379D01*
X0158617Y0040228D01*
X0158564Y0040079D01*
X0158508Y0039931D01*
X0158447Y0039784D01*
X0158384Y0039639D01*
X0158316Y0039496D01*
X0158245Y0039355D01*
X0158171Y0039215D01*
X0158093Y0039077D01*
X0158011Y0038941D01*
X0157926Y0038808D01*
X0157838Y0038676D01*
X0157747Y0038547D01*
X0157652Y0038420D01*
X0157554Y0038296D01*
X0157453Y0038174D01*
X0157349Y0038054D01*
X0157243Y0037937D01*
X0157133Y0037823D01*
X0157020Y0037712D01*
X0156905Y0037604D01*
X0156786Y0037498D01*
X0156666Y0037396D01*
X0156543Y0037296D01*
X0156417Y0037200D01*
X0156289Y0037107D01*
X0156158Y0037017D01*
X0156026Y0036931D01*
X0155891Y0036848D01*
X0155754Y0036768D01*
X0155615Y0036692D01*
X0155475Y0036619D01*
X0155332Y0036550D01*
X0155188Y0036484D01*
X0155043Y0036422D01*
X0154895Y0036364D01*
X0154747Y0036309D01*
X0154597Y0036258D01*
X0154446Y0036211D01*
X0154293Y0036168D01*
X0154140Y0036129D01*
X0153986Y0036093D01*
X0153831Y0036062D01*
X0153675Y0036034D01*
X0153518Y0036010D01*
X0153361Y0035990D01*
X0153203Y0035974D01*
X0153046Y0035962D01*
X0152887Y0035954D01*
X0152729Y0035950D01*
X0152571Y0035950D01*
X0152413Y0035954D01*
X0152254Y0035962D01*
X0152097Y0035974D01*
X0151939Y0035990D01*
X0151782Y0036010D01*
X0151625Y0036034D01*
X0151469Y0036062D01*
X0151314Y0036093D01*
X0151160Y0036129D01*
X0151007Y0036168D01*
X0150854Y0036211D01*
X0150703Y0036258D01*
X0150553Y0036309D01*
X0150405Y0036364D01*
X0150257Y0036422D01*
X0150112Y0036484D01*
X0149968Y0036550D01*
X0149825Y0036619D01*
X0149685Y0036692D01*
X0149546Y0036768D01*
X0149409Y0036848D01*
X0149274Y0036931D01*
X0149142Y0037017D01*
X0149011Y0037107D01*
X0148883Y0037200D01*
X0148757Y0037296D01*
X0148634Y0037396D01*
X0148514Y0037498D01*
X0148395Y0037604D01*
X0148280Y0037712D01*
X0148167Y0037823D01*
X0148057Y0037937D01*
X0147951Y0038054D01*
X0147847Y0038174D01*
X0147746Y0038296D01*
X0147648Y0038420D01*
X0147553Y0038547D01*
X0147462Y0038676D01*
X0147374Y0038808D01*
X0147289Y0038941D01*
X0147207Y0039077D01*
X0147129Y0039215D01*
X0147055Y0039355D01*
X0146984Y0039496D01*
X0146916Y0039639D01*
X0146853Y0039784D01*
X0146792Y0039931D01*
X0146736Y0040079D01*
X0146683Y0040228D01*
X0146634Y0040379D01*
X0146589Y0040530D01*
X0146548Y0040683D01*
X0146510Y0040837D01*
X0146477Y0040992D01*
X0146447Y0041147D01*
X0146421Y0041304D01*
X0146400Y0041460D01*
X0146382Y0041618D01*
X0146368Y0041775D01*
X0146358Y0041933D01*
X0146352Y0042092D01*
X0146350Y0042250D01*
D11*
X0157150Y0048950D02*
X0157600Y0048500D01*
X0158501Y0048500D01*
X0158952Y0048950D01*
X0158952Y0049401D01*
X0158501Y0049851D01*
X0157600Y0049851D01*
X0157150Y0050302D01*
X0157150Y0050752D01*
X0157600Y0051202D01*
X0158501Y0051202D01*
X0158952Y0050752D01*
X0160097Y0051202D02*
X0161898Y0051202D01*
X0160997Y0051202D02*
X0160997Y0048500D01*
X0163043Y0048500D02*
X0163043Y0051202D01*
X0163944Y0050302D01*
X0164845Y0051202D01*
X0164845Y0048500D01*
X0165990Y0048950D02*
X0166440Y0048500D01*
X0167341Y0048500D01*
X0167791Y0048950D01*
X0167791Y0049401D01*
X0167341Y0049851D01*
X0166890Y0049851D01*
X0167341Y0049851D02*
X0167791Y0050302D01*
X0167791Y0050752D01*
X0167341Y0051202D01*
X0166440Y0051202D01*
X0165990Y0050752D01*
X0168936Y0050752D02*
X0169386Y0051202D01*
X0170287Y0051202D01*
X0170738Y0050752D01*
X0170738Y0050302D01*
X0168936Y0048500D01*
X0170738Y0048500D01*
X0171883Y0048050D02*
X0173684Y0048050D01*
X0174829Y0048500D02*
X0176631Y0048500D01*
X0177776Y0048950D02*
X0179577Y0050752D01*
X0179577Y0048950D01*
X0179127Y0048500D01*
X0178226Y0048500D01*
X0177776Y0048950D01*
X0177776Y0050752D01*
X0178226Y0051202D01*
X0179127Y0051202D01*
X0179577Y0050752D01*
X0180722Y0051202D02*
X0180722Y0049851D01*
X0181623Y0050302D01*
X0182073Y0050302D01*
X0182524Y0049851D01*
X0182524Y0048950D01*
X0182073Y0048500D01*
X0181173Y0048500D01*
X0180722Y0048950D01*
X0180722Y0051202D02*
X0182524Y0051202D01*
X0183669Y0050752D02*
X0184119Y0051202D01*
X0185020Y0051202D01*
X0185470Y0050752D01*
X0185470Y0050302D01*
X0183669Y0048500D01*
X0185470Y0048500D01*
X0186615Y0048050D02*
X0188417Y0048050D01*
X0188997Y0047452D02*
X0188997Y0044750D01*
X0188097Y0044750D02*
X0189898Y0044750D01*
X0191043Y0044750D02*
X0191493Y0044750D01*
X0191493Y0045200D01*
X0191043Y0045200D01*
X0191043Y0044750D01*
X0192516Y0045200D02*
X0194318Y0047002D01*
X0194318Y0045200D01*
X0193867Y0044750D01*
X0192967Y0044750D01*
X0192516Y0045200D01*
X0192516Y0047002D01*
X0192967Y0047452D01*
X0193867Y0047452D01*
X0194318Y0047002D01*
X0193859Y0048500D02*
X0192508Y0048500D01*
X0192508Y0051202D01*
X0193859Y0051202D01*
X0194310Y0050752D01*
X0194310Y0050302D01*
X0193859Y0049851D01*
X0192508Y0049851D01*
X0191363Y0049401D02*
X0191363Y0048950D01*
X0190913Y0048500D01*
X0189562Y0048500D01*
X0189562Y0051202D01*
X0190913Y0051202D01*
X0191363Y0050752D01*
X0191363Y0050302D01*
X0190913Y0049851D01*
X0189562Y0049851D01*
X0190913Y0049851D02*
X0191363Y0049401D01*
X0193859Y0049851D02*
X0194310Y0049401D01*
X0194310Y0048950D01*
X0193859Y0048500D01*
X0188997Y0047452D02*
X0188097Y0046552D01*
X0186952Y0046552D02*
X0186051Y0044750D01*
X0185150Y0046552D01*
X0174829Y0048500D02*
X0174829Y0051202D01*
X0149505Y0031052D02*
X0149055Y0031502D01*
X0148154Y0031502D01*
X0147703Y0031052D01*
X0147703Y0030602D01*
X0148154Y0030151D01*
X0149505Y0030151D01*
X0149505Y0029250D02*
X0149505Y0031052D01*
X0146559Y0031052D02*
X0146108Y0031502D01*
X0145207Y0031502D01*
X0144757Y0031052D01*
X0144757Y0029250D01*
X0145207Y0028800D01*
X0146108Y0028800D01*
X0146559Y0029250D01*
X0147703Y0029250D02*
X0148154Y0028800D01*
X0149055Y0028800D01*
X0149505Y0029250D01*
X0135791Y0021502D02*
X0135341Y0021952D01*
X0134440Y0021952D01*
X0133990Y0021502D01*
X0133990Y0021052D01*
X0134440Y0020601D01*
X0135341Y0020601D01*
X0135791Y0020151D01*
X0135791Y0019700D01*
X0135341Y0019250D01*
X0134440Y0019250D01*
X0133990Y0019700D01*
X0132845Y0019700D02*
X0132845Y0021952D01*
X0131043Y0021952D02*
X0131043Y0019700D01*
X0131493Y0019250D01*
X0132394Y0019250D01*
X0132845Y0019700D01*
X0129898Y0019700D02*
X0129448Y0019250D01*
X0128097Y0019250D01*
X0128097Y0021952D01*
X0129448Y0021952D01*
X0129898Y0021502D01*
X0129898Y0021052D01*
X0129448Y0020601D01*
X0128097Y0020601D01*
X0126952Y0020151D02*
X0126952Y0021952D01*
X0126952Y0020151D02*
X0126051Y0019250D01*
X0125150Y0020151D01*
X0125150Y0021952D01*
X0129448Y0020601D02*
X0129898Y0020151D01*
X0129898Y0019700D01*
X0129703Y0017252D02*
X0131055Y0017252D01*
X0131505Y0016802D01*
X0131505Y0015000D01*
X0131055Y0014550D01*
X0129703Y0014550D01*
X0129703Y0017252D01*
X0128559Y0016802D02*
X0128108Y0017252D01*
X0126757Y0017252D01*
X0126757Y0014550D01*
X0128108Y0014550D01*
X0128559Y0015000D01*
X0128559Y0016802D01*
X0125612Y0017252D02*
X0125612Y0015451D01*
X0124711Y0014550D01*
X0123810Y0015451D01*
X0123810Y0017252D01*
X0118100Y0017040D02*
X0115398Y0017040D01*
X0115398Y0017490D02*
X0115398Y0016589D01*
X0115398Y0015444D02*
X0117199Y0015444D01*
X0118100Y0014543D01*
X0117199Y0013643D01*
X0115398Y0013643D01*
X0118100Y0016589D02*
X0118100Y0017490D01*
X0118100Y0018553D02*
X0115398Y0018553D01*
X0118100Y0020355D01*
X0115398Y0020355D01*
X0108350Y0019303D02*
X0107900Y0019303D01*
X0106098Y0021105D01*
X0105648Y0021105D01*
X0105648Y0019303D01*
X0106548Y0018159D02*
X0108350Y0018159D01*
X0106999Y0018159D02*
X0106999Y0016357D01*
X0106548Y0016357D02*
X0105648Y0017258D01*
X0106548Y0018159D01*
X0106548Y0016357D02*
X0108350Y0016357D01*
X0106999Y0015212D02*
X0106098Y0015212D01*
X0105648Y0014762D01*
X0105648Y0013410D01*
X0108350Y0013410D01*
X0107449Y0013410D02*
X0107449Y0014762D01*
X0106999Y0015212D01*
X0100755Y0021300D02*
X0098953Y0021300D01*
X0100755Y0023102D01*
X0100755Y0023552D01*
X0100305Y0024002D01*
X0099404Y0024002D01*
X0098953Y0023552D01*
X0097809Y0023552D02*
X0097809Y0022651D01*
X0097358Y0022201D01*
X0096007Y0022201D01*
X0096908Y0022201D02*
X0097809Y0021300D01*
X0096007Y0021300D02*
X0096007Y0024002D01*
X0097358Y0024002D01*
X0097809Y0023552D01*
X0088650Y0023494D02*
X0088650Y0022593D01*
X0088200Y0022143D01*
X0087299Y0022143D02*
X0086848Y0023044D01*
X0086848Y0023494D01*
X0087299Y0023945D01*
X0088200Y0023945D01*
X0088650Y0023494D01*
X0087299Y0022143D02*
X0085948Y0022143D01*
X0085948Y0023945D01*
X0086848Y0020998D02*
X0088650Y0020998D01*
X0087299Y0020998D02*
X0087299Y0019197D01*
X0086848Y0019197D02*
X0085948Y0020097D01*
X0086848Y0020998D01*
X0086848Y0019197D02*
X0088650Y0019197D01*
X0087299Y0018052D02*
X0086398Y0018052D01*
X0085948Y0017601D01*
X0085948Y0016250D01*
X0088650Y0016250D01*
X0087749Y0016250D02*
X0087749Y0017601D01*
X0087299Y0018052D01*
X0090448Y0015052D02*
X0090898Y0014151D01*
X0091799Y0013250D01*
X0091799Y0014601D01*
X0092249Y0015052D01*
X0092700Y0015052D01*
X0093150Y0014601D01*
X0093150Y0013700D01*
X0092700Y0013250D01*
X0091799Y0013250D01*
X0078150Y0014750D02*
X0075448Y0014750D01*
X0075448Y0016101D01*
X0075898Y0016552D01*
X0076799Y0016552D01*
X0077249Y0016101D01*
X0077249Y0014750D01*
X0076799Y0017697D02*
X0076799Y0019498D01*
X0076348Y0019498D02*
X0078150Y0019498D01*
X0076799Y0020643D02*
X0076799Y0022445D01*
X0078150Y0021994D02*
X0075448Y0021994D01*
X0076799Y0020643D01*
X0076348Y0019498D02*
X0075448Y0018597D01*
X0076348Y0017697D01*
X0078150Y0017697D01*
X0068400Y0018447D02*
X0066598Y0018447D01*
X0065698Y0019347D01*
X0066598Y0020248D01*
X0068400Y0020248D01*
X0067950Y0021393D02*
X0068400Y0021843D01*
X0068400Y0022744D01*
X0067950Y0023195D01*
X0067499Y0023195D01*
X0067049Y0022744D01*
X0067049Y0022294D01*
X0067049Y0022744D02*
X0066598Y0023195D01*
X0066148Y0023195D01*
X0065698Y0022744D01*
X0065698Y0021843D01*
X0066148Y0021393D01*
X0067049Y0020248D02*
X0067049Y0018447D01*
X0067049Y0017302D02*
X0067499Y0016851D01*
X0067499Y0015500D01*
X0068400Y0015500D02*
X0065698Y0015500D01*
X0065698Y0016851D01*
X0066148Y0017302D01*
X0067049Y0017302D01*
X0057900Y0017697D02*
X0056098Y0017697D01*
X0055198Y0018597D01*
X0056098Y0019498D01*
X0057900Y0019498D01*
X0057900Y0020643D02*
X0056098Y0022445D01*
X0055648Y0022445D01*
X0055198Y0021994D01*
X0055198Y0021093D01*
X0055648Y0020643D01*
X0056549Y0019498D02*
X0056549Y0017697D01*
X0056549Y0016552D02*
X0056999Y0016101D01*
X0056999Y0014750D01*
X0057900Y0014750D02*
X0055198Y0014750D01*
X0055198Y0016101D01*
X0055648Y0016552D01*
X0056549Y0016552D01*
X0057900Y0020643D02*
X0057900Y0022445D01*
X0052005Y0027750D02*
X0051555Y0027300D01*
X0050654Y0027300D01*
X0050203Y0027750D01*
X0050203Y0028651D02*
X0051104Y0029102D01*
X0051555Y0029102D01*
X0052005Y0028651D01*
X0052005Y0027750D01*
X0050203Y0028651D02*
X0050203Y0030002D01*
X0052005Y0030002D01*
X0049059Y0029552D02*
X0048608Y0030002D01*
X0047707Y0030002D01*
X0047257Y0029552D01*
X0047257Y0027750D01*
X0047707Y0027300D01*
X0048608Y0027300D01*
X0049059Y0027750D01*
X0048150Y0022445D02*
X0048150Y0020643D01*
X0048150Y0021544D02*
X0045448Y0021544D01*
X0046348Y0020643D01*
X0046348Y0019498D02*
X0048150Y0019498D01*
X0046799Y0019498D02*
X0046799Y0017697D01*
X0046348Y0017697D02*
X0045448Y0018597D01*
X0046348Y0019498D01*
X0046348Y0017697D02*
X0048150Y0017697D01*
X0046799Y0016552D02*
X0047249Y0016101D01*
X0047249Y0014750D01*
X0048150Y0014750D02*
X0045448Y0014750D01*
X0045448Y0016101D01*
X0045898Y0016552D01*
X0046799Y0016552D01*
X0038400Y0017697D02*
X0036598Y0017697D01*
X0035698Y0018597D01*
X0036598Y0019498D01*
X0038400Y0019498D01*
X0037950Y0020643D02*
X0036148Y0020643D01*
X0035698Y0021093D01*
X0035698Y0021994D01*
X0036148Y0022445D01*
X0037950Y0020643D01*
X0038400Y0021093D01*
X0038400Y0021994D01*
X0037950Y0022445D01*
X0036148Y0022445D01*
X0037049Y0019498D02*
X0037049Y0017697D01*
X0037049Y0016552D02*
X0037499Y0016101D01*
X0037499Y0014750D01*
X0038400Y0014750D02*
X0035698Y0014750D01*
X0035698Y0016101D01*
X0036148Y0016552D01*
X0037049Y0016552D01*
X0023747Y0005952D02*
X0023747Y0003250D01*
X0022847Y0003250D02*
X0024648Y0003250D01*
X0022847Y0005052D02*
X0023747Y0005952D01*
X0021702Y0005502D02*
X0021702Y0004601D01*
X0021251Y0004151D01*
X0019900Y0004151D01*
X0020801Y0004151D02*
X0021702Y0003250D01*
X0019900Y0003250D02*
X0019900Y0005952D01*
X0021251Y0005952D01*
X0021702Y0005502D01*
X0047707Y0037300D02*
X0048608Y0037300D01*
X0049059Y0037750D01*
X0047707Y0037300D02*
X0047257Y0037750D01*
X0047257Y0039552D01*
X0047707Y0040002D01*
X0048608Y0040002D01*
X0049059Y0039552D01*
X0050203Y0038651D02*
X0052005Y0038651D01*
X0051555Y0037300D02*
X0051555Y0040002D01*
X0050203Y0038651D01*
X0073120Y0044470D02*
X0073120Y0072030D01*
X0100680Y0072030D01*
X0100680Y0044470D01*
X0073120Y0044470D01*
X0092650Y0035952D02*
X0094001Y0035952D01*
X0094452Y0035502D01*
X0094452Y0034601D01*
X0094001Y0034151D01*
X0092650Y0034151D01*
X0093551Y0034151D02*
X0094452Y0033250D01*
X0095597Y0033700D02*
X0096047Y0033250D01*
X0096948Y0033250D01*
X0097398Y0033700D01*
X0097398Y0034151D01*
X0096948Y0034601D01*
X0096497Y0034601D01*
X0096948Y0034601D02*
X0097398Y0035052D01*
X0097398Y0035502D01*
X0096948Y0035952D01*
X0096047Y0035952D01*
X0095597Y0035502D01*
X0092650Y0035952D02*
X0092650Y0033250D01*
X0113900Y0035151D02*
X0114801Y0034250D01*
X0115702Y0035151D01*
X0115702Y0036952D01*
X0116847Y0036952D02*
X0118198Y0036952D01*
X0118648Y0036502D01*
X0118648Y0035601D01*
X0118198Y0035151D01*
X0116847Y0035151D01*
X0117747Y0035151D02*
X0118648Y0034250D01*
X0119793Y0034250D02*
X0121595Y0034250D01*
X0122740Y0034700D02*
X0123190Y0034250D01*
X0124091Y0034250D01*
X0124541Y0034700D01*
X0124541Y0035601D01*
X0123640Y0035601D01*
X0122740Y0036502D02*
X0122740Y0034700D01*
X0122740Y0036502D02*
X0123190Y0036952D01*
X0124091Y0036952D01*
X0124541Y0036502D01*
X0121595Y0036952D02*
X0119793Y0036952D01*
X0119793Y0034250D01*
X0119793Y0035601D02*
X0120694Y0035601D01*
X0116847Y0034250D02*
X0116847Y0036952D01*
X0113900Y0036952D02*
X0113900Y0035151D01*
X0115398Y0040750D02*
X0117200Y0040750D01*
X0117650Y0041200D01*
X0117650Y0042101D01*
X0117200Y0042552D01*
X0117650Y0043697D02*
X0115848Y0045498D01*
X0115398Y0045498D01*
X0114948Y0045048D01*
X0114948Y0044147D01*
X0115398Y0043697D01*
X0115398Y0042552D02*
X0114948Y0042101D01*
X0114948Y0041200D01*
X0115398Y0040750D01*
X0117650Y0043697D02*
X0117650Y0045498D01*
X0117900Y0074000D02*
X0115198Y0074000D01*
X0116098Y0074901D01*
X0115198Y0075802D01*
X0117900Y0075802D01*
X0117450Y0076947D02*
X0115648Y0076947D01*
X0115198Y0077397D01*
X0115198Y0078298D01*
X0115648Y0078748D01*
X0117450Y0078748D01*
X0117900Y0078298D01*
X0117900Y0077397D01*
X0117450Y0076947D01*
X0117450Y0079893D02*
X0117900Y0080343D01*
X0117900Y0081244D01*
X0117450Y0081695D01*
X0116999Y0081695D01*
X0116549Y0081244D01*
X0116549Y0080343D01*
X0116098Y0079893D01*
X0115648Y0079893D01*
X0115198Y0080343D01*
X0115198Y0081244D01*
X0115648Y0081695D01*
X0115198Y0082840D02*
X0115198Y0084641D01*
X0115198Y0085786D02*
X0117900Y0085786D01*
X0117900Y0087588D01*
X0116549Y0086687D02*
X0116549Y0085786D01*
X0115198Y0085786D02*
X0115198Y0087588D01*
X0115198Y0088733D02*
X0115198Y0090534D01*
X0115198Y0089633D02*
X0117900Y0089633D01*
X0111255Y0090000D02*
X0110805Y0089550D01*
X0109904Y0089550D01*
X0109453Y0090000D01*
X0111255Y0091802D01*
X0111255Y0090000D01*
X0109453Y0090000D02*
X0109453Y0091802D01*
X0109904Y0092252D01*
X0110805Y0092252D01*
X0111255Y0091802D01*
X0108309Y0089550D02*
X0106507Y0089550D01*
X0107408Y0089550D02*
X0107408Y0092252D01*
X0106507Y0091352D01*
X0105362Y0091352D02*
X0105362Y0089550D01*
X0105362Y0090901D02*
X0103560Y0090901D01*
X0103560Y0091352D02*
X0103560Y0089550D01*
X0102415Y0090901D02*
X0101965Y0090451D01*
X0100614Y0090451D01*
X0100614Y0089550D02*
X0100614Y0092252D01*
X0101965Y0092252D01*
X0102415Y0091802D01*
X0102415Y0090901D01*
X0103560Y0091352D02*
X0104461Y0092252D01*
X0105362Y0091352D01*
X0099350Y0090405D02*
X0099350Y0089504D01*
X0098900Y0089053D01*
X0097999Y0089053D02*
X0097548Y0089954D01*
X0097548Y0090405D01*
X0097999Y0090855D01*
X0098900Y0090855D01*
X0099350Y0090405D01*
X0097999Y0089053D02*
X0096648Y0089053D01*
X0096648Y0090855D01*
X0096648Y0087008D02*
X0099350Y0087008D01*
X0099350Y0086107D02*
X0099350Y0087909D01*
X0097548Y0086107D02*
X0096648Y0087008D01*
X0097548Y0084962D02*
X0099350Y0084962D01*
X0097999Y0084962D02*
X0097999Y0083160D01*
X0097548Y0083160D02*
X0096648Y0084061D01*
X0097548Y0084962D01*
X0097548Y0083160D02*
X0099350Y0083160D01*
X0097999Y0082015D02*
X0098449Y0081565D01*
X0098449Y0080214D01*
X0099350Y0080214D02*
X0096648Y0080214D01*
X0096648Y0081565D01*
X0097098Y0082015D01*
X0097999Y0082015D01*
X0088650Y0084500D02*
X0085948Y0084500D01*
X0085948Y0085851D01*
X0086398Y0086302D01*
X0087299Y0086302D01*
X0087749Y0085851D01*
X0087749Y0084500D01*
X0087299Y0087447D02*
X0087299Y0088798D01*
X0087749Y0089248D01*
X0088200Y0089248D01*
X0088650Y0088798D01*
X0088650Y0087447D01*
X0085948Y0087447D01*
X0085948Y0088798D01*
X0086398Y0089248D01*
X0086848Y0089248D01*
X0087299Y0088798D01*
X0088200Y0090393D02*
X0086398Y0090393D01*
X0085948Y0090843D01*
X0085948Y0091744D01*
X0086398Y0092195D01*
X0088200Y0090393D01*
X0088650Y0090843D01*
X0088650Y0091744D01*
X0088200Y0092195D01*
X0086398Y0092195D01*
X0078150Y0091744D02*
X0078150Y0090843D01*
X0077700Y0090393D01*
X0077700Y0089248D02*
X0078150Y0088798D01*
X0078150Y0087447D01*
X0075448Y0087447D01*
X0075448Y0088798D01*
X0075898Y0089248D01*
X0076348Y0089248D01*
X0076799Y0088798D01*
X0076799Y0087447D01*
X0076799Y0086302D02*
X0077249Y0085851D01*
X0077249Y0084500D01*
X0078150Y0084500D02*
X0075448Y0084500D01*
X0075448Y0085851D01*
X0075898Y0086302D01*
X0076799Y0086302D01*
X0076799Y0088798D02*
X0077249Y0089248D01*
X0077700Y0089248D01*
X0075898Y0090393D02*
X0075448Y0090843D01*
X0075448Y0091744D01*
X0075898Y0092195D01*
X0076348Y0092195D01*
X0076799Y0091744D01*
X0077249Y0092195D01*
X0077700Y0092195D01*
X0078150Y0091744D01*
X0076799Y0091744D02*
X0076799Y0091294D01*
X0069150Y0091744D02*
X0066448Y0091744D01*
X0067799Y0090393D01*
X0067799Y0092195D01*
X0068249Y0089248D02*
X0068700Y0089248D01*
X0069150Y0088798D01*
X0069150Y0087447D01*
X0066448Y0087447D01*
X0066448Y0088798D01*
X0066898Y0089248D01*
X0067348Y0089248D01*
X0067799Y0088798D01*
X0067799Y0087447D01*
X0067799Y0086302D02*
X0066898Y0086302D01*
X0066448Y0085851D01*
X0066448Y0084500D01*
X0069150Y0084500D01*
X0068249Y0084500D02*
X0068249Y0085851D01*
X0067799Y0086302D01*
X0067799Y0088798D02*
X0068249Y0089248D01*
X0060845Y0089450D02*
X0060394Y0089000D01*
X0059493Y0089000D01*
X0059043Y0089450D01*
X0059043Y0090351D02*
X0059944Y0090802D01*
X0060394Y0090802D01*
X0060845Y0090351D01*
X0060845Y0089450D01*
X0059043Y0090351D02*
X0059043Y0091702D01*
X0060845Y0091702D01*
X0057898Y0091252D02*
X0057898Y0090802D01*
X0057448Y0090351D01*
X0056097Y0090351D01*
X0054952Y0090351D02*
X0054501Y0089901D01*
X0053150Y0089901D01*
X0053150Y0089000D02*
X0053150Y0091702D01*
X0054501Y0091702D01*
X0054952Y0091252D01*
X0054952Y0090351D01*
X0056097Y0089000D02*
X0056097Y0091702D01*
X0057448Y0091702D01*
X0057898Y0091252D01*
X0057448Y0090351D02*
X0057898Y0089901D01*
X0057898Y0089450D01*
X0057448Y0089000D01*
X0056097Y0089000D01*
X0051845Y0089450D02*
X0051394Y0089000D01*
X0050493Y0089000D01*
X0050043Y0089450D01*
X0050043Y0090351D01*
X0051394Y0090351D01*
X0051845Y0089901D01*
X0051845Y0089450D01*
X0050944Y0091252D02*
X0050043Y0090351D01*
X0048898Y0089901D02*
X0048898Y0089450D01*
X0048448Y0089000D01*
X0047097Y0089000D01*
X0047097Y0091702D01*
X0048448Y0091702D01*
X0048898Y0091252D01*
X0048898Y0090802D01*
X0048448Y0090351D01*
X0047097Y0090351D01*
X0045952Y0090351D02*
X0045501Y0089901D01*
X0044150Y0089901D01*
X0044150Y0089000D02*
X0044150Y0091702D01*
X0045501Y0091702D01*
X0045952Y0091252D01*
X0045952Y0090351D01*
X0048448Y0090351D02*
X0048898Y0089901D01*
X0050944Y0091252D02*
X0051845Y0091702D01*
X0038400Y0089643D02*
X0037950Y0089643D01*
X0036148Y0091445D01*
X0035698Y0091445D01*
X0035698Y0089643D01*
X0036148Y0088498D02*
X0036598Y0088498D01*
X0037049Y0088048D01*
X0037049Y0086697D01*
X0037049Y0085552D02*
X0037499Y0085101D01*
X0037499Y0083750D01*
X0038400Y0083750D02*
X0035698Y0083750D01*
X0035698Y0085101D01*
X0036148Y0085552D01*
X0037049Y0085552D01*
X0038400Y0086697D02*
X0035698Y0086697D01*
X0035698Y0088048D01*
X0036148Y0088498D01*
X0037049Y0088048D02*
X0037499Y0088498D01*
X0037950Y0088498D01*
X0038400Y0088048D01*
X0038400Y0086697D01*
X0028100Y0087307D02*
X0027650Y0086857D01*
X0028100Y0087307D02*
X0028100Y0088208D01*
X0027650Y0088659D01*
X0027199Y0088659D01*
X0026749Y0088208D01*
X0026749Y0087307D01*
X0026298Y0086857D01*
X0025848Y0086857D01*
X0025398Y0087307D01*
X0025398Y0088208D01*
X0025848Y0088659D01*
X0025398Y0089803D02*
X0025398Y0091605D01*
X0025398Y0090704D02*
X0028100Y0090704D01*
X0028100Y0085712D02*
X0027199Y0084811D01*
X0027199Y0085262D02*
X0027199Y0083910D01*
X0028100Y0083910D02*
X0025398Y0083910D01*
X0025398Y0085262D01*
X0025848Y0085712D01*
X0026749Y0085712D01*
X0027199Y0085262D01*
X0028100Y0082765D02*
X0025398Y0082765D01*
X0025398Y0080964D02*
X0028100Y0082765D01*
X0028100Y0080964D02*
X0025398Y0080964D01*
X0015600Y0068686D02*
X0015600Y0067786D01*
X0015600Y0068236D02*
X0012898Y0068236D01*
X0012898Y0067786D02*
X0012898Y0068686D01*
X0013348Y0066641D02*
X0012898Y0066190D01*
X0012898Y0064839D01*
X0015600Y0064839D01*
X0015600Y0066190D01*
X0015150Y0066641D01*
X0013348Y0066641D01*
X0012898Y0063694D02*
X0012898Y0061893D01*
X0012898Y0062793D02*
X0015600Y0062793D01*
X0014249Y0059847D02*
X0014249Y0058946D01*
X0015600Y0058946D02*
X0012898Y0058946D01*
X0012898Y0060748D01*
X0047650Y0063700D02*
X0048100Y0063250D01*
X0049001Y0063250D01*
X0049452Y0063700D01*
X0050597Y0063700D02*
X0051047Y0063250D01*
X0051948Y0063250D01*
X0052398Y0063700D01*
X0052398Y0064151D01*
X0051948Y0064601D01*
X0050597Y0064601D01*
X0050597Y0063700D01*
X0050597Y0064601D02*
X0051497Y0065502D01*
X0052398Y0065952D01*
X0055026Y0065412D02*
X0055477Y0065412D01*
X0056378Y0064511D01*
X0057729Y0064511D01*
X0056378Y0064511D02*
X0055477Y0063610D01*
X0055026Y0063610D01*
X0049452Y0065502D02*
X0049001Y0065952D01*
X0048100Y0065952D01*
X0047650Y0065502D01*
X0047650Y0063700D01*
X0055026Y0067458D02*
X0057729Y0067458D01*
X0057729Y0068358D02*
X0057729Y0066557D01*
X0055927Y0066557D02*
X0055026Y0067458D01*
X0050597Y0073250D02*
X0050597Y0073700D01*
X0052398Y0075502D01*
X0052398Y0075952D01*
X0050597Y0075952D01*
X0049452Y0075502D02*
X0049001Y0075952D01*
X0048100Y0075952D01*
X0047650Y0075502D01*
X0047650Y0073700D01*
X0048100Y0073250D01*
X0049001Y0073250D01*
X0049452Y0073700D01*
X0057650Y0077950D02*
X0058100Y0077500D01*
X0059001Y0077500D01*
X0059452Y0077950D01*
X0060597Y0077500D02*
X0062398Y0077500D01*
X0061497Y0077500D02*
X0061497Y0080202D01*
X0060597Y0079302D01*
X0059452Y0079752D02*
X0059001Y0080202D01*
X0058100Y0080202D01*
X0057650Y0079752D01*
X0057650Y0077950D01*
X0016850Y0095807D02*
X0016850Y0096258D01*
X0016400Y0096708D01*
X0014148Y0096708D01*
X0014148Y0096258D02*
X0014148Y0097159D01*
X0014598Y0098303D02*
X0014148Y0098754D01*
X0014148Y0099655D01*
X0014598Y0100105D01*
X0015048Y0100105D01*
X0015499Y0099655D01*
X0015949Y0100105D01*
X0016400Y0100105D01*
X0016850Y0099655D01*
X0016850Y0098754D01*
X0016400Y0098303D01*
X0015499Y0099204D02*
X0015499Y0099655D01*
X0016850Y0095807D02*
X0016400Y0095357D01*
X0115198Y0082840D02*
X0117900Y0082840D01*
X0116549Y0082840D02*
X0116549Y0083740D01*
X0125698Y0082744D02*
X0125698Y0081843D01*
X0126148Y0081393D01*
X0126148Y0080248D02*
X0125698Y0079798D01*
X0125698Y0078897D01*
X0126148Y0078447D01*
X0126598Y0078447D01*
X0127049Y0078897D01*
X0127049Y0079798D01*
X0127499Y0080248D01*
X0127950Y0080248D01*
X0128400Y0079798D01*
X0128400Y0078897D01*
X0127950Y0078447D01*
X0128400Y0077302D02*
X0125698Y0077302D01*
X0125698Y0075500D02*
X0128400Y0075500D01*
X0127499Y0076401D01*
X0128400Y0077302D01*
X0128400Y0081393D02*
X0126598Y0083195D01*
X0126148Y0083195D01*
X0125698Y0082744D01*
X0126148Y0084340D02*
X0126598Y0084340D01*
X0127049Y0084790D01*
X0127049Y0085691D01*
X0127499Y0086141D01*
X0127950Y0086141D01*
X0128400Y0085691D01*
X0128400Y0084790D01*
X0127950Y0084340D01*
X0127499Y0084340D01*
X0127049Y0084790D01*
X0127049Y0085691D02*
X0126598Y0086141D01*
X0126148Y0086141D01*
X0125698Y0085691D01*
X0125698Y0084790D01*
X0126148Y0084340D01*
X0128400Y0083195D02*
X0128400Y0081393D01*
X0128400Y0087286D02*
X0128400Y0089088D01*
X0128400Y0088187D02*
X0125698Y0088187D01*
X0126598Y0087286D01*
X0126148Y0090233D02*
X0125698Y0090683D01*
X0125698Y0091584D01*
X0126148Y0092034D01*
X0126598Y0092034D01*
X0128400Y0090233D01*
X0128400Y0092034D01*
X0145948Y0090994D02*
X0145948Y0090093D01*
X0146398Y0089643D01*
X0146848Y0089643D01*
X0147299Y0090093D01*
X0147299Y0090994D01*
X0147749Y0091445D01*
X0148200Y0091445D01*
X0148650Y0090994D01*
X0148650Y0090093D01*
X0148200Y0089643D01*
X0148200Y0088498D02*
X0147749Y0088498D01*
X0147299Y0088048D01*
X0147299Y0087147D01*
X0146848Y0086697D01*
X0146398Y0086697D01*
X0145948Y0087147D01*
X0145948Y0088048D01*
X0146398Y0088498D01*
X0148200Y0088498D02*
X0148650Y0088048D01*
X0148650Y0087147D01*
X0148200Y0086697D01*
X0147749Y0085552D02*
X0145948Y0085552D01*
X0147749Y0085552D02*
X0148650Y0084651D01*
X0147749Y0083750D01*
X0145948Y0083750D01*
X0145948Y0090994D02*
X0146398Y0091445D01*
X0159098Y0016605D02*
X0160900Y0014803D01*
X0161350Y0015254D01*
X0161350Y0016155D01*
X0160900Y0016605D01*
X0159098Y0016605D01*
X0158648Y0016155D01*
X0158648Y0015254D01*
X0159098Y0014803D01*
X0160900Y0014803D01*
X0161350Y0013659D02*
X0161350Y0011857D01*
X0161350Y0012758D02*
X0158648Y0012758D01*
X0159548Y0011857D01*
X0159098Y0010712D02*
X0158648Y0010262D01*
X0158648Y0009361D01*
X0159098Y0008910D01*
X0160900Y0008910D01*
X0161350Y0009361D01*
X0161350Y0010262D01*
X0160900Y0010712D01*
X0171898Y0011557D02*
X0172348Y0011107D01*
X0174150Y0011107D01*
X0174600Y0011557D01*
X0174600Y0012458D01*
X0174150Y0012909D01*
X0174150Y0014053D02*
X0174600Y0014504D01*
X0174600Y0015405D01*
X0174150Y0015855D01*
X0173699Y0015855D01*
X0173249Y0015405D01*
X0173249Y0014954D01*
X0173249Y0015405D02*
X0172798Y0015855D01*
X0172348Y0015855D01*
X0171898Y0015405D01*
X0171898Y0014504D01*
X0172348Y0014053D01*
X0172348Y0012909D02*
X0171898Y0012458D01*
X0171898Y0011557D01*
X0183448Y0011200D02*
X0183898Y0010750D01*
X0185700Y0010750D01*
X0186150Y0011200D01*
X0186150Y0012101D01*
X0185700Y0012552D01*
X0183898Y0012552D02*
X0183448Y0012101D01*
X0183448Y0011200D01*
X0183898Y0013697D02*
X0183448Y0014147D01*
X0183448Y0015048D01*
X0183898Y0015498D01*
X0184348Y0015498D01*
X0184799Y0015048D01*
X0184799Y0014147D01*
X0184348Y0013697D01*
X0183898Y0013697D01*
X0184799Y0014147D02*
X0185249Y0013697D01*
X0185700Y0013697D01*
X0186150Y0014147D01*
X0186150Y0015048D01*
X0185700Y0015498D01*
X0185249Y0015498D01*
X0184799Y0015048D01*
D12*
X0149498Y0014152D02*
X0149498Y0016348D01*
X0146302Y0016348D01*
X0149498Y0007348D02*
X0149498Y0005152D01*
X0146302Y0005152D01*
X0138081Y0048388D02*
X0135719Y0048388D01*
X0135719Y0053112D02*
X0138081Y0053112D01*
X0125581Y0053112D02*
X0123219Y0053112D01*
X0123219Y0048388D02*
X0125581Y0048388D01*
X0160700Y0052300D02*
X0161834Y0052300D01*
X0161267Y0052300D02*
X0161267Y0054569D01*
X0160700Y0054569D01*
X0161267Y0055703D02*
X0161267Y0056270D01*
X0163155Y0054001D02*
X0163723Y0054569D01*
X0164857Y0054569D01*
X0165424Y0054001D01*
X0165424Y0052867D01*
X0164857Y0052300D01*
X0163723Y0052300D01*
X0163155Y0052867D01*
X0163155Y0054001D01*
X0166839Y0053434D02*
X0168540Y0053434D01*
X0169107Y0054001D01*
X0169107Y0055136D01*
X0168540Y0055703D01*
X0166839Y0055703D01*
X0166839Y0052300D01*
X0170522Y0052867D02*
X0171089Y0052300D01*
X0172790Y0052300D01*
X0172790Y0054569D01*
X0174205Y0054001D02*
X0174772Y0054569D01*
X0176473Y0054569D01*
X0175906Y0053434D02*
X0174772Y0053434D01*
X0174205Y0054001D01*
X0175906Y0053434D02*
X0176473Y0052867D01*
X0175906Y0052300D01*
X0174205Y0052300D01*
X0177888Y0052300D02*
X0177888Y0055703D01*
X0178455Y0054569D02*
X0179589Y0054569D01*
X0180157Y0054001D01*
X0180157Y0052300D01*
X0181571Y0052300D02*
X0181571Y0052867D01*
X0182138Y0052867D01*
X0182138Y0052300D01*
X0181571Y0052300D01*
X0183413Y0052300D02*
X0183413Y0054569D01*
X0185114Y0054569D01*
X0185681Y0054001D01*
X0185681Y0052300D01*
X0187096Y0052867D02*
X0187096Y0054001D01*
X0187663Y0054569D01*
X0188797Y0054569D01*
X0189364Y0054001D01*
X0189364Y0053434D01*
X0187096Y0053434D01*
X0187096Y0052867D02*
X0187663Y0052300D01*
X0188797Y0052300D01*
X0191346Y0052867D02*
X0191913Y0052300D01*
X0191346Y0052867D02*
X0191346Y0055136D01*
X0190779Y0054569D02*
X0191913Y0054569D01*
X0178455Y0054569D02*
X0177888Y0054001D01*
X0170522Y0054569D02*
X0170522Y0052867D01*
X0146061Y0072002D02*
X0146063Y0072045D01*
X0146069Y0072087D01*
X0146079Y0072128D01*
X0146092Y0072169D01*
X0146109Y0072207D01*
X0146130Y0072245D01*
X0146154Y0072280D01*
X0146181Y0072313D01*
X0146211Y0072343D01*
X0146244Y0072370D01*
X0146279Y0072394D01*
X0146317Y0072415D01*
X0146355Y0072432D01*
X0146396Y0072445D01*
X0146437Y0072455D01*
X0146479Y0072461D01*
X0146522Y0072463D01*
X0146565Y0072461D01*
X0146607Y0072455D01*
X0146648Y0072445D01*
X0146689Y0072432D01*
X0146727Y0072415D01*
X0146765Y0072394D01*
X0146800Y0072370D01*
X0146833Y0072343D01*
X0146863Y0072313D01*
X0146890Y0072280D01*
X0146914Y0072245D01*
X0146935Y0072207D01*
X0146952Y0072169D01*
X0146965Y0072128D01*
X0146975Y0072087D01*
X0146981Y0072045D01*
X0146983Y0072002D01*
X0146981Y0071959D01*
X0146975Y0071917D01*
X0146965Y0071876D01*
X0146952Y0071835D01*
X0146935Y0071797D01*
X0146914Y0071759D01*
X0146890Y0071724D01*
X0146863Y0071691D01*
X0146833Y0071661D01*
X0146800Y0071634D01*
X0146765Y0071610D01*
X0146727Y0071589D01*
X0146689Y0071572D01*
X0146648Y0071559D01*
X0146607Y0071549D01*
X0146565Y0071543D01*
X0146522Y0071541D01*
X0146479Y0071543D01*
X0146437Y0071549D01*
X0146396Y0071559D01*
X0146355Y0071572D01*
X0146317Y0071589D01*
X0146279Y0071610D01*
X0146244Y0071634D01*
X0146211Y0071661D01*
X0146181Y0071691D01*
X0146154Y0071724D01*
X0146130Y0071759D01*
X0146109Y0071797D01*
X0146092Y0071835D01*
X0146079Y0071876D01*
X0146069Y0071917D01*
X0146063Y0071959D01*
X0146061Y0072002D01*
X0144945Y0072344D02*
X0138069Y0072344D01*
X0138069Y0084156D01*
X0144945Y0084156D01*
X0144945Y0072344D01*
D13*
X0013150Y0096250D02*
X0013150Y0097750D01*
X0013150Y0100750D01*
X0013150Y0096250D01*
D14*
X0049400Y0070860D02*
X0049400Y0070640D01*
X0049400Y0060860D02*
X0049400Y0060640D01*
X0049400Y0043360D02*
X0049400Y0043140D01*
X0049400Y0033360D02*
X0049400Y0033140D01*
X0111790Y0043250D02*
X0112010Y0043250D01*
X0146900Y0025860D02*
X0146900Y0025640D01*
X0164290Y0013250D02*
X0164510Y0013250D01*
X0176790Y0013250D02*
X0177010Y0013250D01*
X0189290Y0013250D02*
X0189510Y0013250D01*
X0059400Y0083140D02*
X0059400Y0083360D01*
D15*
X0059400Y0093250D02*
X0054400Y0093250D01*
X0051900Y0095750D01*
X0049400Y0093250D01*
X0044400Y0093250D01*
X0041900Y0095750D01*
X0039400Y0093250D01*
X0034400Y0093250D01*
X0031900Y0095750D01*
X0029400Y0093250D01*
X0024400Y0093250D01*
X0021900Y0095750D01*
X0021900Y0100750D01*
X0024400Y0103250D01*
X0029400Y0103250D01*
X0031900Y0100750D01*
X0034400Y0103250D01*
X0039400Y0103250D01*
X0041900Y0100750D01*
X0044400Y0103250D01*
X0049400Y0103250D01*
X0051900Y0100750D01*
X0054400Y0103250D01*
X0059400Y0103250D01*
X0061900Y0100750D01*
X0064400Y0103250D01*
X0069400Y0103250D01*
X0071900Y0100750D01*
X0074400Y0103250D01*
X0079400Y0103250D01*
X0081900Y0100750D01*
X0084400Y0103250D01*
X0089400Y0103250D01*
X0091900Y0100750D01*
X0094400Y0103250D01*
X0099400Y0103250D01*
X0101900Y0100750D01*
X0104400Y0103250D01*
X0109400Y0103250D01*
X0111900Y0100750D01*
X0114400Y0103250D01*
X0119400Y0103250D01*
X0121900Y0100750D01*
X0124400Y0103250D01*
X0129400Y0103250D01*
X0131900Y0100750D01*
X0134400Y0103250D01*
X0139400Y0103250D01*
X0141900Y0100750D01*
X0144400Y0103250D01*
X0149400Y0103250D01*
X0151900Y0100750D01*
X0151900Y0095750D01*
X0149400Y0093250D01*
X0144400Y0093250D01*
X0141900Y0095750D01*
X0139400Y0093250D01*
X0134400Y0093250D01*
X0131900Y0095750D01*
X0131900Y0100750D01*
X0131900Y0095750D01*
X0129400Y0093250D01*
X0124400Y0093250D01*
X0121900Y0095750D01*
X0119400Y0093250D01*
X0114400Y0093250D01*
X0111900Y0095750D01*
X0109400Y0093250D01*
X0104400Y0093250D01*
X0101900Y0095750D01*
X0099400Y0093250D01*
X0094400Y0093250D01*
X0091900Y0095750D01*
X0089400Y0093250D01*
X0084400Y0093250D01*
X0081900Y0095750D01*
X0079400Y0093250D01*
X0074400Y0093250D01*
X0071900Y0095750D01*
X0069400Y0093250D01*
X0064400Y0093250D01*
X0061900Y0095750D01*
X0059400Y0093250D01*
X0031900Y0078250D02*
X0022018Y0078250D01*
X0016900Y0074313D02*
X0016900Y0062187D01*
X0011400Y0060750D02*
X0011400Y0055750D01*
X0008900Y0053250D01*
X0003900Y0053250D01*
X0001400Y0055750D01*
X0001400Y0060750D01*
X0003900Y0063250D01*
X0008900Y0063250D01*
X0011400Y0060750D01*
X0008900Y0063250D02*
X0011400Y0065750D01*
X0011400Y0070750D01*
X0008900Y0073250D01*
X0003900Y0073250D01*
X0001400Y0075750D01*
X0001400Y0080750D01*
X0003900Y0083250D01*
X0008900Y0083250D01*
X0011400Y0080750D01*
X0011400Y0075750D01*
X0008900Y0073250D01*
X0003900Y0073250D02*
X0001400Y0070750D01*
X0001400Y0065750D01*
X0003900Y0063250D01*
X0003900Y0053250D02*
X0001400Y0050750D01*
X0001400Y0045750D01*
X0003900Y0043250D01*
X0008900Y0043250D01*
X0011400Y0045750D01*
X0011400Y0050750D01*
X0008900Y0053250D01*
X0022018Y0058250D02*
X0031782Y0058250D01*
X0036900Y0062187D02*
X0036900Y0074313D01*
X0021900Y0068250D02*
X0021902Y0068391D01*
X0021908Y0068532D01*
X0021918Y0068672D01*
X0021932Y0068812D01*
X0021950Y0068952D01*
X0021971Y0069091D01*
X0021997Y0069230D01*
X0022026Y0069368D01*
X0022060Y0069504D01*
X0022097Y0069640D01*
X0022138Y0069775D01*
X0022183Y0069909D01*
X0022232Y0070041D01*
X0022284Y0070172D01*
X0022340Y0070301D01*
X0022400Y0070428D01*
X0022463Y0070554D01*
X0022529Y0070678D01*
X0022600Y0070801D01*
X0022673Y0070921D01*
X0022750Y0071039D01*
X0022830Y0071155D01*
X0022914Y0071268D01*
X0023000Y0071379D01*
X0023090Y0071488D01*
X0023183Y0071594D01*
X0023278Y0071697D01*
X0023377Y0071798D01*
X0023478Y0071896D01*
X0023582Y0071991D01*
X0023689Y0072083D01*
X0023798Y0072172D01*
X0023910Y0072257D01*
X0024024Y0072340D01*
X0024140Y0072420D01*
X0024259Y0072496D01*
X0024380Y0072568D01*
X0024502Y0072638D01*
X0024627Y0072703D01*
X0024753Y0072766D01*
X0024881Y0072824D01*
X0025011Y0072879D01*
X0025142Y0072931D01*
X0025275Y0072978D01*
X0025409Y0073022D01*
X0025544Y0073063D01*
X0025680Y0073099D01*
X0025817Y0073131D01*
X0025955Y0073160D01*
X0026093Y0073185D01*
X0026233Y0073205D01*
X0026373Y0073222D01*
X0026513Y0073235D01*
X0026654Y0073244D01*
X0026794Y0073249D01*
X0026935Y0073250D01*
X0027076Y0073247D01*
X0027217Y0073240D01*
X0027357Y0073229D01*
X0027497Y0073214D01*
X0027637Y0073195D01*
X0027776Y0073173D01*
X0027914Y0073146D01*
X0028052Y0073116D01*
X0028188Y0073081D01*
X0028324Y0073043D01*
X0028458Y0073001D01*
X0028592Y0072955D01*
X0028724Y0072906D01*
X0028854Y0072852D01*
X0028983Y0072795D01*
X0029110Y0072735D01*
X0029236Y0072671D01*
X0029359Y0072603D01*
X0029481Y0072532D01*
X0029601Y0072458D01*
X0029718Y0072380D01*
X0029833Y0072299D01*
X0029946Y0072215D01*
X0030057Y0072128D01*
X0030165Y0072037D01*
X0030270Y0071944D01*
X0030373Y0071847D01*
X0030473Y0071748D01*
X0030570Y0071646D01*
X0030664Y0071541D01*
X0030755Y0071434D01*
X0030843Y0071324D01*
X0030928Y0071212D01*
X0031010Y0071097D01*
X0031089Y0070980D01*
X0031164Y0070861D01*
X0031236Y0070740D01*
X0031304Y0070617D01*
X0031369Y0070492D01*
X0031431Y0070365D01*
X0031488Y0070236D01*
X0031543Y0070106D01*
X0031593Y0069975D01*
X0031640Y0069842D01*
X0031683Y0069708D01*
X0031722Y0069572D01*
X0031757Y0069436D01*
X0031789Y0069299D01*
X0031816Y0069161D01*
X0031840Y0069022D01*
X0031860Y0068882D01*
X0031876Y0068742D01*
X0031888Y0068602D01*
X0031896Y0068461D01*
X0031900Y0068320D01*
X0031900Y0068180D01*
X0031896Y0068039D01*
X0031888Y0067898D01*
X0031876Y0067758D01*
X0031860Y0067618D01*
X0031840Y0067478D01*
X0031816Y0067339D01*
X0031789Y0067201D01*
X0031757Y0067064D01*
X0031722Y0066928D01*
X0031683Y0066792D01*
X0031640Y0066658D01*
X0031593Y0066525D01*
X0031543Y0066394D01*
X0031488Y0066264D01*
X0031431Y0066135D01*
X0031369Y0066008D01*
X0031304Y0065883D01*
X0031236Y0065760D01*
X0031164Y0065639D01*
X0031089Y0065520D01*
X0031010Y0065403D01*
X0030928Y0065288D01*
X0030843Y0065176D01*
X0030755Y0065066D01*
X0030664Y0064959D01*
X0030570Y0064854D01*
X0030473Y0064752D01*
X0030373Y0064653D01*
X0030270Y0064556D01*
X0030165Y0064463D01*
X0030057Y0064372D01*
X0029946Y0064285D01*
X0029833Y0064201D01*
X0029718Y0064120D01*
X0029601Y0064042D01*
X0029481Y0063968D01*
X0029359Y0063897D01*
X0029236Y0063829D01*
X0029110Y0063765D01*
X0028983Y0063705D01*
X0028854Y0063648D01*
X0028724Y0063594D01*
X0028592Y0063545D01*
X0028458Y0063499D01*
X0028324Y0063457D01*
X0028188Y0063419D01*
X0028052Y0063384D01*
X0027914Y0063354D01*
X0027776Y0063327D01*
X0027637Y0063305D01*
X0027497Y0063286D01*
X0027357Y0063271D01*
X0027217Y0063260D01*
X0027076Y0063253D01*
X0026935Y0063250D01*
X0026794Y0063251D01*
X0026654Y0063256D01*
X0026513Y0063265D01*
X0026373Y0063278D01*
X0026233Y0063295D01*
X0026093Y0063315D01*
X0025955Y0063340D01*
X0025817Y0063369D01*
X0025680Y0063401D01*
X0025544Y0063437D01*
X0025409Y0063478D01*
X0025275Y0063522D01*
X0025142Y0063569D01*
X0025011Y0063621D01*
X0024881Y0063676D01*
X0024753Y0063734D01*
X0024627Y0063797D01*
X0024502Y0063862D01*
X0024380Y0063932D01*
X0024259Y0064004D01*
X0024140Y0064080D01*
X0024024Y0064160D01*
X0023910Y0064243D01*
X0023798Y0064328D01*
X0023689Y0064417D01*
X0023582Y0064509D01*
X0023478Y0064604D01*
X0023377Y0064702D01*
X0023278Y0064803D01*
X0023183Y0064906D01*
X0023090Y0065012D01*
X0023000Y0065121D01*
X0022914Y0065232D01*
X0022830Y0065345D01*
X0022750Y0065461D01*
X0022673Y0065579D01*
X0022600Y0065699D01*
X0022529Y0065822D01*
X0022463Y0065946D01*
X0022400Y0066072D01*
X0022340Y0066199D01*
X0022284Y0066328D01*
X0022232Y0066459D01*
X0022183Y0066591D01*
X0022138Y0066725D01*
X0022097Y0066860D01*
X0022060Y0066996D01*
X0022026Y0067132D01*
X0021997Y0067270D01*
X0021971Y0067409D01*
X0021950Y0067548D01*
X0021932Y0067688D01*
X0021918Y0067828D01*
X0021908Y0067968D01*
X0021902Y0068109D01*
X0021900Y0068250D01*
X0008900Y0083250D02*
X0011400Y0085750D01*
X0011400Y0090750D01*
X0008900Y0093250D01*
X0003900Y0093250D01*
X0001400Y0095750D01*
X0001400Y0100750D01*
X0003900Y0103250D01*
X0008900Y0103250D01*
X0011400Y0100750D01*
X0011400Y0095750D01*
X0008900Y0093250D01*
X0003900Y0093250D02*
X0001400Y0090750D01*
X0001400Y0085750D01*
X0003900Y0083250D01*
X0014400Y0043250D02*
X0029400Y0043250D01*
X0031900Y0040750D01*
X0031900Y0035750D01*
X0029400Y0033250D01*
X0014400Y0033250D01*
X0011900Y0035750D01*
X0011900Y0040750D01*
X0014400Y0043250D01*
X0014400Y0033250D02*
X0011900Y0030750D01*
X0011900Y0025750D01*
X0014400Y0023250D01*
X0029400Y0023250D01*
X0031900Y0025750D01*
X0031900Y0030750D01*
X0029400Y0033250D01*
X0011900Y0030750D02*
X0011900Y0025750D01*
X0009400Y0023250D01*
X0011900Y0020750D01*
X0014400Y0023250D01*
X0011900Y0020750D02*
X0011900Y0015750D01*
X0014400Y0013250D01*
X0029400Y0013250D01*
X0031900Y0015750D01*
X0031900Y0020750D01*
X0029400Y0023250D01*
X0033219Y0020750D02*
X0033219Y0015750D01*
X0034400Y0013250D02*
X0031900Y0010750D01*
X0031900Y0005750D01*
X0034400Y0003250D01*
X0039400Y0003250D01*
X0041900Y0005750D01*
X0044400Y0003250D01*
X0049400Y0003250D01*
X0051900Y0005750D01*
X0054400Y0003250D01*
X0059400Y0003250D01*
X0061900Y0005750D01*
X0064400Y0003250D01*
X0069400Y0003250D01*
X0071900Y0005750D01*
X0074400Y0003250D01*
X0079400Y0003250D01*
X0081900Y0005750D01*
X0084400Y0003250D01*
X0089400Y0003250D01*
X0091900Y0005750D01*
X0094400Y0003250D01*
X0099400Y0003250D01*
X0101900Y0005750D01*
X0104400Y0003250D01*
X0109400Y0003250D01*
X0111900Y0005750D01*
X0114400Y0003250D01*
X0119400Y0003250D01*
X0121900Y0005750D01*
X0124400Y0003250D01*
X0129400Y0003250D01*
X0131900Y0005750D01*
X0131900Y0010750D01*
X0129400Y0013250D01*
X0124400Y0013250D01*
X0121900Y0010750D01*
X0119400Y0013250D01*
X0114400Y0013250D01*
X0111900Y0010750D01*
X0111900Y0005750D01*
X0111900Y0010750D01*
X0109400Y0013250D01*
X0104400Y0013250D01*
X0101900Y0010750D01*
X0099400Y0013250D01*
X0094400Y0013250D01*
X0091900Y0010750D01*
X0089400Y0013250D01*
X0084400Y0013250D01*
X0081900Y0010750D01*
X0079400Y0013250D01*
X0074400Y0013250D01*
X0071900Y0010750D01*
X0069400Y0013250D01*
X0064400Y0013250D01*
X0061900Y0010750D01*
X0059400Y0013250D01*
X0054400Y0013250D01*
X0051900Y0010750D01*
X0049400Y0013250D01*
X0044400Y0013250D01*
X0041900Y0010750D01*
X0039400Y0013250D01*
X0034400Y0013250D01*
X0011900Y0010750D02*
X0011900Y0005750D01*
X0009400Y0003250D01*
X0004400Y0003250D01*
X0001900Y0005750D01*
X0001900Y0010750D01*
X0004400Y0013250D01*
X0001900Y0015750D01*
X0001900Y0020750D01*
X0004400Y0023250D01*
X0001900Y0025750D01*
X0001900Y0030750D01*
X0004400Y0033250D01*
X0009400Y0033250D01*
X0011900Y0030750D01*
X0011900Y0020750D02*
X0011900Y0015750D01*
X0009400Y0013250D01*
X0011900Y0010750D01*
X0104400Y0025750D02*
X0106900Y0023250D01*
X0111900Y0023250D01*
X0114400Y0025750D01*
X0116900Y0023250D01*
X0121900Y0023250D01*
X0124400Y0025750D01*
X0126900Y0023250D01*
X0131900Y0023250D01*
X0134400Y0025750D01*
X0134400Y0030750D01*
X0131900Y0033250D01*
X0126900Y0033250D01*
X0124400Y0030750D01*
X0121900Y0033250D01*
X0116900Y0033250D01*
X0114400Y0030750D01*
X0111900Y0033250D01*
X0106900Y0033250D01*
X0104400Y0030750D01*
X0104400Y0025750D01*
X0164510Y0025470D02*
X0164510Y0026380D01*
X0164510Y0025470D02*
X0184000Y0025470D01*
X0184000Y0025450D01*
X0184200Y0025450D01*
X0184200Y0026450D01*
X0184400Y0032550D02*
X0184400Y0039250D01*
X0184280Y0044880D02*
X0184280Y0045950D01*
X0184080Y0045950D01*
X0184080Y0045960D01*
X0164520Y0045960D01*
X0164520Y0045070D01*
X0164400Y0035750D02*
X0174400Y0045750D01*
X0164400Y0039150D02*
X0164400Y0035750D01*
X0164400Y0032350D01*
X0168750Y0063289D02*
X0177018Y0063289D01*
X0158908Y0066045D02*
X0158908Y0069589D01*
X0137412Y0066006D02*
X0137412Y0062856D01*
X0137412Y0066006D02*
X0135050Y0066006D01*
X0128750Y0066006D02*
X0126388Y0066006D01*
X0126388Y0062856D01*
X0158908Y0086911D02*
X0158908Y0090455D01*
X0168750Y0093211D02*
X0177018Y0093211D01*
D16*
X0152000Y0084637D02*
X0152000Y0083670D01*
X0151516Y0083186D01*
X0150549Y0083186D01*
X0150549Y0084637D01*
X0151033Y0085121D01*
X0151516Y0085121D01*
X0152000Y0084637D01*
X0150549Y0083186D02*
X0149581Y0084154D01*
X0149098Y0085121D01*
X0149581Y0082175D02*
X0149098Y0081691D01*
X0149098Y0080723D01*
X0149581Y0080240D01*
X0151516Y0080240D01*
X0152000Y0080723D01*
X0152000Y0081691D01*
X0151516Y0082175D01*
X0151516Y0079228D02*
X0152000Y0078744D01*
X0152000Y0077293D01*
X0149098Y0077293D01*
X0149098Y0078744D01*
X0149581Y0079228D01*
X0150065Y0079228D01*
X0150549Y0078744D01*
X0150549Y0077293D01*
X0151033Y0076281D02*
X0151516Y0076281D01*
X0152000Y0075798D01*
X0152000Y0074830D01*
X0151516Y0074347D01*
X0151516Y0073335D02*
X0149098Y0073335D01*
X0149581Y0074347D02*
X0150065Y0074347D01*
X0150549Y0074830D01*
X0150549Y0075798D01*
X0151033Y0076281D01*
X0149581Y0076281D02*
X0149098Y0075798D01*
X0149098Y0074830D01*
X0149581Y0074347D01*
X0151516Y0073335D02*
X0152000Y0072851D01*
X0152000Y0071884D01*
X0151516Y0071400D01*
X0149098Y0071400D01*
X0150549Y0078744D02*
X0151033Y0079228D01*
X0151516Y0079228D01*
X0137500Y0084867D02*
X0136533Y0083900D01*
X0134598Y0083900D01*
X0134598Y0085835D02*
X0136533Y0085835D01*
X0137500Y0084867D01*
X0137016Y0086847D02*
X0137500Y0087330D01*
X0137500Y0088298D01*
X0137016Y0088781D01*
X0136533Y0088781D01*
X0136049Y0088298D01*
X0136049Y0087330D01*
X0135565Y0086847D01*
X0135081Y0086847D01*
X0134598Y0087330D01*
X0134598Y0088298D01*
X0135081Y0088781D01*
X0135081Y0089793D02*
X0135565Y0089793D01*
X0136049Y0090277D01*
X0136049Y0091244D01*
X0136533Y0091728D01*
X0137016Y0091728D01*
X0137500Y0091244D01*
X0137500Y0090277D01*
X0137016Y0089793D01*
X0135081Y0089793D02*
X0134598Y0090277D01*
X0134598Y0091244D01*
X0135081Y0091728D01*
X0108409Y0074397D02*
X0105507Y0074397D01*
X0105507Y0073430D02*
X0105507Y0075365D01*
X0105991Y0072418D02*
X0106474Y0072418D01*
X0106958Y0071935D01*
X0106958Y0070967D01*
X0106474Y0070483D01*
X0105991Y0070483D01*
X0105507Y0070967D01*
X0105507Y0071935D01*
X0105991Y0072418D01*
X0106958Y0071935D02*
X0107442Y0072418D01*
X0107926Y0072418D01*
X0108409Y0071935D01*
X0108409Y0070967D01*
X0107926Y0070483D01*
X0107442Y0070483D01*
X0106958Y0070967D01*
X0105507Y0069472D02*
X0107442Y0067537D01*
X0106958Y0068021D02*
X0108409Y0069472D01*
X0108409Y0067537D02*
X0105507Y0067537D01*
X0105991Y0066525D02*
X0105507Y0066041D01*
X0105507Y0065074D01*
X0105991Y0064590D01*
X0105507Y0063579D02*
X0105507Y0061644D01*
X0106958Y0061644D01*
X0106474Y0062611D01*
X0106474Y0063095D01*
X0106958Y0063579D01*
X0107926Y0063579D01*
X0108409Y0063095D01*
X0108409Y0062127D01*
X0107926Y0061644D01*
X0107926Y0060632D02*
X0105991Y0060632D01*
X0107926Y0058697D01*
X0108409Y0059181D01*
X0108409Y0060148D01*
X0107926Y0060632D01*
X0107926Y0058697D02*
X0105991Y0058697D01*
X0105507Y0059181D01*
X0105507Y0060148D01*
X0105991Y0060632D01*
X0108409Y0057686D02*
X0108409Y0055751D01*
X0105507Y0055751D01*
X0105991Y0054739D02*
X0105507Y0054255D01*
X0105507Y0053288D01*
X0105991Y0052804D01*
X0105991Y0051793D02*
X0106474Y0051793D01*
X0106958Y0051309D01*
X0107442Y0051793D01*
X0107926Y0051793D01*
X0108409Y0051309D01*
X0108409Y0050341D01*
X0107926Y0049858D01*
X0108409Y0048846D02*
X0105507Y0048846D01*
X0106474Y0047879D01*
X0105507Y0046911D01*
X0108409Y0046911D01*
X0105507Y0045900D02*
X0105507Y0043965D01*
X0105507Y0044932D02*
X0108409Y0044932D01*
X0107926Y0042953D02*
X0108409Y0042469D01*
X0108409Y0041502D01*
X0107926Y0041018D01*
X0106958Y0041502D02*
X0106958Y0042469D01*
X0107442Y0042953D01*
X0107926Y0042953D01*
X0105991Y0042953D02*
X0105507Y0042469D01*
X0105507Y0041502D01*
X0105991Y0041018D01*
X0106474Y0041018D01*
X0106958Y0041502D01*
X0121657Y0044450D02*
X0121657Y0047352D01*
X0123108Y0047352D01*
X0123592Y0046869D01*
X0123592Y0045901D01*
X0123108Y0045417D01*
X0121657Y0045417D01*
X0122624Y0045417D02*
X0123592Y0044450D01*
X0124603Y0044934D02*
X0124603Y0045901D01*
X0126055Y0045901D01*
X0126538Y0045417D01*
X0126538Y0044934D01*
X0126055Y0044450D01*
X0125087Y0044450D01*
X0124603Y0044934D01*
X0124603Y0045901D02*
X0125571Y0046869D01*
X0126538Y0047352D01*
X0134157Y0047352D02*
X0134157Y0044450D01*
X0134157Y0045417D02*
X0135608Y0045417D01*
X0136092Y0045901D01*
X0136092Y0046869D01*
X0135608Y0047352D01*
X0134157Y0047352D01*
X0137103Y0047352D02*
X0139038Y0047352D01*
X0139038Y0046869D01*
X0137103Y0044934D01*
X0137103Y0044450D01*
X0136092Y0044450D02*
X0135124Y0045417D01*
X0135398Y0032481D02*
X0135398Y0030547D01*
X0136849Y0030547D01*
X0136365Y0031514D01*
X0136365Y0031998D01*
X0136849Y0032481D01*
X0137816Y0032481D01*
X0138300Y0031998D01*
X0138300Y0031030D01*
X0137816Y0030547D01*
X0135398Y0029535D02*
X0135398Y0028567D01*
X0135398Y0029051D02*
X0137816Y0029051D01*
X0138300Y0028567D01*
X0138300Y0028084D01*
X0137816Y0027600D01*
X0144550Y0020052D02*
X0145517Y0020052D01*
X0145034Y0020052D02*
X0145034Y0017150D01*
X0145517Y0017150D02*
X0144550Y0017150D01*
X0146514Y0017634D02*
X0146998Y0017150D01*
X0147966Y0017150D01*
X0148449Y0017634D01*
X0149461Y0017150D02*
X0151396Y0019085D01*
X0151396Y0019569D01*
X0150912Y0020052D01*
X0149945Y0020052D01*
X0149461Y0019569D01*
X0148449Y0019569D02*
X0147966Y0020052D01*
X0146998Y0020052D01*
X0146514Y0019569D01*
X0146514Y0017634D01*
X0149461Y0017150D02*
X0151396Y0017150D01*
X0138950Y0011703D02*
X0136048Y0011703D01*
X0136048Y0013155D01*
X0136531Y0013638D01*
X0137499Y0013638D01*
X0137983Y0013155D01*
X0137983Y0011703D01*
X0138466Y0010692D02*
X0138950Y0010208D01*
X0138950Y0009241D01*
X0138466Y0008757D01*
X0136531Y0008757D01*
X0136048Y0009241D01*
X0136048Y0010208D01*
X0136531Y0010692D01*
X0136048Y0007745D02*
X0138950Y0007745D01*
X0137015Y0006778D02*
X0136048Y0007745D01*
X0137015Y0006778D02*
X0136048Y0005810D01*
X0138950Y0005810D01*
X0165623Y0020999D02*
X0166590Y0021967D01*
X0167558Y0020999D01*
X0167558Y0023902D01*
X0168569Y0023418D02*
X0168569Y0022934D01*
X0169053Y0022450D01*
X0170021Y0022450D01*
X0170504Y0021967D01*
X0170504Y0021483D01*
X0170021Y0020999D01*
X0169053Y0020999D01*
X0168569Y0021483D01*
X0171516Y0020999D02*
X0173451Y0022934D01*
X0173451Y0023418D01*
X0172967Y0023902D01*
X0172000Y0023902D01*
X0171516Y0023418D01*
X0170504Y0023418D02*
X0170021Y0023902D01*
X0169053Y0023902D01*
X0168569Y0023418D01*
X0165623Y0023902D02*
X0165623Y0020999D01*
X0171516Y0020999D02*
X0173451Y0020999D01*
X0174462Y0021483D02*
X0174462Y0021967D01*
X0174946Y0022450D01*
X0175914Y0022450D01*
X0176397Y0021967D01*
X0176397Y0021483D01*
X0175914Y0020999D01*
X0174946Y0020999D01*
X0174462Y0021483D01*
X0174946Y0022450D02*
X0174462Y0022934D01*
X0174462Y0023418D01*
X0174946Y0023902D01*
X0175914Y0023902D01*
X0176397Y0023418D01*
X0176397Y0022934D01*
X0175914Y0022450D01*
X0177409Y0022934D02*
X0178376Y0023902D01*
X0178376Y0020999D01*
X0177409Y0020999D02*
X0179344Y0020999D01*
X0180355Y0020999D02*
X0182290Y0022934D01*
X0182290Y0023418D01*
X0181807Y0023902D01*
X0180839Y0023902D01*
X0180355Y0023418D01*
X0180355Y0020999D02*
X0182290Y0020999D01*
X0185772Y0032509D02*
X0185772Y0033960D01*
X0186256Y0034444D01*
X0188191Y0034444D01*
X0188674Y0033960D01*
X0188674Y0032509D01*
X0185772Y0032509D01*
X0186739Y0035455D02*
X0185772Y0036423D01*
X0188674Y0036423D01*
X0188674Y0037390D02*
X0188674Y0035455D01*
X0125250Y0061634D02*
X0124766Y0061150D01*
X0122831Y0061150D01*
X0122348Y0061634D01*
X0122348Y0062601D01*
X0122831Y0063085D01*
X0124766Y0063085D01*
X0125250Y0062601D01*
X0125250Y0061634D01*
X0124283Y0062117D02*
X0125250Y0063085D01*
X0125250Y0064097D02*
X0125250Y0066031D01*
X0125250Y0065064D02*
X0122348Y0065064D01*
X0123315Y0064097D01*
X0108409Y0064590D02*
X0106474Y0066525D01*
X0105991Y0066525D01*
X0108409Y0066525D02*
X0108409Y0064590D01*
X0108409Y0054739D02*
X0108409Y0052804D01*
X0106474Y0054739D01*
X0105991Y0054739D01*
X0105991Y0051793D02*
X0105507Y0051309D01*
X0105507Y0050341D01*
X0105991Y0049858D01*
X0106958Y0050825D02*
X0106958Y0051309D01*
X0041750Y0060900D02*
X0038848Y0060900D01*
X0038848Y0062351D01*
X0039331Y0062835D01*
X0040299Y0062835D01*
X0040783Y0062351D01*
X0040783Y0060900D01*
X0040783Y0061867D02*
X0041750Y0062835D01*
X0041750Y0063847D02*
X0041750Y0065781D01*
X0041266Y0066793D02*
X0041750Y0067277D01*
X0041750Y0068244D01*
X0041266Y0068728D01*
X0040783Y0068728D01*
X0040299Y0068244D01*
X0040299Y0067277D01*
X0039815Y0066793D01*
X0039331Y0066793D01*
X0038848Y0067277D01*
X0038848Y0068244D01*
X0039331Y0068728D01*
X0038848Y0069740D02*
X0041750Y0069740D01*
X0041750Y0071675D01*
X0040299Y0070707D02*
X0040299Y0069740D01*
X0038848Y0069740D02*
X0038848Y0071675D01*
X0038848Y0072686D02*
X0038848Y0074621D01*
X0038848Y0073654D02*
X0041750Y0073654D01*
X0038848Y0065781D02*
X0038848Y0063847D01*
X0041750Y0063847D01*
X0040299Y0063847D02*
X0040299Y0064814D01*
X0028805Y0047102D02*
X0027353Y0047102D01*
X0027353Y0044200D01*
X0028805Y0044200D01*
X0029288Y0044684D01*
X0029288Y0046619D01*
X0028805Y0047102D01*
X0026342Y0047102D02*
X0026342Y0044200D01*
X0025374Y0045167D01*
X0024407Y0044200D01*
X0024407Y0047102D01*
X0023395Y0046619D02*
X0022912Y0047102D01*
X0021944Y0047102D01*
X0021460Y0046619D01*
X0021460Y0046135D01*
X0021944Y0045651D01*
X0022912Y0045651D01*
X0023395Y0045167D01*
X0023395Y0044684D01*
X0022912Y0044200D01*
X0021944Y0044200D01*
X0021460Y0044684D01*
X0018181Y0045601D02*
X0016247Y0045601D01*
X0017698Y0047052D01*
X0017698Y0044150D01*
X0014751Y0044634D02*
X0014751Y0047052D01*
X0014267Y0047052D02*
X0015235Y0047052D01*
X0014751Y0044634D02*
X0014267Y0044150D01*
X0013784Y0044150D01*
X0013300Y0044634D01*
X0007400Y0037938D02*
X0007400Y0036003D01*
X0007400Y0036971D02*
X0004498Y0036971D01*
X0005465Y0036003D01*
X0004498Y0034992D02*
X0004498Y0034024D01*
X0004498Y0034508D02*
X0006916Y0034508D01*
X0007400Y0034024D01*
X0007400Y0033541D01*
X0006916Y0033057D01*
D17*
X0021900Y0008250D03*
X0094400Y0018250D03*
X0094400Y0030750D03*
D18*
X0180370Y0071317D02*
X0180737Y0070950D01*
X0181471Y0070950D01*
X0181838Y0071317D01*
X0181838Y0073152D01*
X0182580Y0072785D02*
X0182947Y0073152D01*
X0183681Y0073152D01*
X0184048Y0072785D01*
X0183681Y0072051D02*
X0182947Y0072051D01*
X0182580Y0072418D01*
X0182580Y0072785D01*
X0183314Y0073519D02*
X0183314Y0070583D01*
X0182947Y0070950D02*
X0183681Y0070950D01*
X0184048Y0071317D01*
X0184048Y0071684D01*
X0183681Y0072051D01*
X0184790Y0072418D02*
X0185524Y0073152D01*
X0185524Y0070950D01*
X0184790Y0070950D02*
X0186258Y0070950D01*
X0182947Y0070950D02*
X0182580Y0071317D01*
X0180370Y0071317D02*
X0180370Y0073152D01*
D19*
X0180414Y0076700D02*
X0180414Y0078201D01*
X0180164Y0078201D02*
X0180664Y0078201D01*
X0181146Y0078201D02*
X0182147Y0076700D01*
X0182147Y0078201D01*
X0182619Y0078201D02*
X0183120Y0078201D01*
X0182870Y0078201D02*
X0182870Y0076700D01*
X0183120Y0076700D02*
X0182619Y0076700D01*
X0183602Y0076700D02*
X0183602Y0078201D01*
X0184352Y0078201D01*
X0184602Y0077951D01*
X0184602Y0077701D01*
X0184352Y0077451D01*
X0183602Y0077451D01*
X0184352Y0077451D02*
X0184602Y0077200D01*
X0184602Y0076950D01*
X0184352Y0076700D01*
X0183602Y0076700D01*
X0185075Y0077451D02*
X0186076Y0077451D01*
X0186548Y0077451D02*
X0187048Y0077701D01*
X0187299Y0077701D01*
X0187549Y0077451D01*
X0187549Y0076950D01*
X0187299Y0076700D01*
X0186798Y0076700D01*
X0186548Y0076950D01*
X0186548Y0077451D02*
X0186548Y0078201D01*
X0187549Y0078201D01*
X0188021Y0078201D02*
X0188772Y0078201D01*
X0189022Y0077951D01*
X0189022Y0077451D01*
X0188772Y0077200D01*
X0188021Y0077200D01*
X0188021Y0076700D02*
X0188021Y0078201D01*
X0189495Y0078201D02*
X0189995Y0078201D01*
X0189745Y0078201D02*
X0189745Y0076700D01*
X0189495Y0076700D02*
X0189995Y0076700D01*
X0190477Y0076700D02*
X0190477Y0078201D01*
X0191478Y0076700D01*
X0191478Y0078201D01*
X0181146Y0078201D02*
X0181146Y0076700D01*
X0180664Y0076700D02*
X0180164Y0076700D01*
X0179691Y0076700D02*
X0179691Y0078201D01*
X0179191Y0077701D01*
X0178691Y0078201D01*
X0178691Y0076700D01*
X0178218Y0077451D02*
X0177217Y0077451D01*
X0176745Y0077701D02*
X0176495Y0077451D01*
X0175744Y0077451D01*
X0175272Y0077200D02*
X0175272Y0076950D01*
X0175022Y0076700D01*
X0174521Y0076700D01*
X0174271Y0076950D01*
X0173798Y0076950D02*
X0173798Y0078201D01*
X0174271Y0077951D02*
X0174271Y0077701D01*
X0174521Y0077451D01*
X0175022Y0077451D01*
X0175272Y0077200D01*
X0175744Y0076700D02*
X0175744Y0078201D01*
X0176495Y0078201D01*
X0176745Y0077951D01*
X0176745Y0077701D01*
X0176495Y0077451D02*
X0176745Y0077200D01*
X0176745Y0076950D01*
X0176495Y0076700D01*
X0175744Y0076700D01*
X0175272Y0077951D02*
X0175022Y0078201D01*
X0174521Y0078201D01*
X0174271Y0077951D01*
X0173798Y0076950D02*
X0173548Y0076700D01*
X0173048Y0076700D01*
X0172798Y0076950D01*
X0172798Y0078201D01*
D20*
X0064853Y0072049D02*
X0064853Y0059451D01*
X0058947Y0059451D01*
X0058947Y0072049D01*
X0064853Y0072049D01*
M02*
