  0
SECTION
  2
HEADER
  9
$ACADVER
  1
AC1009
  9
$FILLMODE
 70
1
  9
$EXTMIN
 10
-8.3820
 20
-8.2550
 30
0.0000
  9
$EXTMAX
 10
50.3467
 20
33.6550
 30
0.0000
  0
ENDSEC
  0
SECTION
  2
TABLES
  0
TABLE
  2
LTYPE
 70
1
  0
LTYPE
  2
CONTINUOUS
 70
64
  3
Solid line
 72
65
 73
0
 40
0
  0
ENDTAB
  0
TABLE
  2
LAYER
 70
255
  0
LAYER
  2
31
 70
64
 62
253
  6
CONTINUOUS
  0
ENDTAB
  0
ENDSEC
  0
SECTION
  2
BLOCKS
  0
BLOCK
  8
0
  2
RECT
 70
64
 10
0.0000
 20
0.0000
 30
0.0000
  3
RECT
  0
SOLID
  8
0
 10
-0.5000
 20
-0.5000
 30
0.0000
 11
0.5000
 21
-0.5000
 31
0.0000
 12
-0.5000
 22
0.5000
 32
0.0000
 13
0.5000
 23
0.5000
 33
0.0000
  0
ENDBLK
  8
0
  0
BLOCK
  8
0
  2
PIE
 70
64
 10
0.0000
 20
0.0000
 30
0.0000
  3
PIE
  0
POLYLINE
  8
0
 66
1
 10
0.0000
 20
0.0000
 30
0.0000
 40
0.5000
 41
0.5000
 70
0
  0
VERTEX
  8
0
 10
0.0000
 20
-0.2500
 30
0.0000
 42
1.0000
  0
VERTEX
  8
0
 10
0.0000
 20
0.2500
 30
0.0000
 42
1.0000
  0
VERTEX
  8
0
 10
0.0000
 20
-0.2500
 30
0.0000
  0
SEQEND
  8
0
  0
ENDBLK
  8
0
  0
BLOCK
  8
0
  2
OCTAGONP
 70
64
 10
0.0000
 20
0.0000
 30
0.0000
  3
OCTAGONP
  0
POLYLINE
  8
0
 66
1
 10
0.0000
 20
0.0000
 30
0.0000
 40
0.5000
 41
0.5000
 70
0
  0
VERTEX
  8
0
 10
-0.2500
 20
-0.1036
 30
0.0000
  0
VERTEX
  8
0
 10
-0.2500
 20
0.1036
 30
0.0000
  0
VERTEX
  8
0
 10
-0.1036
 20
0.2500
 30
0.0000
  0
VERTEX
  8
0
 10
0.1036
 20
0.2500
 30
0.0000
  0
VERTEX
  8
0
 10
0.2500
 20
0.1036
 30
0.0000
  0
VERTEX
  8
0
 10
0.2500
 20
-0.1036
 30
0.0000
  0
VERTEX
  8
0
 10
0.1036
 20
-0.2500
 30
0.0000
  0
VERTEX
  8
0
 10
-0.1036
 20
-0.2500
 30
0.0000
  0
VERTEX
  8
0
 10
-0.2500
 20
-0.1036
 30
0.0000
  0
VERTEX
  8
0
 10
-0.2500
 20
0.1036
 30
0.0000
  0
SEQEND
  8
0
  0
ENDBLK
  8
0
  0
BLOCK
  8
0
  2
SQUAREP
 70
64
 10
0.0000
 20
0.0000
 30
0.0000
  3
SQUAREP
  0
SOLID
  8
0
 10
-0.5000
 20
-0.5000
 30
0.0000
 11
0.5000
 21
-0.5000
 31
0.0000
 12
-0.5000
 22
0.5000
 32
0.0000
 13
0.5000
 23
0.5000
 33
0.0000
  0
ENDBLK
  8
0
  0
BLOCK
  8
0
  2
ROUNDP
 70
64
 10
0.0000
 20
0.0000
 30
0.0000
  3
ROUNDP
  0
POLYLINE
  8
0
 66
1
 10
0.0000
 20
0.0000
 30
0.0000
 40
0.5000
 41
0.5000
 70
0
  0
VERTEX
  8
0
 10
0.0000
 20
-0.2500
 30
0.0000
 42
1.0000
  0
VERTEX
  8
0
 10
0.0000
 20
0.2500
 30
0.0000
 42
1.0000
  0
VERTEX
  8
0
 10
0.0000
 20
-0.2500
 30
0.0000
  0
SEQEND
  8
0
  0
ENDBLK
  8
0
  0
BLOCK
  8
0
  2
ANNULUSP
 70
64
 10
0.0000
 20
0.0000
 30
0.0000
  3
ANNULUSP
  0
POLYLINE
  8
0
 66
1
 10
0.0000
 20
0.0000
 30
0.0000
 40
0.5000
 41
0.5000
 70
0
  0
VERTEX
  8
0
 10
0.0000
 20
-0.2500
 30
0.0000
 42
1.0000
  0
VERTEX
  8
0
 10
0.0000
 20
0.2500
 30
0.0000
 42
1.0000
  0
VERTEX
  8
0
 10
0.0000
 20
-0.2500
 30
0.0000
  0
SEQEND
  8
0
  0
ENDBLK
  8
0
  0
BLOCK
  8
0
  2
THERMALP
 70
64
 10
0.0000
 20
0.0000
 30
0.0000
  3
THERMALP
  0
POLYLINE
  8
0
 66
1
 10
0.0000
 20
0.0000
 30
0.0000
 40
0.1000
 41
0.1000
 70
0
  0
VERTEX
  8
0
 10
-0.2379
 20
0.4500
 30
0.0000
  0
VERTEX
  8
0
 10
0.2379
 20
0.4500
 30
0.0000
  0
SEQEND
  8
0
  0
POLYLINE
  8
0
 66
1
 10
0.0000
 20
0.0000
 30
0.0000
 40
0.0500
 41
0.0500
 70
0
  0
VERTEX
  8
0
 10
0.2379
 20
0.4250
 30
0.0000
 42
1.0000
  0
VERTEX
  8
0
 10
0.2379
 20
0.4750
 30
0.0000
  0
SEQEND
  8
0
  0
POLYLINE
  8
0
 66
1
 10
0.0000
 20
0.0000
 30
0.0000
 40
0.0500
 41
0.0500
 70
0
  0
VERTEX
  8
0
 10
-0.2379
 20
0.4750
 30
0.0000
 42
1.0000
  0
VERTEX
  8
0
 10
-0.2379
 20
0.4250
 30
0.0000
  0
SEQEND
  8
0
  0
POLYLINE
  8
0
 66
1
 10
0.0000
 20
0.0000
 30
0.0000
 40
0.1000
 41
0.1000
 70
0
  0
VERTEX
  8
0
 10
0.4500
 20
0.2379
 30
0.0000
  0
VERTEX
  8
0
 10
0.4500
 20
-0.2379
 30
0.0000
  0
SEQEND
  8
0
  0
POLYLINE
  8
0
 66
1
 10
0.0000
 20
0.0000
 30
0.0000
 40
0.0500
 41
0.0500
 70
0
  0
VERTEX
  8
0
 10
0.4250
 20
-0.2379
 30
0.0000
 42
1.0000
  0
VERTEX
  8
0
 10
0.4750
 20
-0.2379
 30
0.0000
  0
SEQEND
  8
0
  0
POLYLINE
  8
0
 66
1
 10
0.0000
 20
0.0000
 30
0.0000
 40
0.0500
 41
0.0500
 70
0
  0
VERTEX
  8
0
 10
0.4750
 20
0.2379
 30
0.0000
 42
1.0000
  0
VERTEX
  8
0
 10
0.4250
 20
0.2379
 30
0.0000
  0
SEQEND
  8
0
  0
POLYLINE
  8
0
 66
1
 10
0.0000
 20
0.0000
 30
0.0000
 40
0.1000
 41
0.1000
 70
0
  0
VERTEX
  8
0
 10
0.2379
 20
-0.4500
 30
0.0000
  0
VERTEX
  8
0
 10
-0.2379
 20
-0.4500
 30
0.0000
  0
SEQEND
  8
0
  0
POLYLINE
  8
0
 66
1
 10
0.0000
 20
0.0000
 30
0.0000
 40
0.0500
 41
0.0500
 70
0
  0
VERTEX
  8
0
 10
-0.2379
 20
-0.4250
 30
0.0000
 42
1.0000
  0
VERTEX
  8
0
 10
-0.2379
 20
-0.4750
 30
0.0000
  0
SEQEND
  8
0
  0
POLYLINE
  8
0
 66
1
 10
0.0000
 20
0.0000
 30
0.0000
 40
0.0500
 41
0.0500
 70
0
  0
VERTEX
  8
0
 10
0.2379
 20
-0.4750
 30
0.0000
 42
1.0000
  0
VERTEX
  8
0
 10
0.2379
 20
-0.4250
 30
0.0000
  0
SEQEND
  8
0
  0
POLYLINE
  8
0
 66
1
 10
0.0000
 20
0.0000
 30
0.0000
 40
0.1000
 41
0.1000
 70
0
  0
VERTEX
  8
0
 10
-0.4500
 20
-0.2379
 30
0.0000
  0
VERTEX
  8
0
 10
-0.4500
 20
0.2379
 30
0.0000
  0
SEQEND
  8
0
  0
POLYLINE
  8
0
 66
1
 10
0.0000
 20
0.0000
 30
0.0000
 40
0.0500
 41
0.0500
 70
0
  0
VERTEX
  8
0
 10
-0.4250
 20
0.2379
 30
0.0000
 42
1.0000
  0
VERTEX
  8
0
 10
-0.4750
 20
0.2379
 30
0.0000
  0
SEQEND
  8
0
  0
POLYLINE
  8
0
 66
1
 10
0.0000
 20
0.0000
 30
0.0000
 40
0.0500
 41
0.0500
 70
0
  0
VERTEX
  8
0
 10
-0.4750
 20
-0.2379
 30
0.0000
 42
1.0000
  0
VERTEX
  8
0
 10
-0.4250
 20
-0.2379
 30
0.0000
  0
SEQEND
  8
0
  0
ENDBLK
  8
0
  0
BLOCK
  8
0
  2
OCTAGONV
 70
64
 10
0.0000
 20
0.0000
 30
0.0000
  3
OCTAGONV
  0
POLYLINE
  8
0
 66
1
 10
0.0000
 20
0.0000
 30
0.0000
 40
0.5000
 41
0.5000
 70
0
  0
VERTEX
  8
0
 10
-0.2500
 20
-0.1036
 30
0.0000
  0
VERTEX
  8
0
 10
-0.2500
 20
0.1036
 30
0.0000
  0
VERTEX
  8
0
 10
-0.1036
 20
0.2500
 30
0.0000
  0
VERTEX
  8
0
 10
0.1036
 20
0.2500
 30
0.0000
  0
VERTEX
  8
0
 10
0.2500
 20
0.1036
 30
0.0000
  0
VERTEX
  8
0
 10
0.2500
 20
-0.1036
 30
0.0000
  0
VERTEX
  8
0
 10
0.1036
 20
-0.2500
 30
0.0000
  0
VERTEX
  8
0
 10
-0.1036
 20
-0.2500
 30
0.0000
  0
VERTEX
  8
0
 10
-0.2500
 20
-0.1036
 30
0.0000
  0
VERTEX
  8
0
 10
-0.2500
 20
0.1036
 30
0.0000
  0
SEQEND
  8
0
  0
ENDBLK
  8
0
  0
BLOCK
  8
0
  2
SQUAREV
 70
64
 10
0.0000
 20
0.0000
 30
0.0000
  3
SQUAREV
  0
SOLID
  8
0
 10
-0.5000
 20
-0.5000
 30
0.0000
 11
0.5000
 21
-0.5000
 31
0.0000
 12
-0.5000
 22
0.5000
 32
0.0000
 13
0.5000
 23
0.5000
 33
0.0000
  0
ENDBLK
  8
0
  0
BLOCK
  8
0
  2
ROUNDV
 70
64
 10
0.0000
 20
0.0000
 30
0.0000
  3
ROUNDV
  0
POLYLINE
  8
0
 66
1
 10
0.0000
 20
0.0000
 30
0.0000
 40
0.5000
 41
0.5000
 70
0
  0
VERTEX
  8
0
 10
0.0000
 20
-0.2500
 30
0.0000
 42
1.0000
  0
VERTEX
  8
0
 10
0.0000
 20
0.2500
 30
0.0000
 42
1.0000
  0
VERTEX
  8
0
 10
0.0000
 20
-0.2500
 30
0.0000
  0
SEQEND
  8
0
  0
ENDBLK
  8
0
  0
BLOCK
  8
0
  2
ANNULUSV
 70
64
 10
0.0000
 20
0.0000
 30
0.0000
  3
ANNULUSV
  0
POLYLINE
  8
0
 66
1
 10
0.0000
 20
0.0000
 30
0.0000
 40
0.5000
 41
0.5000
 70
0
  0
VERTEX
  8
0
 10
0.0000
 20
-0.2500
 30
0.0000
 42
1.0000
  0
VERTEX
  8
0
 10
0.0000
 20
0.2500
 30
0.0000
 42
1.0000
  0
VERTEX
  8
0
 10
0.0000
 20
-0.2500
 30
0.0000
  0
SEQEND
  8
0
  0
ENDBLK
  8
0
  0
BLOCK
  8
0
  2
THERMALV
 70
64
 10
0.0000
 20
0.0000
 30
0.0000
  3
THERMALV
  0
POLYLINE
  8
0
 66
1
 10
0.0000
 20
0.0000
 30
0.0000
 40
0.1000
 41
0.1000
 70
0
  0
VERTEX
  8
0
 10
-0.2379
 20
0.4500
 30
0.0000
  0
VERTEX
  8
0
 10
0.2379
 20
0.4500
 30
0.0000
  0
SEQEND
  8
0
  0
POLYLINE
  8
0
 66
1
 10
0.0000
 20
0.0000
 30
0.0000
 40
0.0500
 41
0.0500
 70
0
  0
VERTEX
  8
0
 10
0.2379
 20
0.4250
 30
0.0000
 42
1.0000
  0
VERTEX
  8
0
 10
0.2379
 20
0.4750
 30
0.0000
  0
SEQEND
  8
0
  0
POLYLINE
  8
0
 66
1
 10
0.0000
 20
0.0000
 30
0.0000
 40
0.0500
 41
0.0500
 70
0
  0
VERTEX
  8
0
 10
-0.2379
 20
0.4750
 30
0.0000
 42
1.0000
  0
VERTEX
  8
0
 10
-0.2379
 20
0.4250
 30
0.0000
  0
SEQEND
  8
0
  0
POLYLINE
  8
0
 66
1
 10
0.0000
 20
0.0000
 30
0.0000
 40
0.1000
 41
0.1000
 70
0
  0
VERTEX
  8
0
 10
0.4500
 20
0.2379
 30
0.0000
  0
VERTEX
  8
0
 10
0.4500
 20
-0.2379
 30
0.0000
  0
SEQEND
  8
0
  0
POLYLINE
  8
0
 66
1
 10
0.0000
 20
0.0000
 30
0.0000
 40
0.0500
 41
0.0500
 70
0
  0
VERTEX
  8
0
 10
0.4250
 20
-0.2379
 30
0.0000
 42
1.0000
  0
VERTEX
  8
0
 10
0.4750
 20
-0.2379
 30
0.0000
  0
SEQEND
  8
0
  0
POLYLINE
  8
0
 66
1
 10
0.0000
 20
0.0000
 30
0.0000
 40
0.0500
 41
0.0500
 70
0
  0
VERTEX
  8
0
 10
0.4750
 20
0.2379
 30
0.0000
 42
1.0000
  0
VERTEX
  8
0
 10
0.4250
 20
0.2379
 30
0.0000
  0
SEQEND
  8
0
  0
POLYLINE
  8
0
 66
1
 10
0.0000
 20
0.0000
 30
0.0000
 40
0.1000
 41
0.1000
 70
0
  0
VERTEX
  8
0
 10
0.2379
 20
-0.4500
 30
0.0000
  0
VERTEX
  8
0
 10
-0.2379
 20
-0.4500
 30
0.0000
  0
SEQEND
  8
0
  0
POLYLINE
  8
0
 66
1
 10
0.0000
 20
0.0000
 30
0.0000
 40
0.0500
 41
0.0500
 70
0
  0
VERTEX
  8
0
 10
-0.2379
 20
-0.4250
 30
0.0000
 42
1.0000
  0
VERTEX
  8
0
 10
-0.2379
 20
-0.4750
 30
0.0000
  0
SEQEND
  8
0
  0
POLYLINE
  8
0
 66
1
 10
0.0000
 20
0.0000
 30
0.0000
 40
0.0500
 41
0.0500
 70
0
  0
VERTEX
  8
0
 10
0.2379
 20
-0.4750
 30
0.0000
 42
1.0000
  0
VERTEX
  8
0
 10
0.2379
 20
-0.4250
 30
0.0000
  0
SEQEND
  8
0
  0
POLYLINE
  8
0
 66
1
 10
0.0000
 20
0.0000
 30
0.0000
 40
0.1000
 41
0.1000
 70
0
  0
VERTEX
  8
0
 10
-0.4500
 20
-0.2379
 30
0.0000
  0
VERTEX
  8
0
 10
-0.4500
 20
0.2379
 30
0.0000
  0
SEQEND
  8
0
  0
POLYLINE
  8
0
 66
1
 10
0.0000
 20
0.0000
 30
0.0000
 40
0.0500
 41
0.0500
 70
0
  0
VERTEX
  8
0
 10
-0.4250
 20
0.2379
 30
0.0000
 42
1.0000
  0
VERTEX
  8
0
 10
-0.4750
 20
0.2379
 30
0.0000
  0
SEQEND
  8
0
  0
POLYLINE
  8
0
 66
1
 10
0.0000
 20
0.0000
 30
0.0000
 40
0.0500
 41
0.0500
 70
0
  0
VERTEX
  8
0
 10
-0.4750
 20
-0.2379
 30
0.0000
 42
1.0000
  0
VERTEX
  8
0
 10
-0.4250
 20
-0.2379
 30
0.0000
  0
SEQEND
  8
0
  0
ENDBLK
  8
0
  0
ENDSEC
  0
SECTION
  2
ENTITIES
  0
INSERT
  8
31
  2
RECT
 10
13.7550
 20
20.3200
 30
0.0000
 41
0.9476
 42
0.8476
 43
1.0000
 50
0.0000
  0
INSERT
  8
31
  2
RECT
 10
15.4550
 20
20.3200
 30
0.0000
 41
0.9476
 42
0.8476
 43
1.0000
 50
0.0000
  0
INSERT
  8
31
  2
RECT
 10
27.9400
 20
9.3100
 30
0.0000
 41
0.9476
 42
0.8476
 43
1.0000
 50
90.0000
  0
INSERT
  8
31
  2
RECT
 10
27.9400
 20
11.0100
 30
0.0000
 41
0.9476
 42
0.8476
 43
1.0000
 50
90.0000
  0
INSERT
  8
31
  2
RECT
 10
44.4500
 20
3.3900
 30
0.0000
 41
0.9476
 42
0.8476
 43
1.0000
 50
270.0000
  0
INSERT
  8
31
  2
RECT
 10
44.4500
 20
1.6900
 30
0.0000
 41
0.9476
 42
0.8476
 43
1.0000
 50
270.0000
  0
INSERT
  8
31
  2
RECT
 10
12.9150
 20
10.1600
 30
0.0000
 41
0.9476
 42
0.8476
 43
1.0000
 50
180.0000
  0
INSERT
  8
31
  2
RECT
 10
11.2150
 20
10.1600
 30
0.0000
 41
0.9476
 42
0.8476
 43
1.0000
 50
180.0000
  0
INSERT
  8
31
  2
RECT
 10
12.9150
 20
7.6200
 30
0.0000
 41
0.9476
 42
0.8476
 43
1.0000
 50
180.0000
  0
INSERT
  8
31
  2
RECT
 10
11.2150
 20
7.6200
 30
0.0000
 41
0.9476
 42
0.8476
 43
1.0000
 50
180.0000
  0
INSERT
  8
31
  2
RECT
 10
11.2150
 20
14.6050
 30
0.0000
 41
0.9476
 42
0.8476
 43
1.0000
 50
0.0000
  0
INSERT
  8
31
  2
RECT
 10
12.9150
 20
14.6050
 30
0.0000
 41
0.9476
 42
0.8476
 43
1.0000
 50
0.0000
  0
INSERT
  8
31
  2
RECT
 10
11.2150
 20
17.1450
 30
0.0000
 41
0.9476
 42
0.8476
 43
1.0000
 50
0.0000
  0
INSERT
  8
31
  2
RECT
 10
12.9150
 20
17.1450
 30
0.0000
 41
0.9476
 42
0.8476
 43
1.0000
 50
0.0000
  0
INSERT
  8
31
  2
RECT
 10
47.6250
 20
1.6900
 30
0.0000
 41
0.9476
 42
0.8476
 43
1.0000
 50
90.0000
  0
INSERT
  8
31
  2
RECT
 10
47.6250
 20
3.3900
 30
0.0000
 41
0.9476
 42
0.8476
 43
1.0000
 50
90.0000
  0
INSERT
  8
31
  2
RECT
 10
37.6800
 20
5.7150
 30
0.0000
 41
0.9476
 42
0.8476
 43
1.0000
 50
180.0000
  0
INSERT
  8
31
  2
RECT
 10
35.9800
 20
5.7150
 30
0.0000
 41
0.9476
 42
0.8476
 43
1.0000
 50
180.0000
  0
INSERT
  8
31
  2
RECT
 10
41.2750
 20
3.3900
 30
0.0000
 41
0.9476
 42
0.8476
 43
1.0000
 50
270.0000
  0
INSERT
  8
31
  2
RECT
 10
41.2750
 20
1.6900
 30
0.0000
 41
0.9476
 42
0.8476
 43
1.0000
 50
270.0000
  0
INSERT
  8
31
  2
RECT
 10
46.3920
 20
6.6550
 30
0.0000
 41
1.4986
 42
0.8476
 43
1.0000
 50
180.0000
  0
INSERT
  8
31
  2
RECT
 10
46.3920
 20
9.8550
 30
0.0000
 41
1.4986
 42
0.8476
 43
1.0000
 50
180.0000
  0
INSERT
  8
31
  2
RECT
 10
41.2380
 20
9.8550
 30
0.0000
 41
1.4986
 42
0.8476
 43
1.0000
 50
180.0000
  0
INSERT
  8
31
  2
RECT
 10
41.2380
 20
6.6550
 30
0.0000
 41
1.4986
 42
0.8476
 43
1.0000
 50
180.0000
  0
INSERT
  8
31
  2
RECT
 10
17.3150
 20
16.7700
 30
0.0000
 41
0.3876
 42
0.6976
 43
1.0000
 50
270.0000
  0
INSERT
  8
31
  2
RECT
 10
17.3150
 20
15.9700
 30
0.0000
 41
0.3876
 42
0.6976
 43
1.0000
 50
270.0000
  0
INSERT
  8
31
  2
RECT
 10
17.3150
 20
15.1700
 30
0.0000
 41
0.3876
 42
0.6976
 43
1.0000
 50
270.0000
  0
INSERT
  8
31
  2
RECT
 10
17.3150
 20
14.3700
 30
0.0000
 41
0.3876
 42
0.6976
 43
1.0000
 50
270.0000
  0
INSERT
  8
31
  2
RECT
 10
17.3150
 20
13.5700
 30
0.0000
 41
0.3876
 42
0.6976
 43
1.0000
 50
270.0000
  0
INSERT
  8
31
  2
RECT
 10
17.3150
 20
12.7800
 30
0.0000
 41
0.3876
 42
0.6976
 43
1.0000
 50
270.0000
  0
INSERT
  8
31
  2
RECT
 10
17.3150
 20
11.9800
 30
0.0000
 41
0.3876
 42
0.6976
 43
1.0000
 50
270.0000
  0
INSERT
  8
31
  2
RECT
 10
17.3150
 20
11.1800
 30
0.0000
 41
0.3876
 42
0.6976
 43
1.0000
 50
270.0000
  0
INSERT
  8
31
  2
RECT
 10
18.7900
 20
9.6950
 30
0.0000
 41
0.3876
 42
0.6976
 43
1.0000
 50
0.0000
  0
INSERT
  8
31
  2
RECT
 10
19.5900
 20
9.6950
 30
0.0000
 41
0.3876
 42
0.6976
 43
1.0000
 50
0.0000
  0
INSERT
  8
31
  2
RECT
 10
20.3900
 20
9.6950
 30
0.0000
 41
0.3876
 42
0.6976
 43
1.0000
 50
0.0000
  0
INSERT
  8
31
  2
RECT
 10
21.1900
 20
9.6950
 30
0.0000
 41
0.3876
 42
0.6976
 43
1.0000
 50
0.0000
  0
INSERT
  8
31
  2
RECT
 10
21.9900
 20
9.6950
 30
0.0000
 41
0.3876
 42
0.6976
 43
1.0000
 50
0.0000
  0
INSERT
  8
31
  2
RECT
 10
22.7900
 20
9.6950
 30
0.0000
 41
0.3876
 42
0.6976
 43
1.0000
 50
0.0000
  0
INSERT
  8
31
  2
RECT
 10
23.5900
 20
9.6950
 30
0.0000
 41
0.3876
 42
0.6976
 43
1.0000
 50
0.0000
  0
INSERT
  8
31
  2
RECT
 10
24.3900
 20
9.6950
 30
0.0000
 41
0.3876
 42
0.6976
 43
1.0000
 50
0.0000
  0
INSERT
  8
31
  2
RECT
 10
25.8650
 20
11.1700
 30
0.0000
 41
0.3876
 42
0.6976
 43
1.0000
 50
90.0000
  0
INSERT
  8
31
  2
RECT
 10
25.8650
 20
11.9700
 30
0.0000
 41
0.3876
 42
0.6976
 43
1.0000
 50
90.0000
  0
INSERT
  8
31
  2
RECT
 10
25.8650
 20
12.7700
 30
0.0000
 41
0.3876
 42
0.6976
 43
1.0000
 50
90.0000
  0
INSERT
  8
31
  2
RECT
 10
25.8650
 20
13.5700
 30
0.0000
 41
0.3876
 42
0.6976
 43
1.0000
 50
90.0000
  0
INSERT
  8
31
  2
RECT
 10
25.8650
 20
14.3700
 30
0.0000
 41
0.3876
 42
0.6976
 43
1.0000
 50
90.0000
  0
INSERT
  8
31
  2
RECT
 10
25.8650
 20
15.1700
 30
0.0000
 41
0.3876
 42
0.6976
 43
1.0000
 50
90.0000
  0
INSERT
  8
31
  2
RECT
 10
25.8650
 20
15.9700
 30
0.0000
 41
0.3876
 42
0.6976
 43
1.0000
 50
90.0000
  0
INSERT
  8
31
  2
RECT
 10
25.8650
 20
16.7700
 30
0.0000
 41
0.3876
 42
0.6976
 43
1.0000
 50
90.0000
  0
INSERT
  8
31
  2
RECT
 10
24.3900
 20
18.2450
 30
0.0000
 41
0.3876
 42
0.6976
 43
1.0000
 50
180.0000
  0
INSERT
  8
31
  2
RECT
 10
23.5900
 20
18.2450
 30
0.0000
 41
0.3876
 42
0.6976
 43
1.0000
 50
180.0000
  0
INSERT
  8
31
  2
RECT
 10
22.7900
 20
18.2450
 30
0.0000
 41
0.3876
 42
0.6976
 43
1.0000
 50
180.0000
  0
INSERT
  8
31
  2
RECT
 10
21.9900
 20
18.2450
 30
0.0000
 41
0.3876
 42
0.6976
 43
1.0000
 50
180.0000
  0
INSERT
  8
31
  2
RECT
 10
21.1900
 20
18.2450
 30
0.0000
 41
0.3876
 42
0.6976
 43
1.0000
 50
180.0000
  0
INSERT
  8
31
  2
RECT
 10
20.3900
 20
18.2450
 30
0.0000
 41
0.3876
 42
0.6976
 43
1.0000
 50
180.0000
  0
INSERT
  8
31
  2
RECT
 10
19.5900
 20
18.2450
 30
0.0000
 41
0.3876
 42
0.6976
 43
1.0000
 50
180.0000
  0
INSERT
  8
31
  2
RECT
 10
18.7900
 20
18.2450
 30
0.0000
 41
0.3876
 42
0.6976
 43
1.0000
 50
180.0000
  0
INSERT
  8
31
  2
RECT
 10
35.7300
 20
2.8550
 30
0.0000
 41
0.8476
 42
1.2476
 43
1.0000
 50
270.0000
  0
INSERT
  8
31
  2
RECT
 10
35.7300
 20
0.9550
 30
0.0000
 41
0.8476
 42
1.2476
 43
1.0000
 50
270.0000
  0
INSERT
  8
31
  2
RECT
 10
37.9300
 20
1.9050
 30
0.0000
 41
0.8476
 42
1.2476
 43
1.0000
 50
270.0000
  0
INSERT
  8
31
  2
RECT
 10
32.0700
 20
14.2400
 30
0.0000
 41
0.6476
 42
0.7476
 43
1.0000
 50
0.0000
  0
INSERT
  8
31
  2
RECT
 10
33.9700
 20
14.2400
 30
0.0000
 41
0.6476
 42
0.7476
 43
1.0000
 50
0.0000
  0
INSERT
  8
31
  2
RECT
 10
33.0200
 20
16.3400
 30
0.0000
 41
0.6476
 42
0.7476
 43
1.0000
 50
0.0000
  0
INSERT
  8
31
  2
RECT
 10
4.2300
 20
1.2700
 30
0.0000
 41
0.9476
 42
0.8476
 43
1.0000
 50
0.0000
  0
INSERT
  8
31
  2
RECT
 10
5.9300
 20
1.2700
 30
0.0000
 41
0.9476
 42
0.8476
 43
1.0000
 50
0.0000
  0
INSERT
  8
31
  2
RECT
 10
24.3450
 20
3.8100
 30
0.0000
 41
0.9476
 42
0.8476
 43
1.0000
 50
180.0000
  0
INSERT
  8
31
  2
RECT
 10
22.6450
 20
3.8100
 30
0.0000
 41
0.9476
 42
0.8476
 43
1.0000
 50
180.0000
  0
INSERT
  8
31
  2
RECT
 10
22.6450
 20
6.9850
 30
0.0000
 41
0.9476
 42
0.8476
 43
1.0000
 50
0.0000
  0
INSERT
  8
31
  2
RECT
 10
24.3450
 20
6.9850
 30
0.0000
 41
0.9476
 42
0.8476
 43
1.0000
 50
0.0000
  0
INSERT
  8
31
  2
RECT
 10
32.0150
 20
12.0650
 30
0.0000
 41
0.6476
 42
1.0476
 43
1.0000
 50
180.0000
  0
INSERT
  8
31
  2
RECT
 10
30.2150
 20
12.0650
 30
0.0000
 41
0.6476
 42
1.0476
 43
1.0000
 50
180.0000
  0
INSERT
  8
31
  2
RECT
 10
35.1900
 20
12.0650
 30
0.0000
 41
0.6476
 42
1.0476
 43
1.0000
 50
180.0000
  0
INSERT
  8
31
  2
RECT
 10
33.3900
 20
12.0650
 30
0.0000
 41
0.6476
 42
1.0476
 43
1.0000
 50
180.0000
  0
INSERT
  8
31
  2
RECT
 10
8.2550
 20
19.3040
 30
0.0000
 41
0.6096
 42
1.3716
 43
1.0000
 50
0.0000
  0
INSERT
  8
31
  2
RECT
 10
8.2550
 20
13.7160
 30
0.0000
 41
0.6096
 42
1.3716
 43
1.0000
 50
0.0000
  0
INSERT
  8
31
  2
RECT
 10
4.4450
 20
19.3040
 30
0.0000
 41
0.6096
 42
1.3716
 43
1.0000
 50
0.0000
  0
INSERT
  8
31
  2
RECT
 10
4.4450
 20
13.7160
 30
0.0000
 41
0.6096
 42
1.3716
 43
1.0000
 50
0.0000
  0
INSERT
  8
31
  2
RECT
 10
40.6800
 20
19.0500
 30
0.0000
 41
2.3476
 42
0.3476
 43
1.0000
 50
180.0000
  0
INSERT
  8
31
  2
RECT
 10
40.6800
 20
18.2500
 30
0.0000
 41
2.3476
 42
0.3476
 43
1.0000
 50
180.0000
  0
INSERT
  8
31
  2
RECT
 10
40.6800
 20
20.6500
 30
0.0000
 41
2.3476
 42
0.3476
 43
1.0000
 50
180.0000
  0
INSERT
  8
31
  2
RECT
 10
40.6800
 20
19.8500
 30
0.0000
 41
2.3476
 42
0.3476
 43
1.0000
 50
180.0000
  0
INSERT
  8
31
  2
RECT
 10
46.1800
 20
14.5500
 30
0.0000
 41
2.3476
 42
1.8476
 43
1.0000
 50
180.0000
  0
INSERT
  8
31
  2
RECT
 10
40.6800
 20
14.5500
 30
0.0000
 41
2.3476
 42
1.8476
 43
1.0000
 50
180.0000
  0
INSERT
  8
31
  2
RECT
 10
46.1800
 20
23.5500
 30
0.0000
 41
2.3476
 42
1.8476
 43
1.0000
 50
180.0000
  0
INSERT
  8
31
  2
RECT
 10
40.6800
 20
23.5500
 30
0.0000
 41
2.3476
 42
1.8476
 43
1.0000
 50
180.0000
  0
INSERT
  8
31
  2
RECT
 10
40.6800
 20
17.4500
 30
0.0000
 41
2.3476
 42
0.3476
 43
1.0000
 50
180.0000
  0
INSERT
  8
31
  2
RECT
 10
36.5900
 20
18.1000
 30
0.0000
 41
1.0476
 42
0.4476
 43
1.0000
 50
180.0000
  0
INSERT
  8
31
  2
RECT
 10
36.5900
 20
19.0500
 30
0.0000
 41
1.0476
 42
0.4476
 43
1.0000
 50
180.0000
  0
INSERT
  8
31
  2
RECT
 10
36.5900
 20
20.0000
 30
0.0000
 41
1.0476
 42
0.4476
 43
1.0000
 50
180.0000
  0
INSERT
  8
31
  2
RECT
 10
34.2900
 20
20.0000
 30
0.0000
 41
1.0476
 42
0.4476
 43
1.0000
 50
180.0000
  0
INSERT
  8
31
  2
RECT
 10
34.2900
 20
19.0500
 30
0.0000
 41
1.0476
 42
0.4476
 43
1.0000
 50
180.0000
  0
INSERT
  8
31
  2
RECT
 10
34.2900
 20
18.1000
 30
0.0000
 41
1.0476
 42
0.4476
 43
1.0000
 50
180.0000
  0
INSERT
  8
31
  2
RECT
 10
15.2400
 20
14.6250
 30
0.0000
 41
0.9476
 42
1.7476
 43
1.0000
 50
90.0000
  0
INSERT
  8
31
  2
RECT
 10
15.2400
 20
17.1250
 30
0.0000
 41
0.9476
 42
1.7476
 43
1.0000
 50
90.0000
  0
ENDSEC
  0
EOF
